M48
;DRILL file {KiCad (2017-09-22 revision df472e6)-master} date Mon Dec 25 08:16:27 2017
;FORMAT={-:-/ absolute / inch / decimal}
FMAT,2
INCH,TZ
T1C0.016
T2C0.031
T3C0.039
T4C0.040
T5C0.120
%
G90
G05
M72
T1
X3.9035Y-4.3031
X3.9114Y-2.6122
X3.9173Y-3.0374
X3.9665Y-4.7244
X3.9724Y-4.9055
X4.0236Y-5.0886
X4.2323Y-3.7933
X4.3051Y-3.313
X4.3917Y-3.6378
X4.3937Y-5.0965
X4.4114Y-3.2795
X4.4508Y-3.4114
X4.4941Y-3.561
X4.5039Y-3.6516
X4.5354Y-3.248
X4.6004Y-3.5098
X4.6043Y-3.622
X4.6358Y-4.0551
X4.6831Y-3.9665
X4.687Y-3.8071
X4.6988Y-3.3622
X4.9232Y-2.7835
X5.0335Y-4.2697
X5.0335Y-4.7343
X5.0945Y-4.126
X5.1161Y-4.4902
X5.1181Y-4.9134
X5.2165Y-3.3819
T2
X4.3465Y-4.189
X4.3465Y-4.289
X4.3465Y-4.389
X4.3465Y-4.489
X4.3465Y-4.589
X4.3465Y-4.689
X4.3465Y-4.789
X4.3465Y-4.889
X4.6465Y-4.189
X4.6465Y-4.289
X4.6465Y-4.389
X4.6465Y-4.489
X4.6465Y-4.589
X4.6465Y-4.689
X4.6465Y-4.789
X4.6465Y-4.889
X4.3701Y-2.4803
X4.3701Y-2.5803
X4.3701Y-2.6803
X4.3701Y-2.7803
X4.3701Y-2.8803
X4.3701Y-2.9803
X4.3701Y-3.0803
X4.3701Y-3.1803
X4.6701Y-2.4803
X4.6701Y-2.5803
X4.6701Y-2.6803
X4.6701Y-2.7803
X4.6701Y-2.8803
X4.6701Y-2.9803
X4.6701Y-3.0803
X4.6701Y-3.1803
T4
X5.3098Y-4.1457
X5.4098Y-4.1457
X5.5098Y-4.1457
X5.3098Y-3.2756
X5.4098Y-3.2756
X5.5098Y-3.2756
X5.3Y-4.6654
X5.4Y-4.6654
X5.5Y-4.6654
X5.3Y-3.5256
X5.4Y-3.5256
X5.5Y-3.5256
X5.2197Y-2.626
X5.2197Y-2.726
X5.3197Y-2.626
X5.3197Y-2.726
X5.4197Y-2.626
X5.4197Y-2.726
X5.5197Y-2.626
X5.5197Y-2.726
X3.8909Y-3.4504
X3.8909Y-3.5604
X3.8909Y-3.6654
X3.8909Y-3.7754
X3.8909Y-3.8854
X3.8909Y-3.9904
X3.8909Y-4.1004
X3.8909Y-4.2054
X4.0009Y-3.5054
X4.0009Y-3.6154
X4.0009Y-3.7204
X4.0009Y-3.8304
X4.0009Y-3.9354
X4.0009Y-4.0454
X4.0009Y-4.1554
X5.3098Y-3.7697
X5.4098Y-3.7697
X5.5098Y-3.7697
X5.2126Y-2.9335
X5.2126Y-3.0335
X5.3126Y-2.9335
X5.3126Y-3.0335
X5.4126Y-2.9335
X5.4126Y-3.0335
X5.5126Y-2.9335
X5.5126Y-3.0335
X5.3059Y-4.4094
X5.4059Y-4.4094
X5.5059Y-4.4094
X5.2157Y-2.2894
X5.2157Y-2.3894
X5.3157Y-2.2894
X5.3157Y-2.3894
X5.4157Y-2.2894
X5.4157Y-2.3894
X5.5157Y-2.2894
X5.5157Y-2.3894
X5.2902Y-4.8957
X5.3902Y-4.8957
X5.4902Y-4.8957
T5
X3.9459Y-3.1754
X3.9459Y-4.4854
T3
X3.8898Y-2.3465G85X3.8898Y-2.4252
G05
X4.1142Y-2.2677G85X4.0355Y-2.2677
G05
X4.1142Y-2.5039G85X4.0355Y-2.5039
G05
T0
M30
