G04 #@! TF.GenerationSoftware,KiCad,Pcbnew,(2017-09-22 revision df472e6)-master*
G04 #@! TF.CreationDate,2017-12-25T08:16:24-08:00*
G04 #@! TF.ProjectId,ody_adap,6F64795F616461702E6B696361645F70,rev?*
G04 #@! TF.SameCoordinates,Original*
G04 #@! TF.FileFunction,Copper,L1,Top,Signal*
G04 #@! TF.FilePolarity,Positive*
%FSLAX46Y46*%
G04 Gerber Fmt 4.6, Leading zero omitted, Abs format (unit mm)*
G04 Created by KiCad (PCBNEW (2017-09-22 revision df472e6)-master) date Mon Dec 25 08:16:24 2017*
%MOMM*%
%LPD*%
G01*
G04 APERTURE LIST*
%ADD10R,2.000000X2.500000*%
%ADD11R,2.000000X1.600000*%
%ADD12R,2.500000X2.000000*%
%ADD13R,1.000000X1.600000*%
%ADD14R,3.500120X3.500120*%
%ADD15C,3.810000*%
%ADD16R,1.524000X1.524000*%
%ADD17C,1.524000*%
%ADD18O,1.727200X2.032000*%
%ADD19R,1.727200X2.032000*%
%ADD20O,1.727200X1.727200*%
%ADD21R,1.727200X1.727200*%
%ADD22R,0.800100X0.800100*%
%ADD23R,2.000000X1.700000*%
%ADD24R,1.700000X2.000000*%
%ADD25O,1.600000X1.600000*%
%ADD26C,0.800000*%
%ADD27C,0.250000*%
%ADD28C,1.000000*%
%ADD29C,0.254000*%
G04 APERTURE END LIST*
D10*
X103100000Y-124300000D03*
X107100000Y-124300000D03*
X126300000Y-85100000D03*
X130300000Y-85100000D03*
D11*
X113600000Y-129300000D03*
X117600000Y-129300000D03*
D12*
X129350000Y-102800000D03*
X129350000Y-98800000D03*
D10*
X103700000Y-74750000D03*
X99700000Y-74750000D03*
D11*
X106800000Y-120150000D03*
X102800000Y-120150000D03*
D10*
X103950000Y-69150000D03*
X99950000Y-69150000D03*
X104450000Y-129250000D03*
X108450000Y-129250000D03*
D13*
X116550000Y-84850000D03*
X113550000Y-84850000D03*
D14*
X103500000Y-63600140D03*
X103500000Y-57600660D03*
X98801000Y-60600400D03*
D15*
X100227000Y-113929000D03*
X100227000Y-80655000D03*
D16*
X98830000Y-87640000D03*
D17*
X98830000Y-90434000D03*
X98830000Y-93101000D03*
X98830000Y-95895000D03*
X98830000Y-98689000D03*
X98830000Y-101356000D03*
X98830000Y-104150000D03*
X98830000Y-106817000D03*
X101624000Y-89037000D03*
X101624000Y-91831000D03*
X101624000Y-94498000D03*
X101624000Y-97292000D03*
X101624000Y-99959000D03*
X101624000Y-102753000D03*
X101624000Y-105547000D03*
D18*
X134370000Y-124350000D03*
X136910000Y-124350000D03*
D19*
X139450000Y-124350000D03*
D18*
X134770000Y-112000000D03*
X137310000Y-112000000D03*
D19*
X139850000Y-112000000D03*
X139950000Y-105300000D03*
D18*
X137410000Y-105300000D03*
X134870000Y-105300000D03*
D19*
X139700000Y-118500000D03*
D18*
X137160000Y-118500000D03*
X134620000Y-118500000D03*
D20*
X132480000Y-60690000D03*
X132480000Y-58150000D03*
X135020000Y-60690000D03*
X135020000Y-58150000D03*
X137560000Y-60690000D03*
X137560000Y-58150000D03*
X140100000Y-60690000D03*
D21*
X140100000Y-58150000D03*
X140200000Y-66700000D03*
D20*
X140200000Y-69240000D03*
X137660000Y-66700000D03*
X137660000Y-69240000D03*
X135120000Y-66700000D03*
X135120000Y-69240000D03*
X132580000Y-66700000D03*
X132580000Y-69240000D03*
D21*
X132400000Y-77050000D03*
D20*
X132400000Y-74510000D03*
X134940000Y-77050000D03*
X134940000Y-74510000D03*
X137480000Y-77050000D03*
X137480000Y-74510000D03*
X140020000Y-77050000D03*
X140020000Y-74510000D03*
D19*
X139950000Y-95750000D03*
D18*
X137410000Y-95750000D03*
X134870000Y-95750000D03*
D19*
X139950000Y-83200000D03*
D18*
X137410000Y-83200000D03*
X134870000Y-83200000D03*
X134620000Y-89550000D03*
X137160000Y-89550000D03*
D19*
X139700000Y-89550000D03*
D22*
X125250000Y-118401780D03*
X126200000Y-120400760D03*
X124300000Y-120400760D03*
X124150000Y-108300760D03*
X126050000Y-108300760D03*
X125100000Y-106301780D03*
D23*
X123700000Y-124900000D03*
X127700000Y-124900000D03*
X127800000Y-113700000D03*
X123800000Y-113700000D03*
D24*
X122450000Y-57450000D03*
X122450000Y-61450000D03*
X126450000Y-61600000D03*
X126450000Y-57600000D03*
X122400000Y-79600000D03*
X122400000Y-75600000D03*
X126100000Y-75800000D03*
X126100000Y-79800000D03*
D23*
X124700000Y-94600000D03*
X120700000Y-94600000D03*
X114200000Y-88500000D03*
X110200000Y-88500000D03*
X124800000Y-98700000D03*
X120800000Y-98700000D03*
X120200000Y-89150000D03*
X124200000Y-89150000D03*
X110500000Y-94500000D03*
X114500000Y-94500000D03*
X114500000Y-98600000D03*
X110500000Y-98600000D03*
D25*
X110400000Y-106400000D03*
X110400000Y-108940000D03*
X110400000Y-111480000D03*
X110400000Y-114020000D03*
X110400000Y-116560000D03*
X110400000Y-119100000D03*
X110400000Y-121640000D03*
X110400000Y-124180000D03*
X118020000Y-124180000D03*
X118020000Y-121640000D03*
X118020000Y-119100000D03*
X118020000Y-116560000D03*
X118020000Y-114020000D03*
X118020000Y-111480000D03*
X118020000Y-108940000D03*
X118020000Y-106400000D03*
X118620000Y-63000000D03*
X118620000Y-65540000D03*
X118620000Y-68080000D03*
X118620000Y-70620000D03*
X118620000Y-73160000D03*
X118620000Y-75700000D03*
X118620000Y-78240000D03*
X118620000Y-80780000D03*
X111000000Y-80780000D03*
X111000000Y-78240000D03*
X111000000Y-75700000D03*
X111000000Y-73160000D03*
X111000000Y-70620000D03*
X111000000Y-68080000D03*
X111000000Y-65540000D03*
X111000000Y-63000000D03*
D26*
X99500000Y-77150000D03*
X113050000Y-86650000D03*
X99350000Y-66350000D03*
X127850000Y-120250000D03*
X111600000Y-129450000D03*
X129400000Y-104800000D03*
X127850000Y-108450000D03*
X129950000Y-114050000D03*
X130000000Y-124800000D03*
X102200000Y-129250000D03*
X100900000Y-124600000D03*
X100750000Y-120000000D03*
X132500000Y-85900000D03*
X99150000Y-109300000D03*
X125050000Y-70700000D03*
X119050000Y-96700000D03*
X115200000Y-82500000D03*
X116850000Y-89150000D03*
X117750000Y-103000000D03*
X114150000Y-90450000D03*
X116950000Y-92000000D03*
X107500000Y-96350000D03*
X118950000Y-100750000D03*
X119350000Y-85400000D03*
X112050000Y-83300000D03*
X114400000Y-92750000D03*
X109350000Y-84150000D03*
X111550000Y-92400000D03*
D27*
X99700000Y-74750000D02*
X99700000Y-76950000D01*
X99700000Y-76950000D02*
X99500000Y-77150000D01*
X113550000Y-84850000D02*
X113550000Y-86150000D01*
X113550000Y-86150000D02*
X113050000Y-86650000D01*
X99950000Y-69150000D02*
X99950000Y-66950000D01*
X99950000Y-66950000D02*
X99350000Y-66350000D01*
X126200000Y-120400760D02*
X127699240Y-120400760D01*
X127699240Y-120400760D02*
X127850000Y-120250000D01*
X113600000Y-129300000D02*
X111750000Y-129300000D01*
X111750000Y-129300000D02*
X111600000Y-129450000D01*
X129350000Y-102800000D02*
X129350000Y-104750000D01*
X129350000Y-104750000D02*
X129400000Y-104800000D01*
X126050000Y-108300760D02*
X127700760Y-108300760D01*
X127700760Y-108300760D02*
X127850000Y-108450000D01*
X127800000Y-113700000D02*
X129600000Y-113700000D01*
X129600000Y-113700000D02*
X129950000Y-114050000D01*
X127700000Y-124900000D02*
X129900000Y-124900000D01*
X129900000Y-124900000D02*
X130000000Y-124800000D01*
X104450000Y-129250000D02*
X102200000Y-129250000D01*
X103100000Y-124300000D02*
X101200000Y-124300000D01*
X101200000Y-124300000D02*
X100900000Y-124600000D01*
X102800000Y-120150000D02*
X100900000Y-120150000D01*
X100900000Y-120150000D02*
X100750000Y-120000000D01*
X130300000Y-85100000D02*
X131700000Y-85100000D01*
X131700000Y-85100000D02*
X132500000Y-85900000D01*
D28*
X116550000Y-84850000D02*
X117650000Y-84850000D01*
X124850000Y-83650000D02*
X126300000Y-85100000D01*
X118850000Y-83650000D02*
X124850000Y-83650000D01*
X117650000Y-84850000D02*
X118850000Y-83650000D01*
X118620000Y-80780000D02*
X121220000Y-80780000D01*
X121220000Y-80780000D02*
X122400000Y-79600000D01*
X122400000Y-80700000D02*
X122400000Y-79600000D01*
D27*
X101765000Y-93101000D02*
X98830000Y-93101000D01*
X112524000Y-103860000D02*
X101765000Y-93101000D01*
X112524000Y-115199000D02*
X112524000Y-103860000D01*
X117606000Y-120281000D02*
X112524000Y-115199000D01*
X122694000Y-120281000D02*
X117606000Y-120281000D01*
X123800000Y-119175000D02*
X122694000Y-120281000D01*
X123800000Y-113700000D02*
X123800000Y-119175000D01*
X124300000Y-119675000D02*
X124300000Y-120400800D01*
X123800000Y-119175000D02*
X124300000Y-119675000D01*
X123700000Y-123725000D02*
X123700000Y-124900000D01*
X124300000Y-123125000D02*
X123700000Y-123725000D01*
X124300000Y-120400800D02*
X124300000Y-123125000D01*
X124150000Y-112175000D02*
X124150000Y-108301000D01*
X123800000Y-112525000D02*
X124150000Y-112175000D01*
X123800000Y-113700000D02*
X123800000Y-112525000D01*
X124150000Y-108301000D02*
X124150000Y-108300800D01*
X108910000Y-116560000D02*
X110400000Y-116560000D01*
X102200000Y-109850000D02*
X108910000Y-116560000D01*
X99700000Y-109850000D02*
X102200000Y-109850000D01*
X99150000Y-109300000D02*
X99700000Y-109850000D01*
X98830000Y-106817000D02*
X100567000Y-106817000D01*
X107770000Y-114020000D02*
X110400000Y-114020000D01*
X100567000Y-106817000D02*
X107770000Y-114020000D01*
X110400000Y-119100000D02*
X110400000Y-119050000D01*
X110400000Y-119050000D02*
X111800000Y-117650000D01*
X111800000Y-117650000D02*
X111800000Y-104550000D01*
X111800000Y-104550000D02*
X109150000Y-101900000D01*
X109150000Y-101900000D02*
X109150000Y-102024000D01*
X109275000Y-102149000D02*
X109150000Y-102024000D01*
X109150000Y-102024000D02*
X101624000Y-94498000D01*
X125250000Y-124790000D02*
X125250000Y-118402000D01*
X126557000Y-126097000D02*
X125250000Y-124790000D01*
X137034000Y-126097000D02*
X126557000Y-126097000D01*
X138261000Y-124870000D02*
X137034000Y-126097000D01*
X138261000Y-124350000D02*
X138261000Y-124870000D01*
X139450000Y-124350000D02*
X138261000Y-124350000D01*
X125250000Y-118402000D02*
X125250000Y-118401800D01*
X125100200Y-106302000D02*
X125100000Y-106302000D01*
X133446000Y-106302000D02*
X125100200Y-106302000D01*
X138661000Y-111517000D02*
X133446000Y-106302000D01*
X138661000Y-112000000D02*
X138661000Y-111517000D01*
X139850000Y-112000000D02*
X138661000Y-112000000D01*
X125100200Y-106302000D02*
X125100000Y-106301800D01*
X121275000Y-61450000D02*
X122450000Y-61450000D01*
X119745000Y-62979400D02*
X121275000Y-61450000D01*
X119745000Y-63000000D02*
X119745000Y-62979400D01*
X118620000Y-63000000D02*
X119745000Y-63000000D01*
X133791000Y-68028700D02*
X132580000Y-69240000D01*
X133791000Y-63190200D02*
X133791000Y-68028700D01*
X132480000Y-61878900D02*
X133791000Y-63190200D01*
X132480000Y-60690000D02*
X132480000Y-61878900D01*
X140200000Y-65511100D02*
X140200000Y-66700000D01*
X138892000Y-64203200D02*
X140200000Y-65511100D01*
X138892000Y-60215900D02*
X138892000Y-64203200D01*
X139769000Y-59338900D02*
X138892000Y-60215900D01*
X140100000Y-59338900D02*
X139769000Y-59338900D01*
X140100000Y-58150000D02*
X140100000Y-59338900D01*
X126100000Y-75800000D02*
X126100000Y-71750000D01*
X126100000Y-71750000D02*
X125050000Y-70700000D01*
X126100000Y-73997400D02*
X126100000Y-75800000D01*
X132208000Y-67888900D02*
X126100000Y-73997400D01*
X132580000Y-67888900D02*
X132208000Y-67888900D01*
X132580000Y-66700000D02*
X132580000Y-67888900D01*
X140200000Y-70428900D02*
X140200000Y-69240000D01*
X141209000Y-71437800D02*
X140200000Y-70428900D01*
X141209000Y-75043800D02*
X141209000Y-71437800D01*
X140392000Y-75861100D02*
X141209000Y-75043800D01*
X140020000Y-75861100D02*
X140392000Y-75861100D01*
X140020000Y-77050000D02*
X140020000Y-75861100D01*
X127625000Y-61600000D02*
X126450000Y-61600000D01*
X129724000Y-59501100D02*
X127625000Y-61600000D01*
X133014000Y-59501100D02*
X129724000Y-59501100D01*
X133831000Y-60318400D02*
X133014000Y-59501100D01*
X133831000Y-60690000D02*
X133831000Y-60318400D01*
X135020000Y-60690000D02*
X133831000Y-60690000D01*
X137560000Y-59338900D02*
X137560000Y-58150000D01*
X137188000Y-59338900D02*
X137560000Y-59338900D01*
X136209000Y-60318500D02*
X137188000Y-59338900D01*
X136209000Y-60690000D02*
X136209000Y-60318500D01*
X135020000Y-60690000D02*
X136209000Y-60690000D01*
X137660000Y-67888900D02*
X137660000Y-66700000D01*
X137288000Y-67888900D02*
X137660000Y-67888900D01*
X136309000Y-68868500D02*
X137288000Y-67888900D01*
X136309000Y-69240000D02*
X136309000Y-68868500D01*
X135120000Y-69240000D02*
X136309000Y-69240000D01*
X134940000Y-75861100D02*
X134940000Y-77050000D01*
X134580000Y-75861100D02*
X134940000Y-75861100D01*
X133735000Y-75016700D02*
X134580000Y-75861100D01*
X133735000Y-71813600D02*
X133735000Y-75016700D01*
X135120000Y-70428900D02*
X133735000Y-71813600D01*
X135120000Y-69240000D02*
X135120000Y-70428900D01*
X121335000Y-65540000D02*
X118620000Y-65540000D01*
X125275000Y-61600000D02*
X121335000Y-65540000D01*
X126450000Y-61600000D02*
X125275000Y-61600000D01*
X122400000Y-72704000D02*
X122400000Y-75600000D01*
X118901000Y-69205300D02*
X122400000Y-72704000D01*
X118620000Y-69205300D02*
X118901000Y-69205300D01*
X118620000Y-68080000D02*
X118620000Y-69205300D01*
X136209000Y-58150000D02*
X135020000Y-58150000D01*
X136209000Y-57778400D02*
X136209000Y-58150000D01*
X137026000Y-56961100D02*
X136209000Y-57778400D01*
X138056000Y-56961100D02*
X137026000Y-56961100D01*
X138765000Y-57670500D02*
X138056000Y-56961100D01*
X138765000Y-59484600D02*
X138765000Y-57670500D01*
X137560000Y-60690000D02*
X138765000Y-59484600D01*
X135120000Y-65511100D02*
X136666000Y-63965400D01*
X135120000Y-66700000D02*
X135120000Y-65511100D01*
X137560000Y-63071100D02*
X137560000Y-60690000D01*
X136666000Y-63965400D02*
X137560000Y-63071100D01*
X138898000Y-68001600D02*
X137660000Y-69240000D01*
X138898000Y-66198200D02*
X138898000Y-68001600D01*
X136666000Y-63965400D02*
X138898000Y-66198200D01*
X137480000Y-75861100D02*
X137480000Y-77050000D01*
X137852000Y-75861100D02*
X137480000Y-75861100D01*
X138669000Y-75043800D02*
X137852000Y-75861100D01*
X138669000Y-71437800D02*
X138669000Y-75043800D01*
X137660000Y-70428900D02*
X138669000Y-71437800D01*
X137660000Y-69240000D02*
X137660000Y-70428900D01*
X119050000Y-96700000D02*
X120700000Y-95050000D01*
X120700000Y-95050000D02*
X120700000Y-94600000D01*
X120700000Y-93424700D02*
X120274700Y-93424700D01*
X120700000Y-94600000D02*
X120700000Y-93424700D01*
X115650000Y-82050000D02*
X115650000Y-68450000D01*
X115200000Y-82500000D02*
X115650000Y-82050000D01*
X116850000Y-90000000D02*
X116850000Y-89150000D01*
X120274700Y-93424700D02*
X116850000Y-90000000D01*
X111000000Y-64125300D02*
X111000000Y-63000000D01*
X111281000Y-64125300D02*
X111000000Y-64125300D01*
X115525000Y-68369400D02*
X111281000Y-64125300D01*
X117750000Y-103000000D02*
X117550000Y-102800000D01*
X117550000Y-102800000D02*
X117550000Y-93105000D01*
X117550000Y-93105000D02*
X116895000Y-92450000D01*
X116895000Y-92450000D02*
X116895000Y-92055000D01*
X114200000Y-90400000D02*
X114200000Y-88500000D01*
X114150000Y-90450000D02*
X114200000Y-90400000D01*
X116895000Y-92055000D02*
X116950000Y-92000000D01*
X116895000Y-92370000D02*
X116895000Y-92450000D01*
X114200000Y-88500000D02*
X114200000Y-89675300D01*
X111000000Y-66665300D02*
X111000000Y-65540000D01*
X114200000Y-88500000D02*
X114200000Y-87324700D01*
X114200000Y-87324700D02*
X114461000Y-87063800D01*
X114461000Y-87063800D02*
X114461000Y-69844900D01*
X114461000Y-69844900D02*
X111281000Y-66665300D01*
X111281000Y-66665300D02*
X111000000Y-66665300D01*
X120800000Y-98700000D02*
X120800000Y-98900000D01*
X120800000Y-98900000D02*
X118950000Y-100750000D01*
X107800000Y-71280000D02*
X111000000Y-68080000D01*
X107800000Y-96050000D02*
X107800000Y-71280000D01*
X107500000Y-96350000D02*
X107800000Y-96050000D01*
X118020000Y-111480000D02*
X118020000Y-111180000D01*
X118020000Y-111180000D02*
X120800000Y-108400000D01*
X120800000Y-108400000D02*
X120800000Y-98700000D01*
X120200000Y-89150000D02*
X120200000Y-86200000D01*
X119400000Y-85400000D02*
X119350000Y-85400000D01*
X120200000Y-86200000D02*
X119400000Y-85400000D01*
X120200000Y-90325300D02*
X120200000Y-89150000D01*
X122126000Y-92251400D02*
X120200000Y-90325300D01*
X122126000Y-109070000D02*
X122126000Y-92251400D01*
X118301000Y-112895000D02*
X122126000Y-109070000D01*
X118020000Y-112895000D02*
X118301000Y-112895000D01*
X118020000Y-114020000D02*
X118020000Y-112895000D01*
X114500000Y-93450000D02*
X114500000Y-92850000D01*
X112705252Y-82644748D02*
X112794732Y-82644748D01*
X112050000Y-83300000D02*
X112705252Y-82644748D01*
X114500000Y-92850000D02*
X114400000Y-92750000D01*
X118020000Y-115435000D02*
X118020000Y-116560000D01*
X117738000Y-115435000D02*
X118020000Y-115435000D01*
X116203000Y-113899000D02*
X117738000Y-115435000D01*
X116203000Y-97378500D02*
X116203000Y-113899000D01*
X114500000Y-95675300D02*
X116203000Y-97378500D01*
X114500000Y-94500000D02*
X114500000Y-95675300D01*
X114500000Y-93324700D02*
X114500000Y-93450000D01*
X114500000Y-93450000D02*
X114500000Y-94500000D01*
X113073000Y-82366400D02*
X112794732Y-82644748D01*
X113073000Y-76076600D02*
X113073000Y-82366400D01*
X111281000Y-74285300D02*
X113073000Y-76076600D01*
X111000000Y-74285300D02*
X111281000Y-74285300D01*
X111000000Y-73160000D02*
X111000000Y-74285300D01*
X112794732Y-82644748D02*
X112725000Y-82714500D01*
X109300000Y-82350000D02*
X109300000Y-84100000D01*
X109300000Y-84100000D02*
X109350000Y-84150000D01*
X112224000Y-95148500D02*
X112224000Y-93074000D01*
X112224000Y-93074000D02*
X111550000Y-92400000D01*
X114500000Y-98600000D02*
X114500000Y-97424700D01*
X114500000Y-97424700D02*
X112224000Y-95148500D01*
X109300000Y-76950000D02*
X110550000Y-75700000D01*
X109300000Y-83150000D02*
X109300000Y-82350000D01*
X109300000Y-82350000D02*
X109300000Y-76950000D01*
X110550000Y-75700000D02*
X111000000Y-75700000D01*
X114500000Y-114736000D02*
X114500000Y-98600000D01*
X117739000Y-117975000D02*
X114500000Y-114736000D01*
X118020000Y-117975000D02*
X117739000Y-117975000D01*
X118020000Y-119100000D02*
X118020000Y-117975000D01*
D29*
G36*
X141790000Y-53775158D02*
X141790000Y-70965650D01*
X141746401Y-70900399D01*
X141746387Y-70900389D01*
X141746375Y-70900372D01*
X141208901Y-70362952D01*
X141259670Y-70329029D01*
X141584526Y-69842848D01*
X141698600Y-69269359D01*
X141698600Y-69210641D01*
X141584526Y-68637152D01*
X141272096Y-68169568D01*
X141311365Y-68161757D01*
X141521409Y-68021409D01*
X141661757Y-67811365D01*
X141711040Y-67563600D01*
X141711040Y-65836400D01*
X141661757Y-65588635D01*
X141521409Y-65378591D01*
X141311365Y-65238243D01*
X141063600Y-65188960D01*
X140881239Y-65188960D01*
X140817324Y-65093312D01*
X140737401Y-64973699D01*
X140737389Y-64973691D01*
X140737381Y-64973679D01*
X139652000Y-63888380D01*
X139652000Y-62128846D01*
X140100000Y-62217959D01*
X140673489Y-62103885D01*
X141159670Y-61779029D01*
X141484526Y-61292848D01*
X141598600Y-60719359D01*
X141598600Y-60660641D01*
X141484526Y-60087152D01*
X141172096Y-59619568D01*
X141211365Y-59611757D01*
X141421409Y-59471409D01*
X141561757Y-59261365D01*
X141611040Y-59013600D01*
X141611040Y-57286400D01*
X141561757Y-57038635D01*
X141421409Y-56828591D01*
X141211365Y-56688243D01*
X140963600Y-56638960D01*
X139236400Y-56638960D01*
X138988635Y-56688243D01*
X138910186Y-56740662D01*
X138593553Y-56423850D01*
X138593461Y-56423788D01*
X138593401Y-56423699D01*
X138471360Y-56342154D01*
X138347037Y-56259034D01*
X138346930Y-56259013D01*
X138346839Y-56258952D01*
X138201545Y-56230051D01*
X138056214Y-56201100D01*
X138056107Y-56201121D01*
X138056000Y-56201100D01*
X137026000Y-56201100D01*
X137025931Y-56201114D01*
X137025861Y-56201100D01*
X136879629Y-56230215D01*
X136735161Y-56258952D01*
X136735103Y-56258991D01*
X136735032Y-56259005D01*
X136609218Y-56343104D01*
X136488599Y-56423699D01*
X136488561Y-56423757D01*
X136488500Y-56423797D01*
X135942908Y-56969590D01*
X135593489Y-56736115D01*
X135020000Y-56622041D01*
X134446511Y-56736115D01*
X133960330Y-57060971D01*
X133750000Y-57375752D01*
X133539670Y-57060971D01*
X133053489Y-56736115D01*
X132480000Y-56622041D01*
X131906511Y-56736115D01*
X131420330Y-57060971D01*
X131095474Y-57547152D01*
X130981400Y-58120641D01*
X130981400Y-58179359D01*
X131093137Y-58741100D01*
X129724000Y-58741100D01*
X129579366Y-58769870D01*
X129433178Y-58798945D01*
X129433170Y-58798950D01*
X129433161Y-58798952D01*
X129309251Y-58881746D01*
X129186612Y-58963686D01*
X127858039Y-60292195D01*
X127757809Y-60142191D01*
X127547765Y-60001843D01*
X127300000Y-59952560D01*
X125600000Y-59952560D01*
X125352235Y-60001843D01*
X125142191Y-60142191D01*
X125001843Y-60352235D01*
X124952560Y-60600000D01*
X124952560Y-60918966D01*
X124737599Y-61062599D01*
X123947440Y-61852758D01*
X123947440Y-60450000D01*
X123898157Y-60202235D01*
X123757809Y-59992191D01*
X123547765Y-59851843D01*
X123300000Y-59802560D01*
X121600000Y-59802560D01*
X121352235Y-59851843D01*
X121142191Y-59992191D01*
X121001843Y-60202235D01*
X120952560Y-60450000D01*
X120952560Y-60768967D01*
X120860940Y-60830185D01*
X120737705Y-60912493D01*
X119663477Y-61986299D01*
X119662811Y-61985302D01*
X119197264Y-61674233D01*
X118648113Y-61565000D01*
X118591887Y-61565000D01*
X118042736Y-61674233D01*
X117577189Y-61985302D01*
X117266120Y-62450849D01*
X117156887Y-63000000D01*
X117266120Y-63549151D01*
X117577189Y-64014698D01*
X117959275Y-64270000D01*
X117577189Y-64525302D01*
X117266120Y-64990849D01*
X117156887Y-65540000D01*
X117266120Y-66089151D01*
X117577189Y-66554698D01*
X117959275Y-66810000D01*
X117577189Y-67065302D01*
X117266120Y-67530849D01*
X117156887Y-68080000D01*
X117266120Y-68629151D01*
X117577189Y-69094698D01*
X117877978Y-69295679D01*
X117897053Y-69391576D01*
X117577189Y-69605302D01*
X117266120Y-70070849D01*
X117156887Y-70620000D01*
X117266120Y-71169151D01*
X117577189Y-71634698D01*
X117959275Y-71890000D01*
X117577189Y-72145302D01*
X117266120Y-72610849D01*
X117156887Y-73160000D01*
X117266120Y-73709151D01*
X117577189Y-74174698D01*
X117959275Y-74430000D01*
X117577189Y-74685302D01*
X117266120Y-75150849D01*
X117156887Y-75700000D01*
X117266120Y-76249151D01*
X117577189Y-76714698D01*
X117959275Y-76970000D01*
X117577189Y-77225302D01*
X117266120Y-77690849D01*
X117156887Y-78240000D01*
X117266120Y-78789151D01*
X117577189Y-79254698D01*
X117981703Y-79524986D01*
X117764866Y-79627611D01*
X117388959Y-80042577D01*
X117228096Y-80430961D01*
X117350085Y-80653000D01*
X118493000Y-80653000D01*
X118493000Y-80633000D01*
X118747000Y-80633000D01*
X118747000Y-80653000D01*
X119889915Y-80653000D01*
X120011904Y-80430961D01*
X119851041Y-80042577D01*
X119708976Y-79885750D01*
X120915000Y-79885750D01*
X120915000Y-80726309D01*
X121011673Y-80959698D01*
X121190301Y-81138327D01*
X121423690Y-81235000D01*
X122114250Y-81235000D01*
X122273000Y-81076250D01*
X122273000Y-79727000D01*
X122527000Y-79727000D01*
X122527000Y-81076250D01*
X122685750Y-81235000D01*
X123376310Y-81235000D01*
X123609699Y-81138327D01*
X123788327Y-80959698D01*
X123885000Y-80726309D01*
X123885000Y-80085750D01*
X124615000Y-80085750D01*
X124615000Y-80926309D01*
X124711673Y-81159698D01*
X124890301Y-81338327D01*
X125123690Y-81435000D01*
X125814250Y-81435000D01*
X125973000Y-81276250D01*
X125973000Y-79927000D01*
X126227000Y-79927000D01*
X126227000Y-81276250D01*
X126385750Y-81435000D01*
X127076310Y-81435000D01*
X127309699Y-81338327D01*
X127488327Y-81159698D01*
X127585000Y-80926309D01*
X127585000Y-80085750D01*
X127426250Y-79927000D01*
X126227000Y-79927000D01*
X125973000Y-79927000D01*
X124773750Y-79927000D01*
X124615000Y-80085750D01*
X123885000Y-80085750D01*
X123885000Y-79885750D01*
X123726250Y-79727000D01*
X122527000Y-79727000D01*
X122273000Y-79727000D01*
X121073750Y-79727000D01*
X120915000Y-79885750D01*
X119708976Y-79885750D01*
X119475134Y-79627611D01*
X119258297Y-79524986D01*
X119662811Y-79254698D01*
X119973880Y-78789151D01*
X120036628Y-78473691D01*
X120915000Y-78473691D01*
X120915000Y-79314250D01*
X121073750Y-79473000D01*
X122273000Y-79473000D01*
X122273000Y-78123750D01*
X122527000Y-78123750D01*
X122527000Y-79473000D01*
X123726250Y-79473000D01*
X123885000Y-79314250D01*
X123885000Y-78673691D01*
X124615000Y-78673691D01*
X124615000Y-79514250D01*
X124773750Y-79673000D01*
X125973000Y-79673000D01*
X125973000Y-78323750D01*
X126227000Y-78323750D01*
X126227000Y-79673000D01*
X127426250Y-79673000D01*
X127585000Y-79514250D01*
X127585000Y-78673691D01*
X127488327Y-78440302D01*
X127309699Y-78261673D01*
X127076310Y-78165000D01*
X126385750Y-78165000D01*
X126227000Y-78323750D01*
X125973000Y-78323750D01*
X125814250Y-78165000D01*
X125123690Y-78165000D01*
X124890301Y-78261673D01*
X124711673Y-78440302D01*
X124615000Y-78673691D01*
X123885000Y-78673691D01*
X123885000Y-78473691D01*
X123788327Y-78240302D01*
X123609699Y-78061673D01*
X123376310Y-77965000D01*
X122685750Y-77965000D01*
X122527000Y-78123750D01*
X122273000Y-78123750D01*
X122114250Y-77965000D01*
X121423690Y-77965000D01*
X121190301Y-78061673D01*
X121011673Y-78240302D01*
X120915000Y-78473691D01*
X120036628Y-78473691D01*
X120083113Y-78240000D01*
X119973880Y-77690849D01*
X119662811Y-77225302D01*
X119280725Y-76970000D01*
X119662811Y-76714698D01*
X119973880Y-76249151D01*
X120083113Y-75700000D01*
X119973880Y-75150849D01*
X119662811Y-74685302D01*
X119280725Y-74430000D01*
X119662811Y-74174698D01*
X119973880Y-73709151D01*
X120083113Y-73160000D01*
X119973880Y-72610849D01*
X119662811Y-72145302D01*
X119280725Y-71890000D01*
X119662811Y-71634698D01*
X119900300Y-71279271D01*
X121640000Y-73018821D01*
X121640000Y-73952560D01*
X121550000Y-73952560D01*
X121302235Y-74001843D01*
X121092191Y-74142191D01*
X120951843Y-74352235D01*
X120902560Y-74600000D01*
X120902560Y-76600000D01*
X120951843Y-76847765D01*
X121092191Y-77057809D01*
X121302235Y-77198157D01*
X121550000Y-77247440D01*
X123250000Y-77247440D01*
X123497765Y-77198157D01*
X123707809Y-77057809D01*
X123848157Y-76847765D01*
X123897440Y-76600000D01*
X123897440Y-74600000D01*
X123848157Y-74352235D01*
X123707809Y-74142191D01*
X123497765Y-74001843D01*
X123250000Y-73952560D01*
X123160000Y-73952560D01*
X123160000Y-72704000D01*
X123159997Y-72703984D01*
X123160000Y-72703967D01*
X123131649Y-72561474D01*
X123102148Y-72413161D01*
X123102138Y-72413146D01*
X123102135Y-72413130D01*
X123018118Y-72287401D01*
X122937401Y-72166599D01*
X122937387Y-72166590D01*
X122937378Y-72166576D01*
X119743887Y-68973359D01*
X119973880Y-68629151D01*
X120083113Y-68080000D01*
X119973880Y-67530849D01*
X119662811Y-67065302D01*
X119280725Y-66810000D01*
X119662811Y-66554698D01*
X119832995Y-66300000D01*
X121335000Y-66300000D01*
X121625839Y-66242148D01*
X121872401Y-66077401D01*
X125041975Y-62907827D01*
X125142191Y-63057809D01*
X125352235Y-63198157D01*
X125600000Y-63247440D01*
X127300000Y-63247440D01*
X127547765Y-63198157D01*
X127757809Y-63057809D01*
X127898157Y-62847765D01*
X127947440Y-62600000D01*
X127947440Y-62281033D01*
X128029512Y-62226194D01*
X128162388Y-62137414D01*
X130038792Y-60261100D01*
X131060874Y-60261100D01*
X130981400Y-60660641D01*
X130981400Y-60719359D01*
X131095474Y-61292848D01*
X131420330Y-61779029D01*
X131743024Y-61994646D01*
X131749093Y-62025161D01*
X131777819Y-62169659D01*
X131777843Y-62169695D01*
X131777852Y-62169739D01*
X131858623Y-62290622D01*
X131942537Y-62416240D01*
X133031000Y-63504952D01*
X133031000Y-65261750D01*
X132580000Y-65172041D01*
X132006511Y-65286115D01*
X131520330Y-65610971D01*
X131195474Y-66097152D01*
X131081400Y-66670641D01*
X131081400Y-66729359D01*
X131195474Y-67302848D01*
X131405278Y-67616842D01*
X126860000Y-72162492D01*
X126860000Y-71750000D01*
X126802148Y-71459161D01*
X126802148Y-71459160D01*
X126637401Y-71212599D01*
X126085035Y-70660233D01*
X126085179Y-70495029D01*
X125927942Y-70114485D01*
X125637046Y-69823081D01*
X125256777Y-69665180D01*
X124845029Y-69664821D01*
X124464485Y-69822058D01*
X124173081Y-70112954D01*
X124015180Y-70493223D01*
X124014821Y-70904971D01*
X124172058Y-71285515D01*
X124462954Y-71576919D01*
X124843223Y-71734820D01*
X125010164Y-71734966D01*
X125340000Y-72064802D01*
X125340000Y-74152560D01*
X125250000Y-74152560D01*
X125002235Y-74201843D01*
X124792191Y-74342191D01*
X124651843Y-74552235D01*
X124602560Y-74800000D01*
X124602560Y-76800000D01*
X124651843Y-77047765D01*
X124792191Y-77257809D01*
X125002235Y-77398157D01*
X125250000Y-77447440D01*
X126950000Y-77447440D01*
X127197765Y-77398157D01*
X127407809Y-77257809D01*
X127548157Y-77047765D01*
X127597440Y-76800000D01*
X127597440Y-74800000D01*
X127548157Y-74552235D01*
X127407809Y-74342191D01*
X127197765Y-74201843D01*
X127008062Y-74164109D01*
X131248948Y-69922877D01*
X131520330Y-70329029D01*
X132006511Y-70653885D01*
X132580000Y-70767959D01*
X133153489Y-70653885D01*
X133639670Y-70329029D01*
X133850000Y-70014248D01*
X134060330Y-70329029D01*
X134111066Y-70362930D01*
X133197657Y-71276141D01*
X133197634Y-71276176D01*
X133197599Y-71276199D01*
X133114265Y-71400918D01*
X133032884Y-71522685D01*
X133032876Y-71522725D01*
X133032852Y-71522761D01*
X133003444Y-71670605D01*
X132975000Y-71813518D01*
X132975008Y-71813559D01*
X132975000Y-71813600D01*
X132975000Y-73097125D01*
X132973489Y-73096115D01*
X132400000Y-72982041D01*
X131826511Y-73096115D01*
X131340330Y-73420971D01*
X131015474Y-73907152D01*
X130901400Y-74480641D01*
X130901400Y-74539359D01*
X131015474Y-75112848D01*
X131327904Y-75580432D01*
X131288635Y-75588243D01*
X131078591Y-75728591D01*
X130938243Y-75938635D01*
X130888960Y-76186400D01*
X130888960Y-77913600D01*
X130938243Y-78161365D01*
X131078591Y-78371409D01*
X131288635Y-78511757D01*
X131536400Y-78561040D01*
X133263600Y-78561040D01*
X133511365Y-78511757D01*
X133721409Y-78371409D01*
X133861757Y-78161365D01*
X133869441Y-78122733D01*
X133880330Y-78139029D01*
X134366511Y-78463885D01*
X134940000Y-78577959D01*
X135513489Y-78463885D01*
X135999670Y-78139029D01*
X136210000Y-77824248D01*
X136420330Y-78139029D01*
X136906511Y-78463885D01*
X137480000Y-78577959D01*
X138053489Y-78463885D01*
X138539670Y-78139029D01*
X138750000Y-77824248D01*
X138960330Y-78139029D01*
X139446511Y-78463885D01*
X140020000Y-78577959D01*
X140593489Y-78463885D01*
X141079670Y-78139029D01*
X141404526Y-77652848D01*
X141518600Y-77079359D01*
X141518600Y-77020641D01*
X141404526Y-76447152D01*
X141194692Y-76133113D01*
X141746500Y-75581102D01*
X141790000Y-75515973D01*
X141790000Y-131024723D01*
X101821665Y-131290000D01*
X96976795Y-131290000D01*
X96974442Y-129454971D01*
X101164821Y-129454971D01*
X101322058Y-129835515D01*
X101612954Y-130126919D01*
X101993223Y-130284820D01*
X102404971Y-130285179D01*
X102785515Y-130127942D01*
X102802560Y-130110927D01*
X102802560Y-130500000D01*
X102851843Y-130747765D01*
X102992191Y-130957809D01*
X103202235Y-131098157D01*
X103450000Y-131147440D01*
X105450000Y-131147440D01*
X105697765Y-131098157D01*
X105907809Y-130957809D01*
X106048157Y-130747765D01*
X106097440Y-130500000D01*
X106097440Y-129535750D01*
X106815000Y-129535750D01*
X106815000Y-130626310D01*
X106911673Y-130859699D01*
X107090302Y-131038327D01*
X107323691Y-131135000D01*
X108164250Y-131135000D01*
X108323000Y-130976250D01*
X108323000Y-129377000D01*
X108577000Y-129377000D01*
X108577000Y-130976250D01*
X108735750Y-131135000D01*
X109576309Y-131135000D01*
X109809698Y-131038327D01*
X109988327Y-130859699D01*
X110085000Y-130626310D01*
X110085000Y-129654971D01*
X110564821Y-129654971D01*
X110722058Y-130035515D01*
X111012954Y-130326919D01*
X111393223Y-130484820D01*
X111804971Y-130485179D01*
X112031202Y-130391703D01*
X112142191Y-130557809D01*
X112352235Y-130698157D01*
X112600000Y-130747440D01*
X114600000Y-130747440D01*
X114847765Y-130698157D01*
X115057809Y-130557809D01*
X115198157Y-130347765D01*
X115247440Y-130100000D01*
X115247440Y-129585750D01*
X115965000Y-129585750D01*
X115965000Y-130226310D01*
X116061673Y-130459699D01*
X116240302Y-130638327D01*
X116473691Y-130735000D01*
X117314250Y-130735000D01*
X117473000Y-130576250D01*
X117473000Y-129427000D01*
X117727000Y-129427000D01*
X117727000Y-130576250D01*
X117885750Y-130735000D01*
X118726309Y-130735000D01*
X118959698Y-130638327D01*
X119138327Y-130459699D01*
X119235000Y-130226310D01*
X119235000Y-129585750D01*
X119076250Y-129427000D01*
X117727000Y-129427000D01*
X117473000Y-129427000D01*
X116123750Y-129427000D01*
X115965000Y-129585750D01*
X115247440Y-129585750D01*
X115247440Y-128500000D01*
X115222316Y-128373690D01*
X115965000Y-128373690D01*
X115965000Y-129014250D01*
X116123750Y-129173000D01*
X117473000Y-129173000D01*
X117473000Y-128023750D01*
X117727000Y-128023750D01*
X117727000Y-129173000D01*
X119076250Y-129173000D01*
X119235000Y-129014250D01*
X119235000Y-128373690D01*
X119138327Y-128140301D01*
X118959698Y-127961673D01*
X118726309Y-127865000D01*
X117885750Y-127865000D01*
X117727000Y-128023750D01*
X117473000Y-128023750D01*
X117314250Y-127865000D01*
X116473691Y-127865000D01*
X116240302Y-127961673D01*
X116061673Y-128140301D01*
X115965000Y-128373690D01*
X115222316Y-128373690D01*
X115198157Y-128252235D01*
X115057809Y-128042191D01*
X114847765Y-127901843D01*
X114600000Y-127852560D01*
X112600000Y-127852560D01*
X112352235Y-127901843D01*
X112142191Y-128042191D01*
X112001843Y-128252235D01*
X111957022Y-128477567D01*
X111806777Y-128415180D01*
X111395029Y-128414821D01*
X111014485Y-128572058D01*
X110723081Y-128862954D01*
X110565180Y-129243223D01*
X110564821Y-129654971D01*
X110085000Y-129654971D01*
X110085000Y-129535750D01*
X109926250Y-129377000D01*
X108577000Y-129377000D01*
X108323000Y-129377000D01*
X106973750Y-129377000D01*
X106815000Y-129535750D01*
X106097440Y-129535750D01*
X106097440Y-128000000D01*
X106072316Y-127873690D01*
X106815000Y-127873690D01*
X106815000Y-128964250D01*
X106973750Y-129123000D01*
X108323000Y-129123000D01*
X108323000Y-127523750D01*
X108577000Y-127523750D01*
X108577000Y-129123000D01*
X109926250Y-129123000D01*
X110085000Y-128964250D01*
X110085000Y-127873690D01*
X109988327Y-127640301D01*
X109809698Y-127461673D01*
X109576309Y-127365000D01*
X108735750Y-127365000D01*
X108577000Y-127523750D01*
X108323000Y-127523750D01*
X108164250Y-127365000D01*
X107323691Y-127365000D01*
X107090302Y-127461673D01*
X106911673Y-127640301D01*
X106815000Y-127873690D01*
X106072316Y-127873690D01*
X106048157Y-127752235D01*
X105907809Y-127542191D01*
X105697765Y-127401843D01*
X105450000Y-127352560D01*
X103450000Y-127352560D01*
X103202235Y-127401843D01*
X102992191Y-127542191D01*
X102851843Y-127752235D01*
X102802560Y-128000000D01*
X102802560Y-128388622D01*
X102787046Y-128373081D01*
X102406777Y-128215180D01*
X101995029Y-128214821D01*
X101614485Y-128372058D01*
X101323081Y-128662954D01*
X101165180Y-129043223D01*
X101164821Y-129454971D01*
X96974442Y-129454971D01*
X96968476Y-124804971D01*
X99864821Y-124804971D01*
X100022058Y-125185515D01*
X100312954Y-125476919D01*
X100693223Y-125634820D01*
X101104971Y-125635179D01*
X101452560Y-125491559D01*
X101452560Y-125550000D01*
X101501843Y-125797765D01*
X101642191Y-126007809D01*
X101852235Y-126148157D01*
X102100000Y-126197440D01*
X104100000Y-126197440D01*
X104347765Y-126148157D01*
X104557809Y-126007809D01*
X104698157Y-125797765D01*
X104747440Y-125550000D01*
X104747440Y-124585750D01*
X105465000Y-124585750D01*
X105465000Y-125676310D01*
X105561673Y-125909699D01*
X105740302Y-126088327D01*
X105973691Y-126185000D01*
X106814250Y-126185000D01*
X106973000Y-126026250D01*
X106973000Y-124427000D01*
X107227000Y-124427000D01*
X107227000Y-126026250D01*
X107385750Y-126185000D01*
X108226309Y-126185000D01*
X108459698Y-126088327D01*
X108638327Y-125909699D01*
X108735000Y-125676310D01*
X108735000Y-124585750D01*
X108576250Y-124427000D01*
X107227000Y-124427000D01*
X106973000Y-124427000D01*
X105623750Y-124427000D01*
X105465000Y-124585750D01*
X104747440Y-124585750D01*
X104747440Y-123050000D01*
X104722316Y-122923690D01*
X105465000Y-122923690D01*
X105465000Y-124014250D01*
X105623750Y-124173000D01*
X106973000Y-124173000D01*
X106973000Y-122573750D01*
X107227000Y-122573750D01*
X107227000Y-124173000D01*
X108576250Y-124173000D01*
X108735000Y-124014250D01*
X108735000Y-122923690D01*
X108638327Y-122690301D01*
X108459698Y-122511673D01*
X108226309Y-122415000D01*
X107385750Y-122415000D01*
X107227000Y-122573750D01*
X106973000Y-122573750D01*
X106814250Y-122415000D01*
X105973691Y-122415000D01*
X105740302Y-122511673D01*
X105561673Y-122690301D01*
X105465000Y-122923690D01*
X104722316Y-122923690D01*
X104698157Y-122802235D01*
X104557809Y-122592191D01*
X104347765Y-122451843D01*
X104100000Y-122402560D01*
X102100000Y-122402560D01*
X101852235Y-122451843D01*
X101642191Y-122592191D01*
X101501843Y-122802235D01*
X101452560Y-123050000D01*
X101452560Y-123540000D01*
X101200000Y-123540000D01*
X101073558Y-123565151D01*
X100695029Y-123564821D01*
X100314485Y-123722058D01*
X100023081Y-124012954D01*
X99865180Y-124393223D01*
X99864821Y-124804971D01*
X96968476Y-124804971D01*
X96962575Y-120204971D01*
X99714821Y-120204971D01*
X99872058Y-120585515D01*
X100162954Y-120876919D01*
X100543223Y-121034820D01*
X100954971Y-121035179D01*
X101153210Y-120953269D01*
X101201843Y-121197765D01*
X101342191Y-121407809D01*
X101552235Y-121548157D01*
X101800000Y-121597440D01*
X103800000Y-121597440D01*
X104047765Y-121548157D01*
X104257809Y-121407809D01*
X104398157Y-121197765D01*
X104447440Y-120950000D01*
X104447440Y-120435750D01*
X105165000Y-120435750D01*
X105165000Y-121076310D01*
X105261673Y-121309699D01*
X105440302Y-121488327D01*
X105673691Y-121585000D01*
X106514250Y-121585000D01*
X106673000Y-121426250D01*
X106673000Y-120277000D01*
X106927000Y-120277000D01*
X106927000Y-121426250D01*
X107085750Y-121585000D01*
X107926309Y-121585000D01*
X108159698Y-121488327D01*
X108338327Y-121309699D01*
X108435000Y-121076310D01*
X108435000Y-120435750D01*
X108276250Y-120277000D01*
X106927000Y-120277000D01*
X106673000Y-120277000D01*
X105323750Y-120277000D01*
X105165000Y-120435750D01*
X104447440Y-120435750D01*
X104447440Y-119350000D01*
X104422316Y-119223690D01*
X105165000Y-119223690D01*
X105165000Y-119864250D01*
X105323750Y-120023000D01*
X106673000Y-120023000D01*
X106673000Y-118873750D01*
X106927000Y-118873750D01*
X106927000Y-120023000D01*
X108276250Y-120023000D01*
X108435000Y-119864250D01*
X108435000Y-119223690D01*
X108338327Y-118990301D01*
X108159698Y-118811673D01*
X107926309Y-118715000D01*
X107085750Y-118715000D01*
X106927000Y-118873750D01*
X106673000Y-118873750D01*
X106514250Y-118715000D01*
X105673691Y-118715000D01*
X105440302Y-118811673D01*
X105261673Y-118990301D01*
X105165000Y-119223690D01*
X104422316Y-119223690D01*
X104398157Y-119102235D01*
X104257809Y-118892191D01*
X104047765Y-118751843D01*
X103800000Y-118702560D01*
X101800000Y-118702560D01*
X101552235Y-118751843D01*
X101342191Y-118892191D01*
X101220304Y-119074606D01*
X100956777Y-118965180D01*
X100545029Y-118964821D01*
X100164485Y-119122058D01*
X99873081Y-119412954D01*
X99715180Y-119793223D01*
X99714821Y-120204971D01*
X96962575Y-120204971D01*
X96960000Y-118198424D01*
X96960000Y-114432021D01*
X97686560Y-114432021D01*
X98072437Y-115365915D01*
X98786327Y-116081052D01*
X99719546Y-116468559D01*
X100730021Y-116469440D01*
X101663915Y-116083563D01*
X102379052Y-115369673D01*
X102766559Y-114436454D01*
X102767440Y-113425979D01*
X102381563Y-112492085D01*
X101667673Y-111776948D01*
X100734454Y-111389441D01*
X99723979Y-111388560D01*
X98790085Y-111774437D01*
X98074948Y-112488327D01*
X97687441Y-113421546D01*
X97686560Y-114432021D01*
X96960000Y-114432021D01*
X96960000Y-86878000D01*
X97420560Y-86878000D01*
X97420560Y-88402000D01*
X97469843Y-88649765D01*
X97610191Y-88859809D01*
X97820235Y-89000157D01*
X98068000Y-89049440D01*
X98522646Y-89049440D01*
X98039697Y-89248990D01*
X97646371Y-89641630D01*
X97433243Y-90154900D01*
X97432758Y-90710661D01*
X97644990Y-91224303D01*
X98037630Y-91617629D01*
X98398815Y-91767606D01*
X98039697Y-91915990D01*
X97646371Y-92308630D01*
X97433243Y-92821900D01*
X97432758Y-93377661D01*
X97644990Y-93891303D01*
X98037630Y-94284629D01*
X98550900Y-94497757D01*
X98553336Y-94497759D01*
X98039697Y-94709990D01*
X97646371Y-95102630D01*
X97433243Y-95615900D01*
X97432758Y-96171661D01*
X97644990Y-96685303D01*
X98037630Y-97078629D01*
X98550900Y-97291757D01*
X98553336Y-97291759D01*
X98039697Y-97503990D01*
X97646371Y-97896630D01*
X97433243Y-98409900D01*
X97432758Y-98965661D01*
X97644990Y-99479303D01*
X98037630Y-99872629D01*
X98398815Y-100022606D01*
X98039697Y-100170990D01*
X97646371Y-100563630D01*
X97433243Y-101076900D01*
X97432758Y-101632661D01*
X97644990Y-102146303D01*
X98037630Y-102539629D01*
X98550900Y-102752757D01*
X98553336Y-102752759D01*
X98039697Y-102964990D01*
X97646371Y-103357630D01*
X97433243Y-103870900D01*
X97432758Y-104426661D01*
X97644990Y-104940303D01*
X98037630Y-105333629D01*
X98398815Y-105483606D01*
X98039697Y-105631990D01*
X97646371Y-106024630D01*
X97433243Y-106537900D01*
X97432758Y-107093661D01*
X97644990Y-107607303D01*
X98037630Y-108000629D01*
X98550900Y-108213757D01*
X99106661Y-108214242D01*
X99620303Y-108002010D01*
X100013629Y-107609370D01*
X100027070Y-107577000D01*
X100252198Y-107577000D01*
X101765198Y-109090000D01*
X100183101Y-109090000D01*
X100027942Y-108714485D01*
X99737046Y-108423081D01*
X99356777Y-108265180D01*
X98945029Y-108264821D01*
X98564485Y-108422058D01*
X98273081Y-108712954D01*
X98115180Y-109093223D01*
X98114821Y-109504971D01*
X98272058Y-109885515D01*
X98562954Y-110176919D01*
X98943223Y-110334820D01*
X99110164Y-110334966D01*
X99162599Y-110387401D01*
X99409160Y-110552148D01*
X99457414Y-110561746D01*
X99700000Y-110610000D01*
X101885198Y-110610000D01*
X108372599Y-117097401D01*
X108619161Y-117262148D01*
X108910000Y-117320000D01*
X109187005Y-117320000D01*
X109357189Y-117574698D01*
X109739275Y-117830000D01*
X109357189Y-118085302D01*
X109046120Y-118550849D01*
X108936887Y-119100000D01*
X109046120Y-119649151D01*
X109357189Y-120114698D01*
X109739275Y-120370000D01*
X109357189Y-120625302D01*
X109046120Y-121090849D01*
X108936887Y-121640000D01*
X109046120Y-122189151D01*
X109357189Y-122654698D01*
X109739275Y-122910000D01*
X109357189Y-123165302D01*
X109046120Y-123630849D01*
X108936887Y-124180000D01*
X109046120Y-124729151D01*
X109357189Y-125194698D01*
X109822736Y-125505767D01*
X110371887Y-125615000D01*
X110428113Y-125615000D01*
X110977264Y-125505767D01*
X111442811Y-125194698D01*
X111753880Y-124729151D01*
X111793684Y-124529039D01*
X116628096Y-124529039D01*
X116788959Y-124917423D01*
X117164866Y-125332389D01*
X117670959Y-125571914D01*
X117893000Y-125450629D01*
X117893000Y-124307000D01*
X118147000Y-124307000D01*
X118147000Y-125450629D01*
X118369041Y-125571914D01*
X118875134Y-125332389D01*
X119251041Y-124917423D01*
X119411904Y-124529039D01*
X119289915Y-124307000D01*
X118147000Y-124307000D01*
X117893000Y-124307000D01*
X116750085Y-124307000D01*
X116628096Y-124529039D01*
X111793684Y-124529039D01*
X111863113Y-124180000D01*
X111753880Y-123630849D01*
X111442811Y-123165302D01*
X111060725Y-122910000D01*
X111442811Y-122654698D01*
X111753880Y-122189151D01*
X111863113Y-121640000D01*
X111753880Y-121090849D01*
X111442811Y-120625302D01*
X111060725Y-120370000D01*
X111442811Y-120114698D01*
X111753880Y-119649151D01*
X111863113Y-119100000D01*
X111790392Y-118734410D01*
X112337401Y-118187401D01*
X112502148Y-117940839D01*
X112560000Y-117650000D01*
X112560000Y-116309802D01*
X116936458Y-120686260D01*
X116666120Y-121090849D01*
X116556887Y-121640000D01*
X116666120Y-122189151D01*
X116977189Y-122654698D01*
X117381703Y-122924986D01*
X117164866Y-123027611D01*
X116788959Y-123442577D01*
X116628096Y-123830961D01*
X116750085Y-124053000D01*
X117893000Y-124053000D01*
X117893000Y-124033000D01*
X118147000Y-124033000D01*
X118147000Y-124053000D01*
X119289915Y-124053000D01*
X119411904Y-123830961D01*
X119251041Y-123442577D01*
X118875134Y-123027611D01*
X118658297Y-122924986D01*
X119062811Y-122654698D01*
X119373880Y-122189151D01*
X119483113Y-121640000D01*
X119373880Y-121090849D01*
X119340572Y-121041000D01*
X122694000Y-121041000D01*
X122984839Y-120983148D01*
X123231401Y-120818401D01*
X123252510Y-120797292D01*
X123252510Y-120800810D01*
X123301793Y-121048575D01*
X123442141Y-121258619D01*
X123540000Y-121324007D01*
X123540000Y-122810198D01*
X123162599Y-123187599D01*
X123018967Y-123402560D01*
X122700000Y-123402560D01*
X122452235Y-123451843D01*
X122242191Y-123592191D01*
X122101843Y-123802235D01*
X122052560Y-124050000D01*
X122052560Y-125750000D01*
X122101843Y-125997765D01*
X122242191Y-126207809D01*
X122452235Y-126348157D01*
X122700000Y-126397440D01*
X124700000Y-126397440D01*
X124947765Y-126348157D01*
X125157809Y-126207809D01*
X125298157Y-125997765D01*
X125312227Y-125927029D01*
X126019599Y-126634401D01*
X126266161Y-126799148D01*
X126557000Y-126857000D01*
X137034000Y-126857000D01*
X137324839Y-126799148D01*
X137571401Y-126634401D01*
X138280494Y-125925308D01*
X138338635Y-125964157D01*
X138586400Y-126013440D01*
X140313600Y-126013440D01*
X140561365Y-125964157D01*
X140771409Y-125823809D01*
X140911757Y-125613765D01*
X140961040Y-125366000D01*
X140961040Y-123334000D01*
X140911757Y-123086235D01*
X140771409Y-122876191D01*
X140561365Y-122735843D01*
X140313600Y-122686560D01*
X138586400Y-122686560D01*
X138338635Y-122735843D01*
X138128591Y-122876191D01*
X137988243Y-123086235D01*
X137981016Y-123122566D01*
X137969670Y-123105585D01*
X137483489Y-122780729D01*
X136910000Y-122666655D01*
X136336511Y-122780729D01*
X135850330Y-123105585D01*
X135640000Y-123420366D01*
X135429670Y-123105585D01*
X134943489Y-122780729D01*
X134370000Y-122666655D01*
X133796511Y-122780729D01*
X133310330Y-123105585D01*
X132985474Y-123591766D01*
X132871400Y-124165255D01*
X132871400Y-124534745D01*
X132985474Y-125108234D01*
X133138331Y-125337000D01*
X130897700Y-125337000D01*
X131034820Y-125006777D01*
X131035179Y-124595029D01*
X130877942Y-124214485D01*
X130587046Y-123923081D01*
X130206777Y-123765180D01*
X129795029Y-123764821D01*
X129414485Y-123922058D01*
X129337314Y-123999094D01*
X129298157Y-123802235D01*
X129157809Y-123592191D01*
X128947765Y-123451843D01*
X128700000Y-123402560D01*
X126700000Y-123402560D01*
X126452235Y-123451843D01*
X126242191Y-123592191D01*
X126101843Y-123802235D01*
X126052560Y-124050000D01*
X126052560Y-124517758D01*
X126010000Y-124475198D01*
X126010000Y-121448250D01*
X126600050Y-121448250D01*
X126847815Y-121398967D01*
X127057859Y-121258619D01*
X127123247Y-121160760D01*
X127344452Y-121160760D01*
X127643223Y-121284820D01*
X128054971Y-121285179D01*
X128435515Y-121127942D01*
X128726919Y-120837046D01*
X128884820Y-120456777D01*
X128885179Y-120045029D01*
X128727942Y-119664485D01*
X128437046Y-119373081D01*
X128056777Y-119215180D01*
X127645029Y-119214821D01*
X127264485Y-119372058D01*
X127072057Y-119564150D01*
X127057859Y-119542901D01*
X126847815Y-119402553D01*
X126600050Y-119353270D01*
X126010000Y-119353270D01*
X126010000Y-119325027D01*
X126107859Y-119259639D01*
X126248207Y-119049595D01*
X126297490Y-118801830D01*
X126297490Y-118315255D01*
X133121400Y-118315255D01*
X133121400Y-118684745D01*
X133235474Y-119258234D01*
X133560330Y-119744415D01*
X134046511Y-120069271D01*
X134620000Y-120183345D01*
X135193489Y-120069271D01*
X135679670Y-119744415D01*
X135890000Y-119429634D01*
X136100330Y-119744415D01*
X136586511Y-120069271D01*
X137160000Y-120183345D01*
X137733489Y-120069271D01*
X138219670Y-119744415D01*
X138234500Y-119722220D01*
X138298073Y-119875698D01*
X138476701Y-120054327D01*
X138710090Y-120151000D01*
X139414250Y-120151000D01*
X139573000Y-119992250D01*
X139573000Y-118627000D01*
X139827000Y-118627000D01*
X139827000Y-119992250D01*
X139985750Y-120151000D01*
X140689910Y-120151000D01*
X140923299Y-120054327D01*
X141101927Y-119875698D01*
X141198600Y-119642309D01*
X141198600Y-118785750D01*
X141039850Y-118627000D01*
X139827000Y-118627000D01*
X139573000Y-118627000D01*
X139553000Y-118627000D01*
X139553000Y-118373000D01*
X139573000Y-118373000D01*
X139573000Y-117007750D01*
X139827000Y-117007750D01*
X139827000Y-118373000D01*
X141039850Y-118373000D01*
X141198600Y-118214250D01*
X141198600Y-117357691D01*
X141101927Y-117124302D01*
X140923299Y-116945673D01*
X140689910Y-116849000D01*
X139985750Y-116849000D01*
X139827000Y-117007750D01*
X139573000Y-117007750D01*
X139414250Y-116849000D01*
X138710090Y-116849000D01*
X138476701Y-116945673D01*
X138298073Y-117124302D01*
X138234500Y-117277780D01*
X138219670Y-117255585D01*
X137733489Y-116930729D01*
X137160000Y-116816655D01*
X136586511Y-116930729D01*
X136100330Y-117255585D01*
X135890000Y-117570366D01*
X135679670Y-117255585D01*
X135193489Y-116930729D01*
X134620000Y-116816655D01*
X134046511Y-116930729D01*
X133560330Y-117255585D01*
X133235474Y-117741766D01*
X133121400Y-118315255D01*
X126297490Y-118315255D01*
X126297490Y-118001730D01*
X126248207Y-117753965D01*
X126107859Y-117543921D01*
X125897815Y-117403573D01*
X125650050Y-117354290D01*
X124849950Y-117354290D01*
X124602185Y-117403573D01*
X124560000Y-117431760D01*
X124560000Y-115197440D01*
X124800000Y-115197440D01*
X125047765Y-115148157D01*
X125257809Y-115007809D01*
X125398157Y-114797765D01*
X125447440Y-114550000D01*
X125447440Y-112850000D01*
X126152560Y-112850000D01*
X126152560Y-114550000D01*
X126201843Y-114797765D01*
X126342191Y-115007809D01*
X126552235Y-115148157D01*
X126800000Y-115197440D01*
X128800000Y-115197440D01*
X129047765Y-115148157D01*
X129257809Y-115007809D01*
X129332346Y-114896257D01*
X129362954Y-114926919D01*
X129743223Y-115084820D01*
X130154971Y-115085179D01*
X130535515Y-114927942D01*
X130826919Y-114637046D01*
X130984820Y-114256777D01*
X130985179Y-113845029D01*
X130827942Y-113464485D01*
X130537046Y-113173081D01*
X130156777Y-113015180D01*
X129916459Y-113014970D01*
X129890839Y-112997852D01*
X129600000Y-112940000D01*
X129447440Y-112940000D01*
X129447440Y-112850000D01*
X129398157Y-112602235D01*
X129257809Y-112392191D01*
X129047765Y-112251843D01*
X128800000Y-112202560D01*
X126800000Y-112202560D01*
X126552235Y-112251843D01*
X126342191Y-112392191D01*
X126201843Y-112602235D01*
X126152560Y-112850000D01*
X125447440Y-112850000D01*
X125398157Y-112602235D01*
X125257809Y-112392191D01*
X125047765Y-112251843D01*
X124900540Y-112222558D01*
X124910000Y-112175000D01*
X124910000Y-109224007D01*
X125007859Y-109158619D01*
X125100000Y-109020721D01*
X125192141Y-109158619D01*
X125402185Y-109298967D01*
X125649950Y-109348250D01*
X126450050Y-109348250D01*
X126697815Y-109298967D01*
X126907859Y-109158619D01*
X126973247Y-109060760D01*
X126997259Y-109060760D01*
X127262954Y-109326919D01*
X127643223Y-109484820D01*
X128054971Y-109485179D01*
X128435515Y-109327942D01*
X128726919Y-109037046D01*
X128884820Y-108656777D01*
X128885179Y-108245029D01*
X128727942Y-107864485D01*
X128437046Y-107573081D01*
X128056777Y-107415180D01*
X127645029Y-107414821D01*
X127340232Y-107540760D01*
X126973247Y-107540760D01*
X126907859Y-107442901D01*
X126697815Y-107302553D01*
X126450050Y-107253270D01*
X125817731Y-107253270D01*
X125957859Y-107159639D01*
X126023100Y-107062000D01*
X133131198Y-107062000D01*
X136594689Y-110525491D01*
X136250330Y-110755585D01*
X136040000Y-111070366D01*
X135829670Y-110755585D01*
X135343489Y-110430729D01*
X134770000Y-110316655D01*
X134196511Y-110430729D01*
X133710330Y-110755585D01*
X133385474Y-111241766D01*
X133271400Y-111815255D01*
X133271400Y-112184745D01*
X133385474Y-112758234D01*
X133710330Y-113244415D01*
X134196511Y-113569271D01*
X134770000Y-113683345D01*
X135343489Y-113569271D01*
X135829670Y-113244415D01*
X136040000Y-112929634D01*
X136250330Y-113244415D01*
X136736511Y-113569271D01*
X137310000Y-113683345D01*
X137883489Y-113569271D01*
X138369670Y-113244415D01*
X138381016Y-113227434D01*
X138388243Y-113263765D01*
X138528591Y-113473809D01*
X138738635Y-113614157D01*
X138986400Y-113663440D01*
X140713600Y-113663440D01*
X140961365Y-113614157D01*
X141171409Y-113473809D01*
X141311757Y-113263765D01*
X141361040Y-113016000D01*
X141361040Y-110984000D01*
X141311757Y-110736235D01*
X141171409Y-110526191D01*
X140961365Y-110385843D01*
X140713600Y-110336560D01*
X138986400Y-110336560D01*
X138738635Y-110385843D01*
X138658314Y-110439512D01*
X135147040Y-106928238D01*
X135443489Y-106869271D01*
X135929670Y-106544415D01*
X136140000Y-106229634D01*
X136350330Y-106544415D01*
X136836511Y-106869271D01*
X137410000Y-106983345D01*
X137983489Y-106869271D01*
X138469670Y-106544415D01*
X138484500Y-106522220D01*
X138548073Y-106675698D01*
X138726701Y-106854327D01*
X138960090Y-106951000D01*
X139664250Y-106951000D01*
X139823000Y-106792250D01*
X139823000Y-105427000D01*
X140077000Y-105427000D01*
X140077000Y-106792250D01*
X140235750Y-106951000D01*
X140939910Y-106951000D01*
X141173299Y-106854327D01*
X141351927Y-106675698D01*
X141448600Y-106442309D01*
X141448600Y-105585750D01*
X141289850Y-105427000D01*
X140077000Y-105427000D01*
X139823000Y-105427000D01*
X139803000Y-105427000D01*
X139803000Y-105173000D01*
X139823000Y-105173000D01*
X139823000Y-103807750D01*
X140077000Y-103807750D01*
X140077000Y-105173000D01*
X141289850Y-105173000D01*
X141448600Y-105014250D01*
X141448600Y-104157691D01*
X141351927Y-103924302D01*
X141173299Y-103745673D01*
X140939910Y-103649000D01*
X140235750Y-103649000D01*
X140077000Y-103807750D01*
X139823000Y-103807750D01*
X139664250Y-103649000D01*
X138960090Y-103649000D01*
X138726701Y-103745673D01*
X138548073Y-103924302D01*
X138484500Y-104077780D01*
X138469670Y-104055585D01*
X137983489Y-103730729D01*
X137410000Y-103616655D01*
X136836511Y-103730729D01*
X136350330Y-104055585D01*
X136140000Y-104370366D01*
X135929670Y-104055585D01*
X135443489Y-103730729D01*
X134870000Y-103616655D01*
X134296511Y-103730729D01*
X133810330Y-104055585D01*
X133485474Y-104541766D01*
X133371400Y-105115255D01*
X133371400Y-105484745D01*
X133382789Y-105542000D01*
X130121694Y-105542000D01*
X130276919Y-105387046D01*
X130434820Y-105006777D01*
X130435179Y-104595029D01*
X130374197Y-104447440D01*
X130600000Y-104447440D01*
X130847765Y-104398157D01*
X131057809Y-104257809D01*
X131198157Y-104047765D01*
X131247440Y-103800000D01*
X131247440Y-101800000D01*
X131198157Y-101552235D01*
X131057809Y-101342191D01*
X130847765Y-101201843D01*
X130600000Y-101152560D01*
X128100000Y-101152560D01*
X127852235Y-101201843D01*
X127642191Y-101342191D01*
X127501843Y-101552235D01*
X127452560Y-101800000D01*
X127452560Y-103800000D01*
X127501843Y-104047765D01*
X127642191Y-104257809D01*
X127852235Y-104398157D01*
X128100000Y-104447440D01*
X128425714Y-104447440D01*
X128365180Y-104593223D01*
X128364821Y-105004971D01*
X128522058Y-105385515D01*
X128678270Y-105542000D01*
X126023394Y-105542000D01*
X125957859Y-105443921D01*
X125747815Y-105303573D01*
X125500050Y-105254290D01*
X124699950Y-105254290D01*
X124452185Y-105303573D01*
X124242141Y-105443921D01*
X124101793Y-105653965D01*
X124052510Y-105901730D01*
X124052510Y-106701830D01*
X124101793Y-106949595D01*
X124242141Y-107159639D01*
X124382269Y-107253270D01*
X123749950Y-107253270D01*
X123502185Y-107302553D01*
X123292141Y-107442901D01*
X123151793Y-107652945D01*
X123102510Y-107900710D01*
X123102510Y-108700810D01*
X123151793Y-108948575D01*
X123292141Y-109158619D01*
X123390000Y-109224007D01*
X123390000Y-111860198D01*
X123262599Y-111987599D01*
X123118967Y-112202560D01*
X122800000Y-112202560D01*
X122552235Y-112251843D01*
X122342191Y-112392191D01*
X122201843Y-112602235D01*
X122152560Y-112850000D01*
X122152560Y-114550000D01*
X122201843Y-114797765D01*
X122342191Y-115007809D01*
X122552235Y-115148157D01*
X122800000Y-115197440D01*
X123040000Y-115197440D01*
X123040000Y-118860198D01*
X122379198Y-119521000D01*
X119399371Y-119521000D01*
X119483113Y-119100000D01*
X119373880Y-118550849D01*
X119062811Y-118085302D01*
X118761954Y-117884275D01*
X118742894Y-117788460D01*
X119062811Y-117574698D01*
X119373880Y-117109151D01*
X119483113Y-116560000D01*
X119373880Y-116010849D01*
X119062811Y-115545302D01*
X118761954Y-115344275D01*
X118742894Y-115248460D01*
X119062811Y-115034698D01*
X119373880Y-114569151D01*
X119483113Y-114020000D01*
X119373880Y-113470849D01*
X119143997Y-113126805D01*
X122663401Y-109607401D01*
X122828148Y-109360839D01*
X122886000Y-109070000D01*
X122886000Y-98985750D01*
X123165000Y-98985750D01*
X123165000Y-99676310D01*
X123261673Y-99909699D01*
X123440302Y-100088327D01*
X123673691Y-100185000D01*
X124514250Y-100185000D01*
X124673000Y-100026250D01*
X124673000Y-98827000D01*
X124927000Y-98827000D01*
X124927000Y-100026250D01*
X125085750Y-100185000D01*
X125926309Y-100185000D01*
X126159698Y-100088327D01*
X126338327Y-99909699D01*
X126435000Y-99676310D01*
X126435000Y-99085750D01*
X127465000Y-99085750D01*
X127465000Y-99926309D01*
X127561673Y-100159698D01*
X127740301Y-100338327D01*
X127973690Y-100435000D01*
X129064250Y-100435000D01*
X129223000Y-100276250D01*
X129223000Y-98927000D01*
X129477000Y-98927000D01*
X129477000Y-100276250D01*
X129635750Y-100435000D01*
X130726310Y-100435000D01*
X130959699Y-100338327D01*
X131138327Y-100159698D01*
X131235000Y-99926309D01*
X131235000Y-99085750D01*
X131076250Y-98927000D01*
X129477000Y-98927000D01*
X129223000Y-98927000D01*
X127623750Y-98927000D01*
X127465000Y-99085750D01*
X126435000Y-99085750D01*
X126435000Y-98985750D01*
X126276250Y-98827000D01*
X124927000Y-98827000D01*
X124673000Y-98827000D01*
X123323750Y-98827000D01*
X123165000Y-98985750D01*
X122886000Y-98985750D01*
X122886000Y-97723690D01*
X123165000Y-97723690D01*
X123165000Y-98414250D01*
X123323750Y-98573000D01*
X124673000Y-98573000D01*
X124673000Y-97373750D01*
X124927000Y-97373750D01*
X124927000Y-98573000D01*
X126276250Y-98573000D01*
X126435000Y-98414250D01*
X126435000Y-97723690D01*
X126414290Y-97673691D01*
X127465000Y-97673691D01*
X127465000Y-98514250D01*
X127623750Y-98673000D01*
X129223000Y-98673000D01*
X129223000Y-97323750D01*
X129477000Y-97323750D01*
X129477000Y-98673000D01*
X131076250Y-98673000D01*
X131235000Y-98514250D01*
X131235000Y-97673691D01*
X131138327Y-97440302D01*
X130959699Y-97261673D01*
X130726310Y-97165000D01*
X129635750Y-97165000D01*
X129477000Y-97323750D01*
X129223000Y-97323750D01*
X129064250Y-97165000D01*
X127973690Y-97165000D01*
X127740301Y-97261673D01*
X127561673Y-97440302D01*
X127465000Y-97673691D01*
X126414290Y-97673691D01*
X126338327Y-97490301D01*
X126159698Y-97311673D01*
X125926309Y-97215000D01*
X125085750Y-97215000D01*
X124927000Y-97373750D01*
X124673000Y-97373750D01*
X124514250Y-97215000D01*
X123673691Y-97215000D01*
X123440302Y-97311673D01*
X123261673Y-97490301D01*
X123165000Y-97723690D01*
X122886000Y-97723690D01*
X122886000Y-94885750D01*
X123065000Y-94885750D01*
X123065000Y-95576310D01*
X123161673Y-95809699D01*
X123340302Y-95988327D01*
X123573691Y-96085000D01*
X124414250Y-96085000D01*
X124573000Y-95926250D01*
X124573000Y-94727000D01*
X124827000Y-94727000D01*
X124827000Y-95926250D01*
X124985750Y-96085000D01*
X125826309Y-96085000D01*
X126059698Y-95988327D01*
X126238327Y-95809699D01*
X126335000Y-95576310D01*
X126335000Y-95565255D01*
X133371400Y-95565255D01*
X133371400Y-95934745D01*
X133485474Y-96508234D01*
X133810330Y-96994415D01*
X134296511Y-97319271D01*
X134870000Y-97433345D01*
X135443489Y-97319271D01*
X135929670Y-96994415D01*
X136140000Y-96679634D01*
X136350330Y-96994415D01*
X136836511Y-97319271D01*
X137410000Y-97433345D01*
X137983489Y-97319271D01*
X138469670Y-96994415D01*
X138481016Y-96977434D01*
X138488243Y-97013765D01*
X138628591Y-97223809D01*
X138838635Y-97364157D01*
X139086400Y-97413440D01*
X140813600Y-97413440D01*
X141061365Y-97364157D01*
X141271409Y-97223809D01*
X141411757Y-97013765D01*
X141461040Y-96766000D01*
X141461040Y-94734000D01*
X141411757Y-94486235D01*
X141271409Y-94276191D01*
X141061365Y-94135843D01*
X140813600Y-94086560D01*
X139086400Y-94086560D01*
X138838635Y-94135843D01*
X138628591Y-94276191D01*
X138488243Y-94486235D01*
X138481016Y-94522566D01*
X138469670Y-94505585D01*
X137983489Y-94180729D01*
X137410000Y-94066655D01*
X136836511Y-94180729D01*
X136350330Y-94505585D01*
X136140000Y-94820366D01*
X135929670Y-94505585D01*
X135443489Y-94180729D01*
X134870000Y-94066655D01*
X134296511Y-94180729D01*
X133810330Y-94505585D01*
X133485474Y-94991766D01*
X133371400Y-95565255D01*
X126335000Y-95565255D01*
X126335000Y-94885750D01*
X126176250Y-94727000D01*
X124827000Y-94727000D01*
X124573000Y-94727000D01*
X123223750Y-94727000D01*
X123065000Y-94885750D01*
X122886000Y-94885750D01*
X122886000Y-93623690D01*
X123065000Y-93623690D01*
X123065000Y-94314250D01*
X123223750Y-94473000D01*
X124573000Y-94473000D01*
X124573000Y-93273750D01*
X124827000Y-93273750D01*
X124827000Y-94473000D01*
X126176250Y-94473000D01*
X126335000Y-94314250D01*
X126335000Y-93623690D01*
X126238327Y-93390301D01*
X126059698Y-93211673D01*
X125826309Y-93115000D01*
X124985750Y-93115000D01*
X124827000Y-93273750D01*
X124573000Y-93273750D01*
X124414250Y-93115000D01*
X123573691Y-93115000D01*
X123340302Y-93211673D01*
X123161673Y-93390301D01*
X123065000Y-93623690D01*
X122886000Y-93623690D01*
X122886000Y-92251400D01*
X122853895Y-92090000D01*
X122828155Y-91960579D01*
X122828150Y-91960572D01*
X122828148Y-91960561D01*
X122741416Y-91830757D01*
X122663415Y-91714013D01*
X121507623Y-90558161D01*
X121657809Y-90457809D01*
X121798157Y-90247765D01*
X121847440Y-90000000D01*
X121847440Y-89435750D01*
X122565000Y-89435750D01*
X122565000Y-90126310D01*
X122661673Y-90359699D01*
X122840302Y-90538327D01*
X123073691Y-90635000D01*
X123914250Y-90635000D01*
X124073000Y-90476250D01*
X124073000Y-89277000D01*
X124327000Y-89277000D01*
X124327000Y-90476250D01*
X124485750Y-90635000D01*
X125326309Y-90635000D01*
X125559698Y-90538327D01*
X125738327Y-90359699D01*
X125835000Y-90126310D01*
X125835000Y-89435750D01*
X125764505Y-89365255D01*
X133121400Y-89365255D01*
X133121400Y-89734745D01*
X133235474Y-90308234D01*
X133560330Y-90794415D01*
X134046511Y-91119271D01*
X134620000Y-91233345D01*
X135193489Y-91119271D01*
X135679670Y-90794415D01*
X135890000Y-90479634D01*
X136100330Y-90794415D01*
X136586511Y-91119271D01*
X137160000Y-91233345D01*
X137733489Y-91119271D01*
X138219670Y-90794415D01*
X138231016Y-90777434D01*
X138238243Y-90813765D01*
X138378591Y-91023809D01*
X138588635Y-91164157D01*
X138836400Y-91213440D01*
X140563600Y-91213440D01*
X140811365Y-91164157D01*
X141021409Y-91023809D01*
X141161757Y-90813765D01*
X141211040Y-90566000D01*
X141211040Y-88534000D01*
X141161757Y-88286235D01*
X141021409Y-88076191D01*
X140811365Y-87935843D01*
X140563600Y-87886560D01*
X138836400Y-87886560D01*
X138588635Y-87935843D01*
X138378591Y-88076191D01*
X138238243Y-88286235D01*
X138231016Y-88322566D01*
X138219670Y-88305585D01*
X137733489Y-87980729D01*
X137160000Y-87866655D01*
X136586511Y-87980729D01*
X136100330Y-88305585D01*
X135890000Y-88620366D01*
X135679670Y-88305585D01*
X135193489Y-87980729D01*
X134620000Y-87866655D01*
X134046511Y-87980729D01*
X133560330Y-88305585D01*
X133235474Y-88791766D01*
X133121400Y-89365255D01*
X125764505Y-89365255D01*
X125676250Y-89277000D01*
X124327000Y-89277000D01*
X124073000Y-89277000D01*
X122723750Y-89277000D01*
X122565000Y-89435750D01*
X121847440Y-89435750D01*
X121847440Y-88300000D01*
X121822316Y-88173690D01*
X122565000Y-88173690D01*
X122565000Y-88864250D01*
X122723750Y-89023000D01*
X124073000Y-89023000D01*
X124073000Y-87823750D01*
X124327000Y-87823750D01*
X124327000Y-89023000D01*
X125676250Y-89023000D01*
X125835000Y-88864250D01*
X125835000Y-88173690D01*
X125738327Y-87940301D01*
X125559698Y-87761673D01*
X125326309Y-87665000D01*
X124485750Y-87665000D01*
X124327000Y-87823750D01*
X124073000Y-87823750D01*
X123914250Y-87665000D01*
X123073691Y-87665000D01*
X122840302Y-87761673D01*
X122661673Y-87940301D01*
X122565000Y-88173690D01*
X121822316Y-88173690D01*
X121798157Y-88052235D01*
X121657809Y-87842191D01*
X121447765Y-87701843D01*
X121200000Y-87652560D01*
X120960000Y-87652560D01*
X120960000Y-86200000D01*
X120902148Y-85909161D01*
X120737401Y-85662599D01*
X120460552Y-85385750D01*
X124665000Y-85385750D01*
X124665000Y-86476310D01*
X124761673Y-86709699D01*
X124940302Y-86888327D01*
X125173691Y-86985000D01*
X126014250Y-86985000D01*
X126173000Y-86826250D01*
X126173000Y-85227000D01*
X126427000Y-85227000D01*
X126427000Y-86826250D01*
X126585750Y-86985000D01*
X127426309Y-86985000D01*
X127659698Y-86888327D01*
X127838327Y-86709699D01*
X127935000Y-86476310D01*
X127935000Y-85385750D01*
X127776250Y-85227000D01*
X126427000Y-85227000D01*
X126173000Y-85227000D01*
X124823750Y-85227000D01*
X124665000Y-85385750D01*
X120460552Y-85385750D01*
X120385079Y-85310277D01*
X120385179Y-85195029D01*
X120227942Y-84814485D01*
X119937046Y-84523081D01*
X119556777Y-84365180D01*
X119145029Y-84364821D01*
X118764485Y-84522058D01*
X118473081Y-84812954D01*
X118315180Y-85193223D01*
X118314821Y-85604971D01*
X118472058Y-85985515D01*
X118762954Y-86276919D01*
X119143223Y-86434820D01*
X119360207Y-86435009D01*
X119440000Y-86514802D01*
X119440000Y-87652560D01*
X119200000Y-87652560D01*
X118952235Y-87701843D01*
X118742191Y-87842191D01*
X118601843Y-88052235D01*
X118552560Y-88300000D01*
X118552560Y-90000000D01*
X118601843Y-90247765D01*
X118742191Y-90457809D01*
X118952235Y-90598157D01*
X119200000Y-90647440D01*
X119518767Y-90647440D01*
X119581174Y-90740839D01*
X119662585Y-90862687D01*
X121366000Y-92566190D01*
X121366000Y-93079762D01*
X121237401Y-92887299D01*
X120990839Y-92722552D01*
X120700000Y-92664700D01*
X120589502Y-92664700D01*
X117694355Y-89769553D01*
X117726919Y-89737046D01*
X117884820Y-89356777D01*
X117885179Y-88945029D01*
X117727942Y-88564485D01*
X117437046Y-88273081D01*
X117056777Y-88115180D01*
X116645029Y-88114821D01*
X116264485Y-88272058D01*
X115973081Y-88562954D01*
X115847440Y-88865532D01*
X115847440Y-87650000D01*
X115798157Y-87402235D01*
X115657809Y-87192191D01*
X115447765Y-87051843D01*
X115221000Y-87006737D01*
X115221000Y-85135750D01*
X115415000Y-85135750D01*
X115415000Y-85776310D01*
X115511673Y-86009699D01*
X115690302Y-86188327D01*
X115923691Y-86285000D01*
X116264250Y-86285000D01*
X116423000Y-86126250D01*
X116423000Y-84977000D01*
X116677000Y-84977000D01*
X116677000Y-86126250D01*
X116835750Y-86285000D01*
X117176309Y-86285000D01*
X117409698Y-86188327D01*
X117588327Y-86009699D01*
X117685000Y-85776310D01*
X117685000Y-85135750D01*
X117526250Y-84977000D01*
X116677000Y-84977000D01*
X116423000Y-84977000D01*
X115573750Y-84977000D01*
X115415000Y-85135750D01*
X115221000Y-85135750D01*
X115221000Y-83923690D01*
X115415000Y-83923690D01*
X115415000Y-84564250D01*
X115573750Y-84723000D01*
X116423000Y-84723000D01*
X116423000Y-83573750D01*
X116677000Y-83573750D01*
X116677000Y-84723000D01*
X117526250Y-84723000D01*
X117685000Y-84564250D01*
X117685000Y-83923690D01*
X117602158Y-83723690D01*
X124665000Y-83723690D01*
X124665000Y-84814250D01*
X124823750Y-84973000D01*
X126173000Y-84973000D01*
X126173000Y-83373750D01*
X126427000Y-83373750D01*
X126427000Y-84973000D01*
X127776250Y-84973000D01*
X127935000Y-84814250D01*
X127935000Y-83850000D01*
X128652560Y-83850000D01*
X128652560Y-86350000D01*
X128701843Y-86597765D01*
X128842191Y-86807809D01*
X129052235Y-86948157D01*
X129300000Y-86997440D01*
X131300000Y-86997440D01*
X131547765Y-86948157D01*
X131757809Y-86807809D01*
X131832381Y-86696205D01*
X131912954Y-86776919D01*
X132293223Y-86934820D01*
X132704971Y-86935179D01*
X133085515Y-86777942D01*
X133376919Y-86487046D01*
X133534820Y-86106777D01*
X133535179Y-85695029D01*
X133377942Y-85314485D01*
X133087046Y-85023081D01*
X132706777Y-84865180D01*
X132539836Y-84865034D01*
X132237401Y-84562599D01*
X131990839Y-84397852D01*
X131947440Y-84389219D01*
X131947440Y-83850000D01*
X131898157Y-83602235D01*
X131757809Y-83392191D01*
X131547765Y-83251843D01*
X131300000Y-83202560D01*
X129300000Y-83202560D01*
X129052235Y-83251843D01*
X128842191Y-83392191D01*
X128701843Y-83602235D01*
X128652560Y-83850000D01*
X127935000Y-83850000D01*
X127935000Y-83723690D01*
X127838327Y-83490301D01*
X127659698Y-83311673D01*
X127426309Y-83215000D01*
X126585750Y-83215000D01*
X126427000Y-83373750D01*
X126173000Y-83373750D01*
X126014250Y-83215000D01*
X125173691Y-83215000D01*
X124940302Y-83311673D01*
X124761673Y-83490301D01*
X124665000Y-83723690D01*
X117602158Y-83723690D01*
X117588327Y-83690301D01*
X117409698Y-83511673D01*
X117176309Y-83415000D01*
X116835750Y-83415000D01*
X116677000Y-83573750D01*
X116423000Y-83573750D01*
X116264250Y-83415000D01*
X115923691Y-83415000D01*
X115690302Y-83511673D01*
X115511673Y-83690301D01*
X115415000Y-83923690D01*
X115221000Y-83923690D01*
X115221000Y-83535019D01*
X115404971Y-83535179D01*
X115785515Y-83377942D01*
X116076919Y-83087046D01*
X116106729Y-83015255D01*
X133371400Y-83015255D01*
X133371400Y-83384745D01*
X133485474Y-83958234D01*
X133810330Y-84444415D01*
X134296511Y-84769271D01*
X134870000Y-84883345D01*
X135443489Y-84769271D01*
X135929670Y-84444415D01*
X136140000Y-84129634D01*
X136350330Y-84444415D01*
X136836511Y-84769271D01*
X137410000Y-84883345D01*
X137983489Y-84769271D01*
X138469670Y-84444415D01*
X138481016Y-84427434D01*
X138488243Y-84463765D01*
X138628591Y-84673809D01*
X138838635Y-84814157D01*
X139086400Y-84863440D01*
X140813600Y-84863440D01*
X141061365Y-84814157D01*
X141271409Y-84673809D01*
X141411757Y-84463765D01*
X141461040Y-84216000D01*
X141461040Y-82184000D01*
X141411757Y-81936235D01*
X141271409Y-81726191D01*
X141061365Y-81585843D01*
X140813600Y-81536560D01*
X139086400Y-81536560D01*
X138838635Y-81585843D01*
X138628591Y-81726191D01*
X138488243Y-81936235D01*
X138481016Y-81972566D01*
X138469670Y-81955585D01*
X137983489Y-81630729D01*
X137410000Y-81516655D01*
X136836511Y-81630729D01*
X136350330Y-81955585D01*
X136140000Y-82270366D01*
X135929670Y-81955585D01*
X135443489Y-81630729D01*
X134870000Y-81516655D01*
X134296511Y-81630729D01*
X133810330Y-81955585D01*
X133485474Y-82441766D01*
X133371400Y-83015255D01*
X116106729Y-83015255D01*
X116234820Y-82706777D01*
X116234986Y-82516185D01*
X116352148Y-82340839D01*
X116410000Y-82050000D01*
X116410000Y-81129039D01*
X117228096Y-81129039D01*
X117388959Y-81517423D01*
X117764866Y-81932389D01*
X118270959Y-82171914D01*
X118493000Y-82050629D01*
X118493000Y-80907000D01*
X118747000Y-80907000D01*
X118747000Y-82050629D01*
X118969041Y-82171914D01*
X119475134Y-81932389D01*
X119851041Y-81517423D01*
X120011904Y-81129039D01*
X119889915Y-80907000D01*
X118747000Y-80907000D01*
X118493000Y-80907000D01*
X117350085Y-80907000D01*
X117228096Y-81129039D01*
X116410000Y-81129039D01*
X116410000Y-68450000D01*
X116352148Y-68159161D01*
X116187401Y-67912599D01*
X116053595Y-67823193D01*
X112123874Y-63893379D01*
X112353880Y-63549151D01*
X112463113Y-63000000D01*
X112353880Y-62450849D01*
X112042811Y-61985302D01*
X111577264Y-61674233D01*
X111028113Y-61565000D01*
X110971887Y-61565000D01*
X110422736Y-61674233D01*
X109957189Y-61985302D01*
X109646120Y-62450849D01*
X109536887Y-63000000D01*
X109646120Y-63549151D01*
X109957189Y-64014698D01*
X110257978Y-64215679D01*
X110277053Y-64311576D01*
X109957189Y-64525302D01*
X109646120Y-64990849D01*
X109536887Y-65540000D01*
X109646120Y-66089151D01*
X109957189Y-66554698D01*
X110257978Y-66755679D01*
X110277053Y-66851576D01*
X109957189Y-67065302D01*
X109646120Y-67530849D01*
X109536887Y-68080000D01*
X109601312Y-68403886D01*
X107262599Y-70742599D01*
X107097852Y-70989161D01*
X107040000Y-71280000D01*
X107040000Y-95420196D01*
X106914485Y-95472058D01*
X106623081Y-95762954D01*
X106465180Y-96143223D01*
X106464821Y-96554971D01*
X106585261Y-96846459D01*
X102584706Y-92845904D01*
X102807629Y-92623370D01*
X103020757Y-92110100D01*
X103021242Y-91554339D01*
X102809010Y-91040697D01*
X102416370Y-90647371D01*
X101903100Y-90434243D01*
X101900664Y-90434241D01*
X102414303Y-90222010D01*
X102807629Y-89829370D01*
X103020757Y-89316100D01*
X103021242Y-88760339D01*
X102809010Y-88246697D01*
X102416370Y-87853371D01*
X101903100Y-87640243D01*
X101347339Y-87639758D01*
X100833697Y-87851990D01*
X100440371Y-88244630D01*
X100227243Y-88757900D01*
X100226758Y-89313661D01*
X100438990Y-89827303D01*
X100831630Y-90220629D01*
X101344900Y-90433757D01*
X101347336Y-90433759D01*
X100833697Y-90645990D01*
X100440371Y-91038630D01*
X100227243Y-91551900D01*
X100226758Y-92107661D01*
X100323171Y-92341000D01*
X100027531Y-92341000D01*
X100015010Y-92310697D01*
X99622370Y-91917371D01*
X99261185Y-91767394D01*
X99620303Y-91619010D01*
X100013629Y-91226370D01*
X100226757Y-90713100D01*
X100227242Y-90157339D01*
X100015010Y-89643697D01*
X99622370Y-89250371D01*
X99138474Y-89049440D01*
X99592000Y-89049440D01*
X99839765Y-89000157D01*
X100049809Y-88859809D01*
X100190157Y-88649765D01*
X100239440Y-88402000D01*
X100239440Y-86878000D01*
X100190157Y-86630235D01*
X100049809Y-86420191D01*
X99839765Y-86279843D01*
X99592000Y-86230560D01*
X98068000Y-86230560D01*
X97820235Y-86279843D01*
X97610191Y-86420191D01*
X97469843Y-86630235D01*
X97420560Y-86878000D01*
X96960000Y-86878000D01*
X96960000Y-81158021D01*
X97686560Y-81158021D01*
X98072437Y-82091915D01*
X98786327Y-82807052D01*
X99719546Y-83194559D01*
X100730021Y-83195440D01*
X101663915Y-82809563D01*
X102379052Y-82095673D01*
X102766559Y-81162454D01*
X102767440Y-80151979D01*
X102381563Y-79218085D01*
X101667673Y-78502948D01*
X100734454Y-78115441D01*
X99875563Y-78114692D01*
X100085515Y-78027942D01*
X100376919Y-77737046D01*
X100534820Y-77356777D01*
X100535179Y-76945029D01*
X100460000Y-76763081D01*
X100460000Y-76647440D01*
X100700000Y-76647440D01*
X100947765Y-76598157D01*
X101157809Y-76457809D01*
X101298157Y-76247765D01*
X101347440Y-76000000D01*
X101347440Y-75035750D01*
X102065000Y-75035750D01*
X102065000Y-76126310D01*
X102161673Y-76359699D01*
X102340302Y-76538327D01*
X102573691Y-76635000D01*
X103414250Y-76635000D01*
X103573000Y-76476250D01*
X103573000Y-74877000D01*
X103827000Y-74877000D01*
X103827000Y-76476250D01*
X103985750Y-76635000D01*
X104826309Y-76635000D01*
X105059698Y-76538327D01*
X105238327Y-76359699D01*
X105335000Y-76126310D01*
X105335000Y-75035750D01*
X105176250Y-74877000D01*
X103827000Y-74877000D01*
X103573000Y-74877000D01*
X102223750Y-74877000D01*
X102065000Y-75035750D01*
X101347440Y-75035750D01*
X101347440Y-73500000D01*
X101322316Y-73373690D01*
X102065000Y-73373690D01*
X102065000Y-74464250D01*
X102223750Y-74623000D01*
X103573000Y-74623000D01*
X103573000Y-73023750D01*
X103827000Y-73023750D01*
X103827000Y-74623000D01*
X105176250Y-74623000D01*
X105335000Y-74464250D01*
X105335000Y-73373690D01*
X105238327Y-73140301D01*
X105059698Y-72961673D01*
X104826309Y-72865000D01*
X103985750Y-72865000D01*
X103827000Y-73023750D01*
X103573000Y-73023750D01*
X103414250Y-72865000D01*
X102573691Y-72865000D01*
X102340302Y-72961673D01*
X102161673Y-73140301D01*
X102065000Y-73373690D01*
X101322316Y-73373690D01*
X101298157Y-73252235D01*
X101157809Y-73042191D01*
X100947765Y-72901843D01*
X100700000Y-72852560D01*
X98700000Y-72852560D01*
X98452235Y-72901843D01*
X98242191Y-73042191D01*
X98101843Y-73252235D01*
X98052560Y-73500000D01*
X98052560Y-76000000D01*
X98101843Y-76247765D01*
X98242191Y-76457809D01*
X98452235Y-76598157D01*
X98596544Y-76626862D01*
X98465180Y-76943223D01*
X98464821Y-77354971D01*
X98622058Y-77735515D01*
X98912954Y-78026919D01*
X99293223Y-78184820D01*
X99553388Y-78185047D01*
X98790085Y-78500437D01*
X98074948Y-79214327D01*
X97687441Y-80147546D01*
X97686560Y-81158021D01*
X96960000Y-81158021D01*
X96960000Y-67900000D01*
X98302560Y-67900000D01*
X98302560Y-70400000D01*
X98351843Y-70647765D01*
X98492191Y-70857809D01*
X98702235Y-70998157D01*
X98950000Y-71047440D01*
X100950000Y-71047440D01*
X101197765Y-70998157D01*
X101407809Y-70857809D01*
X101548157Y-70647765D01*
X101597440Y-70400000D01*
X101597440Y-69435750D01*
X102315000Y-69435750D01*
X102315000Y-70526310D01*
X102411673Y-70759699D01*
X102590302Y-70938327D01*
X102823691Y-71035000D01*
X103664250Y-71035000D01*
X103823000Y-70876250D01*
X103823000Y-69277000D01*
X104077000Y-69277000D01*
X104077000Y-70876250D01*
X104235750Y-71035000D01*
X105076309Y-71035000D01*
X105309698Y-70938327D01*
X105488327Y-70759699D01*
X105585000Y-70526310D01*
X105585000Y-69435750D01*
X105426250Y-69277000D01*
X104077000Y-69277000D01*
X103823000Y-69277000D01*
X102473750Y-69277000D01*
X102315000Y-69435750D01*
X101597440Y-69435750D01*
X101597440Y-67900000D01*
X101572316Y-67773690D01*
X102315000Y-67773690D01*
X102315000Y-68864250D01*
X102473750Y-69023000D01*
X103823000Y-69023000D01*
X103823000Y-67423750D01*
X104077000Y-67423750D01*
X104077000Y-69023000D01*
X105426250Y-69023000D01*
X105585000Y-68864250D01*
X105585000Y-67773690D01*
X105488327Y-67540301D01*
X105309698Y-67361673D01*
X105076309Y-67265000D01*
X104235750Y-67265000D01*
X104077000Y-67423750D01*
X103823000Y-67423750D01*
X103664250Y-67265000D01*
X102823691Y-67265000D01*
X102590302Y-67361673D01*
X102411673Y-67540301D01*
X102315000Y-67773690D01*
X101572316Y-67773690D01*
X101548157Y-67652235D01*
X101407809Y-67442191D01*
X101197765Y-67301843D01*
X100950000Y-67252560D01*
X100710000Y-67252560D01*
X100710000Y-66950000D01*
X100652148Y-66659161D01*
X100487401Y-66412599D01*
X100385035Y-66310233D01*
X100385179Y-66145029D01*
X100227942Y-65764485D01*
X99937046Y-65473081D01*
X99556777Y-65315180D01*
X99145029Y-65314821D01*
X98764485Y-65472058D01*
X98473081Y-65762954D01*
X98315180Y-66143223D01*
X98314821Y-66554971D01*
X98472058Y-66935515D01*
X98762954Y-67226919D01*
X98865285Y-67269411D01*
X98702235Y-67301843D01*
X98492191Y-67442191D01*
X98351843Y-67652235D01*
X98302560Y-67900000D01*
X96960000Y-67900000D01*
X96960000Y-63885890D01*
X101114940Y-63885890D01*
X101114940Y-65476509D01*
X101211613Y-65709898D01*
X101390241Y-65888527D01*
X101623630Y-65985200D01*
X103214250Y-65985200D01*
X103373000Y-65826450D01*
X103373000Y-63727140D01*
X103627000Y-63727140D01*
X103627000Y-65826450D01*
X103785750Y-65985200D01*
X105376370Y-65985200D01*
X105609759Y-65888527D01*
X105788387Y-65709898D01*
X105885060Y-65476509D01*
X105885060Y-63885890D01*
X105726310Y-63727140D01*
X103627000Y-63727140D01*
X103373000Y-63727140D01*
X101273690Y-63727140D01*
X101114940Y-63885890D01*
X96960000Y-63885890D01*
X96960000Y-62979811D01*
X97050940Y-62997900D01*
X100551060Y-62997900D01*
X100798825Y-62948617D01*
X101008869Y-62808269D01*
X101114940Y-62649524D01*
X101114940Y-63314390D01*
X101273690Y-63473140D01*
X103373000Y-63473140D01*
X103373000Y-61373830D01*
X103627000Y-61373830D01*
X103627000Y-63473140D01*
X105726310Y-63473140D01*
X105885060Y-63314390D01*
X105885060Y-61723771D01*
X105788387Y-61490382D01*
X105609759Y-61311753D01*
X105376370Y-61215080D01*
X103785750Y-61215080D01*
X103627000Y-61373830D01*
X103373000Y-61373830D01*
X103214250Y-61215080D01*
X101623630Y-61215080D01*
X101390241Y-61311753D01*
X101211613Y-61490382D01*
X101198500Y-61522040D01*
X101198500Y-59668401D01*
X101292131Y-59808529D01*
X101502175Y-59948877D01*
X101749940Y-59998160D01*
X105250060Y-59998160D01*
X105497825Y-59948877D01*
X105707869Y-59808529D01*
X105848217Y-59598485D01*
X105897500Y-59350720D01*
X105897500Y-57735750D01*
X120965000Y-57735750D01*
X120965000Y-58576309D01*
X121061673Y-58809698D01*
X121240301Y-58988327D01*
X121473690Y-59085000D01*
X122164250Y-59085000D01*
X122323000Y-58926250D01*
X122323000Y-57577000D01*
X122577000Y-57577000D01*
X122577000Y-58926250D01*
X122735750Y-59085000D01*
X123426310Y-59085000D01*
X123659699Y-58988327D01*
X123838327Y-58809698D01*
X123935000Y-58576309D01*
X123935000Y-57885750D01*
X124965000Y-57885750D01*
X124965000Y-58726309D01*
X125061673Y-58959698D01*
X125240301Y-59138327D01*
X125473690Y-59235000D01*
X126164250Y-59235000D01*
X126323000Y-59076250D01*
X126323000Y-57727000D01*
X126577000Y-57727000D01*
X126577000Y-59076250D01*
X126735750Y-59235000D01*
X127426310Y-59235000D01*
X127659699Y-59138327D01*
X127838327Y-58959698D01*
X127935000Y-58726309D01*
X127935000Y-57885750D01*
X127776250Y-57727000D01*
X126577000Y-57727000D01*
X126323000Y-57727000D01*
X125123750Y-57727000D01*
X124965000Y-57885750D01*
X123935000Y-57885750D01*
X123935000Y-57735750D01*
X123776250Y-57577000D01*
X122577000Y-57577000D01*
X122323000Y-57577000D01*
X121123750Y-57577000D01*
X120965000Y-57735750D01*
X105897500Y-57735750D01*
X105897500Y-56323691D01*
X120965000Y-56323691D01*
X120965000Y-57164250D01*
X121123750Y-57323000D01*
X122323000Y-57323000D01*
X122323000Y-55973750D01*
X122577000Y-55973750D01*
X122577000Y-57323000D01*
X123776250Y-57323000D01*
X123935000Y-57164250D01*
X123935000Y-56473691D01*
X124965000Y-56473691D01*
X124965000Y-57314250D01*
X125123750Y-57473000D01*
X126323000Y-57473000D01*
X126323000Y-56123750D01*
X126577000Y-56123750D01*
X126577000Y-57473000D01*
X127776250Y-57473000D01*
X127935000Y-57314250D01*
X127935000Y-56473691D01*
X127838327Y-56240302D01*
X127659699Y-56061673D01*
X127426310Y-55965000D01*
X126735750Y-55965000D01*
X126577000Y-56123750D01*
X126323000Y-56123750D01*
X126164250Y-55965000D01*
X125473690Y-55965000D01*
X125240301Y-56061673D01*
X125061673Y-56240302D01*
X124965000Y-56473691D01*
X123935000Y-56473691D01*
X123935000Y-56323691D01*
X123838327Y-56090302D01*
X123659699Y-55911673D01*
X123426310Y-55815000D01*
X122735750Y-55815000D01*
X122577000Y-55973750D01*
X122323000Y-55973750D01*
X122164250Y-55815000D01*
X121473690Y-55815000D01*
X121240301Y-55911673D01*
X121061673Y-56090302D01*
X120965000Y-56323691D01*
X105897500Y-56323691D01*
X105897500Y-55850600D01*
X105848217Y-55602835D01*
X105707869Y-55392791D01*
X105497825Y-55252443D01*
X105250060Y-55203160D01*
X101749940Y-55203160D01*
X101502175Y-55252443D01*
X101292131Y-55392791D01*
X101151783Y-55602835D01*
X101102500Y-55850600D01*
X101102500Y-58532659D01*
X101008869Y-58392531D01*
X100798825Y-58252183D01*
X100551060Y-58202900D01*
X97050940Y-58202900D01*
X96960000Y-58220989D01*
X96960000Y-53710000D01*
X121981842Y-53710000D01*
X141790000Y-53775158D01*
X141790000Y-53775158D01*
G37*
X141790000Y-53775158D02*
X141790000Y-70965650D01*
X141746401Y-70900399D01*
X141746387Y-70900389D01*
X141746375Y-70900372D01*
X141208901Y-70362952D01*
X141259670Y-70329029D01*
X141584526Y-69842848D01*
X141698600Y-69269359D01*
X141698600Y-69210641D01*
X141584526Y-68637152D01*
X141272096Y-68169568D01*
X141311365Y-68161757D01*
X141521409Y-68021409D01*
X141661757Y-67811365D01*
X141711040Y-67563600D01*
X141711040Y-65836400D01*
X141661757Y-65588635D01*
X141521409Y-65378591D01*
X141311365Y-65238243D01*
X141063600Y-65188960D01*
X140881239Y-65188960D01*
X140817324Y-65093312D01*
X140737401Y-64973699D01*
X140737389Y-64973691D01*
X140737381Y-64973679D01*
X139652000Y-63888380D01*
X139652000Y-62128846D01*
X140100000Y-62217959D01*
X140673489Y-62103885D01*
X141159670Y-61779029D01*
X141484526Y-61292848D01*
X141598600Y-60719359D01*
X141598600Y-60660641D01*
X141484526Y-60087152D01*
X141172096Y-59619568D01*
X141211365Y-59611757D01*
X141421409Y-59471409D01*
X141561757Y-59261365D01*
X141611040Y-59013600D01*
X141611040Y-57286400D01*
X141561757Y-57038635D01*
X141421409Y-56828591D01*
X141211365Y-56688243D01*
X140963600Y-56638960D01*
X139236400Y-56638960D01*
X138988635Y-56688243D01*
X138910186Y-56740662D01*
X138593553Y-56423850D01*
X138593461Y-56423788D01*
X138593401Y-56423699D01*
X138471360Y-56342154D01*
X138347037Y-56259034D01*
X138346930Y-56259013D01*
X138346839Y-56258952D01*
X138201545Y-56230051D01*
X138056214Y-56201100D01*
X138056107Y-56201121D01*
X138056000Y-56201100D01*
X137026000Y-56201100D01*
X137025931Y-56201114D01*
X137025861Y-56201100D01*
X136879629Y-56230215D01*
X136735161Y-56258952D01*
X136735103Y-56258991D01*
X136735032Y-56259005D01*
X136609218Y-56343104D01*
X136488599Y-56423699D01*
X136488561Y-56423757D01*
X136488500Y-56423797D01*
X135942908Y-56969590D01*
X135593489Y-56736115D01*
X135020000Y-56622041D01*
X134446511Y-56736115D01*
X133960330Y-57060971D01*
X133750000Y-57375752D01*
X133539670Y-57060971D01*
X133053489Y-56736115D01*
X132480000Y-56622041D01*
X131906511Y-56736115D01*
X131420330Y-57060971D01*
X131095474Y-57547152D01*
X130981400Y-58120641D01*
X130981400Y-58179359D01*
X131093137Y-58741100D01*
X129724000Y-58741100D01*
X129579366Y-58769870D01*
X129433178Y-58798945D01*
X129433170Y-58798950D01*
X129433161Y-58798952D01*
X129309251Y-58881746D01*
X129186612Y-58963686D01*
X127858039Y-60292195D01*
X127757809Y-60142191D01*
X127547765Y-60001843D01*
X127300000Y-59952560D01*
X125600000Y-59952560D01*
X125352235Y-60001843D01*
X125142191Y-60142191D01*
X125001843Y-60352235D01*
X124952560Y-60600000D01*
X124952560Y-60918966D01*
X124737599Y-61062599D01*
X123947440Y-61852758D01*
X123947440Y-60450000D01*
X123898157Y-60202235D01*
X123757809Y-59992191D01*
X123547765Y-59851843D01*
X123300000Y-59802560D01*
X121600000Y-59802560D01*
X121352235Y-59851843D01*
X121142191Y-59992191D01*
X121001843Y-60202235D01*
X120952560Y-60450000D01*
X120952560Y-60768967D01*
X120860940Y-60830185D01*
X120737705Y-60912493D01*
X119663477Y-61986299D01*
X119662811Y-61985302D01*
X119197264Y-61674233D01*
X118648113Y-61565000D01*
X118591887Y-61565000D01*
X118042736Y-61674233D01*
X117577189Y-61985302D01*
X117266120Y-62450849D01*
X117156887Y-63000000D01*
X117266120Y-63549151D01*
X117577189Y-64014698D01*
X117959275Y-64270000D01*
X117577189Y-64525302D01*
X117266120Y-64990849D01*
X117156887Y-65540000D01*
X117266120Y-66089151D01*
X117577189Y-66554698D01*
X117959275Y-66810000D01*
X117577189Y-67065302D01*
X117266120Y-67530849D01*
X117156887Y-68080000D01*
X117266120Y-68629151D01*
X117577189Y-69094698D01*
X117877978Y-69295679D01*
X117897053Y-69391576D01*
X117577189Y-69605302D01*
X117266120Y-70070849D01*
X117156887Y-70620000D01*
X117266120Y-71169151D01*
X117577189Y-71634698D01*
X117959275Y-71890000D01*
X117577189Y-72145302D01*
X117266120Y-72610849D01*
X117156887Y-73160000D01*
X117266120Y-73709151D01*
X117577189Y-74174698D01*
X117959275Y-74430000D01*
X117577189Y-74685302D01*
X117266120Y-75150849D01*
X117156887Y-75700000D01*
X117266120Y-76249151D01*
X117577189Y-76714698D01*
X117959275Y-76970000D01*
X117577189Y-77225302D01*
X117266120Y-77690849D01*
X117156887Y-78240000D01*
X117266120Y-78789151D01*
X117577189Y-79254698D01*
X117981703Y-79524986D01*
X117764866Y-79627611D01*
X117388959Y-80042577D01*
X117228096Y-80430961D01*
X117350085Y-80653000D01*
X118493000Y-80653000D01*
X118493000Y-80633000D01*
X118747000Y-80633000D01*
X118747000Y-80653000D01*
X119889915Y-80653000D01*
X120011904Y-80430961D01*
X119851041Y-80042577D01*
X119708976Y-79885750D01*
X120915000Y-79885750D01*
X120915000Y-80726309D01*
X121011673Y-80959698D01*
X121190301Y-81138327D01*
X121423690Y-81235000D01*
X122114250Y-81235000D01*
X122273000Y-81076250D01*
X122273000Y-79727000D01*
X122527000Y-79727000D01*
X122527000Y-81076250D01*
X122685750Y-81235000D01*
X123376310Y-81235000D01*
X123609699Y-81138327D01*
X123788327Y-80959698D01*
X123885000Y-80726309D01*
X123885000Y-80085750D01*
X124615000Y-80085750D01*
X124615000Y-80926309D01*
X124711673Y-81159698D01*
X124890301Y-81338327D01*
X125123690Y-81435000D01*
X125814250Y-81435000D01*
X125973000Y-81276250D01*
X125973000Y-79927000D01*
X126227000Y-79927000D01*
X126227000Y-81276250D01*
X126385750Y-81435000D01*
X127076310Y-81435000D01*
X127309699Y-81338327D01*
X127488327Y-81159698D01*
X127585000Y-80926309D01*
X127585000Y-80085750D01*
X127426250Y-79927000D01*
X126227000Y-79927000D01*
X125973000Y-79927000D01*
X124773750Y-79927000D01*
X124615000Y-80085750D01*
X123885000Y-80085750D01*
X123885000Y-79885750D01*
X123726250Y-79727000D01*
X122527000Y-79727000D01*
X122273000Y-79727000D01*
X121073750Y-79727000D01*
X120915000Y-79885750D01*
X119708976Y-79885750D01*
X119475134Y-79627611D01*
X119258297Y-79524986D01*
X119662811Y-79254698D01*
X119973880Y-78789151D01*
X120036628Y-78473691D01*
X120915000Y-78473691D01*
X120915000Y-79314250D01*
X121073750Y-79473000D01*
X122273000Y-79473000D01*
X122273000Y-78123750D01*
X122527000Y-78123750D01*
X122527000Y-79473000D01*
X123726250Y-79473000D01*
X123885000Y-79314250D01*
X123885000Y-78673691D01*
X124615000Y-78673691D01*
X124615000Y-79514250D01*
X124773750Y-79673000D01*
X125973000Y-79673000D01*
X125973000Y-78323750D01*
X126227000Y-78323750D01*
X126227000Y-79673000D01*
X127426250Y-79673000D01*
X127585000Y-79514250D01*
X127585000Y-78673691D01*
X127488327Y-78440302D01*
X127309699Y-78261673D01*
X127076310Y-78165000D01*
X126385750Y-78165000D01*
X126227000Y-78323750D01*
X125973000Y-78323750D01*
X125814250Y-78165000D01*
X125123690Y-78165000D01*
X124890301Y-78261673D01*
X124711673Y-78440302D01*
X124615000Y-78673691D01*
X123885000Y-78673691D01*
X123885000Y-78473691D01*
X123788327Y-78240302D01*
X123609699Y-78061673D01*
X123376310Y-77965000D01*
X122685750Y-77965000D01*
X122527000Y-78123750D01*
X122273000Y-78123750D01*
X122114250Y-77965000D01*
X121423690Y-77965000D01*
X121190301Y-78061673D01*
X121011673Y-78240302D01*
X120915000Y-78473691D01*
X120036628Y-78473691D01*
X120083113Y-78240000D01*
X119973880Y-77690849D01*
X119662811Y-77225302D01*
X119280725Y-76970000D01*
X119662811Y-76714698D01*
X119973880Y-76249151D01*
X120083113Y-75700000D01*
X119973880Y-75150849D01*
X119662811Y-74685302D01*
X119280725Y-74430000D01*
X119662811Y-74174698D01*
X119973880Y-73709151D01*
X120083113Y-73160000D01*
X119973880Y-72610849D01*
X119662811Y-72145302D01*
X119280725Y-71890000D01*
X119662811Y-71634698D01*
X119900300Y-71279271D01*
X121640000Y-73018821D01*
X121640000Y-73952560D01*
X121550000Y-73952560D01*
X121302235Y-74001843D01*
X121092191Y-74142191D01*
X120951843Y-74352235D01*
X120902560Y-74600000D01*
X120902560Y-76600000D01*
X120951843Y-76847765D01*
X121092191Y-77057809D01*
X121302235Y-77198157D01*
X121550000Y-77247440D01*
X123250000Y-77247440D01*
X123497765Y-77198157D01*
X123707809Y-77057809D01*
X123848157Y-76847765D01*
X123897440Y-76600000D01*
X123897440Y-74600000D01*
X123848157Y-74352235D01*
X123707809Y-74142191D01*
X123497765Y-74001843D01*
X123250000Y-73952560D01*
X123160000Y-73952560D01*
X123160000Y-72704000D01*
X123159997Y-72703984D01*
X123160000Y-72703967D01*
X123131649Y-72561474D01*
X123102148Y-72413161D01*
X123102138Y-72413146D01*
X123102135Y-72413130D01*
X123018118Y-72287401D01*
X122937401Y-72166599D01*
X122937387Y-72166590D01*
X122937378Y-72166576D01*
X119743887Y-68973359D01*
X119973880Y-68629151D01*
X120083113Y-68080000D01*
X119973880Y-67530849D01*
X119662811Y-67065302D01*
X119280725Y-66810000D01*
X119662811Y-66554698D01*
X119832995Y-66300000D01*
X121335000Y-66300000D01*
X121625839Y-66242148D01*
X121872401Y-66077401D01*
X125041975Y-62907827D01*
X125142191Y-63057809D01*
X125352235Y-63198157D01*
X125600000Y-63247440D01*
X127300000Y-63247440D01*
X127547765Y-63198157D01*
X127757809Y-63057809D01*
X127898157Y-62847765D01*
X127947440Y-62600000D01*
X127947440Y-62281033D01*
X128029512Y-62226194D01*
X128162388Y-62137414D01*
X130038792Y-60261100D01*
X131060874Y-60261100D01*
X130981400Y-60660641D01*
X130981400Y-60719359D01*
X131095474Y-61292848D01*
X131420330Y-61779029D01*
X131743024Y-61994646D01*
X131749093Y-62025161D01*
X131777819Y-62169659D01*
X131777843Y-62169695D01*
X131777852Y-62169739D01*
X131858623Y-62290622D01*
X131942537Y-62416240D01*
X133031000Y-63504952D01*
X133031000Y-65261750D01*
X132580000Y-65172041D01*
X132006511Y-65286115D01*
X131520330Y-65610971D01*
X131195474Y-66097152D01*
X131081400Y-66670641D01*
X131081400Y-66729359D01*
X131195474Y-67302848D01*
X131405278Y-67616842D01*
X126860000Y-72162492D01*
X126860000Y-71750000D01*
X126802148Y-71459161D01*
X126802148Y-71459160D01*
X126637401Y-71212599D01*
X126085035Y-70660233D01*
X126085179Y-70495029D01*
X125927942Y-70114485D01*
X125637046Y-69823081D01*
X125256777Y-69665180D01*
X124845029Y-69664821D01*
X124464485Y-69822058D01*
X124173081Y-70112954D01*
X124015180Y-70493223D01*
X124014821Y-70904971D01*
X124172058Y-71285515D01*
X124462954Y-71576919D01*
X124843223Y-71734820D01*
X125010164Y-71734966D01*
X125340000Y-72064802D01*
X125340000Y-74152560D01*
X125250000Y-74152560D01*
X125002235Y-74201843D01*
X124792191Y-74342191D01*
X124651843Y-74552235D01*
X124602560Y-74800000D01*
X124602560Y-76800000D01*
X124651843Y-77047765D01*
X124792191Y-77257809D01*
X125002235Y-77398157D01*
X125250000Y-77447440D01*
X126950000Y-77447440D01*
X127197765Y-77398157D01*
X127407809Y-77257809D01*
X127548157Y-77047765D01*
X127597440Y-76800000D01*
X127597440Y-74800000D01*
X127548157Y-74552235D01*
X127407809Y-74342191D01*
X127197765Y-74201843D01*
X127008062Y-74164109D01*
X131248948Y-69922877D01*
X131520330Y-70329029D01*
X132006511Y-70653885D01*
X132580000Y-70767959D01*
X133153489Y-70653885D01*
X133639670Y-70329029D01*
X133850000Y-70014248D01*
X134060330Y-70329029D01*
X134111066Y-70362930D01*
X133197657Y-71276141D01*
X133197634Y-71276176D01*
X133197599Y-71276199D01*
X133114265Y-71400918D01*
X133032884Y-71522685D01*
X133032876Y-71522725D01*
X133032852Y-71522761D01*
X133003444Y-71670605D01*
X132975000Y-71813518D01*
X132975008Y-71813559D01*
X132975000Y-71813600D01*
X132975000Y-73097125D01*
X132973489Y-73096115D01*
X132400000Y-72982041D01*
X131826511Y-73096115D01*
X131340330Y-73420971D01*
X131015474Y-73907152D01*
X130901400Y-74480641D01*
X130901400Y-74539359D01*
X131015474Y-75112848D01*
X131327904Y-75580432D01*
X131288635Y-75588243D01*
X131078591Y-75728591D01*
X130938243Y-75938635D01*
X130888960Y-76186400D01*
X130888960Y-77913600D01*
X130938243Y-78161365D01*
X131078591Y-78371409D01*
X131288635Y-78511757D01*
X131536400Y-78561040D01*
X133263600Y-78561040D01*
X133511365Y-78511757D01*
X133721409Y-78371409D01*
X133861757Y-78161365D01*
X133869441Y-78122733D01*
X133880330Y-78139029D01*
X134366511Y-78463885D01*
X134940000Y-78577959D01*
X135513489Y-78463885D01*
X135999670Y-78139029D01*
X136210000Y-77824248D01*
X136420330Y-78139029D01*
X136906511Y-78463885D01*
X137480000Y-78577959D01*
X138053489Y-78463885D01*
X138539670Y-78139029D01*
X138750000Y-77824248D01*
X138960330Y-78139029D01*
X139446511Y-78463885D01*
X140020000Y-78577959D01*
X140593489Y-78463885D01*
X141079670Y-78139029D01*
X141404526Y-77652848D01*
X141518600Y-77079359D01*
X141518600Y-77020641D01*
X141404526Y-76447152D01*
X141194692Y-76133113D01*
X141746500Y-75581102D01*
X141790000Y-75515973D01*
X141790000Y-131024723D01*
X101821665Y-131290000D01*
X96976795Y-131290000D01*
X96974442Y-129454971D01*
X101164821Y-129454971D01*
X101322058Y-129835515D01*
X101612954Y-130126919D01*
X101993223Y-130284820D01*
X102404971Y-130285179D01*
X102785515Y-130127942D01*
X102802560Y-130110927D01*
X102802560Y-130500000D01*
X102851843Y-130747765D01*
X102992191Y-130957809D01*
X103202235Y-131098157D01*
X103450000Y-131147440D01*
X105450000Y-131147440D01*
X105697765Y-131098157D01*
X105907809Y-130957809D01*
X106048157Y-130747765D01*
X106097440Y-130500000D01*
X106097440Y-129535750D01*
X106815000Y-129535750D01*
X106815000Y-130626310D01*
X106911673Y-130859699D01*
X107090302Y-131038327D01*
X107323691Y-131135000D01*
X108164250Y-131135000D01*
X108323000Y-130976250D01*
X108323000Y-129377000D01*
X108577000Y-129377000D01*
X108577000Y-130976250D01*
X108735750Y-131135000D01*
X109576309Y-131135000D01*
X109809698Y-131038327D01*
X109988327Y-130859699D01*
X110085000Y-130626310D01*
X110085000Y-129654971D01*
X110564821Y-129654971D01*
X110722058Y-130035515D01*
X111012954Y-130326919D01*
X111393223Y-130484820D01*
X111804971Y-130485179D01*
X112031202Y-130391703D01*
X112142191Y-130557809D01*
X112352235Y-130698157D01*
X112600000Y-130747440D01*
X114600000Y-130747440D01*
X114847765Y-130698157D01*
X115057809Y-130557809D01*
X115198157Y-130347765D01*
X115247440Y-130100000D01*
X115247440Y-129585750D01*
X115965000Y-129585750D01*
X115965000Y-130226310D01*
X116061673Y-130459699D01*
X116240302Y-130638327D01*
X116473691Y-130735000D01*
X117314250Y-130735000D01*
X117473000Y-130576250D01*
X117473000Y-129427000D01*
X117727000Y-129427000D01*
X117727000Y-130576250D01*
X117885750Y-130735000D01*
X118726309Y-130735000D01*
X118959698Y-130638327D01*
X119138327Y-130459699D01*
X119235000Y-130226310D01*
X119235000Y-129585750D01*
X119076250Y-129427000D01*
X117727000Y-129427000D01*
X117473000Y-129427000D01*
X116123750Y-129427000D01*
X115965000Y-129585750D01*
X115247440Y-129585750D01*
X115247440Y-128500000D01*
X115222316Y-128373690D01*
X115965000Y-128373690D01*
X115965000Y-129014250D01*
X116123750Y-129173000D01*
X117473000Y-129173000D01*
X117473000Y-128023750D01*
X117727000Y-128023750D01*
X117727000Y-129173000D01*
X119076250Y-129173000D01*
X119235000Y-129014250D01*
X119235000Y-128373690D01*
X119138327Y-128140301D01*
X118959698Y-127961673D01*
X118726309Y-127865000D01*
X117885750Y-127865000D01*
X117727000Y-128023750D01*
X117473000Y-128023750D01*
X117314250Y-127865000D01*
X116473691Y-127865000D01*
X116240302Y-127961673D01*
X116061673Y-128140301D01*
X115965000Y-128373690D01*
X115222316Y-128373690D01*
X115198157Y-128252235D01*
X115057809Y-128042191D01*
X114847765Y-127901843D01*
X114600000Y-127852560D01*
X112600000Y-127852560D01*
X112352235Y-127901843D01*
X112142191Y-128042191D01*
X112001843Y-128252235D01*
X111957022Y-128477567D01*
X111806777Y-128415180D01*
X111395029Y-128414821D01*
X111014485Y-128572058D01*
X110723081Y-128862954D01*
X110565180Y-129243223D01*
X110564821Y-129654971D01*
X110085000Y-129654971D01*
X110085000Y-129535750D01*
X109926250Y-129377000D01*
X108577000Y-129377000D01*
X108323000Y-129377000D01*
X106973750Y-129377000D01*
X106815000Y-129535750D01*
X106097440Y-129535750D01*
X106097440Y-128000000D01*
X106072316Y-127873690D01*
X106815000Y-127873690D01*
X106815000Y-128964250D01*
X106973750Y-129123000D01*
X108323000Y-129123000D01*
X108323000Y-127523750D01*
X108577000Y-127523750D01*
X108577000Y-129123000D01*
X109926250Y-129123000D01*
X110085000Y-128964250D01*
X110085000Y-127873690D01*
X109988327Y-127640301D01*
X109809698Y-127461673D01*
X109576309Y-127365000D01*
X108735750Y-127365000D01*
X108577000Y-127523750D01*
X108323000Y-127523750D01*
X108164250Y-127365000D01*
X107323691Y-127365000D01*
X107090302Y-127461673D01*
X106911673Y-127640301D01*
X106815000Y-127873690D01*
X106072316Y-127873690D01*
X106048157Y-127752235D01*
X105907809Y-127542191D01*
X105697765Y-127401843D01*
X105450000Y-127352560D01*
X103450000Y-127352560D01*
X103202235Y-127401843D01*
X102992191Y-127542191D01*
X102851843Y-127752235D01*
X102802560Y-128000000D01*
X102802560Y-128388622D01*
X102787046Y-128373081D01*
X102406777Y-128215180D01*
X101995029Y-128214821D01*
X101614485Y-128372058D01*
X101323081Y-128662954D01*
X101165180Y-129043223D01*
X101164821Y-129454971D01*
X96974442Y-129454971D01*
X96968476Y-124804971D01*
X99864821Y-124804971D01*
X100022058Y-125185515D01*
X100312954Y-125476919D01*
X100693223Y-125634820D01*
X101104971Y-125635179D01*
X101452560Y-125491559D01*
X101452560Y-125550000D01*
X101501843Y-125797765D01*
X101642191Y-126007809D01*
X101852235Y-126148157D01*
X102100000Y-126197440D01*
X104100000Y-126197440D01*
X104347765Y-126148157D01*
X104557809Y-126007809D01*
X104698157Y-125797765D01*
X104747440Y-125550000D01*
X104747440Y-124585750D01*
X105465000Y-124585750D01*
X105465000Y-125676310D01*
X105561673Y-125909699D01*
X105740302Y-126088327D01*
X105973691Y-126185000D01*
X106814250Y-126185000D01*
X106973000Y-126026250D01*
X106973000Y-124427000D01*
X107227000Y-124427000D01*
X107227000Y-126026250D01*
X107385750Y-126185000D01*
X108226309Y-126185000D01*
X108459698Y-126088327D01*
X108638327Y-125909699D01*
X108735000Y-125676310D01*
X108735000Y-124585750D01*
X108576250Y-124427000D01*
X107227000Y-124427000D01*
X106973000Y-124427000D01*
X105623750Y-124427000D01*
X105465000Y-124585750D01*
X104747440Y-124585750D01*
X104747440Y-123050000D01*
X104722316Y-122923690D01*
X105465000Y-122923690D01*
X105465000Y-124014250D01*
X105623750Y-124173000D01*
X106973000Y-124173000D01*
X106973000Y-122573750D01*
X107227000Y-122573750D01*
X107227000Y-124173000D01*
X108576250Y-124173000D01*
X108735000Y-124014250D01*
X108735000Y-122923690D01*
X108638327Y-122690301D01*
X108459698Y-122511673D01*
X108226309Y-122415000D01*
X107385750Y-122415000D01*
X107227000Y-122573750D01*
X106973000Y-122573750D01*
X106814250Y-122415000D01*
X105973691Y-122415000D01*
X105740302Y-122511673D01*
X105561673Y-122690301D01*
X105465000Y-122923690D01*
X104722316Y-122923690D01*
X104698157Y-122802235D01*
X104557809Y-122592191D01*
X104347765Y-122451843D01*
X104100000Y-122402560D01*
X102100000Y-122402560D01*
X101852235Y-122451843D01*
X101642191Y-122592191D01*
X101501843Y-122802235D01*
X101452560Y-123050000D01*
X101452560Y-123540000D01*
X101200000Y-123540000D01*
X101073558Y-123565151D01*
X100695029Y-123564821D01*
X100314485Y-123722058D01*
X100023081Y-124012954D01*
X99865180Y-124393223D01*
X99864821Y-124804971D01*
X96968476Y-124804971D01*
X96962575Y-120204971D01*
X99714821Y-120204971D01*
X99872058Y-120585515D01*
X100162954Y-120876919D01*
X100543223Y-121034820D01*
X100954971Y-121035179D01*
X101153210Y-120953269D01*
X101201843Y-121197765D01*
X101342191Y-121407809D01*
X101552235Y-121548157D01*
X101800000Y-121597440D01*
X103800000Y-121597440D01*
X104047765Y-121548157D01*
X104257809Y-121407809D01*
X104398157Y-121197765D01*
X104447440Y-120950000D01*
X104447440Y-120435750D01*
X105165000Y-120435750D01*
X105165000Y-121076310D01*
X105261673Y-121309699D01*
X105440302Y-121488327D01*
X105673691Y-121585000D01*
X106514250Y-121585000D01*
X106673000Y-121426250D01*
X106673000Y-120277000D01*
X106927000Y-120277000D01*
X106927000Y-121426250D01*
X107085750Y-121585000D01*
X107926309Y-121585000D01*
X108159698Y-121488327D01*
X108338327Y-121309699D01*
X108435000Y-121076310D01*
X108435000Y-120435750D01*
X108276250Y-120277000D01*
X106927000Y-120277000D01*
X106673000Y-120277000D01*
X105323750Y-120277000D01*
X105165000Y-120435750D01*
X104447440Y-120435750D01*
X104447440Y-119350000D01*
X104422316Y-119223690D01*
X105165000Y-119223690D01*
X105165000Y-119864250D01*
X105323750Y-120023000D01*
X106673000Y-120023000D01*
X106673000Y-118873750D01*
X106927000Y-118873750D01*
X106927000Y-120023000D01*
X108276250Y-120023000D01*
X108435000Y-119864250D01*
X108435000Y-119223690D01*
X108338327Y-118990301D01*
X108159698Y-118811673D01*
X107926309Y-118715000D01*
X107085750Y-118715000D01*
X106927000Y-118873750D01*
X106673000Y-118873750D01*
X106514250Y-118715000D01*
X105673691Y-118715000D01*
X105440302Y-118811673D01*
X105261673Y-118990301D01*
X105165000Y-119223690D01*
X104422316Y-119223690D01*
X104398157Y-119102235D01*
X104257809Y-118892191D01*
X104047765Y-118751843D01*
X103800000Y-118702560D01*
X101800000Y-118702560D01*
X101552235Y-118751843D01*
X101342191Y-118892191D01*
X101220304Y-119074606D01*
X100956777Y-118965180D01*
X100545029Y-118964821D01*
X100164485Y-119122058D01*
X99873081Y-119412954D01*
X99715180Y-119793223D01*
X99714821Y-120204971D01*
X96962575Y-120204971D01*
X96960000Y-118198424D01*
X96960000Y-114432021D01*
X97686560Y-114432021D01*
X98072437Y-115365915D01*
X98786327Y-116081052D01*
X99719546Y-116468559D01*
X100730021Y-116469440D01*
X101663915Y-116083563D01*
X102379052Y-115369673D01*
X102766559Y-114436454D01*
X102767440Y-113425979D01*
X102381563Y-112492085D01*
X101667673Y-111776948D01*
X100734454Y-111389441D01*
X99723979Y-111388560D01*
X98790085Y-111774437D01*
X98074948Y-112488327D01*
X97687441Y-113421546D01*
X97686560Y-114432021D01*
X96960000Y-114432021D01*
X96960000Y-86878000D01*
X97420560Y-86878000D01*
X97420560Y-88402000D01*
X97469843Y-88649765D01*
X97610191Y-88859809D01*
X97820235Y-89000157D01*
X98068000Y-89049440D01*
X98522646Y-89049440D01*
X98039697Y-89248990D01*
X97646371Y-89641630D01*
X97433243Y-90154900D01*
X97432758Y-90710661D01*
X97644990Y-91224303D01*
X98037630Y-91617629D01*
X98398815Y-91767606D01*
X98039697Y-91915990D01*
X97646371Y-92308630D01*
X97433243Y-92821900D01*
X97432758Y-93377661D01*
X97644990Y-93891303D01*
X98037630Y-94284629D01*
X98550900Y-94497757D01*
X98553336Y-94497759D01*
X98039697Y-94709990D01*
X97646371Y-95102630D01*
X97433243Y-95615900D01*
X97432758Y-96171661D01*
X97644990Y-96685303D01*
X98037630Y-97078629D01*
X98550900Y-97291757D01*
X98553336Y-97291759D01*
X98039697Y-97503990D01*
X97646371Y-97896630D01*
X97433243Y-98409900D01*
X97432758Y-98965661D01*
X97644990Y-99479303D01*
X98037630Y-99872629D01*
X98398815Y-100022606D01*
X98039697Y-100170990D01*
X97646371Y-100563630D01*
X97433243Y-101076900D01*
X97432758Y-101632661D01*
X97644990Y-102146303D01*
X98037630Y-102539629D01*
X98550900Y-102752757D01*
X98553336Y-102752759D01*
X98039697Y-102964990D01*
X97646371Y-103357630D01*
X97433243Y-103870900D01*
X97432758Y-104426661D01*
X97644990Y-104940303D01*
X98037630Y-105333629D01*
X98398815Y-105483606D01*
X98039697Y-105631990D01*
X97646371Y-106024630D01*
X97433243Y-106537900D01*
X97432758Y-107093661D01*
X97644990Y-107607303D01*
X98037630Y-108000629D01*
X98550900Y-108213757D01*
X99106661Y-108214242D01*
X99620303Y-108002010D01*
X100013629Y-107609370D01*
X100027070Y-107577000D01*
X100252198Y-107577000D01*
X101765198Y-109090000D01*
X100183101Y-109090000D01*
X100027942Y-108714485D01*
X99737046Y-108423081D01*
X99356777Y-108265180D01*
X98945029Y-108264821D01*
X98564485Y-108422058D01*
X98273081Y-108712954D01*
X98115180Y-109093223D01*
X98114821Y-109504971D01*
X98272058Y-109885515D01*
X98562954Y-110176919D01*
X98943223Y-110334820D01*
X99110164Y-110334966D01*
X99162599Y-110387401D01*
X99409160Y-110552148D01*
X99457414Y-110561746D01*
X99700000Y-110610000D01*
X101885198Y-110610000D01*
X108372599Y-117097401D01*
X108619161Y-117262148D01*
X108910000Y-117320000D01*
X109187005Y-117320000D01*
X109357189Y-117574698D01*
X109739275Y-117830000D01*
X109357189Y-118085302D01*
X109046120Y-118550849D01*
X108936887Y-119100000D01*
X109046120Y-119649151D01*
X109357189Y-120114698D01*
X109739275Y-120370000D01*
X109357189Y-120625302D01*
X109046120Y-121090849D01*
X108936887Y-121640000D01*
X109046120Y-122189151D01*
X109357189Y-122654698D01*
X109739275Y-122910000D01*
X109357189Y-123165302D01*
X109046120Y-123630849D01*
X108936887Y-124180000D01*
X109046120Y-124729151D01*
X109357189Y-125194698D01*
X109822736Y-125505767D01*
X110371887Y-125615000D01*
X110428113Y-125615000D01*
X110977264Y-125505767D01*
X111442811Y-125194698D01*
X111753880Y-124729151D01*
X111793684Y-124529039D01*
X116628096Y-124529039D01*
X116788959Y-124917423D01*
X117164866Y-125332389D01*
X117670959Y-125571914D01*
X117893000Y-125450629D01*
X117893000Y-124307000D01*
X118147000Y-124307000D01*
X118147000Y-125450629D01*
X118369041Y-125571914D01*
X118875134Y-125332389D01*
X119251041Y-124917423D01*
X119411904Y-124529039D01*
X119289915Y-124307000D01*
X118147000Y-124307000D01*
X117893000Y-124307000D01*
X116750085Y-124307000D01*
X116628096Y-124529039D01*
X111793684Y-124529039D01*
X111863113Y-124180000D01*
X111753880Y-123630849D01*
X111442811Y-123165302D01*
X111060725Y-122910000D01*
X111442811Y-122654698D01*
X111753880Y-122189151D01*
X111863113Y-121640000D01*
X111753880Y-121090849D01*
X111442811Y-120625302D01*
X111060725Y-120370000D01*
X111442811Y-120114698D01*
X111753880Y-119649151D01*
X111863113Y-119100000D01*
X111790392Y-118734410D01*
X112337401Y-118187401D01*
X112502148Y-117940839D01*
X112560000Y-117650000D01*
X112560000Y-116309802D01*
X116936458Y-120686260D01*
X116666120Y-121090849D01*
X116556887Y-121640000D01*
X116666120Y-122189151D01*
X116977189Y-122654698D01*
X117381703Y-122924986D01*
X117164866Y-123027611D01*
X116788959Y-123442577D01*
X116628096Y-123830961D01*
X116750085Y-124053000D01*
X117893000Y-124053000D01*
X117893000Y-124033000D01*
X118147000Y-124033000D01*
X118147000Y-124053000D01*
X119289915Y-124053000D01*
X119411904Y-123830961D01*
X119251041Y-123442577D01*
X118875134Y-123027611D01*
X118658297Y-122924986D01*
X119062811Y-122654698D01*
X119373880Y-122189151D01*
X119483113Y-121640000D01*
X119373880Y-121090849D01*
X119340572Y-121041000D01*
X122694000Y-121041000D01*
X122984839Y-120983148D01*
X123231401Y-120818401D01*
X123252510Y-120797292D01*
X123252510Y-120800810D01*
X123301793Y-121048575D01*
X123442141Y-121258619D01*
X123540000Y-121324007D01*
X123540000Y-122810198D01*
X123162599Y-123187599D01*
X123018967Y-123402560D01*
X122700000Y-123402560D01*
X122452235Y-123451843D01*
X122242191Y-123592191D01*
X122101843Y-123802235D01*
X122052560Y-124050000D01*
X122052560Y-125750000D01*
X122101843Y-125997765D01*
X122242191Y-126207809D01*
X122452235Y-126348157D01*
X122700000Y-126397440D01*
X124700000Y-126397440D01*
X124947765Y-126348157D01*
X125157809Y-126207809D01*
X125298157Y-125997765D01*
X125312227Y-125927029D01*
X126019599Y-126634401D01*
X126266161Y-126799148D01*
X126557000Y-126857000D01*
X137034000Y-126857000D01*
X137324839Y-126799148D01*
X137571401Y-126634401D01*
X138280494Y-125925308D01*
X138338635Y-125964157D01*
X138586400Y-126013440D01*
X140313600Y-126013440D01*
X140561365Y-125964157D01*
X140771409Y-125823809D01*
X140911757Y-125613765D01*
X140961040Y-125366000D01*
X140961040Y-123334000D01*
X140911757Y-123086235D01*
X140771409Y-122876191D01*
X140561365Y-122735843D01*
X140313600Y-122686560D01*
X138586400Y-122686560D01*
X138338635Y-122735843D01*
X138128591Y-122876191D01*
X137988243Y-123086235D01*
X137981016Y-123122566D01*
X137969670Y-123105585D01*
X137483489Y-122780729D01*
X136910000Y-122666655D01*
X136336511Y-122780729D01*
X135850330Y-123105585D01*
X135640000Y-123420366D01*
X135429670Y-123105585D01*
X134943489Y-122780729D01*
X134370000Y-122666655D01*
X133796511Y-122780729D01*
X133310330Y-123105585D01*
X132985474Y-123591766D01*
X132871400Y-124165255D01*
X132871400Y-124534745D01*
X132985474Y-125108234D01*
X133138331Y-125337000D01*
X130897700Y-125337000D01*
X131034820Y-125006777D01*
X131035179Y-124595029D01*
X130877942Y-124214485D01*
X130587046Y-123923081D01*
X130206777Y-123765180D01*
X129795029Y-123764821D01*
X129414485Y-123922058D01*
X129337314Y-123999094D01*
X129298157Y-123802235D01*
X129157809Y-123592191D01*
X128947765Y-123451843D01*
X128700000Y-123402560D01*
X126700000Y-123402560D01*
X126452235Y-123451843D01*
X126242191Y-123592191D01*
X126101843Y-123802235D01*
X126052560Y-124050000D01*
X126052560Y-124517758D01*
X126010000Y-124475198D01*
X126010000Y-121448250D01*
X126600050Y-121448250D01*
X126847815Y-121398967D01*
X127057859Y-121258619D01*
X127123247Y-121160760D01*
X127344452Y-121160760D01*
X127643223Y-121284820D01*
X128054971Y-121285179D01*
X128435515Y-121127942D01*
X128726919Y-120837046D01*
X128884820Y-120456777D01*
X128885179Y-120045029D01*
X128727942Y-119664485D01*
X128437046Y-119373081D01*
X128056777Y-119215180D01*
X127645029Y-119214821D01*
X127264485Y-119372058D01*
X127072057Y-119564150D01*
X127057859Y-119542901D01*
X126847815Y-119402553D01*
X126600050Y-119353270D01*
X126010000Y-119353270D01*
X126010000Y-119325027D01*
X126107859Y-119259639D01*
X126248207Y-119049595D01*
X126297490Y-118801830D01*
X126297490Y-118315255D01*
X133121400Y-118315255D01*
X133121400Y-118684745D01*
X133235474Y-119258234D01*
X133560330Y-119744415D01*
X134046511Y-120069271D01*
X134620000Y-120183345D01*
X135193489Y-120069271D01*
X135679670Y-119744415D01*
X135890000Y-119429634D01*
X136100330Y-119744415D01*
X136586511Y-120069271D01*
X137160000Y-120183345D01*
X137733489Y-120069271D01*
X138219670Y-119744415D01*
X138234500Y-119722220D01*
X138298073Y-119875698D01*
X138476701Y-120054327D01*
X138710090Y-120151000D01*
X139414250Y-120151000D01*
X139573000Y-119992250D01*
X139573000Y-118627000D01*
X139827000Y-118627000D01*
X139827000Y-119992250D01*
X139985750Y-120151000D01*
X140689910Y-120151000D01*
X140923299Y-120054327D01*
X141101927Y-119875698D01*
X141198600Y-119642309D01*
X141198600Y-118785750D01*
X141039850Y-118627000D01*
X139827000Y-118627000D01*
X139573000Y-118627000D01*
X139553000Y-118627000D01*
X139553000Y-118373000D01*
X139573000Y-118373000D01*
X139573000Y-117007750D01*
X139827000Y-117007750D01*
X139827000Y-118373000D01*
X141039850Y-118373000D01*
X141198600Y-118214250D01*
X141198600Y-117357691D01*
X141101927Y-117124302D01*
X140923299Y-116945673D01*
X140689910Y-116849000D01*
X139985750Y-116849000D01*
X139827000Y-117007750D01*
X139573000Y-117007750D01*
X139414250Y-116849000D01*
X138710090Y-116849000D01*
X138476701Y-116945673D01*
X138298073Y-117124302D01*
X138234500Y-117277780D01*
X138219670Y-117255585D01*
X137733489Y-116930729D01*
X137160000Y-116816655D01*
X136586511Y-116930729D01*
X136100330Y-117255585D01*
X135890000Y-117570366D01*
X135679670Y-117255585D01*
X135193489Y-116930729D01*
X134620000Y-116816655D01*
X134046511Y-116930729D01*
X133560330Y-117255585D01*
X133235474Y-117741766D01*
X133121400Y-118315255D01*
X126297490Y-118315255D01*
X126297490Y-118001730D01*
X126248207Y-117753965D01*
X126107859Y-117543921D01*
X125897815Y-117403573D01*
X125650050Y-117354290D01*
X124849950Y-117354290D01*
X124602185Y-117403573D01*
X124560000Y-117431760D01*
X124560000Y-115197440D01*
X124800000Y-115197440D01*
X125047765Y-115148157D01*
X125257809Y-115007809D01*
X125398157Y-114797765D01*
X125447440Y-114550000D01*
X125447440Y-112850000D01*
X126152560Y-112850000D01*
X126152560Y-114550000D01*
X126201843Y-114797765D01*
X126342191Y-115007809D01*
X126552235Y-115148157D01*
X126800000Y-115197440D01*
X128800000Y-115197440D01*
X129047765Y-115148157D01*
X129257809Y-115007809D01*
X129332346Y-114896257D01*
X129362954Y-114926919D01*
X129743223Y-115084820D01*
X130154971Y-115085179D01*
X130535515Y-114927942D01*
X130826919Y-114637046D01*
X130984820Y-114256777D01*
X130985179Y-113845029D01*
X130827942Y-113464485D01*
X130537046Y-113173081D01*
X130156777Y-113015180D01*
X129916459Y-113014970D01*
X129890839Y-112997852D01*
X129600000Y-112940000D01*
X129447440Y-112940000D01*
X129447440Y-112850000D01*
X129398157Y-112602235D01*
X129257809Y-112392191D01*
X129047765Y-112251843D01*
X128800000Y-112202560D01*
X126800000Y-112202560D01*
X126552235Y-112251843D01*
X126342191Y-112392191D01*
X126201843Y-112602235D01*
X126152560Y-112850000D01*
X125447440Y-112850000D01*
X125398157Y-112602235D01*
X125257809Y-112392191D01*
X125047765Y-112251843D01*
X124900540Y-112222558D01*
X124910000Y-112175000D01*
X124910000Y-109224007D01*
X125007859Y-109158619D01*
X125100000Y-109020721D01*
X125192141Y-109158619D01*
X125402185Y-109298967D01*
X125649950Y-109348250D01*
X126450050Y-109348250D01*
X126697815Y-109298967D01*
X126907859Y-109158619D01*
X126973247Y-109060760D01*
X126997259Y-109060760D01*
X127262954Y-109326919D01*
X127643223Y-109484820D01*
X128054971Y-109485179D01*
X128435515Y-109327942D01*
X128726919Y-109037046D01*
X128884820Y-108656777D01*
X128885179Y-108245029D01*
X128727942Y-107864485D01*
X128437046Y-107573081D01*
X128056777Y-107415180D01*
X127645029Y-107414821D01*
X127340232Y-107540760D01*
X126973247Y-107540760D01*
X126907859Y-107442901D01*
X126697815Y-107302553D01*
X126450050Y-107253270D01*
X125817731Y-107253270D01*
X125957859Y-107159639D01*
X126023100Y-107062000D01*
X133131198Y-107062000D01*
X136594689Y-110525491D01*
X136250330Y-110755585D01*
X136040000Y-111070366D01*
X135829670Y-110755585D01*
X135343489Y-110430729D01*
X134770000Y-110316655D01*
X134196511Y-110430729D01*
X133710330Y-110755585D01*
X133385474Y-111241766D01*
X133271400Y-111815255D01*
X133271400Y-112184745D01*
X133385474Y-112758234D01*
X133710330Y-113244415D01*
X134196511Y-113569271D01*
X134770000Y-113683345D01*
X135343489Y-113569271D01*
X135829670Y-113244415D01*
X136040000Y-112929634D01*
X136250330Y-113244415D01*
X136736511Y-113569271D01*
X137310000Y-113683345D01*
X137883489Y-113569271D01*
X138369670Y-113244415D01*
X138381016Y-113227434D01*
X138388243Y-113263765D01*
X138528591Y-113473809D01*
X138738635Y-113614157D01*
X138986400Y-113663440D01*
X140713600Y-113663440D01*
X140961365Y-113614157D01*
X141171409Y-113473809D01*
X141311757Y-113263765D01*
X141361040Y-113016000D01*
X141361040Y-110984000D01*
X141311757Y-110736235D01*
X141171409Y-110526191D01*
X140961365Y-110385843D01*
X140713600Y-110336560D01*
X138986400Y-110336560D01*
X138738635Y-110385843D01*
X138658314Y-110439512D01*
X135147040Y-106928238D01*
X135443489Y-106869271D01*
X135929670Y-106544415D01*
X136140000Y-106229634D01*
X136350330Y-106544415D01*
X136836511Y-106869271D01*
X137410000Y-106983345D01*
X137983489Y-106869271D01*
X138469670Y-106544415D01*
X138484500Y-106522220D01*
X138548073Y-106675698D01*
X138726701Y-106854327D01*
X138960090Y-106951000D01*
X139664250Y-106951000D01*
X139823000Y-106792250D01*
X139823000Y-105427000D01*
X140077000Y-105427000D01*
X140077000Y-106792250D01*
X140235750Y-106951000D01*
X140939910Y-106951000D01*
X141173299Y-106854327D01*
X141351927Y-106675698D01*
X141448600Y-106442309D01*
X141448600Y-105585750D01*
X141289850Y-105427000D01*
X140077000Y-105427000D01*
X139823000Y-105427000D01*
X139803000Y-105427000D01*
X139803000Y-105173000D01*
X139823000Y-105173000D01*
X139823000Y-103807750D01*
X140077000Y-103807750D01*
X140077000Y-105173000D01*
X141289850Y-105173000D01*
X141448600Y-105014250D01*
X141448600Y-104157691D01*
X141351927Y-103924302D01*
X141173299Y-103745673D01*
X140939910Y-103649000D01*
X140235750Y-103649000D01*
X140077000Y-103807750D01*
X139823000Y-103807750D01*
X139664250Y-103649000D01*
X138960090Y-103649000D01*
X138726701Y-103745673D01*
X138548073Y-103924302D01*
X138484500Y-104077780D01*
X138469670Y-104055585D01*
X137983489Y-103730729D01*
X137410000Y-103616655D01*
X136836511Y-103730729D01*
X136350330Y-104055585D01*
X136140000Y-104370366D01*
X135929670Y-104055585D01*
X135443489Y-103730729D01*
X134870000Y-103616655D01*
X134296511Y-103730729D01*
X133810330Y-104055585D01*
X133485474Y-104541766D01*
X133371400Y-105115255D01*
X133371400Y-105484745D01*
X133382789Y-105542000D01*
X130121694Y-105542000D01*
X130276919Y-105387046D01*
X130434820Y-105006777D01*
X130435179Y-104595029D01*
X130374197Y-104447440D01*
X130600000Y-104447440D01*
X130847765Y-104398157D01*
X131057809Y-104257809D01*
X131198157Y-104047765D01*
X131247440Y-103800000D01*
X131247440Y-101800000D01*
X131198157Y-101552235D01*
X131057809Y-101342191D01*
X130847765Y-101201843D01*
X130600000Y-101152560D01*
X128100000Y-101152560D01*
X127852235Y-101201843D01*
X127642191Y-101342191D01*
X127501843Y-101552235D01*
X127452560Y-101800000D01*
X127452560Y-103800000D01*
X127501843Y-104047765D01*
X127642191Y-104257809D01*
X127852235Y-104398157D01*
X128100000Y-104447440D01*
X128425714Y-104447440D01*
X128365180Y-104593223D01*
X128364821Y-105004971D01*
X128522058Y-105385515D01*
X128678270Y-105542000D01*
X126023394Y-105542000D01*
X125957859Y-105443921D01*
X125747815Y-105303573D01*
X125500050Y-105254290D01*
X124699950Y-105254290D01*
X124452185Y-105303573D01*
X124242141Y-105443921D01*
X124101793Y-105653965D01*
X124052510Y-105901730D01*
X124052510Y-106701830D01*
X124101793Y-106949595D01*
X124242141Y-107159639D01*
X124382269Y-107253270D01*
X123749950Y-107253270D01*
X123502185Y-107302553D01*
X123292141Y-107442901D01*
X123151793Y-107652945D01*
X123102510Y-107900710D01*
X123102510Y-108700810D01*
X123151793Y-108948575D01*
X123292141Y-109158619D01*
X123390000Y-109224007D01*
X123390000Y-111860198D01*
X123262599Y-111987599D01*
X123118967Y-112202560D01*
X122800000Y-112202560D01*
X122552235Y-112251843D01*
X122342191Y-112392191D01*
X122201843Y-112602235D01*
X122152560Y-112850000D01*
X122152560Y-114550000D01*
X122201843Y-114797765D01*
X122342191Y-115007809D01*
X122552235Y-115148157D01*
X122800000Y-115197440D01*
X123040000Y-115197440D01*
X123040000Y-118860198D01*
X122379198Y-119521000D01*
X119399371Y-119521000D01*
X119483113Y-119100000D01*
X119373880Y-118550849D01*
X119062811Y-118085302D01*
X118761954Y-117884275D01*
X118742894Y-117788460D01*
X119062811Y-117574698D01*
X119373880Y-117109151D01*
X119483113Y-116560000D01*
X119373880Y-116010849D01*
X119062811Y-115545302D01*
X118761954Y-115344275D01*
X118742894Y-115248460D01*
X119062811Y-115034698D01*
X119373880Y-114569151D01*
X119483113Y-114020000D01*
X119373880Y-113470849D01*
X119143997Y-113126805D01*
X122663401Y-109607401D01*
X122828148Y-109360839D01*
X122886000Y-109070000D01*
X122886000Y-98985750D01*
X123165000Y-98985750D01*
X123165000Y-99676310D01*
X123261673Y-99909699D01*
X123440302Y-100088327D01*
X123673691Y-100185000D01*
X124514250Y-100185000D01*
X124673000Y-100026250D01*
X124673000Y-98827000D01*
X124927000Y-98827000D01*
X124927000Y-100026250D01*
X125085750Y-100185000D01*
X125926309Y-100185000D01*
X126159698Y-100088327D01*
X126338327Y-99909699D01*
X126435000Y-99676310D01*
X126435000Y-99085750D01*
X127465000Y-99085750D01*
X127465000Y-99926309D01*
X127561673Y-100159698D01*
X127740301Y-100338327D01*
X127973690Y-100435000D01*
X129064250Y-100435000D01*
X129223000Y-100276250D01*
X129223000Y-98927000D01*
X129477000Y-98927000D01*
X129477000Y-100276250D01*
X129635750Y-100435000D01*
X130726310Y-100435000D01*
X130959699Y-100338327D01*
X131138327Y-100159698D01*
X131235000Y-99926309D01*
X131235000Y-99085750D01*
X131076250Y-98927000D01*
X129477000Y-98927000D01*
X129223000Y-98927000D01*
X127623750Y-98927000D01*
X127465000Y-99085750D01*
X126435000Y-99085750D01*
X126435000Y-98985750D01*
X126276250Y-98827000D01*
X124927000Y-98827000D01*
X124673000Y-98827000D01*
X123323750Y-98827000D01*
X123165000Y-98985750D01*
X122886000Y-98985750D01*
X122886000Y-97723690D01*
X123165000Y-97723690D01*
X123165000Y-98414250D01*
X123323750Y-98573000D01*
X124673000Y-98573000D01*
X124673000Y-97373750D01*
X124927000Y-97373750D01*
X124927000Y-98573000D01*
X126276250Y-98573000D01*
X126435000Y-98414250D01*
X126435000Y-97723690D01*
X126414290Y-97673691D01*
X127465000Y-97673691D01*
X127465000Y-98514250D01*
X127623750Y-98673000D01*
X129223000Y-98673000D01*
X129223000Y-97323750D01*
X129477000Y-97323750D01*
X129477000Y-98673000D01*
X131076250Y-98673000D01*
X131235000Y-98514250D01*
X131235000Y-97673691D01*
X131138327Y-97440302D01*
X130959699Y-97261673D01*
X130726310Y-97165000D01*
X129635750Y-97165000D01*
X129477000Y-97323750D01*
X129223000Y-97323750D01*
X129064250Y-97165000D01*
X127973690Y-97165000D01*
X127740301Y-97261673D01*
X127561673Y-97440302D01*
X127465000Y-97673691D01*
X126414290Y-97673691D01*
X126338327Y-97490301D01*
X126159698Y-97311673D01*
X125926309Y-97215000D01*
X125085750Y-97215000D01*
X124927000Y-97373750D01*
X124673000Y-97373750D01*
X124514250Y-97215000D01*
X123673691Y-97215000D01*
X123440302Y-97311673D01*
X123261673Y-97490301D01*
X123165000Y-97723690D01*
X122886000Y-97723690D01*
X122886000Y-94885750D01*
X123065000Y-94885750D01*
X123065000Y-95576310D01*
X123161673Y-95809699D01*
X123340302Y-95988327D01*
X123573691Y-96085000D01*
X124414250Y-96085000D01*
X124573000Y-95926250D01*
X124573000Y-94727000D01*
X124827000Y-94727000D01*
X124827000Y-95926250D01*
X124985750Y-96085000D01*
X125826309Y-96085000D01*
X126059698Y-95988327D01*
X126238327Y-95809699D01*
X126335000Y-95576310D01*
X126335000Y-95565255D01*
X133371400Y-95565255D01*
X133371400Y-95934745D01*
X133485474Y-96508234D01*
X133810330Y-96994415D01*
X134296511Y-97319271D01*
X134870000Y-97433345D01*
X135443489Y-97319271D01*
X135929670Y-96994415D01*
X136140000Y-96679634D01*
X136350330Y-96994415D01*
X136836511Y-97319271D01*
X137410000Y-97433345D01*
X137983489Y-97319271D01*
X138469670Y-96994415D01*
X138481016Y-96977434D01*
X138488243Y-97013765D01*
X138628591Y-97223809D01*
X138838635Y-97364157D01*
X139086400Y-97413440D01*
X140813600Y-97413440D01*
X141061365Y-97364157D01*
X141271409Y-97223809D01*
X141411757Y-97013765D01*
X141461040Y-96766000D01*
X141461040Y-94734000D01*
X141411757Y-94486235D01*
X141271409Y-94276191D01*
X141061365Y-94135843D01*
X140813600Y-94086560D01*
X139086400Y-94086560D01*
X138838635Y-94135843D01*
X138628591Y-94276191D01*
X138488243Y-94486235D01*
X138481016Y-94522566D01*
X138469670Y-94505585D01*
X137983489Y-94180729D01*
X137410000Y-94066655D01*
X136836511Y-94180729D01*
X136350330Y-94505585D01*
X136140000Y-94820366D01*
X135929670Y-94505585D01*
X135443489Y-94180729D01*
X134870000Y-94066655D01*
X134296511Y-94180729D01*
X133810330Y-94505585D01*
X133485474Y-94991766D01*
X133371400Y-95565255D01*
X126335000Y-95565255D01*
X126335000Y-94885750D01*
X126176250Y-94727000D01*
X124827000Y-94727000D01*
X124573000Y-94727000D01*
X123223750Y-94727000D01*
X123065000Y-94885750D01*
X122886000Y-94885750D01*
X122886000Y-93623690D01*
X123065000Y-93623690D01*
X123065000Y-94314250D01*
X123223750Y-94473000D01*
X124573000Y-94473000D01*
X124573000Y-93273750D01*
X124827000Y-93273750D01*
X124827000Y-94473000D01*
X126176250Y-94473000D01*
X126335000Y-94314250D01*
X126335000Y-93623690D01*
X126238327Y-93390301D01*
X126059698Y-93211673D01*
X125826309Y-93115000D01*
X124985750Y-93115000D01*
X124827000Y-93273750D01*
X124573000Y-93273750D01*
X124414250Y-93115000D01*
X123573691Y-93115000D01*
X123340302Y-93211673D01*
X123161673Y-93390301D01*
X123065000Y-93623690D01*
X122886000Y-93623690D01*
X122886000Y-92251400D01*
X122853895Y-92090000D01*
X122828155Y-91960579D01*
X122828150Y-91960572D01*
X122828148Y-91960561D01*
X122741416Y-91830757D01*
X122663415Y-91714013D01*
X121507623Y-90558161D01*
X121657809Y-90457809D01*
X121798157Y-90247765D01*
X121847440Y-90000000D01*
X121847440Y-89435750D01*
X122565000Y-89435750D01*
X122565000Y-90126310D01*
X122661673Y-90359699D01*
X122840302Y-90538327D01*
X123073691Y-90635000D01*
X123914250Y-90635000D01*
X124073000Y-90476250D01*
X124073000Y-89277000D01*
X124327000Y-89277000D01*
X124327000Y-90476250D01*
X124485750Y-90635000D01*
X125326309Y-90635000D01*
X125559698Y-90538327D01*
X125738327Y-90359699D01*
X125835000Y-90126310D01*
X125835000Y-89435750D01*
X125764505Y-89365255D01*
X133121400Y-89365255D01*
X133121400Y-89734745D01*
X133235474Y-90308234D01*
X133560330Y-90794415D01*
X134046511Y-91119271D01*
X134620000Y-91233345D01*
X135193489Y-91119271D01*
X135679670Y-90794415D01*
X135890000Y-90479634D01*
X136100330Y-90794415D01*
X136586511Y-91119271D01*
X137160000Y-91233345D01*
X137733489Y-91119271D01*
X138219670Y-90794415D01*
X138231016Y-90777434D01*
X138238243Y-90813765D01*
X138378591Y-91023809D01*
X138588635Y-91164157D01*
X138836400Y-91213440D01*
X140563600Y-91213440D01*
X140811365Y-91164157D01*
X141021409Y-91023809D01*
X141161757Y-90813765D01*
X141211040Y-90566000D01*
X141211040Y-88534000D01*
X141161757Y-88286235D01*
X141021409Y-88076191D01*
X140811365Y-87935843D01*
X140563600Y-87886560D01*
X138836400Y-87886560D01*
X138588635Y-87935843D01*
X138378591Y-88076191D01*
X138238243Y-88286235D01*
X138231016Y-88322566D01*
X138219670Y-88305585D01*
X137733489Y-87980729D01*
X137160000Y-87866655D01*
X136586511Y-87980729D01*
X136100330Y-88305585D01*
X135890000Y-88620366D01*
X135679670Y-88305585D01*
X135193489Y-87980729D01*
X134620000Y-87866655D01*
X134046511Y-87980729D01*
X133560330Y-88305585D01*
X133235474Y-88791766D01*
X133121400Y-89365255D01*
X125764505Y-89365255D01*
X125676250Y-89277000D01*
X124327000Y-89277000D01*
X124073000Y-89277000D01*
X122723750Y-89277000D01*
X122565000Y-89435750D01*
X121847440Y-89435750D01*
X121847440Y-88300000D01*
X121822316Y-88173690D01*
X122565000Y-88173690D01*
X122565000Y-88864250D01*
X122723750Y-89023000D01*
X124073000Y-89023000D01*
X124073000Y-87823750D01*
X124327000Y-87823750D01*
X124327000Y-89023000D01*
X125676250Y-89023000D01*
X125835000Y-88864250D01*
X125835000Y-88173690D01*
X125738327Y-87940301D01*
X125559698Y-87761673D01*
X125326309Y-87665000D01*
X124485750Y-87665000D01*
X124327000Y-87823750D01*
X124073000Y-87823750D01*
X123914250Y-87665000D01*
X123073691Y-87665000D01*
X122840302Y-87761673D01*
X122661673Y-87940301D01*
X122565000Y-88173690D01*
X121822316Y-88173690D01*
X121798157Y-88052235D01*
X121657809Y-87842191D01*
X121447765Y-87701843D01*
X121200000Y-87652560D01*
X120960000Y-87652560D01*
X120960000Y-86200000D01*
X120902148Y-85909161D01*
X120737401Y-85662599D01*
X120460552Y-85385750D01*
X124665000Y-85385750D01*
X124665000Y-86476310D01*
X124761673Y-86709699D01*
X124940302Y-86888327D01*
X125173691Y-86985000D01*
X126014250Y-86985000D01*
X126173000Y-86826250D01*
X126173000Y-85227000D01*
X126427000Y-85227000D01*
X126427000Y-86826250D01*
X126585750Y-86985000D01*
X127426309Y-86985000D01*
X127659698Y-86888327D01*
X127838327Y-86709699D01*
X127935000Y-86476310D01*
X127935000Y-85385750D01*
X127776250Y-85227000D01*
X126427000Y-85227000D01*
X126173000Y-85227000D01*
X124823750Y-85227000D01*
X124665000Y-85385750D01*
X120460552Y-85385750D01*
X120385079Y-85310277D01*
X120385179Y-85195029D01*
X120227942Y-84814485D01*
X119937046Y-84523081D01*
X119556777Y-84365180D01*
X119145029Y-84364821D01*
X118764485Y-84522058D01*
X118473081Y-84812954D01*
X118315180Y-85193223D01*
X118314821Y-85604971D01*
X118472058Y-85985515D01*
X118762954Y-86276919D01*
X119143223Y-86434820D01*
X119360207Y-86435009D01*
X119440000Y-86514802D01*
X119440000Y-87652560D01*
X119200000Y-87652560D01*
X118952235Y-87701843D01*
X118742191Y-87842191D01*
X118601843Y-88052235D01*
X118552560Y-88300000D01*
X118552560Y-90000000D01*
X118601843Y-90247765D01*
X118742191Y-90457809D01*
X118952235Y-90598157D01*
X119200000Y-90647440D01*
X119518767Y-90647440D01*
X119581174Y-90740839D01*
X119662585Y-90862687D01*
X121366000Y-92566190D01*
X121366000Y-93079762D01*
X121237401Y-92887299D01*
X120990839Y-92722552D01*
X120700000Y-92664700D01*
X120589502Y-92664700D01*
X117694355Y-89769553D01*
X117726919Y-89737046D01*
X117884820Y-89356777D01*
X117885179Y-88945029D01*
X117727942Y-88564485D01*
X117437046Y-88273081D01*
X117056777Y-88115180D01*
X116645029Y-88114821D01*
X116264485Y-88272058D01*
X115973081Y-88562954D01*
X115847440Y-88865532D01*
X115847440Y-87650000D01*
X115798157Y-87402235D01*
X115657809Y-87192191D01*
X115447765Y-87051843D01*
X115221000Y-87006737D01*
X115221000Y-85135750D01*
X115415000Y-85135750D01*
X115415000Y-85776310D01*
X115511673Y-86009699D01*
X115690302Y-86188327D01*
X115923691Y-86285000D01*
X116264250Y-86285000D01*
X116423000Y-86126250D01*
X116423000Y-84977000D01*
X116677000Y-84977000D01*
X116677000Y-86126250D01*
X116835750Y-86285000D01*
X117176309Y-86285000D01*
X117409698Y-86188327D01*
X117588327Y-86009699D01*
X117685000Y-85776310D01*
X117685000Y-85135750D01*
X117526250Y-84977000D01*
X116677000Y-84977000D01*
X116423000Y-84977000D01*
X115573750Y-84977000D01*
X115415000Y-85135750D01*
X115221000Y-85135750D01*
X115221000Y-83923690D01*
X115415000Y-83923690D01*
X115415000Y-84564250D01*
X115573750Y-84723000D01*
X116423000Y-84723000D01*
X116423000Y-83573750D01*
X116677000Y-83573750D01*
X116677000Y-84723000D01*
X117526250Y-84723000D01*
X117685000Y-84564250D01*
X117685000Y-83923690D01*
X117602158Y-83723690D01*
X124665000Y-83723690D01*
X124665000Y-84814250D01*
X124823750Y-84973000D01*
X126173000Y-84973000D01*
X126173000Y-83373750D01*
X126427000Y-83373750D01*
X126427000Y-84973000D01*
X127776250Y-84973000D01*
X127935000Y-84814250D01*
X127935000Y-83850000D01*
X128652560Y-83850000D01*
X128652560Y-86350000D01*
X128701843Y-86597765D01*
X128842191Y-86807809D01*
X129052235Y-86948157D01*
X129300000Y-86997440D01*
X131300000Y-86997440D01*
X131547765Y-86948157D01*
X131757809Y-86807809D01*
X131832381Y-86696205D01*
X131912954Y-86776919D01*
X132293223Y-86934820D01*
X132704971Y-86935179D01*
X133085515Y-86777942D01*
X133376919Y-86487046D01*
X133534820Y-86106777D01*
X133535179Y-85695029D01*
X133377942Y-85314485D01*
X133087046Y-85023081D01*
X132706777Y-84865180D01*
X132539836Y-84865034D01*
X132237401Y-84562599D01*
X131990839Y-84397852D01*
X131947440Y-84389219D01*
X131947440Y-83850000D01*
X131898157Y-83602235D01*
X131757809Y-83392191D01*
X131547765Y-83251843D01*
X131300000Y-83202560D01*
X129300000Y-83202560D01*
X129052235Y-83251843D01*
X128842191Y-83392191D01*
X128701843Y-83602235D01*
X128652560Y-83850000D01*
X127935000Y-83850000D01*
X127935000Y-83723690D01*
X127838327Y-83490301D01*
X127659698Y-83311673D01*
X127426309Y-83215000D01*
X126585750Y-83215000D01*
X126427000Y-83373750D01*
X126173000Y-83373750D01*
X126014250Y-83215000D01*
X125173691Y-83215000D01*
X124940302Y-83311673D01*
X124761673Y-83490301D01*
X124665000Y-83723690D01*
X117602158Y-83723690D01*
X117588327Y-83690301D01*
X117409698Y-83511673D01*
X117176309Y-83415000D01*
X116835750Y-83415000D01*
X116677000Y-83573750D01*
X116423000Y-83573750D01*
X116264250Y-83415000D01*
X115923691Y-83415000D01*
X115690302Y-83511673D01*
X115511673Y-83690301D01*
X115415000Y-83923690D01*
X115221000Y-83923690D01*
X115221000Y-83535019D01*
X115404971Y-83535179D01*
X115785515Y-83377942D01*
X116076919Y-83087046D01*
X116106729Y-83015255D01*
X133371400Y-83015255D01*
X133371400Y-83384745D01*
X133485474Y-83958234D01*
X133810330Y-84444415D01*
X134296511Y-84769271D01*
X134870000Y-84883345D01*
X135443489Y-84769271D01*
X135929670Y-84444415D01*
X136140000Y-84129634D01*
X136350330Y-84444415D01*
X136836511Y-84769271D01*
X137410000Y-84883345D01*
X137983489Y-84769271D01*
X138469670Y-84444415D01*
X138481016Y-84427434D01*
X138488243Y-84463765D01*
X138628591Y-84673809D01*
X138838635Y-84814157D01*
X139086400Y-84863440D01*
X140813600Y-84863440D01*
X141061365Y-84814157D01*
X141271409Y-84673809D01*
X141411757Y-84463765D01*
X141461040Y-84216000D01*
X141461040Y-82184000D01*
X141411757Y-81936235D01*
X141271409Y-81726191D01*
X141061365Y-81585843D01*
X140813600Y-81536560D01*
X139086400Y-81536560D01*
X138838635Y-81585843D01*
X138628591Y-81726191D01*
X138488243Y-81936235D01*
X138481016Y-81972566D01*
X138469670Y-81955585D01*
X137983489Y-81630729D01*
X137410000Y-81516655D01*
X136836511Y-81630729D01*
X136350330Y-81955585D01*
X136140000Y-82270366D01*
X135929670Y-81955585D01*
X135443489Y-81630729D01*
X134870000Y-81516655D01*
X134296511Y-81630729D01*
X133810330Y-81955585D01*
X133485474Y-82441766D01*
X133371400Y-83015255D01*
X116106729Y-83015255D01*
X116234820Y-82706777D01*
X116234986Y-82516185D01*
X116352148Y-82340839D01*
X116410000Y-82050000D01*
X116410000Y-81129039D01*
X117228096Y-81129039D01*
X117388959Y-81517423D01*
X117764866Y-81932389D01*
X118270959Y-82171914D01*
X118493000Y-82050629D01*
X118493000Y-80907000D01*
X118747000Y-80907000D01*
X118747000Y-82050629D01*
X118969041Y-82171914D01*
X119475134Y-81932389D01*
X119851041Y-81517423D01*
X120011904Y-81129039D01*
X119889915Y-80907000D01*
X118747000Y-80907000D01*
X118493000Y-80907000D01*
X117350085Y-80907000D01*
X117228096Y-81129039D01*
X116410000Y-81129039D01*
X116410000Y-68450000D01*
X116352148Y-68159161D01*
X116187401Y-67912599D01*
X116053595Y-67823193D01*
X112123874Y-63893379D01*
X112353880Y-63549151D01*
X112463113Y-63000000D01*
X112353880Y-62450849D01*
X112042811Y-61985302D01*
X111577264Y-61674233D01*
X111028113Y-61565000D01*
X110971887Y-61565000D01*
X110422736Y-61674233D01*
X109957189Y-61985302D01*
X109646120Y-62450849D01*
X109536887Y-63000000D01*
X109646120Y-63549151D01*
X109957189Y-64014698D01*
X110257978Y-64215679D01*
X110277053Y-64311576D01*
X109957189Y-64525302D01*
X109646120Y-64990849D01*
X109536887Y-65540000D01*
X109646120Y-66089151D01*
X109957189Y-66554698D01*
X110257978Y-66755679D01*
X110277053Y-66851576D01*
X109957189Y-67065302D01*
X109646120Y-67530849D01*
X109536887Y-68080000D01*
X109601312Y-68403886D01*
X107262599Y-70742599D01*
X107097852Y-70989161D01*
X107040000Y-71280000D01*
X107040000Y-95420196D01*
X106914485Y-95472058D01*
X106623081Y-95762954D01*
X106465180Y-96143223D01*
X106464821Y-96554971D01*
X106585261Y-96846459D01*
X102584706Y-92845904D01*
X102807629Y-92623370D01*
X103020757Y-92110100D01*
X103021242Y-91554339D01*
X102809010Y-91040697D01*
X102416370Y-90647371D01*
X101903100Y-90434243D01*
X101900664Y-90434241D01*
X102414303Y-90222010D01*
X102807629Y-89829370D01*
X103020757Y-89316100D01*
X103021242Y-88760339D01*
X102809010Y-88246697D01*
X102416370Y-87853371D01*
X101903100Y-87640243D01*
X101347339Y-87639758D01*
X100833697Y-87851990D01*
X100440371Y-88244630D01*
X100227243Y-88757900D01*
X100226758Y-89313661D01*
X100438990Y-89827303D01*
X100831630Y-90220629D01*
X101344900Y-90433757D01*
X101347336Y-90433759D01*
X100833697Y-90645990D01*
X100440371Y-91038630D01*
X100227243Y-91551900D01*
X100226758Y-92107661D01*
X100323171Y-92341000D01*
X100027531Y-92341000D01*
X100015010Y-92310697D01*
X99622370Y-91917371D01*
X99261185Y-91767394D01*
X99620303Y-91619010D01*
X100013629Y-91226370D01*
X100226757Y-90713100D01*
X100227242Y-90157339D01*
X100015010Y-89643697D01*
X99622370Y-89250371D01*
X99138474Y-89049440D01*
X99592000Y-89049440D01*
X99839765Y-89000157D01*
X100049809Y-88859809D01*
X100190157Y-88649765D01*
X100239440Y-88402000D01*
X100239440Y-86878000D01*
X100190157Y-86630235D01*
X100049809Y-86420191D01*
X99839765Y-86279843D01*
X99592000Y-86230560D01*
X98068000Y-86230560D01*
X97820235Y-86279843D01*
X97610191Y-86420191D01*
X97469843Y-86630235D01*
X97420560Y-86878000D01*
X96960000Y-86878000D01*
X96960000Y-81158021D01*
X97686560Y-81158021D01*
X98072437Y-82091915D01*
X98786327Y-82807052D01*
X99719546Y-83194559D01*
X100730021Y-83195440D01*
X101663915Y-82809563D01*
X102379052Y-82095673D01*
X102766559Y-81162454D01*
X102767440Y-80151979D01*
X102381563Y-79218085D01*
X101667673Y-78502948D01*
X100734454Y-78115441D01*
X99875563Y-78114692D01*
X100085515Y-78027942D01*
X100376919Y-77737046D01*
X100534820Y-77356777D01*
X100535179Y-76945029D01*
X100460000Y-76763081D01*
X100460000Y-76647440D01*
X100700000Y-76647440D01*
X100947765Y-76598157D01*
X101157809Y-76457809D01*
X101298157Y-76247765D01*
X101347440Y-76000000D01*
X101347440Y-75035750D01*
X102065000Y-75035750D01*
X102065000Y-76126310D01*
X102161673Y-76359699D01*
X102340302Y-76538327D01*
X102573691Y-76635000D01*
X103414250Y-76635000D01*
X103573000Y-76476250D01*
X103573000Y-74877000D01*
X103827000Y-74877000D01*
X103827000Y-76476250D01*
X103985750Y-76635000D01*
X104826309Y-76635000D01*
X105059698Y-76538327D01*
X105238327Y-76359699D01*
X105335000Y-76126310D01*
X105335000Y-75035750D01*
X105176250Y-74877000D01*
X103827000Y-74877000D01*
X103573000Y-74877000D01*
X102223750Y-74877000D01*
X102065000Y-75035750D01*
X101347440Y-75035750D01*
X101347440Y-73500000D01*
X101322316Y-73373690D01*
X102065000Y-73373690D01*
X102065000Y-74464250D01*
X102223750Y-74623000D01*
X103573000Y-74623000D01*
X103573000Y-73023750D01*
X103827000Y-73023750D01*
X103827000Y-74623000D01*
X105176250Y-74623000D01*
X105335000Y-74464250D01*
X105335000Y-73373690D01*
X105238327Y-73140301D01*
X105059698Y-72961673D01*
X104826309Y-72865000D01*
X103985750Y-72865000D01*
X103827000Y-73023750D01*
X103573000Y-73023750D01*
X103414250Y-72865000D01*
X102573691Y-72865000D01*
X102340302Y-72961673D01*
X102161673Y-73140301D01*
X102065000Y-73373690D01*
X101322316Y-73373690D01*
X101298157Y-73252235D01*
X101157809Y-73042191D01*
X100947765Y-72901843D01*
X100700000Y-72852560D01*
X98700000Y-72852560D01*
X98452235Y-72901843D01*
X98242191Y-73042191D01*
X98101843Y-73252235D01*
X98052560Y-73500000D01*
X98052560Y-76000000D01*
X98101843Y-76247765D01*
X98242191Y-76457809D01*
X98452235Y-76598157D01*
X98596544Y-76626862D01*
X98465180Y-76943223D01*
X98464821Y-77354971D01*
X98622058Y-77735515D01*
X98912954Y-78026919D01*
X99293223Y-78184820D01*
X99553388Y-78185047D01*
X98790085Y-78500437D01*
X98074948Y-79214327D01*
X97687441Y-80147546D01*
X97686560Y-81158021D01*
X96960000Y-81158021D01*
X96960000Y-67900000D01*
X98302560Y-67900000D01*
X98302560Y-70400000D01*
X98351843Y-70647765D01*
X98492191Y-70857809D01*
X98702235Y-70998157D01*
X98950000Y-71047440D01*
X100950000Y-71047440D01*
X101197765Y-70998157D01*
X101407809Y-70857809D01*
X101548157Y-70647765D01*
X101597440Y-70400000D01*
X101597440Y-69435750D01*
X102315000Y-69435750D01*
X102315000Y-70526310D01*
X102411673Y-70759699D01*
X102590302Y-70938327D01*
X102823691Y-71035000D01*
X103664250Y-71035000D01*
X103823000Y-70876250D01*
X103823000Y-69277000D01*
X104077000Y-69277000D01*
X104077000Y-70876250D01*
X104235750Y-71035000D01*
X105076309Y-71035000D01*
X105309698Y-70938327D01*
X105488327Y-70759699D01*
X105585000Y-70526310D01*
X105585000Y-69435750D01*
X105426250Y-69277000D01*
X104077000Y-69277000D01*
X103823000Y-69277000D01*
X102473750Y-69277000D01*
X102315000Y-69435750D01*
X101597440Y-69435750D01*
X101597440Y-67900000D01*
X101572316Y-67773690D01*
X102315000Y-67773690D01*
X102315000Y-68864250D01*
X102473750Y-69023000D01*
X103823000Y-69023000D01*
X103823000Y-67423750D01*
X104077000Y-67423750D01*
X104077000Y-69023000D01*
X105426250Y-69023000D01*
X105585000Y-68864250D01*
X105585000Y-67773690D01*
X105488327Y-67540301D01*
X105309698Y-67361673D01*
X105076309Y-67265000D01*
X104235750Y-67265000D01*
X104077000Y-67423750D01*
X103823000Y-67423750D01*
X103664250Y-67265000D01*
X102823691Y-67265000D01*
X102590302Y-67361673D01*
X102411673Y-67540301D01*
X102315000Y-67773690D01*
X101572316Y-67773690D01*
X101548157Y-67652235D01*
X101407809Y-67442191D01*
X101197765Y-67301843D01*
X100950000Y-67252560D01*
X100710000Y-67252560D01*
X100710000Y-66950000D01*
X100652148Y-66659161D01*
X100487401Y-66412599D01*
X100385035Y-66310233D01*
X100385179Y-66145029D01*
X100227942Y-65764485D01*
X99937046Y-65473081D01*
X99556777Y-65315180D01*
X99145029Y-65314821D01*
X98764485Y-65472058D01*
X98473081Y-65762954D01*
X98315180Y-66143223D01*
X98314821Y-66554971D01*
X98472058Y-66935515D01*
X98762954Y-67226919D01*
X98865285Y-67269411D01*
X98702235Y-67301843D01*
X98492191Y-67442191D01*
X98351843Y-67652235D01*
X98302560Y-67900000D01*
X96960000Y-67900000D01*
X96960000Y-63885890D01*
X101114940Y-63885890D01*
X101114940Y-65476509D01*
X101211613Y-65709898D01*
X101390241Y-65888527D01*
X101623630Y-65985200D01*
X103214250Y-65985200D01*
X103373000Y-65826450D01*
X103373000Y-63727140D01*
X103627000Y-63727140D01*
X103627000Y-65826450D01*
X103785750Y-65985200D01*
X105376370Y-65985200D01*
X105609759Y-65888527D01*
X105788387Y-65709898D01*
X105885060Y-65476509D01*
X105885060Y-63885890D01*
X105726310Y-63727140D01*
X103627000Y-63727140D01*
X103373000Y-63727140D01*
X101273690Y-63727140D01*
X101114940Y-63885890D01*
X96960000Y-63885890D01*
X96960000Y-62979811D01*
X97050940Y-62997900D01*
X100551060Y-62997900D01*
X100798825Y-62948617D01*
X101008869Y-62808269D01*
X101114940Y-62649524D01*
X101114940Y-63314390D01*
X101273690Y-63473140D01*
X103373000Y-63473140D01*
X103373000Y-61373830D01*
X103627000Y-61373830D01*
X103627000Y-63473140D01*
X105726310Y-63473140D01*
X105885060Y-63314390D01*
X105885060Y-61723771D01*
X105788387Y-61490382D01*
X105609759Y-61311753D01*
X105376370Y-61215080D01*
X103785750Y-61215080D01*
X103627000Y-61373830D01*
X103373000Y-61373830D01*
X103214250Y-61215080D01*
X101623630Y-61215080D01*
X101390241Y-61311753D01*
X101211613Y-61490382D01*
X101198500Y-61522040D01*
X101198500Y-59668401D01*
X101292131Y-59808529D01*
X101502175Y-59948877D01*
X101749940Y-59998160D01*
X105250060Y-59998160D01*
X105497825Y-59948877D01*
X105707869Y-59808529D01*
X105848217Y-59598485D01*
X105897500Y-59350720D01*
X105897500Y-57735750D01*
X120965000Y-57735750D01*
X120965000Y-58576309D01*
X121061673Y-58809698D01*
X121240301Y-58988327D01*
X121473690Y-59085000D01*
X122164250Y-59085000D01*
X122323000Y-58926250D01*
X122323000Y-57577000D01*
X122577000Y-57577000D01*
X122577000Y-58926250D01*
X122735750Y-59085000D01*
X123426310Y-59085000D01*
X123659699Y-58988327D01*
X123838327Y-58809698D01*
X123935000Y-58576309D01*
X123935000Y-57885750D01*
X124965000Y-57885750D01*
X124965000Y-58726309D01*
X125061673Y-58959698D01*
X125240301Y-59138327D01*
X125473690Y-59235000D01*
X126164250Y-59235000D01*
X126323000Y-59076250D01*
X126323000Y-57727000D01*
X126577000Y-57727000D01*
X126577000Y-59076250D01*
X126735750Y-59235000D01*
X127426310Y-59235000D01*
X127659699Y-59138327D01*
X127838327Y-58959698D01*
X127935000Y-58726309D01*
X127935000Y-57885750D01*
X127776250Y-57727000D01*
X126577000Y-57727000D01*
X126323000Y-57727000D01*
X125123750Y-57727000D01*
X124965000Y-57885750D01*
X123935000Y-57885750D01*
X123935000Y-57735750D01*
X123776250Y-57577000D01*
X122577000Y-57577000D01*
X122323000Y-57577000D01*
X121123750Y-57577000D01*
X120965000Y-57735750D01*
X105897500Y-57735750D01*
X105897500Y-56323691D01*
X120965000Y-56323691D01*
X120965000Y-57164250D01*
X121123750Y-57323000D01*
X122323000Y-57323000D01*
X122323000Y-55973750D01*
X122577000Y-55973750D01*
X122577000Y-57323000D01*
X123776250Y-57323000D01*
X123935000Y-57164250D01*
X123935000Y-56473691D01*
X124965000Y-56473691D01*
X124965000Y-57314250D01*
X125123750Y-57473000D01*
X126323000Y-57473000D01*
X126323000Y-56123750D01*
X126577000Y-56123750D01*
X126577000Y-57473000D01*
X127776250Y-57473000D01*
X127935000Y-57314250D01*
X127935000Y-56473691D01*
X127838327Y-56240302D01*
X127659699Y-56061673D01*
X127426310Y-55965000D01*
X126735750Y-55965000D01*
X126577000Y-56123750D01*
X126323000Y-56123750D01*
X126164250Y-55965000D01*
X125473690Y-55965000D01*
X125240301Y-56061673D01*
X125061673Y-56240302D01*
X124965000Y-56473691D01*
X123935000Y-56473691D01*
X123935000Y-56323691D01*
X123838327Y-56090302D01*
X123659699Y-55911673D01*
X123426310Y-55815000D01*
X122735750Y-55815000D01*
X122577000Y-55973750D01*
X122323000Y-55973750D01*
X122164250Y-55815000D01*
X121473690Y-55815000D01*
X121240301Y-55911673D01*
X121061673Y-56090302D01*
X120965000Y-56323691D01*
X105897500Y-56323691D01*
X105897500Y-55850600D01*
X105848217Y-55602835D01*
X105707869Y-55392791D01*
X105497825Y-55252443D01*
X105250060Y-55203160D01*
X101749940Y-55203160D01*
X101502175Y-55252443D01*
X101292131Y-55392791D01*
X101151783Y-55602835D01*
X101102500Y-55850600D01*
X101102500Y-58532659D01*
X101008869Y-58392531D01*
X100798825Y-58252183D01*
X100551060Y-58202900D01*
X97050940Y-58202900D01*
X96960000Y-58220989D01*
X96960000Y-53710000D01*
X121981842Y-53710000D01*
X141790000Y-53775158D01*
G36*
X112313000Y-82010361D02*
X112167851Y-82107347D01*
X112010233Y-82264965D01*
X111845029Y-82264821D01*
X111464485Y-82422058D01*
X111173081Y-82712954D01*
X111015180Y-83093223D01*
X111014821Y-83504971D01*
X111172058Y-83885515D01*
X111462954Y-84176919D01*
X111843223Y-84334820D01*
X112254971Y-84335179D01*
X112402560Y-84274197D01*
X112402560Y-85650000D01*
X112433075Y-85803413D01*
X112173081Y-86062954D01*
X112015180Y-86443223D01*
X112014821Y-86854971D01*
X112172058Y-87235515D01*
X112462954Y-87526919D01*
X112568338Y-87570678D01*
X112552560Y-87650000D01*
X112552560Y-89350000D01*
X112601843Y-89597765D01*
X112742191Y-89807809D01*
X112952235Y-89948157D01*
X113200000Y-89997440D01*
X113217238Y-89997440D01*
X113115180Y-90243223D01*
X113114821Y-90654971D01*
X113272058Y-91035515D01*
X113562954Y-91326919D01*
X113943223Y-91484820D01*
X114354971Y-91485179D01*
X114735515Y-91327942D01*
X115026919Y-91037046D01*
X115184820Y-90656777D01*
X115185179Y-90245029D01*
X115082878Y-89997440D01*
X115200000Y-89997440D01*
X115447765Y-89948157D01*
X115657809Y-89807809D01*
X115798157Y-89597765D01*
X115836173Y-89406646D01*
X115972058Y-89735515D01*
X116090000Y-89853663D01*
X116090000Y-90000000D01*
X116147852Y-90290839D01*
X116312599Y-90537401D01*
X116741484Y-90966286D01*
X116364485Y-91122058D01*
X116073081Y-91412954D01*
X115915180Y-91793223D01*
X115914821Y-92204971D01*
X116072058Y-92585515D01*
X116184327Y-92697980D01*
X116192852Y-92740839D01*
X116357599Y-92987401D01*
X116790000Y-93419802D01*
X116790000Y-96915322D01*
X116740433Y-96841130D01*
X115807593Y-95908181D01*
X115957809Y-95807809D01*
X116098157Y-95597765D01*
X116147440Y-95350000D01*
X116147440Y-93650000D01*
X116098157Y-93402235D01*
X115957809Y-93192191D01*
X115747765Y-93051843D01*
X115500000Y-93002560D01*
X115415809Y-93002560D01*
X115434820Y-92956777D01*
X115435179Y-92545029D01*
X115277942Y-92164485D01*
X114987046Y-91873081D01*
X114606777Y-91715180D01*
X114195029Y-91714821D01*
X113814485Y-91872058D01*
X113523081Y-92162954D01*
X113365180Y-92543223D01*
X113364821Y-92954971D01*
X113393257Y-93023792D01*
X113252235Y-93051843D01*
X113042191Y-93192191D01*
X112984000Y-93279279D01*
X112984000Y-93074000D01*
X112926148Y-92783161D01*
X112761401Y-92536599D01*
X112585035Y-92360233D01*
X112585179Y-92195029D01*
X112427942Y-91814485D01*
X112137046Y-91523081D01*
X111756777Y-91365180D01*
X111345029Y-91364821D01*
X110964485Y-91522058D01*
X110673081Y-91812954D01*
X110515180Y-92193223D01*
X110514821Y-92604971D01*
X110672058Y-92985515D01*
X110743584Y-93057166D01*
X110627000Y-93173750D01*
X110627000Y-94373000D01*
X110647000Y-94373000D01*
X110647000Y-94627000D01*
X110627000Y-94627000D01*
X110627000Y-95826250D01*
X110785750Y-95985000D01*
X111626309Y-95985000D01*
X111859698Y-95888327D01*
X111874353Y-95873672D01*
X113192393Y-97191828D01*
X113042191Y-97292191D01*
X112901843Y-97502235D01*
X112852560Y-97750000D01*
X112852560Y-99450000D01*
X112901843Y-99697765D01*
X113042191Y-99907809D01*
X113252235Y-100048157D01*
X113500000Y-100097440D01*
X113740000Y-100097440D01*
X113740000Y-114736000D01*
X113797852Y-115026839D01*
X113962599Y-115273401D01*
X116896003Y-118206805D01*
X116780087Y-118380285D01*
X113284000Y-114884198D01*
X113284000Y-103860000D01*
X113226148Y-103569161D01*
X113061401Y-103322599D01*
X109823802Y-100085000D01*
X110214250Y-100085000D01*
X110373000Y-99926250D01*
X110373000Y-98727000D01*
X110627000Y-98727000D01*
X110627000Y-99926250D01*
X110785750Y-100085000D01*
X111626309Y-100085000D01*
X111859698Y-99988327D01*
X112038327Y-99809699D01*
X112135000Y-99576310D01*
X112135000Y-98885750D01*
X111976250Y-98727000D01*
X110627000Y-98727000D01*
X110373000Y-98727000D01*
X109023750Y-98727000D01*
X108865000Y-98885750D01*
X108865000Y-99126198D01*
X107362492Y-97623690D01*
X108865000Y-97623690D01*
X108865000Y-98314250D01*
X109023750Y-98473000D01*
X110373000Y-98473000D01*
X110373000Y-97273750D01*
X110627000Y-97273750D01*
X110627000Y-98473000D01*
X111976250Y-98473000D01*
X112135000Y-98314250D01*
X112135000Y-97623690D01*
X112038327Y-97390301D01*
X111859698Y-97211673D01*
X111626309Y-97115000D01*
X110785750Y-97115000D01*
X110627000Y-97273750D01*
X110373000Y-97273750D01*
X110214250Y-97115000D01*
X109373691Y-97115000D01*
X109140302Y-97211673D01*
X108961673Y-97390301D01*
X108865000Y-97623690D01*
X107362492Y-97623690D01*
X107003190Y-97264388D01*
X107293223Y-97384820D01*
X107704971Y-97385179D01*
X108085515Y-97227942D01*
X108376919Y-96937046D01*
X108534820Y-96556777D01*
X108535153Y-96174913D01*
X108560000Y-96050000D01*
X108560000Y-94785750D01*
X108865000Y-94785750D01*
X108865000Y-95476310D01*
X108961673Y-95709699D01*
X109140302Y-95888327D01*
X109373691Y-95985000D01*
X110214250Y-95985000D01*
X110373000Y-95826250D01*
X110373000Y-94627000D01*
X109023750Y-94627000D01*
X108865000Y-94785750D01*
X108560000Y-94785750D01*
X108560000Y-93523690D01*
X108865000Y-93523690D01*
X108865000Y-94214250D01*
X109023750Y-94373000D01*
X110373000Y-94373000D01*
X110373000Y-93173750D01*
X110214250Y-93015000D01*
X109373691Y-93015000D01*
X109140302Y-93111673D01*
X108961673Y-93290301D01*
X108865000Y-93523690D01*
X108560000Y-93523690D01*
X108560000Y-88785750D01*
X108565000Y-88785750D01*
X108565000Y-89476310D01*
X108661673Y-89709699D01*
X108840302Y-89888327D01*
X109073691Y-89985000D01*
X109914250Y-89985000D01*
X110073000Y-89826250D01*
X110073000Y-88627000D01*
X110327000Y-88627000D01*
X110327000Y-89826250D01*
X110485750Y-89985000D01*
X111326309Y-89985000D01*
X111559698Y-89888327D01*
X111738327Y-89709699D01*
X111835000Y-89476310D01*
X111835000Y-88785750D01*
X111676250Y-88627000D01*
X110327000Y-88627000D01*
X110073000Y-88627000D01*
X108723750Y-88627000D01*
X108565000Y-88785750D01*
X108560000Y-88785750D01*
X108560000Y-87523690D01*
X108565000Y-87523690D01*
X108565000Y-88214250D01*
X108723750Y-88373000D01*
X110073000Y-88373000D01*
X110073000Y-87173750D01*
X110327000Y-87173750D01*
X110327000Y-88373000D01*
X111676250Y-88373000D01*
X111835000Y-88214250D01*
X111835000Y-87523690D01*
X111738327Y-87290301D01*
X111559698Y-87111673D01*
X111326309Y-87015000D01*
X110485750Y-87015000D01*
X110327000Y-87173750D01*
X110073000Y-87173750D01*
X109914250Y-87015000D01*
X109073691Y-87015000D01*
X108840302Y-87111673D01*
X108661673Y-87290301D01*
X108565000Y-87523690D01*
X108560000Y-87523690D01*
X108560000Y-84823611D01*
X108762954Y-85026919D01*
X109143223Y-85184820D01*
X109554971Y-85185179D01*
X109935515Y-85027942D01*
X110226919Y-84737046D01*
X110384820Y-84356777D01*
X110385179Y-83945029D01*
X110227942Y-83564485D01*
X110060000Y-83396250D01*
X110060000Y-81863394D01*
X110422736Y-82105767D01*
X110971887Y-82215000D01*
X111028113Y-82215000D01*
X111577264Y-82105767D01*
X112042811Y-81794698D01*
X112313000Y-81390332D01*
X112313000Y-82010361D01*
X112313000Y-82010361D01*
G37*
X112313000Y-82010361D02*
X112167851Y-82107347D01*
X112010233Y-82264965D01*
X111845029Y-82264821D01*
X111464485Y-82422058D01*
X111173081Y-82712954D01*
X111015180Y-83093223D01*
X111014821Y-83504971D01*
X111172058Y-83885515D01*
X111462954Y-84176919D01*
X111843223Y-84334820D01*
X112254971Y-84335179D01*
X112402560Y-84274197D01*
X112402560Y-85650000D01*
X112433075Y-85803413D01*
X112173081Y-86062954D01*
X112015180Y-86443223D01*
X112014821Y-86854971D01*
X112172058Y-87235515D01*
X112462954Y-87526919D01*
X112568338Y-87570678D01*
X112552560Y-87650000D01*
X112552560Y-89350000D01*
X112601843Y-89597765D01*
X112742191Y-89807809D01*
X112952235Y-89948157D01*
X113200000Y-89997440D01*
X113217238Y-89997440D01*
X113115180Y-90243223D01*
X113114821Y-90654971D01*
X113272058Y-91035515D01*
X113562954Y-91326919D01*
X113943223Y-91484820D01*
X114354971Y-91485179D01*
X114735515Y-91327942D01*
X115026919Y-91037046D01*
X115184820Y-90656777D01*
X115185179Y-90245029D01*
X115082878Y-89997440D01*
X115200000Y-89997440D01*
X115447765Y-89948157D01*
X115657809Y-89807809D01*
X115798157Y-89597765D01*
X115836173Y-89406646D01*
X115972058Y-89735515D01*
X116090000Y-89853663D01*
X116090000Y-90000000D01*
X116147852Y-90290839D01*
X116312599Y-90537401D01*
X116741484Y-90966286D01*
X116364485Y-91122058D01*
X116073081Y-91412954D01*
X115915180Y-91793223D01*
X115914821Y-92204971D01*
X116072058Y-92585515D01*
X116184327Y-92697980D01*
X116192852Y-92740839D01*
X116357599Y-92987401D01*
X116790000Y-93419802D01*
X116790000Y-96915322D01*
X116740433Y-96841130D01*
X115807593Y-95908181D01*
X115957809Y-95807809D01*
X116098157Y-95597765D01*
X116147440Y-95350000D01*
X116147440Y-93650000D01*
X116098157Y-93402235D01*
X115957809Y-93192191D01*
X115747765Y-93051843D01*
X115500000Y-93002560D01*
X115415809Y-93002560D01*
X115434820Y-92956777D01*
X115435179Y-92545029D01*
X115277942Y-92164485D01*
X114987046Y-91873081D01*
X114606777Y-91715180D01*
X114195029Y-91714821D01*
X113814485Y-91872058D01*
X113523081Y-92162954D01*
X113365180Y-92543223D01*
X113364821Y-92954971D01*
X113393257Y-93023792D01*
X113252235Y-93051843D01*
X113042191Y-93192191D01*
X112984000Y-93279279D01*
X112984000Y-93074000D01*
X112926148Y-92783161D01*
X112761401Y-92536599D01*
X112585035Y-92360233D01*
X112585179Y-92195029D01*
X112427942Y-91814485D01*
X112137046Y-91523081D01*
X111756777Y-91365180D01*
X111345029Y-91364821D01*
X110964485Y-91522058D01*
X110673081Y-91812954D01*
X110515180Y-92193223D01*
X110514821Y-92604971D01*
X110672058Y-92985515D01*
X110743584Y-93057166D01*
X110627000Y-93173750D01*
X110627000Y-94373000D01*
X110647000Y-94373000D01*
X110647000Y-94627000D01*
X110627000Y-94627000D01*
X110627000Y-95826250D01*
X110785750Y-95985000D01*
X111626309Y-95985000D01*
X111859698Y-95888327D01*
X111874353Y-95873672D01*
X113192393Y-97191828D01*
X113042191Y-97292191D01*
X112901843Y-97502235D01*
X112852560Y-97750000D01*
X112852560Y-99450000D01*
X112901843Y-99697765D01*
X113042191Y-99907809D01*
X113252235Y-100048157D01*
X113500000Y-100097440D01*
X113740000Y-100097440D01*
X113740000Y-114736000D01*
X113797852Y-115026839D01*
X113962599Y-115273401D01*
X116896003Y-118206805D01*
X116780087Y-118380285D01*
X113284000Y-114884198D01*
X113284000Y-103860000D01*
X113226148Y-103569161D01*
X113061401Y-103322599D01*
X109823802Y-100085000D01*
X110214250Y-100085000D01*
X110373000Y-99926250D01*
X110373000Y-98727000D01*
X110627000Y-98727000D01*
X110627000Y-99926250D01*
X110785750Y-100085000D01*
X111626309Y-100085000D01*
X111859698Y-99988327D01*
X112038327Y-99809699D01*
X112135000Y-99576310D01*
X112135000Y-98885750D01*
X111976250Y-98727000D01*
X110627000Y-98727000D01*
X110373000Y-98727000D01*
X109023750Y-98727000D01*
X108865000Y-98885750D01*
X108865000Y-99126198D01*
X107362492Y-97623690D01*
X108865000Y-97623690D01*
X108865000Y-98314250D01*
X109023750Y-98473000D01*
X110373000Y-98473000D01*
X110373000Y-97273750D01*
X110627000Y-97273750D01*
X110627000Y-98473000D01*
X111976250Y-98473000D01*
X112135000Y-98314250D01*
X112135000Y-97623690D01*
X112038327Y-97390301D01*
X111859698Y-97211673D01*
X111626309Y-97115000D01*
X110785750Y-97115000D01*
X110627000Y-97273750D01*
X110373000Y-97273750D01*
X110214250Y-97115000D01*
X109373691Y-97115000D01*
X109140302Y-97211673D01*
X108961673Y-97390301D01*
X108865000Y-97623690D01*
X107362492Y-97623690D01*
X107003190Y-97264388D01*
X107293223Y-97384820D01*
X107704971Y-97385179D01*
X108085515Y-97227942D01*
X108376919Y-96937046D01*
X108534820Y-96556777D01*
X108535153Y-96174913D01*
X108560000Y-96050000D01*
X108560000Y-94785750D01*
X108865000Y-94785750D01*
X108865000Y-95476310D01*
X108961673Y-95709699D01*
X109140302Y-95888327D01*
X109373691Y-95985000D01*
X110214250Y-95985000D01*
X110373000Y-95826250D01*
X110373000Y-94627000D01*
X109023750Y-94627000D01*
X108865000Y-94785750D01*
X108560000Y-94785750D01*
X108560000Y-93523690D01*
X108865000Y-93523690D01*
X108865000Y-94214250D01*
X109023750Y-94373000D01*
X110373000Y-94373000D01*
X110373000Y-93173750D01*
X110214250Y-93015000D01*
X109373691Y-93015000D01*
X109140302Y-93111673D01*
X108961673Y-93290301D01*
X108865000Y-93523690D01*
X108560000Y-93523690D01*
X108560000Y-88785750D01*
X108565000Y-88785750D01*
X108565000Y-89476310D01*
X108661673Y-89709699D01*
X108840302Y-89888327D01*
X109073691Y-89985000D01*
X109914250Y-89985000D01*
X110073000Y-89826250D01*
X110073000Y-88627000D01*
X110327000Y-88627000D01*
X110327000Y-89826250D01*
X110485750Y-89985000D01*
X111326309Y-89985000D01*
X111559698Y-89888327D01*
X111738327Y-89709699D01*
X111835000Y-89476310D01*
X111835000Y-88785750D01*
X111676250Y-88627000D01*
X110327000Y-88627000D01*
X110073000Y-88627000D01*
X108723750Y-88627000D01*
X108565000Y-88785750D01*
X108560000Y-88785750D01*
X108560000Y-87523690D01*
X108565000Y-87523690D01*
X108565000Y-88214250D01*
X108723750Y-88373000D01*
X110073000Y-88373000D01*
X110073000Y-87173750D01*
X110327000Y-87173750D01*
X110327000Y-88373000D01*
X111676250Y-88373000D01*
X111835000Y-88214250D01*
X111835000Y-87523690D01*
X111738327Y-87290301D01*
X111559698Y-87111673D01*
X111326309Y-87015000D01*
X110485750Y-87015000D01*
X110327000Y-87173750D01*
X110073000Y-87173750D01*
X109914250Y-87015000D01*
X109073691Y-87015000D01*
X108840302Y-87111673D01*
X108661673Y-87290301D01*
X108565000Y-87523690D01*
X108560000Y-87523690D01*
X108560000Y-84823611D01*
X108762954Y-85026919D01*
X109143223Y-85184820D01*
X109554971Y-85185179D01*
X109935515Y-85027942D01*
X110226919Y-84737046D01*
X110384820Y-84356777D01*
X110385179Y-83945029D01*
X110227942Y-83564485D01*
X110060000Y-83396250D01*
X110060000Y-81863394D01*
X110422736Y-82105767D01*
X110971887Y-82215000D01*
X111028113Y-82215000D01*
X111577264Y-82105767D01*
X112042811Y-81794698D01*
X112313000Y-81390332D01*
X112313000Y-82010361D01*
M02*
