G04 #@! TF.GenerationSoftware,KiCad,Pcbnew,(2017-09-22 revision df472e6)-master*
G04 #@! TF.CreationDate,2018-05-20T18:50:23-07:00*
G04 #@! TF.ProjectId,ody_adap,6F64795F616461702E6B696361645F70,rev?*
G04 #@! TF.SameCoordinates,Original*
G04 #@! TF.FileFunction,Soldermask,Top*
G04 #@! TF.FilePolarity,Negative*
%FSLAX46Y46*%
G04 Gerber Fmt 4.6, Leading zero omitted, Abs format (unit mm)*
G04 Created by KiCad (PCBNEW (2017-09-22 revision df472e6)-master) date Sun May 20 18:50:23 2018*
%MOMM*%
%LPD*%
G01*
G04 APERTURE LIST*
%ADD10C,4.900000*%
%ADD11C,1.924000*%
%ADD12R,2.400000X2.100000*%
%ADD13R,2.400000X2.900000*%
%ADD14R,2.000000X2.400000*%
%ADD15R,2.900000X2.400000*%
%ADD16R,2.000000X1.400000*%
%ADD17R,3.900120X3.900120*%
%ADD18O,2.432000X2.127200*%
%ADD19R,2.432000X2.127200*%
%ADD20O,2.127200X2.127200*%
%ADD21R,2.127200X2.127200*%
%ADD22C,1.400760*%
%ADD23R,2.100000X2.400000*%
%ADD24O,2.000000X2.000000*%
%ADD25C,1.400000*%
%ADD26R,1.400000X1.400000*%
%ADD27R,2.100000X2.100000*%
%ADD28O,2.100000X2.100000*%
G04 APERTURE END LIST*
D10*
X118787000Y-75795000D03*
X141422000Y-75795000D03*
D11*
X124812000Y-73255000D03*
X127102000Y-73255000D03*
X129392000Y-73255000D03*
X131772000Y-73255000D03*
X133972000Y-73255000D03*
X125957000Y-75795000D03*
X128247000Y-75795000D03*
X130537000Y-75795000D03*
X132827000Y-75795000D03*
X135117000Y-75795000D03*
X124812000Y-78335000D03*
X127102000Y-78335000D03*
X129392000Y-78335000D03*
X131682000Y-78335000D03*
X134002000Y-78325000D03*
D12*
X145950000Y-122100000D03*
X149950000Y-122100000D03*
D13*
X112100000Y-108850000D03*
X108100000Y-108850000D03*
X111300000Y-103750000D03*
X115300000Y-103750000D03*
D14*
X111400000Y-79300000D03*
X111400000Y-83300000D03*
D15*
X154800000Y-108100000D03*
X154800000Y-112100000D03*
X147150000Y-83950000D03*
X147150000Y-79950000D03*
D14*
X115550000Y-106950000D03*
X115550000Y-110950000D03*
D15*
X114550000Y-85250000D03*
X114550000Y-89250000D03*
X154700000Y-100350000D03*
X154700000Y-104350000D03*
D16*
X150350000Y-102650000D03*
X150350000Y-105650000D03*
D17*
X111150000Y-113799860D03*
X111150000Y-119799340D03*
X115849000Y-116799600D03*
D18*
X150114000Y-78486000D03*
X150114000Y-75946000D03*
D19*
X150114000Y-73406000D03*
X154178000Y-73406000D03*
D18*
X154178000Y-75946000D03*
X154178000Y-78486000D03*
D19*
X121250000Y-121500000D03*
D18*
X121250000Y-118960000D03*
X121250000Y-116420000D03*
X155050000Y-115970000D03*
X155050000Y-118510000D03*
D19*
X155050000Y-121050000D03*
D20*
X142530000Y-119190000D03*
X142530000Y-116650000D03*
X145070000Y-119190000D03*
X145070000Y-116650000D03*
X147610000Y-119190000D03*
X147610000Y-116650000D03*
X150150000Y-119190000D03*
D21*
X150150000Y-116650000D03*
X135382000Y-114808000D03*
D20*
X135382000Y-117348000D03*
X132842000Y-114808000D03*
X132842000Y-117348000D03*
X130302000Y-114808000D03*
X130302000Y-117348000D03*
X127762000Y-114808000D03*
X127762000Y-117348000D03*
D21*
X149860000Y-109728000D03*
D20*
X149860000Y-112268000D03*
X147320000Y-109728000D03*
X147320000Y-112268000D03*
X144780000Y-109728000D03*
X144780000Y-112268000D03*
X142240000Y-109728000D03*
X142240000Y-112268000D03*
D19*
X108450000Y-89150000D03*
D18*
X108450000Y-91690000D03*
X108450000Y-94230000D03*
D19*
X114550000Y-99950000D03*
D18*
X114550000Y-97410000D03*
X114550000Y-94870000D03*
X108600000Y-98670000D03*
X108600000Y-101210000D03*
D19*
X108600000Y-103750000D03*
D22*
X148336000Y-93472000D03*
X145796000Y-93472000D03*
X147066000Y-94742000D03*
X140970000Y-95250000D03*
X139700000Y-93980000D03*
X142240000Y-93980000D03*
D23*
X143850000Y-88550000D03*
X143850000Y-84550000D03*
D12*
X124700000Y-122000000D03*
X128700000Y-122000000D03*
X131650000Y-122200000D03*
X135650000Y-122200000D03*
X138950000Y-122100000D03*
X142950000Y-122100000D03*
X137750000Y-100700000D03*
X141750000Y-100700000D03*
X139350000Y-97900000D03*
X135350000Y-97900000D03*
X132850000Y-94500000D03*
X136850000Y-94500000D03*
X125950000Y-100650000D03*
X129950000Y-100650000D03*
X127700000Y-97500000D03*
X123700000Y-97500000D03*
X121200000Y-94500000D03*
X125200000Y-94500000D03*
D24*
X137900000Y-83300000D03*
X135360000Y-83300000D03*
X132820000Y-83300000D03*
X130280000Y-83300000D03*
X127740000Y-83300000D03*
X125200000Y-83300000D03*
X122660000Y-83300000D03*
X120120000Y-83300000D03*
X120120000Y-90920000D03*
X122660000Y-90920000D03*
X125200000Y-90920000D03*
X127740000Y-90920000D03*
X130280000Y-90920000D03*
X132820000Y-90920000D03*
X135360000Y-90920000D03*
X137900000Y-90920000D03*
X137800000Y-111020000D03*
X135260000Y-111020000D03*
X132720000Y-111020000D03*
X130180000Y-111020000D03*
X127640000Y-111020000D03*
X125100000Y-111020000D03*
X122560000Y-111020000D03*
X120020000Y-111020000D03*
X120020000Y-103400000D03*
X122560000Y-103400000D03*
X125100000Y-103400000D03*
X127640000Y-103400000D03*
X130180000Y-103400000D03*
X132720000Y-103400000D03*
X135260000Y-103400000D03*
X137800000Y-103400000D03*
D25*
X145034000Y-104648000D03*
X143764000Y-103378000D03*
D26*
X146304000Y-103378000D03*
D27*
X151638000Y-83312000D03*
D28*
X151638000Y-85852000D03*
X151638000Y-88392000D03*
X151638000Y-90932000D03*
X151638000Y-93472000D03*
X151638000Y-96012000D03*
D27*
X154432000Y-69342000D03*
D28*
X151892000Y-69342000D03*
X149352000Y-69342000D03*
D27*
X108458000Y-71120000D03*
D28*
X108458000Y-73660000D03*
X108458000Y-76200000D03*
X108458000Y-78740000D03*
X108458000Y-81280000D03*
M02*
