M48
;DRILL file {KiCad (2017-09-22 revision df472e6)-master} date Sun May 20 17:38:32 2018
;FORMAT={-:-/ absolute / inch / decimal}
FMAT,2
INCH,TZ
T1C0.016
T2C0.024
T3C0.031
T4C0.035
T5C0.039
T6C0.039
T7C0.040
T8C0.157
%
G90
G05
M72
T1
X4.3858Y-3.3701
X4.4134Y-4.1949
X4.45Y-2.78
X4.5079Y-3.2776
X4.626Y-4.2657
X4.6319Y-3.9882
X4.85Y-3.73
X4.87Y-3.99
X4.94Y-2.78
X5.4Y-3.66
X5.4Y-3.88
X5.5925Y-3.4902
X5.7972Y-3.2205
X5.8465Y-4.1791
X5.9882Y-4.0925
X6.0984Y-4.3386
T2
X5.5Y-3.7
X5.55Y-3.75
X5.6Y-3.7
X5.74Y-3.68
X5.79Y-3.73
X5.84Y-3.68
X5.66Y-4.07
X5.71Y-4.12
X5.76Y-4.07
T3
X4.7252Y-4.0709
X4.7252Y-4.3709
X4.8252Y-4.0709
X4.8252Y-4.3709
X4.9252Y-4.0709
X4.9252Y-4.3709
X5.0252Y-4.0709
X5.0252Y-4.3709
X5.1252Y-4.0709
X5.1252Y-4.3709
X5.2252Y-4.0709
X5.2252Y-4.3709
X5.3252Y-4.0709
X5.3252Y-4.3709
X5.4252Y-4.0709
X5.4252Y-4.3709
X4.7291Y-3.2795
X4.7291Y-3.5795
X4.8291Y-3.2795
X4.8291Y-3.5795
X4.9291Y-3.2795
X4.9291Y-3.5795
X5.0291Y-3.2795
X5.0291Y-3.5795
X5.1291Y-3.2795
X5.1291Y-3.5795
X5.2291Y-3.2795
X5.2291Y-3.5795
X5.3291Y-3.2795
X5.3291Y-3.5795
X5.4291Y-3.2795
X5.4291Y-3.5795
T4
X4.9139Y-2.8841
X4.9139Y-3.0841
X4.9589Y-2.9841
X5.004Y-2.8841
X5.004Y-3.0841
X5.0491Y-2.9841
X5.0942Y-2.8841
X5.0942Y-3.0841
X5.1393Y-2.9841
X5.1843Y-3.0841
X5.1879Y-2.8841
X5.2294Y-2.9841
X5.2745Y-2.8841
X5.2757Y-3.0837
X5.3196Y-2.9841
T5
X5.97Y-3.28
X5.97Y-3.38
X5.97Y-3.48
X5.97Y-3.58
X5.97Y-3.68
X5.97Y-3.78
X5.88Y-2.73
X5.98Y-2.73
X6.08Y-2.73
X4.27Y-2.8
X4.27Y-2.9
X4.27Y-3.
X4.27Y-3.1
X4.27Y-3.2
T7
X4.7736Y-4.5835
X4.7736Y-4.6835
X4.7736Y-4.7835
X4.2756Y-3.8846
X4.2756Y-3.9846
X4.2756Y-4.0846
X5.6114Y-4.5925
X5.6114Y-4.6925
X5.7114Y-4.5925
X5.7114Y-4.6925
X5.8114Y-4.5925
X5.8114Y-4.6925
X5.9114Y-4.5925
X5.9114Y-4.6925
X4.2697Y-3.5098
X4.2697Y-3.6098
X4.2697Y-3.7098
X6.1043Y-4.5657
X6.1043Y-4.6657
X6.1043Y-4.7657
X5.91Y-2.89
X5.91Y-2.99
X5.91Y-3.09
X6.07Y-2.89
X6.07Y-2.99
X6.07Y-3.09
X5.6Y-4.32
X5.6Y-4.42
X5.7Y-4.32
X5.7Y-4.42
X5.8Y-4.32
X5.8Y-4.42
X5.9Y-4.32
X5.9Y-4.42
X4.5098Y-3.735
X4.5098Y-3.835
X4.5098Y-3.935
X5.03Y-4.52
X5.03Y-4.62
X5.13Y-4.52
X5.13Y-4.62
X5.23Y-4.52
X5.23Y-4.62
X5.33Y-4.52
X5.33Y-4.62
T8
X4.6767Y-2.9841
X5.5678Y-2.9841
T6
X4.3366Y-4.4803G85X4.4153Y-4.4803
G05
X4.3366Y-4.7165G85X4.4153Y-4.7165
G05
X4.561Y-4.6378G85X4.561Y-4.5591
G05
T0
M30
