G04 #@! TF.GenerationSoftware,KiCad,Pcbnew,(2017-09-22 revision df472e6)-master*
G04 #@! TF.CreationDate,2018-05-20T18:50:23-07:00*
G04 #@! TF.ProjectId,ody_adap,6F64795F616461702E6B696361645F70,rev?*
G04 #@! TF.SameCoordinates,Original*
G04 #@! TF.FileFunction,Copper,L1,Top,Signal*
G04 #@! TF.FilePolarity,Positive*
%FSLAX46Y46*%
G04 Gerber Fmt 4.6, Leading zero omitted, Abs format (unit mm)*
G04 Created by KiCad (PCBNEW (2017-09-22 revision df472e6)-master) date Sun May 20 18:50:23 2018*
%MOMM*%
%LPD*%
G01*
G04 APERTURE LIST*
%ADD10C,4.500000*%
%ADD11C,1.524000*%
%ADD12R,2.000000X1.700000*%
%ADD13R,2.000000X2.500000*%
%ADD14R,1.600000X2.000000*%
%ADD15R,2.500000X2.000000*%
%ADD16R,1.600000X1.000000*%
%ADD17R,3.500120X3.500120*%
%ADD18O,2.032000X1.727200*%
%ADD19R,2.032000X1.727200*%
%ADD20O,1.727200X1.727200*%
%ADD21R,1.727200X1.727200*%
%ADD22C,1.000760*%
%ADD23R,1.700000X2.000000*%
%ADD24O,1.600000X1.600000*%
%ADD25C,1.000000*%
%ADD26R,1.000000X1.000000*%
%ADD27R,1.700000X1.700000*%
%ADD28O,1.700000X1.700000*%
%ADD29C,0.800000*%
%ADD30C,0.250000*%
%ADD31C,0.254000*%
G04 APERTURE END LIST*
D10*
X118787000Y-75795000D03*
X141422000Y-75795000D03*
D11*
X124812000Y-73255000D03*
X127102000Y-73255000D03*
X129392000Y-73255000D03*
X131772000Y-73255000D03*
X133972000Y-73255000D03*
X125957000Y-75795000D03*
X128247000Y-75795000D03*
X130537000Y-75795000D03*
X132827000Y-75795000D03*
X135117000Y-75795000D03*
X124812000Y-78335000D03*
X127102000Y-78335000D03*
X129392000Y-78335000D03*
X131682000Y-78335000D03*
X134002000Y-78325000D03*
D12*
X145950000Y-122100000D03*
X149950000Y-122100000D03*
D13*
X112100000Y-108850000D03*
X108100000Y-108850000D03*
X111300000Y-103750000D03*
X115300000Y-103750000D03*
D14*
X111400000Y-79300000D03*
X111400000Y-83300000D03*
D15*
X154800000Y-108100000D03*
X154800000Y-112100000D03*
X147150000Y-83950000D03*
X147150000Y-79950000D03*
D14*
X115550000Y-106950000D03*
X115550000Y-110950000D03*
D15*
X114550000Y-85250000D03*
X114550000Y-89250000D03*
X154700000Y-100350000D03*
X154700000Y-104350000D03*
D16*
X150350000Y-102650000D03*
X150350000Y-105650000D03*
D17*
X111150000Y-113799860D03*
X111150000Y-119799340D03*
X115849000Y-116799600D03*
D18*
X150114000Y-78486000D03*
X150114000Y-75946000D03*
D19*
X150114000Y-73406000D03*
X154178000Y-73406000D03*
D18*
X154178000Y-75946000D03*
X154178000Y-78486000D03*
D19*
X121250000Y-121500000D03*
D18*
X121250000Y-118960000D03*
X121250000Y-116420000D03*
X155050000Y-115970000D03*
X155050000Y-118510000D03*
D19*
X155050000Y-121050000D03*
D20*
X142530000Y-119190000D03*
X142530000Y-116650000D03*
X145070000Y-119190000D03*
X145070000Y-116650000D03*
X147610000Y-119190000D03*
X147610000Y-116650000D03*
X150150000Y-119190000D03*
D21*
X150150000Y-116650000D03*
X135382000Y-114808000D03*
D20*
X135382000Y-117348000D03*
X132842000Y-114808000D03*
X132842000Y-117348000D03*
X130302000Y-114808000D03*
X130302000Y-117348000D03*
X127762000Y-114808000D03*
X127762000Y-117348000D03*
D21*
X149860000Y-109728000D03*
D20*
X149860000Y-112268000D03*
X147320000Y-109728000D03*
X147320000Y-112268000D03*
X144780000Y-109728000D03*
X144780000Y-112268000D03*
X142240000Y-109728000D03*
X142240000Y-112268000D03*
D19*
X108450000Y-89150000D03*
D18*
X108450000Y-91690000D03*
X108450000Y-94230000D03*
D19*
X114550000Y-99950000D03*
D18*
X114550000Y-97410000D03*
X114550000Y-94870000D03*
X108600000Y-98670000D03*
X108600000Y-101210000D03*
D19*
X108600000Y-103750000D03*
D22*
X148336000Y-93472000D03*
X145796000Y-93472000D03*
X147066000Y-94742000D03*
X140970000Y-95250000D03*
X139700000Y-93980000D03*
X142240000Y-93980000D03*
D23*
X143850000Y-88550000D03*
X143850000Y-84550000D03*
D12*
X124700000Y-122000000D03*
X128700000Y-122000000D03*
X131650000Y-122200000D03*
X135650000Y-122200000D03*
X138950000Y-122100000D03*
X142950000Y-122100000D03*
X137750000Y-100700000D03*
X141750000Y-100700000D03*
X139350000Y-97900000D03*
X135350000Y-97900000D03*
X132850000Y-94500000D03*
X136850000Y-94500000D03*
X125950000Y-100650000D03*
X129950000Y-100650000D03*
X127700000Y-97500000D03*
X123700000Y-97500000D03*
X121200000Y-94500000D03*
X125200000Y-94500000D03*
D24*
X137900000Y-83300000D03*
X135360000Y-83300000D03*
X132820000Y-83300000D03*
X130280000Y-83300000D03*
X127740000Y-83300000D03*
X125200000Y-83300000D03*
X122660000Y-83300000D03*
X120120000Y-83300000D03*
X120120000Y-90920000D03*
X122660000Y-90920000D03*
X125200000Y-90920000D03*
X127740000Y-90920000D03*
X130280000Y-90920000D03*
X132820000Y-90920000D03*
X135360000Y-90920000D03*
X137900000Y-90920000D03*
X137800000Y-111020000D03*
X135260000Y-111020000D03*
X132720000Y-111020000D03*
X130180000Y-111020000D03*
X127640000Y-111020000D03*
X125100000Y-111020000D03*
X122560000Y-111020000D03*
X120020000Y-111020000D03*
X120020000Y-103400000D03*
X122560000Y-103400000D03*
X125100000Y-103400000D03*
X127640000Y-103400000D03*
X130180000Y-103400000D03*
X132720000Y-103400000D03*
X135260000Y-103400000D03*
X137800000Y-103400000D03*
D25*
X145034000Y-104648000D03*
X143764000Y-103378000D03*
D26*
X146304000Y-103378000D03*
D27*
X151638000Y-83312000D03*
D28*
X151638000Y-85852000D03*
X151638000Y-88392000D03*
X151638000Y-90932000D03*
X151638000Y-93472000D03*
X151638000Y-96012000D03*
D27*
X154432000Y-69342000D03*
D28*
X151892000Y-69342000D03*
X149352000Y-69342000D03*
D27*
X108458000Y-71120000D03*
D28*
X108458000Y-73660000D03*
X108458000Y-76200000D03*
X108458000Y-78740000D03*
X108458000Y-81280000D03*
D29*
X142050000Y-88650000D03*
X147250000Y-81800000D03*
X148500000Y-106150000D03*
X154900000Y-110200000D03*
X152100000Y-103950000D03*
X112100000Y-106550000D03*
X117500000Y-108350000D03*
X117650000Y-101300000D03*
X114500000Y-83250000D03*
X111400000Y-85600000D03*
X125476000Y-70612000D03*
X113030000Y-70612000D03*
X137160000Y-98552000D03*
X137160000Y-92964000D03*
X123698000Y-101346000D03*
X123190000Y-94742000D03*
D30*
X142150000Y-88550000D02*
X142050000Y-88650000D01*
X143850000Y-88550000D02*
X142150000Y-88550000D01*
X147150000Y-81700000D02*
X147250000Y-81800000D01*
X147150000Y-79950000D02*
X147150000Y-81700000D01*
X149000000Y-105650000D02*
X148500000Y-106150000D01*
X150350000Y-105650000D02*
X149000000Y-105650000D01*
X154700000Y-104350000D02*
X154550000Y-104350000D01*
X154800000Y-110100000D02*
X154900000Y-110200000D01*
X154800000Y-108100000D02*
X154800000Y-110100000D01*
X112100000Y-108850000D02*
X112100000Y-106550000D01*
X116100000Y-106950000D02*
X117500000Y-108350000D01*
X115550000Y-106950000D02*
X116100000Y-106950000D01*
X115300000Y-103650000D02*
X117650000Y-101300000D01*
X115300000Y-103750000D02*
X115300000Y-103650000D01*
X114550000Y-83300000D02*
X114500000Y-83250000D01*
X114550000Y-85250000D02*
X114550000Y-83300000D01*
X111400000Y-83300000D02*
X111400000Y-85600000D01*
X154700000Y-104350000D02*
X154550000Y-104350000D01*
X152500000Y-104350000D02*
X152100000Y-103950000D01*
X154550000Y-104350000D02*
X152500000Y-104350000D01*
X134002000Y-78325000D02*
X134002000Y-74820000D01*
X134002000Y-74820000D02*
X135162000Y-73660000D01*
X135162000Y-73660000D02*
X137922000Y-73660000D01*
X137922000Y-73660000D02*
X140462000Y-71120000D01*
X140462000Y-71120000D02*
X150114000Y-71120000D01*
X150114000Y-71120000D02*
X151892000Y-69342000D01*
X129105500Y-78621500D02*
X129392000Y-78335000D01*
X129105500Y-83773300D02*
X129105500Y-78621500D01*
X130691700Y-85359500D02*
X129105500Y-83773300D01*
X133949000Y-85359500D02*
X130691700Y-85359500D01*
X139037600Y-90448100D02*
X133949000Y-85359500D01*
X139037600Y-93142000D02*
X139037600Y-90448100D01*
X138825600Y-93354000D02*
X139037600Y-93142000D01*
X138825600Y-94329600D02*
X138825600Y-93354000D01*
X139746000Y-95250000D02*
X138825600Y-94329600D01*
X140970000Y-95250000D02*
X139746000Y-95250000D01*
X143850000Y-84550000D02*
X144144000Y-84550000D01*
X144144000Y-84550000D02*
X144438000Y-84550000D01*
X147066000Y-87472000D02*
X147066000Y-94742000D01*
X144144000Y-84550000D02*
X147066000Y-87472000D01*
X127102000Y-81536700D02*
X127102000Y-78335000D01*
X127740000Y-82174700D02*
X127102000Y-81536700D01*
X127740000Y-83300000D02*
X127740000Y-82174700D01*
X137900000Y-83500000D02*
X137900000Y-83300000D01*
X135360000Y-76038000D02*
X135117000Y-75795000D01*
X135360000Y-76038000D02*
X135360000Y-83300000D01*
X132827000Y-82167700D02*
X132827000Y-75795000D01*
X132820000Y-82174700D02*
X132827000Y-82167700D01*
X132820000Y-83300000D02*
X132820000Y-82174700D01*
X130537000Y-81917700D02*
X130537000Y-75795000D01*
X130280000Y-82174700D02*
X130537000Y-81917700D01*
X130280000Y-83300000D02*
X130280000Y-82174700D01*
X129392000Y-73255000D02*
X129392000Y-72942000D01*
X113683100Y-72150200D02*
X109633300Y-76200000D01*
X128600200Y-72150200D02*
X113683100Y-72150200D01*
X129392000Y-72942000D02*
X128600200Y-72150200D01*
X108458000Y-76200000D02*
X109633300Y-76200000D01*
X125476000Y-70612000D02*
X113030000Y-70612000D01*
X149593900Y-74594900D02*
X150114000Y-74594900D01*
X139700000Y-84488800D02*
X149593900Y-74594900D01*
X139700000Y-93980000D02*
X139700000Y-84488800D01*
X150114000Y-73406000D02*
X150114000Y-74594900D01*
X136326200Y-113619100D02*
X135382000Y-113619100D01*
X137800000Y-112145300D02*
X136326200Y-113619100D01*
X137800000Y-111020000D02*
X137800000Y-112145300D01*
X135382000Y-114808000D02*
X135382000Y-113619100D01*
X128700000Y-119474900D02*
X128700000Y-122000000D01*
X127762000Y-118536900D02*
X128700000Y-119474900D01*
X127762000Y-117348000D02*
X127762000Y-118536900D01*
X150231600Y-110916900D02*
X149860000Y-110916900D01*
X151048900Y-111734200D02*
X150231600Y-110916900D01*
X151048900Y-114562200D02*
X151048900Y-111734200D01*
X150150000Y-115461100D02*
X151048900Y-114562200D01*
X150150000Y-116650000D02*
X150150000Y-115461100D01*
X149860000Y-109728000D02*
X149860000Y-110916900D01*
X143448600Y-114542500D02*
X142530000Y-115461100D01*
X143448600Y-111754000D02*
X143448600Y-114542500D01*
X142611500Y-110916900D02*
X143448600Y-111754000D01*
X142240000Y-110916900D02*
X142611500Y-110916900D01*
X142240000Y-109728000D02*
X142240000Y-110916900D01*
X142530000Y-116650000D02*
X142530000Y-115461100D01*
X138950000Y-122100000D02*
X138950000Y-121087300D01*
X142530000Y-116650000D02*
X142530000Y-117838900D01*
X129235800Y-112145300D02*
X127762000Y-113619100D01*
X130180000Y-112145300D02*
X129235800Y-112145300D01*
X127762000Y-114808000D02*
X127762000Y-113619100D01*
X135382000Y-117348000D02*
X136570900Y-117348000D01*
X138950000Y-121087300D02*
X138950000Y-119616500D01*
X140727600Y-117838900D02*
X138950000Y-119616500D01*
X142530000Y-117838900D02*
X140727600Y-117838900D01*
X138839400Y-119616500D02*
X136570900Y-117348000D01*
X138950000Y-119616500D02*
X138839400Y-119616500D01*
X130180000Y-111020000D02*
X130180000Y-112032700D01*
X130180000Y-112032700D02*
X130180000Y-112145300D01*
X134490300Y-116159100D02*
X135382000Y-116159100D01*
X134193100Y-115861900D02*
X134490300Y-116159100D01*
X134193100Y-114431800D02*
X134193100Y-115861900D01*
X131906600Y-112145300D02*
X134193100Y-114431800D01*
X130180000Y-112145300D02*
X131906600Y-112145300D01*
X135382000Y-117348000D02*
X135382000Y-116159100D01*
X131490900Y-116976500D02*
X131490900Y-117348000D01*
X132470500Y-115996900D02*
X131490900Y-116976500D01*
X132842000Y-115996900D02*
X132470500Y-115996900D01*
X132842000Y-114808000D02*
X132842000Y-115996900D01*
X130302000Y-117348000D02*
X131490900Y-117348000D01*
X131650000Y-117507100D02*
X131490900Y-117348000D01*
X131650000Y-122200000D02*
X131650000Y-117507100D01*
X147710000Y-108950000D02*
X147710000Y-109195000D01*
X147710000Y-109195000D02*
X147710000Y-109440000D01*
X147320000Y-109585000D02*
X147320000Y-109728000D01*
X147710000Y-109195000D02*
X147320000Y-109585000D01*
X147691600Y-110916900D02*
X147320000Y-110916900D01*
X148508900Y-111734200D02*
X147691600Y-110916900D01*
X148508900Y-114562200D02*
X148508900Y-111734200D01*
X147610000Y-115461100D02*
X148508900Y-114562200D01*
X147610000Y-116650000D02*
X147610000Y-115461100D01*
X147320000Y-109728000D02*
X147320000Y-110916900D01*
X147610000Y-119190000D02*
X147610000Y-119778500D01*
X145070000Y-116650000D02*
X145070000Y-117838900D01*
X145170000Y-108950000D02*
X145170000Y-108946200D01*
X145170000Y-108946200D02*
X145170000Y-108920000D01*
X145670400Y-117838900D02*
X145070000Y-117838900D01*
X147610000Y-119778500D02*
X145670400Y-117838900D01*
X148624700Y-120793200D02*
X147610000Y-119778500D01*
X148624700Y-122100000D02*
X148624700Y-120793200D01*
X149950000Y-122100000D02*
X148624700Y-122100000D01*
X144780000Y-109336200D02*
X144780000Y-109728000D01*
X145170000Y-108946200D02*
X144780000Y-109336200D01*
X145989500Y-114541600D02*
X145070000Y-115461100D01*
X145989500Y-111754900D02*
X145989500Y-114541600D01*
X145151500Y-110916900D02*
X145989500Y-111754900D01*
X144780000Y-110916900D02*
X145151500Y-110916900D01*
X144780000Y-109728000D02*
X144780000Y-110916900D01*
X145070000Y-116650000D02*
X145070000Y-115461100D01*
X137750000Y-100700000D02*
X137750000Y-99142000D01*
X137750000Y-99142000D02*
X137160000Y-98552000D01*
X137160000Y-92964000D02*
X137900000Y-92224000D01*
X137900000Y-92224000D02*
X137900000Y-90920000D01*
X137750000Y-102224700D02*
X137750000Y-100700000D01*
X137800000Y-102274700D02*
X137750000Y-102224700D01*
X137800000Y-103400000D02*
X137800000Y-102274700D01*
X135360000Y-96714700D02*
X135350000Y-96724700D01*
X135360000Y-90920000D02*
X135360000Y-96714700D01*
X135350000Y-97900000D02*
X135350000Y-96724700D01*
X135260000Y-99165300D02*
X135350000Y-99075300D01*
X135260000Y-103400000D02*
X135260000Y-99165300D01*
X135350000Y-97900000D02*
X135350000Y-99075300D01*
X132720000Y-95805300D02*
X132850000Y-95675300D01*
X132720000Y-103400000D02*
X132720000Y-95805300D01*
X132850000Y-94500000D02*
X132850000Y-95675300D01*
X132820000Y-93294700D02*
X132850000Y-93324700D01*
X132820000Y-90920000D02*
X132820000Y-93294700D01*
X132850000Y-94500000D02*
X132850000Y-93324700D01*
X129950000Y-102044700D02*
X129950000Y-100650000D01*
X130180000Y-102274700D02*
X129950000Y-102044700D01*
X130180000Y-103400000D02*
X130180000Y-102274700D01*
X130280000Y-99144700D02*
X129950000Y-99474700D01*
X130280000Y-90920000D02*
X130280000Y-99144700D01*
X129950000Y-100650000D02*
X129950000Y-99474700D01*
X127640000Y-98735300D02*
X127700000Y-98675300D01*
X127640000Y-103400000D02*
X127640000Y-98735300D01*
X127700000Y-97500000D02*
X127700000Y-98675300D01*
X127740000Y-96284700D02*
X127700000Y-96324700D01*
X127740000Y-90920000D02*
X127740000Y-96284700D01*
X127700000Y-97500000D02*
X127700000Y-96324700D01*
X125100000Y-103400000D02*
X125100000Y-102748000D01*
X125100000Y-102748000D02*
X123698000Y-101346000D01*
X123190000Y-94742000D02*
X123432000Y-94500000D01*
X123432000Y-94500000D02*
X125200000Y-94500000D01*
X125200000Y-90920000D02*
X125200000Y-94500000D01*
X150462700Y-96679300D02*
X143764000Y-103378000D01*
X150462700Y-87835200D02*
X150462700Y-96679300D01*
X151270600Y-87027300D02*
X150462700Y-87835200D01*
X151638000Y-87027300D02*
X151270600Y-87027300D01*
X151638000Y-85852000D02*
X151638000Y-87027300D01*
D31*
G36*
X156290000Y-97639263D02*
X156290000Y-98803513D01*
X156076310Y-98715000D01*
X154985750Y-98715000D01*
X154827000Y-98873750D01*
X154827000Y-100223000D01*
X154847000Y-100223000D01*
X154847000Y-100477000D01*
X154827000Y-100477000D01*
X154827000Y-101826250D01*
X154985750Y-101985000D01*
X156076310Y-101985000D01*
X156290000Y-101896487D01*
X156290000Y-102813473D01*
X156197765Y-102751843D01*
X155950000Y-102702560D01*
X153450000Y-102702560D01*
X153202235Y-102751843D01*
X152992191Y-102892191D01*
X152851843Y-103102235D01*
X152829297Y-103215581D01*
X152687046Y-103073081D01*
X152306777Y-102915180D01*
X151895029Y-102914821D01*
X151785000Y-102960284D01*
X151785000Y-102935750D01*
X151626250Y-102777000D01*
X150477000Y-102777000D01*
X150477000Y-103626250D01*
X150635750Y-103785000D01*
X151065144Y-103785000D01*
X151064821Y-104154971D01*
X151213675Y-104515226D01*
X151150000Y-104502560D01*
X149550000Y-104502560D01*
X149302235Y-104551843D01*
X149092191Y-104692191D01*
X148953890Y-104899172D01*
X148709161Y-104947852D01*
X148462599Y-105112599D01*
X148460233Y-105114965D01*
X148295029Y-105114821D01*
X147914485Y-105272058D01*
X147623081Y-105562954D01*
X147465180Y-105943223D01*
X147464821Y-106354971D01*
X147622058Y-106735515D01*
X147912954Y-107026919D01*
X148293223Y-107184820D01*
X148704971Y-107185179D01*
X149085515Y-107027942D01*
X149355229Y-106758698D01*
X149550000Y-106797440D01*
X151150000Y-106797440D01*
X151397765Y-106748157D01*
X151607809Y-106607809D01*
X151748157Y-106397765D01*
X151797440Y-106150000D01*
X151797440Y-105150000D01*
X151753003Y-104926596D01*
X151893223Y-104984820D01*
X152108678Y-104985008D01*
X152209160Y-105052148D01*
X152257414Y-105061746D01*
X152500000Y-105110000D01*
X152802560Y-105110000D01*
X152802560Y-105350000D01*
X152851843Y-105597765D01*
X152992191Y-105807809D01*
X153202235Y-105948157D01*
X153450000Y-105997440D01*
X155950000Y-105997440D01*
X156197765Y-105948157D01*
X156290000Y-105886527D01*
X156290000Y-106500298D01*
X156050000Y-106452560D01*
X153550000Y-106452560D01*
X153302235Y-106501843D01*
X153092191Y-106642191D01*
X152951843Y-106852235D01*
X152902560Y-107100000D01*
X152902560Y-109100000D01*
X152951843Y-109347765D01*
X153092191Y-109557809D01*
X153302235Y-109698157D01*
X153550000Y-109747440D01*
X153967238Y-109747440D01*
X153865180Y-109993223D01*
X153864821Y-110404971D01*
X153889624Y-110465000D01*
X153423690Y-110465000D01*
X153190301Y-110561673D01*
X153011673Y-110740302D01*
X152915000Y-110973691D01*
X152915000Y-111814250D01*
X153073750Y-111973000D01*
X154673000Y-111973000D01*
X154673000Y-111953000D01*
X154927000Y-111953000D01*
X154927000Y-111973000D01*
X154947000Y-111973000D01*
X154947000Y-112227000D01*
X154927000Y-112227000D01*
X154927000Y-113576250D01*
X155085750Y-113735000D01*
X156176310Y-113735000D01*
X156290000Y-113687908D01*
X156290000Y-114907380D01*
X155808234Y-114585474D01*
X155234745Y-114471400D01*
X154865255Y-114471400D01*
X154291766Y-114585474D01*
X153805585Y-114910330D01*
X153480729Y-115396511D01*
X153366655Y-115970000D01*
X153480729Y-116543489D01*
X153805585Y-117029670D01*
X154120366Y-117240000D01*
X153805585Y-117450330D01*
X153480729Y-117936511D01*
X153366655Y-118510000D01*
X153480729Y-119083489D01*
X153805585Y-119569670D01*
X153827780Y-119584500D01*
X153674302Y-119648073D01*
X153495673Y-119826701D01*
X153399000Y-120060090D01*
X153399000Y-120764250D01*
X153557750Y-120923000D01*
X154923000Y-120923000D01*
X154923000Y-120903000D01*
X155177000Y-120903000D01*
X155177000Y-120923000D01*
X155197000Y-120923000D01*
X155197000Y-121177000D01*
X155177000Y-121177000D01*
X155177000Y-122389850D01*
X155335750Y-122548600D01*
X156192309Y-122548600D01*
X156290000Y-122508135D01*
X156290000Y-124290000D01*
X106710000Y-124290000D01*
X106710000Y-118049280D01*
X108752500Y-118049280D01*
X108752500Y-121549400D01*
X108801783Y-121797165D01*
X108942131Y-122007209D01*
X109152175Y-122147557D01*
X109399940Y-122196840D01*
X112900060Y-122196840D01*
X113147825Y-122147557D01*
X113357869Y-122007209D01*
X113498217Y-121797165D01*
X113500487Y-121785750D01*
X119599000Y-121785750D01*
X119599000Y-122489910D01*
X119695673Y-122723299D01*
X119874302Y-122901927D01*
X120107691Y-122998600D01*
X120964250Y-122998600D01*
X121123000Y-122839850D01*
X121123000Y-121627000D01*
X121377000Y-121627000D01*
X121377000Y-122839850D01*
X121535750Y-122998600D01*
X122392309Y-122998600D01*
X122625698Y-122901927D01*
X122804327Y-122723299D01*
X122901000Y-122489910D01*
X122901000Y-122285750D01*
X123065000Y-122285750D01*
X123065000Y-122976310D01*
X123161673Y-123209699D01*
X123340302Y-123388327D01*
X123573691Y-123485000D01*
X124414250Y-123485000D01*
X124573000Y-123326250D01*
X124573000Y-122127000D01*
X124827000Y-122127000D01*
X124827000Y-123326250D01*
X124985750Y-123485000D01*
X125826309Y-123485000D01*
X126059698Y-123388327D01*
X126238327Y-123209699D01*
X126335000Y-122976310D01*
X126335000Y-122285750D01*
X126176250Y-122127000D01*
X124827000Y-122127000D01*
X124573000Y-122127000D01*
X123223750Y-122127000D01*
X123065000Y-122285750D01*
X122901000Y-122285750D01*
X122901000Y-121785750D01*
X122742250Y-121627000D01*
X121377000Y-121627000D01*
X121123000Y-121627000D01*
X119757750Y-121627000D01*
X119599000Y-121785750D01*
X113500487Y-121785750D01*
X113547500Y-121549400D01*
X113547500Y-118867341D01*
X113641131Y-119007469D01*
X113851175Y-119147817D01*
X114098940Y-119197100D01*
X117599060Y-119197100D01*
X117846825Y-119147817D01*
X118056869Y-119007469D01*
X118197217Y-118797425D01*
X118246500Y-118549660D01*
X118246500Y-116420000D01*
X119566655Y-116420000D01*
X119680729Y-116993489D01*
X120005585Y-117479670D01*
X120320366Y-117690000D01*
X120005585Y-117900330D01*
X119680729Y-118386511D01*
X119566655Y-118960000D01*
X119680729Y-119533489D01*
X120005585Y-120019670D01*
X120027780Y-120034500D01*
X119874302Y-120098073D01*
X119695673Y-120276701D01*
X119599000Y-120510090D01*
X119599000Y-121214250D01*
X119757750Y-121373000D01*
X121123000Y-121373000D01*
X121123000Y-121353000D01*
X121377000Y-121353000D01*
X121377000Y-121373000D01*
X122742250Y-121373000D01*
X122901000Y-121214250D01*
X122901000Y-121023690D01*
X123065000Y-121023690D01*
X123065000Y-121714250D01*
X123223750Y-121873000D01*
X124573000Y-121873000D01*
X124573000Y-120673750D01*
X124827000Y-120673750D01*
X124827000Y-121873000D01*
X126176250Y-121873000D01*
X126335000Y-121714250D01*
X126335000Y-121023690D01*
X126238327Y-120790301D01*
X126059698Y-120611673D01*
X125826309Y-120515000D01*
X124985750Y-120515000D01*
X124827000Y-120673750D01*
X124573000Y-120673750D01*
X124414250Y-120515000D01*
X123573691Y-120515000D01*
X123340302Y-120611673D01*
X123161673Y-120790301D01*
X123065000Y-121023690D01*
X122901000Y-121023690D01*
X122901000Y-120510090D01*
X122804327Y-120276701D01*
X122625698Y-120098073D01*
X122472220Y-120034500D01*
X122494415Y-120019670D01*
X122819271Y-119533489D01*
X122933345Y-118960000D01*
X122819271Y-118386511D01*
X122494415Y-117900330D01*
X122179634Y-117690000D01*
X122494415Y-117479670D01*
X122819271Y-116993489D01*
X122933345Y-116420000D01*
X122819271Y-115846511D01*
X122494415Y-115360330D01*
X122008234Y-115035474D01*
X121434745Y-114921400D01*
X121065255Y-114921400D01*
X120491766Y-115035474D01*
X120005585Y-115360330D01*
X119680729Y-115846511D01*
X119566655Y-116420000D01*
X118246500Y-116420000D01*
X118246500Y-115049540D01*
X118197217Y-114801775D01*
X118056869Y-114591731D01*
X117846825Y-114451383D01*
X117599060Y-114402100D01*
X114098940Y-114402100D01*
X113851175Y-114451383D01*
X113641131Y-114591731D01*
X113535060Y-114750476D01*
X113535060Y-114085610D01*
X113376310Y-113926860D01*
X111277000Y-113926860D01*
X111277000Y-116026170D01*
X111435750Y-116184920D01*
X113026370Y-116184920D01*
X113259759Y-116088247D01*
X113438387Y-115909618D01*
X113451500Y-115877960D01*
X113451500Y-117731599D01*
X113357869Y-117591471D01*
X113147825Y-117451123D01*
X112900060Y-117401840D01*
X109399940Y-117401840D01*
X109152175Y-117451123D01*
X108942131Y-117591471D01*
X108801783Y-117801515D01*
X108752500Y-118049280D01*
X106710000Y-118049280D01*
X106710000Y-114085610D01*
X108764940Y-114085610D01*
X108764940Y-115676229D01*
X108861613Y-115909618D01*
X109040241Y-116088247D01*
X109273630Y-116184920D01*
X110864250Y-116184920D01*
X111023000Y-116026170D01*
X111023000Y-113926860D01*
X108923690Y-113926860D01*
X108764940Y-114085610D01*
X106710000Y-114085610D01*
X106710000Y-111923491D01*
X108764940Y-111923491D01*
X108764940Y-113514110D01*
X108923690Y-113672860D01*
X111023000Y-113672860D01*
X111023000Y-111573550D01*
X111277000Y-111573550D01*
X111277000Y-113672860D01*
X113376310Y-113672860D01*
X113535060Y-113514110D01*
X113535060Y-111923491D01*
X113438387Y-111690102D01*
X113259759Y-111511473D01*
X113026370Y-111414800D01*
X111435750Y-111414800D01*
X111277000Y-111573550D01*
X111023000Y-111573550D01*
X110864250Y-111414800D01*
X109273630Y-111414800D01*
X109040241Y-111511473D01*
X108861613Y-111690102D01*
X108764940Y-111923491D01*
X106710000Y-111923491D01*
X106710000Y-111235750D01*
X114115000Y-111235750D01*
X114115000Y-112076309D01*
X114211673Y-112309698D01*
X114390301Y-112488327D01*
X114623690Y-112585000D01*
X115264250Y-112585000D01*
X115423000Y-112426250D01*
X115423000Y-111077000D01*
X115677000Y-111077000D01*
X115677000Y-112426250D01*
X115835750Y-112585000D01*
X116476310Y-112585000D01*
X116709699Y-112488327D01*
X116888327Y-112309698D01*
X116985000Y-112076309D01*
X116985000Y-111369041D01*
X118628086Y-111369041D01*
X118867611Y-111875134D01*
X119282577Y-112251041D01*
X119670961Y-112411904D01*
X119893000Y-112289915D01*
X119893000Y-111147000D01*
X118749371Y-111147000D01*
X118628086Y-111369041D01*
X116985000Y-111369041D01*
X116985000Y-111235750D01*
X116826250Y-111077000D01*
X115677000Y-111077000D01*
X115423000Y-111077000D01*
X114273750Y-111077000D01*
X114115000Y-111235750D01*
X106710000Y-111235750D01*
X106710000Y-110608025D01*
X106740302Y-110638327D01*
X106973691Y-110735000D01*
X107814250Y-110735000D01*
X107973000Y-110576250D01*
X107973000Y-108977000D01*
X108227000Y-108977000D01*
X108227000Y-110576250D01*
X108385750Y-110735000D01*
X109226309Y-110735000D01*
X109459698Y-110638327D01*
X109638327Y-110459699D01*
X109735000Y-110226310D01*
X109735000Y-109135750D01*
X109576250Y-108977000D01*
X108227000Y-108977000D01*
X107973000Y-108977000D01*
X107953000Y-108977000D01*
X107953000Y-108723000D01*
X107973000Y-108723000D01*
X107973000Y-107123750D01*
X108227000Y-107123750D01*
X108227000Y-108723000D01*
X109576250Y-108723000D01*
X109735000Y-108564250D01*
X109735000Y-107600000D01*
X110452560Y-107600000D01*
X110452560Y-110100000D01*
X110501843Y-110347765D01*
X110642191Y-110557809D01*
X110852235Y-110698157D01*
X111100000Y-110747440D01*
X113100000Y-110747440D01*
X113347765Y-110698157D01*
X113557809Y-110557809D01*
X113698157Y-110347765D01*
X113747440Y-110100000D01*
X113747440Y-109823691D01*
X114115000Y-109823691D01*
X114115000Y-110664250D01*
X114273750Y-110823000D01*
X115423000Y-110823000D01*
X115423000Y-109473750D01*
X115677000Y-109473750D01*
X115677000Y-110823000D01*
X116826250Y-110823000D01*
X116978291Y-110670959D01*
X118628086Y-110670959D01*
X118749371Y-110893000D01*
X119893000Y-110893000D01*
X119893000Y-109750085D01*
X120147000Y-109750085D01*
X120147000Y-110893000D01*
X120167000Y-110893000D01*
X120167000Y-111147000D01*
X120147000Y-111147000D01*
X120147000Y-112289915D01*
X120369039Y-112411904D01*
X120757423Y-112251041D01*
X121172389Y-111875134D01*
X121275014Y-111658297D01*
X121545302Y-112062811D01*
X122010849Y-112373880D01*
X122560000Y-112483113D01*
X123109151Y-112373880D01*
X123574698Y-112062811D01*
X123830000Y-111680725D01*
X124085302Y-112062811D01*
X124550849Y-112373880D01*
X125100000Y-112483113D01*
X125649151Y-112373880D01*
X126114698Y-112062811D01*
X126370000Y-111680725D01*
X126625302Y-112062811D01*
X127090849Y-112373880D01*
X127640000Y-112483113D01*
X127868670Y-112437628D01*
X127224599Y-113081699D01*
X127059852Y-113328261D01*
X127025024Y-113503354D01*
X126702330Y-113718971D01*
X126377474Y-114205152D01*
X126263400Y-114778641D01*
X126263400Y-114837359D01*
X126377474Y-115410848D01*
X126702330Y-115897029D01*
X126973172Y-116078000D01*
X126702330Y-116258971D01*
X126377474Y-116745152D01*
X126263400Y-117318641D01*
X126263400Y-117377359D01*
X126377474Y-117950848D01*
X126702330Y-118437029D01*
X127025024Y-118652646D01*
X127059852Y-118827739D01*
X127224599Y-119074301D01*
X127940000Y-119789702D01*
X127940000Y-120502560D01*
X127700000Y-120502560D01*
X127452235Y-120551843D01*
X127242191Y-120692191D01*
X127101843Y-120902235D01*
X127052560Y-121150000D01*
X127052560Y-122850000D01*
X127101843Y-123097765D01*
X127242191Y-123307809D01*
X127452235Y-123448157D01*
X127700000Y-123497440D01*
X129700000Y-123497440D01*
X129947765Y-123448157D01*
X130089190Y-123353659D01*
X130192191Y-123507809D01*
X130402235Y-123648157D01*
X130650000Y-123697440D01*
X132650000Y-123697440D01*
X132897765Y-123648157D01*
X133107809Y-123507809D01*
X133248157Y-123297765D01*
X133297440Y-123050000D01*
X133297440Y-122485750D01*
X134015000Y-122485750D01*
X134015000Y-123176310D01*
X134111673Y-123409699D01*
X134290302Y-123588327D01*
X134523691Y-123685000D01*
X135364250Y-123685000D01*
X135523000Y-123526250D01*
X135523000Y-122327000D01*
X135777000Y-122327000D01*
X135777000Y-123526250D01*
X135935750Y-123685000D01*
X136776309Y-123685000D01*
X137009698Y-123588327D01*
X137188327Y-123409699D01*
X137285000Y-123176310D01*
X137285000Y-122485750D01*
X137126250Y-122327000D01*
X135777000Y-122327000D01*
X135523000Y-122327000D01*
X134173750Y-122327000D01*
X134015000Y-122485750D01*
X133297440Y-122485750D01*
X133297440Y-121350000D01*
X133272316Y-121223690D01*
X134015000Y-121223690D01*
X134015000Y-121914250D01*
X134173750Y-122073000D01*
X135523000Y-122073000D01*
X135523000Y-120873750D01*
X135777000Y-120873750D01*
X135777000Y-122073000D01*
X137126250Y-122073000D01*
X137285000Y-121914250D01*
X137285000Y-121223690D01*
X137188327Y-120990301D01*
X137009698Y-120811673D01*
X136776309Y-120715000D01*
X135935750Y-120715000D01*
X135777000Y-120873750D01*
X135523000Y-120873750D01*
X135364250Y-120715000D01*
X134523691Y-120715000D01*
X134290302Y-120811673D01*
X134111673Y-120990301D01*
X134015000Y-121223690D01*
X133272316Y-121223690D01*
X133248157Y-121102235D01*
X133107809Y-120892191D01*
X132897765Y-120751843D01*
X132650000Y-120702560D01*
X132410000Y-120702560D01*
X132410000Y-118790029D01*
X132842000Y-118875959D01*
X133415489Y-118761885D01*
X133901670Y-118437029D01*
X134112000Y-118122248D01*
X134322330Y-118437029D01*
X134808511Y-118761885D01*
X135382000Y-118875959D01*
X135955489Y-118761885D01*
X136441670Y-118437029D01*
X136499131Y-118351033D01*
X138190000Y-120041902D01*
X138190000Y-120602560D01*
X137950000Y-120602560D01*
X137702235Y-120651843D01*
X137492191Y-120792191D01*
X137351843Y-121002235D01*
X137302560Y-121250000D01*
X137302560Y-122950000D01*
X137351843Y-123197765D01*
X137492191Y-123407809D01*
X137702235Y-123548157D01*
X137950000Y-123597440D01*
X139950000Y-123597440D01*
X140197765Y-123548157D01*
X140407809Y-123407809D01*
X140548157Y-123197765D01*
X140597440Y-122950000D01*
X140597440Y-122385750D01*
X141315000Y-122385750D01*
X141315000Y-123076310D01*
X141411673Y-123309699D01*
X141590302Y-123488327D01*
X141823691Y-123585000D01*
X142664250Y-123585000D01*
X142823000Y-123426250D01*
X142823000Y-122227000D01*
X143077000Y-122227000D01*
X143077000Y-123426250D01*
X143235750Y-123585000D01*
X144076309Y-123585000D01*
X144309698Y-123488327D01*
X144450000Y-123348026D01*
X144590302Y-123488327D01*
X144823691Y-123585000D01*
X145664250Y-123585000D01*
X145823000Y-123426250D01*
X145823000Y-122227000D01*
X146077000Y-122227000D01*
X146077000Y-123426250D01*
X146235750Y-123585000D01*
X147076309Y-123585000D01*
X147309698Y-123488327D01*
X147488327Y-123309699D01*
X147585000Y-123076310D01*
X147585000Y-122385750D01*
X147426250Y-122227000D01*
X146077000Y-122227000D01*
X145823000Y-122227000D01*
X144473750Y-122227000D01*
X144450000Y-122250750D01*
X144426250Y-122227000D01*
X143077000Y-122227000D01*
X142823000Y-122227000D01*
X141473750Y-122227000D01*
X141315000Y-122385750D01*
X140597440Y-122385750D01*
X140597440Y-121250000D01*
X140548157Y-121002235D01*
X140407809Y-120792191D01*
X140197765Y-120651843D01*
X139950000Y-120602560D01*
X139710000Y-120602560D01*
X139710000Y-119931302D01*
X141042402Y-118598900D01*
X141143137Y-118598900D01*
X141031400Y-119160641D01*
X141031400Y-119219359D01*
X141145474Y-119792848D01*
X141470330Y-120279029D01*
X141956511Y-120603885D01*
X142012390Y-120615000D01*
X141823691Y-120615000D01*
X141590302Y-120711673D01*
X141411673Y-120890301D01*
X141315000Y-121123690D01*
X141315000Y-121814250D01*
X141473750Y-121973000D01*
X142823000Y-121973000D01*
X142823000Y-121953000D01*
X143077000Y-121953000D01*
X143077000Y-121973000D01*
X144426250Y-121973000D01*
X144450000Y-121949250D01*
X144473750Y-121973000D01*
X145823000Y-121973000D01*
X145823000Y-120773750D01*
X146077000Y-120773750D01*
X146077000Y-121973000D01*
X147426250Y-121973000D01*
X147585000Y-121814250D01*
X147585000Y-121123690D01*
X147488327Y-120890301D01*
X147309698Y-120711673D01*
X147076309Y-120615000D01*
X146235750Y-120615000D01*
X146077000Y-120773750D01*
X145823000Y-120773750D01*
X145664250Y-120615000D01*
X145587610Y-120615000D01*
X145643489Y-120603885D01*
X146129670Y-120279029D01*
X146340000Y-119964248D01*
X146550330Y-120279029D01*
X147036511Y-120603885D01*
X147441051Y-120684353D01*
X147864700Y-121108003D01*
X147864700Y-122100000D01*
X147922552Y-122390839D01*
X148087299Y-122637401D01*
X148302560Y-122781233D01*
X148302560Y-122950000D01*
X148351843Y-123197765D01*
X148492191Y-123407809D01*
X148702235Y-123548157D01*
X148950000Y-123597440D01*
X150950000Y-123597440D01*
X151197765Y-123548157D01*
X151407809Y-123407809D01*
X151548157Y-123197765D01*
X151597440Y-122950000D01*
X151597440Y-121335750D01*
X153399000Y-121335750D01*
X153399000Y-122039910D01*
X153495673Y-122273299D01*
X153674302Y-122451927D01*
X153907691Y-122548600D01*
X154764250Y-122548600D01*
X154923000Y-122389850D01*
X154923000Y-121177000D01*
X153557750Y-121177000D01*
X153399000Y-121335750D01*
X151597440Y-121335750D01*
X151597440Y-121250000D01*
X151548157Y-121002235D01*
X151407809Y-120792191D01*
X151197765Y-120651843D01*
X150950000Y-120602560D01*
X150725472Y-120602560D01*
X151209670Y-120279029D01*
X151534526Y-119792848D01*
X151648600Y-119219359D01*
X151648600Y-119160641D01*
X151534526Y-118587152D01*
X151222096Y-118119568D01*
X151261365Y-118111757D01*
X151471409Y-117971409D01*
X151611757Y-117761365D01*
X151661040Y-117513600D01*
X151661040Y-115786400D01*
X151611757Y-115538635D01*
X151471409Y-115328591D01*
X151403012Y-115282890D01*
X151586301Y-115099601D01*
X151751048Y-114853039D01*
X151808900Y-114562200D01*
X151808900Y-112385750D01*
X152915000Y-112385750D01*
X152915000Y-113226309D01*
X153011673Y-113459698D01*
X153190301Y-113638327D01*
X153423690Y-113735000D01*
X154514250Y-113735000D01*
X154673000Y-113576250D01*
X154673000Y-112227000D01*
X153073750Y-112227000D01*
X152915000Y-112385750D01*
X151808900Y-112385750D01*
X151808900Y-111734200D01*
X151751048Y-111443361D01*
X151586301Y-111196799D01*
X151284550Y-110895048D01*
X151321757Y-110839365D01*
X151371040Y-110591600D01*
X151371040Y-108864400D01*
X151321757Y-108616635D01*
X151181409Y-108406591D01*
X150971365Y-108266243D01*
X150723600Y-108216960D01*
X148996400Y-108216960D01*
X148748635Y-108266243D01*
X148538591Y-108406591D01*
X148398243Y-108616635D01*
X148394914Y-108633369D01*
X148247401Y-108412599D01*
X148000839Y-108247852D01*
X147710000Y-108190000D01*
X147489761Y-108233809D01*
X147320000Y-108200041D01*
X146746511Y-108314115D01*
X146260330Y-108638971D01*
X146050000Y-108953752D01*
X145888693Y-108712340D01*
X145872148Y-108629161D01*
X145707401Y-108382599D01*
X145460839Y-108217852D01*
X145170000Y-108160000D01*
X144879161Y-108217852D01*
X144876954Y-108219326D01*
X144780000Y-108200041D01*
X144206511Y-108314115D01*
X143720330Y-108638971D01*
X143510000Y-108953752D01*
X143299670Y-108638971D01*
X142813489Y-108314115D01*
X142240000Y-108200041D01*
X141666511Y-108314115D01*
X141180330Y-108638971D01*
X140855474Y-109125152D01*
X140741400Y-109698641D01*
X140741400Y-109757359D01*
X140855474Y-110330848D01*
X141180330Y-110817029D01*
X141451172Y-110998000D01*
X141180330Y-111178971D01*
X140855474Y-111665152D01*
X140741400Y-112238641D01*
X140741400Y-112297359D01*
X140855474Y-112870848D01*
X141180330Y-113357029D01*
X141666511Y-113681885D01*
X142240000Y-113795959D01*
X142688600Y-113706727D01*
X142688600Y-114227698D01*
X141992599Y-114923699D01*
X141827852Y-115170261D01*
X141793024Y-115345354D01*
X141470330Y-115560971D01*
X141145474Y-116047152D01*
X141031400Y-116620641D01*
X141031400Y-116679359D01*
X141110874Y-117078900D01*
X140727600Y-117078900D01*
X140436761Y-117136752D01*
X140190199Y-117301499D01*
X138894700Y-118596998D01*
X137108301Y-116810599D01*
X136861739Y-116645852D01*
X136675411Y-116608789D01*
X136454096Y-116277568D01*
X136493365Y-116269757D01*
X136703409Y-116129409D01*
X136843757Y-115919365D01*
X136893040Y-115671600D01*
X136893040Y-114127062D01*
X138337401Y-112682701D01*
X138502148Y-112436139D01*
X138539882Y-112246437D01*
X138814698Y-112062811D01*
X139125767Y-111597264D01*
X139235000Y-111048113D01*
X139235000Y-110991887D01*
X139125767Y-110442736D01*
X138814698Y-109977189D01*
X138349151Y-109666120D01*
X137800000Y-109556887D01*
X137250849Y-109666120D01*
X136785302Y-109977189D01*
X136530000Y-110359275D01*
X136274698Y-109977189D01*
X135809151Y-109666120D01*
X135260000Y-109556887D01*
X134710849Y-109666120D01*
X134245302Y-109977189D01*
X133990000Y-110359275D01*
X133734698Y-109977189D01*
X133269151Y-109666120D01*
X132720000Y-109556887D01*
X132170849Y-109666120D01*
X131705302Y-109977189D01*
X131450000Y-110359275D01*
X131194698Y-109977189D01*
X130729151Y-109666120D01*
X130180000Y-109556887D01*
X129630849Y-109666120D01*
X129165302Y-109977189D01*
X128910000Y-110359275D01*
X128654698Y-109977189D01*
X128189151Y-109666120D01*
X127640000Y-109556887D01*
X127090849Y-109666120D01*
X126625302Y-109977189D01*
X126370000Y-110359275D01*
X126114698Y-109977189D01*
X125649151Y-109666120D01*
X125100000Y-109556887D01*
X124550849Y-109666120D01*
X124085302Y-109977189D01*
X123830000Y-110359275D01*
X123574698Y-109977189D01*
X123109151Y-109666120D01*
X122560000Y-109556887D01*
X122010849Y-109666120D01*
X121545302Y-109977189D01*
X121275014Y-110381703D01*
X121172389Y-110164866D01*
X120757423Y-109788959D01*
X120369039Y-109628096D01*
X120147000Y-109750085D01*
X119893000Y-109750085D01*
X119670961Y-109628096D01*
X119282577Y-109788959D01*
X118867611Y-110164866D01*
X118628086Y-110670959D01*
X116978291Y-110670959D01*
X116985000Y-110664250D01*
X116985000Y-109823691D01*
X116888327Y-109590302D01*
X116709699Y-109411673D01*
X116476310Y-109315000D01*
X115835750Y-109315000D01*
X115677000Y-109473750D01*
X115423000Y-109473750D01*
X115264250Y-109315000D01*
X114623690Y-109315000D01*
X114390301Y-109411673D01*
X114211673Y-109590302D01*
X114115000Y-109823691D01*
X113747440Y-109823691D01*
X113747440Y-107600000D01*
X113698157Y-107352235D01*
X113557809Y-107142191D01*
X113347765Y-107001843D01*
X113100000Y-106952560D01*
X113053524Y-106952560D01*
X113134820Y-106756777D01*
X113135179Y-106345029D01*
X112977942Y-105964485D01*
X112687046Y-105673081D01*
X112510927Y-105599950D01*
X112659698Y-105538327D01*
X112838327Y-105359699D01*
X112935000Y-105126310D01*
X112935000Y-104035750D01*
X112776250Y-103877000D01*
X111427000Y-103877000D01*
X111427000Y-105476250D01*
X111585750Y-105635000D01*
X111604173Y-105635000D01*
X111514485Y-105672058D01*
X111223081Y-105962954D01*
X111065180Y-106343223D01*
X111064821Y-106754971D01*
X111146463Y-106952560D01*
X111100000Y-106952560D01*
X110852235Y-107001843D01*
X110642191Y-107142191D01*
X110501843Y-107352235D01*
X110452560Y-107600000D01*
X109735000Y-107600000D01*
X109735000Y-107473690D01*
X109638327Y-107240301D01*
X109459698Y-107061673D01*
X109226309Y-106965000D01*
X108385750Y-106965000D01*
X108227000Y-107123750D01*
X107973000Y-107123750D01*
X107814250Y-106965000D01*
X106973691Y-106965000D01*
X106740302Y-107061673D01*
X106710000Y-107091975D01*
X106710000Y-98670000D01*
X106916655Y-98670000D01*
X107030729Y-99243489D01*
X107355585Y-99729670D01*
X107670366Y-99940000D01*
X107355585Y-100150330D01*
X107030729Y-100636511D01*
X106916655Y-101210000D01*
X107030729Y-101783489D01*
X107355585Y-102269670D01*
X107372566Y-102281016D01*
X107336235Y-102288243D01*
X107126191Y-102428591D01*
X106985843Y-102638635D01*
X106936560Y-102886400D01*
X106936560Y-104613600D01*
X106985843Y-104861365D01*
X107126191Y-105071409D01*
X107336235Y-105211757D01*
X107584000Y-105261040D01*
X109616000Y-105261040D01*
X109712829Y-105241780D01*
X109761673Y-105359699D01*
X109940302Y-105538327D01*
X110173691Y-105635000D01*
X111014250Y-105635000D01*
X111173000Y-105476250D01*
X111173000Y-103877000D01*
X111153000Y-103877000D01*
X111153000Y-103623000D01*
X111173000Y-103623000D01*
X111173000Y-102023750D01*
X111427000Y-102023750D01*
X111427000Y-103623000D01*
X112776250Y-103623000D01*
X112935000Y-103464250D01*
X112935000Y-102500000D01*
X113652560Y-102500000D01*
X113652560Y-105000000D01*
X113701843Y-105247765D01*
X113842191Y-105457809D01*
X114052235Y-105598157D01*
X114201542Y-105627856D01*
X114151843Y-105702235D01*
X114102560Y-105950000D01*
X114102560Y-107950000D01*
X114151843Y-108197765D01*
X114292191Y-108407809D01*
X114502235Y-108548157D01*
X114750000Y-108597440D01*
X116350000Y-108597440D01*
X116472316Y-108573110D01*
X116622058Y-108935515D01*
X116912954Y-109226919D01*
X117293223Y-109384820D01*
X117704971Y-109385179D01*
X118085515Y-109227942D01*
X118376919Y-108937046D01*
X118534820Y-108556777D01*
X118535179Y-108145029D01*
X118377942Y-107764485D01*
X118087046Y-107473081D01*
X117706777Y-107315180D01*
X117539836Y-107315034D01*
X116997440Y-106772638D01*
X116997440Y-105950000D01*
X116948157Y-105702235D01*
X116807809Y-105492191D01*
X116757081Y-105458295D01*
X116757809Y-105457809D01*
X116898157Y-105247765D01*
X116947440Y-105000000D01*
X116947440Y-103077362D01*
X117689767Y-102335035D01*
X117854971Y-102335179D01*
X118235515Y-102177942D01*
X118526919Y-101887046D01*
X118684820Y-101506777D01*
X118685179Y-101095029D01*
X118527942Y-100714485D01*
X118237046Y-100423081D01*
X117856777Y-100265180D01*
X117445029Y-100264821D01*
X117064485Y-100422058D01*
X116773081Y-100712954D01*
X116615180Y-101093223D01*
X116615034Y-101260164D01*
X116022638Y-101852560D01*
X114300000Y-101852560D01*
X114052235Y-101901843D01*
X113842191Y-102042191D01*
X113701843Y-102252235D01*
X113652560Y-102500000D01*
X112935000Y-102500000D01*
X112935000Y-102373690D01*
X112838327Y-102140301D01*
X112659698Y-101961673D01*
X112426309Y-101865000D01*
X111585750Y-101865000D01*
X111427000Y-102023750D01*
X111173000Y-102023750D01*
X111014250Y-101865000D01*
X110173691Y-101865000D01*
X110092273Y-101898724D01*
X110169271Y-101783489D01*
X110283345Y-101210000D01*
X110169271Y-100636511D01*
X109844415Y-100150330D01*
X109529634Y-99940000D01*
X109844415Y-99729670D01*
X110169271Y-99243489D01*
X110283345Y-98670000D01*
X110169271Y-98096511D01*
X109844415Y-97610330D01*
X109358234Y-97285474D01*
X108784745Y-97171400D01*
X108415255Y-97171400D01*
X107841766Y-97285474D01*
X107355585Y-97610330D01*
X107030729Y-98096511D01*
X106916655Y-98670000D01*
X106710000Y-98670000D01*
X106710000Y-91690000D01*
X106766655Y-91690000D01*
X106880729Y-92263489D01*
X107205585Y-92749670D01*
X107520366Y-92960000D01*
X107205585Y-93170330D01*
X106880729Y-93656511D01*
X106766655Y-94230000D01*
X106880729Y-94803489D01*
X107205585Y-95289670D01*
X107691766Y-95614526D01*
X108265255Y-95728600D01*
X108634745Y-95728600D01*
X109208234Y-95614526D01*
X109694415Y-95289670D01*
X109974829Y-94870000D01*
X112866655Y-94870000D01*
X112980729Y-95443489D01*
X113305585Y-95929670D01*
X113620366Y-96140000D01*
X113305585Y-96350330D01*
X112980729Y-96836511D01*
X112866655Y-97410000D01*
X112980729Y-97983489D01*
X113305585Y-98469670D01*
X113322566Y-98481016D01*
X113286235Y-98488243D01*
X113076191Y-98628591D01*
X112935843Y-98838635D01*
X112886560Y-99086400D01*
X112886560Y-100813600D01*
X112935843Y-101061365D01*
X113076191Y-101271409D01*
X113286235Y-101411757D01*
X113534000Y-101461040D01*
X115566000Y-101461040D01*
X115813765Y-101411757D01*
X116023809Y-101271409D01*
X116164157Y-101061365D01*
X116213440Y-100813600D01*
X116213440Y-99086400D01*
X116164157Y-98838635D01*
X116023809Y-98628591D01*
X115813765Y-98488243D01*
X115777434Y-98481016D01*
X115794415Y-98469670D01*
X116119271Y-97983489D01*
X116158603Y-97785750D01*
X122065000Y-97785750D01*
X122065000Y-98476310D01*
X122161673Y-98709699D01*
X122340302Y-98888327D01*
X122573691Y-98985000D01*
X123414250Y-98985000D01*
X123573000Y-98826250D01*
X123573000Y-97627000D01*
X123827000Y-97627000D01*
X123827000Y-98826250D01*
X123985750Y-98985000D01*
X124826309Y-98985000D01*
X125059698Y-98888327D01*
X125238327Y-98709699D01*
X125335000Y-98476310D01*
X125335000Y-97785750D01*
X125176250Y-97627000D01*
X123827000Y-97627000D01*
X123573000Y-97627000D01*
X122223750Y-97627000D01*
X122065000Y-97785750D01*
X116158603Y-97785750D01*
X116233345Y-97410000D01*
X116119271Y-96836511D01*
X115910251Y-96523690D01*
X122065000Y-96523690D01*
X122065000Y-97214250D01*
X122223750Y-97373000D01*
X123573000Y-97373000D01*
X123573000Y-96173750D01*
X123827000Y-96173750D01*
X123827000Y-97373000D01*
X125176250Y-97373000D01*
X125335000Y-97214250D01*
X125335000Y-96523690D01*
X125238327Y-96290301D01*
X125059698Y-96111673D01*
X124826309Y-96015000D01*
X123985750Y-96015000D01*
X123827000Y-96173750D01*
X123573000Y-96173750D01*
X123414250Y-96015000D01*
X122573691Y-96015000D01*
X122340302Y-96111673D01*
X122161673Y-96290301D01*
X122065000Y-96523690D01*
X115910251Y-96523690D01*
X115794415Y-96350330D01*
X115479634Y-96140000D01*
X115794415Y-95929670D01*
X116119271Y-95443489D01*
X116233345Y-94870000D01*
X116216587Y-94785750D01*
X119565000Y-94785750D01*
X119565000Y-95476310D01*
X119661673Y-95709699D01*
X119840302Y-95888327D01*
X120073691Y-95985000D01*
X120914250Y-95985000D01*
X121073000Y-95826250D01*
X121073000Y-94627000D01*
X119723750Y-94627000D01*
X119565000Y-94785750D01*
X116216587Y-94785750D01*
X116119271Y-94296511D01*
X115794415Y-93810330D01*
X115365429Y-93523690D01*
X119565000Y-93523690D01*
X119565000Y-94214250D01*
X119723750Y-94373000D01*
X121073000Y-94373000D01*
X121073000Y-93173750D01*
X120914250Y-93015000D01*
X120073691Y-93015000D01*
X119840302Y-93111673D01*
X119661673Y-93290301D01*
X119565000Y-93523690D01*
X115365429Y-93523690D01*
X115308234Y-93485474D01*
X114734745Y-93371400D01*
X114365255Y-93371400D01*
X113791766Y-93485474D01*
X113305585Y-93810330D01*
X112980729Y-94296511D01*
X112866655Y-94870000D01*
X109974829Y-94870000D01*
X110019271Y-94803489D01*
X110133345Y-94230000D01*
X110019271Y-93656511D01*
X109694415Y-93170330D01*
X109379634Y-92960000D01*
X109694415Y-92749670D01*
X110019271Y-92263489D01*
X110133345Y-91690000D01*
X110049612Y-91269041D01*
X118728086Y-91269041D01*
X118967611Y-91775134D01*
X119382577Y-92151041D01*
X119770961Y-92311904D01*
X119993000Y-92189915D01*
X119993000Y-91047000D01*
X118849371Y-91047000D01*
X118728086Y-91269041D01*
X110049612Y-91269041D01*
X110019271Y-91116511D01*
X109694415Y-90630330D01*
X109677434Y-90618984D01*
X109713765Y-90611757D01*
X109923809Y-90471409D01*
X110064157Y-90261365D01*
X110113440Y-90013600D01*
X110113440Y-89535750D01*
X112665000Y-89535750D01*
X112665000Y-90376309D01*
X112761673Y-90609698D01*
X112940301Y-90788327D01*
X113173690Y-90885000D01*
X114264250Y-90885000D01*
X114423000Y-90726250D01*
X114423000Y-89377000D01*
X114677000Y-89377000D01*
X114677000Y-90726250D01*
X114835750Y-90885000D01*
X115926310Y-90885000D01*
X116159699Y-90788327D01*
X116338327Y-90609698D01*
X116354373Y-90570959D01*
X118728086Y-90570959D01*
X118849371Y-90793000D01*
X119993000Y-90793000D01*
X119993000Y-89650085D01*
X119770961Y-89528096D01*
X119382577Y-89688959D01*
X118967611Y-90064866D01*
X118728086Y-90570959D01*
X116354373Y-90570959D01*
X116435000Y-90376309D01*
X116435000Y-89535750D01*
X116276250Y-89377000D01*
X114677000Y-89377000D01*
X114423000Y-89377000D01*
X112823750Y-89377000D01*
X112665000Y-89535750D01*
X110113440Y-89535750D01*
X110113440Y-88286400D01*
X110081076Y-88123691D01*
X112665000Y-88123691D01*
X112665000Y-88964250D01*
X112823750Y-89123000D01*
X114423000Y-89123000D01*
X114423000Y-87773750D01*
X114677000Y-87773750D01*
X114677000Y-89123000D01*
X116276250Y-89123000D01*
X116435000Y-88964250D01*
X116435000Y-88123691D01*
X116338327Y-87890302D01*
X116159699Y-87711673D01*
X115926310Y-87615000D01*
X114835750Y-87615000D01*
X114677000Y-87773750D01*
X114423000Y-87773750D01*
X114264250Y-87615000D01*
X113173690Y-87615000D01*
X112940301Y-87711673D01*
X112761673Y-87890302D01*
X112665000Y-88123691D01*
X110081076Y-88123691D01*
X110064157Y-88038635D01*
X109923809Y-87828591D01*
X109713765Y-87688243D01*
X109466000Y-87638960D01*
X107434000Y-87638960D01*
X107186235Y-87688243D01*
X106976191Y-87828591D01*
X106835843Y-88038635D01*
X106786560Y-88286400D01*
X106786560Y-90013600D01*
X106835843Y-90261365D01*
X106976191Y-90471409D01*
X107186235Y-90611757D01*
X107222566Y-90618984D01*
X107205585Y-90630330D01*
X106880729Y-91116511D01*
X106766655Y-91690000D01*
X106710000Y-91690000D01*
X106710000Y-73660000D01*
X106943907Y-73660000D01*
X107056946Y-74228285D01*
X107378853Y-74710054D01*
X107708026Y-74930000D01*
X107378853Y-75149946D01*
X107056946Y-75631715D01*
X106943907Y-76200000D01*
X107056946Y-76768285D01*
X107378853Y-77250054D01*
X107708026Y-77470000D01*
X107378853Y-77689946D01*
X107056946Y-78171715D01*
X106943907Y-78740000D01*
X107056946Y-79308285D01*
X107378853Y-79790054D01*
X107708026Y-80010000D01*
X107378853Y-80229946D01*
X107056946Y-80711715D01*
X106943907Y-81280000D01*
X107056946Y-81848285D01*
X107378853Y-82330054D01*
X107860622Y-82651961D01*
X108428907Y-82765000D01*
X108487093Y-82765000D01*
X109055378Y-82651961D01*
X109537147Y-82330054D01*
X109557228Y-82300000D01*
X109952560Y-82300000D01*
X109952560Y-84300000D01*
X110001843Y-84547765D01*
X110142191Y-84757809D01*
X110352235Y-84898157D01*
X110590585Y-84945567D01*
X110523081Y-85012954D01*
X110365180Y-85393223D01*
X110364821Y-85804971D01*
X110522058Y-86185515D01*
X110812954Y-86476919D01*
X111193223Y-86634820D01*
X111604971Y-86635179D01*
X111985515Y-86477942D01*
X112276919Y-86187046D01*
X112434820Y-85806777D01*
X112435179Y-85395029D01*
X112277942Y-85014485D01*
X112209189Y-84945612D01*
X112447765Y-84898157D01*
X112652560Y-84761316D01*
X112652560Y-86250000D01*
X112701843Y-86497765D01*
X112842191Y-86707809D01*
X113052235Y-86848157D01*
X113300000Y-86897440D01*
X115800000Y-86897440D01*
X116047765Y-86848157D01*
X116257809Y-86707809D01*
X116398157Y-86497765D01*
X116447440Y-86250000D01*
X116447440Y-84250000D01*
X116398157Y-84002235D01*
X116257809Y-83792191D01*
X116047765Y-83651843D01*
X115800000Y-83602560D01*
X115474286Y-83602560D01*
X115534820Y-83456777D01*
X115535179Y-83045029D01*
X115377942Y-82664485D01*
X115087046Y-82373081D01*
X114706777Y-82215180D01*
X114295029Y-82214821D01*
X113914485Y-82372058D01*
X113623081Y-82662954D01*
X113465180Y-83043223D01*
X113464821Y-83454971D01*
X113525803Y-83602560D01*
X113300000Y-83602560D01*
X113052235Y-83651843D01*
X112847440Y-83788684D01*
X112847440Y-82300000D01*
X112798157Y-82052235D01*
X112657809Y-81842191D01*
X112447765Y-81701843D01*
X112200000Y-81652560D01*
X110600000Y-81652560D01*
X110352235Y-81701843D01*
X110142191Y-81842191D01*
X110001843Y-82052235D01*
X109952560Y-82300000D01*
X109557228Y-82300000D01*
X109859054Y-81848285D01*
X109972093Y-81280000D01*
X109859054Y-80711715D01*
X109537147Y-80229946D01*
X109207974Y-80010000D01*
X109537147Y-79790054D01*
X109673658Y-79585750D01*
X109965000Y-79585750D01*
X109965000Y-80426309D01*
X110061673Y-80659698D01*
X110240301Y-80838327D01*
X110473690Y-80935000D01*
X111114250Y-80935000D01*
X111273000Y-80776250D01*
X111273000Y-79427000D01*
X111527000Y-79427000D01*
X111527000Y-80776250D01*
X111685750Y-80935000D01*
X112326310Y-80935000D01*
X112559699Y-80838327D01*
X112738327Y-80659698D01*
X112835000Y-80426309D01*
X112835000Y-79585750D01*
X112676250Y-79427000D01*
X111527000Y-79427000D01*
X111273000Y-79427000D01*
X110123750Y-79427000D01*
X109965000Y-79585750D01*
X109673658Y-79585750D01*
X109859054Y-79308285D01*
X109965000Y-78775659D01*
X109965000Y-79014250D01*
X110123750Y-79173000D01*
X111273000Y-79173000D01*
X111273000Y-77823750D01*
X111527000Y-77823750D01*
X111527000Y-79173000D01*
X112676250Y-79173000D01*
X112835000Y-79014250D01*
X112835000Y-78173691D01*
X112738327Y-77940302D01*
X112559699Y-77761673D01*
X112326310Y-77665000D01*
X111685750Y-77665000D01*
X111527000Y-77823750D01*
X111273000Y-77823750D01*
X111114250Y-77665000D01*
X110473690Y-77665000D01*
X110240301Y-77761673D01*
X110061673Y-77940302D01*
X109965000Y-78173691D01*
X109965000Y-78704341D01*
X109859054Y-78171715D01*
X109537147Y-77689946D01*
X109207974Y-77470000D01*
X109537147Y-77250054D01*
X109745923Y-76937598D01*
X109924139Y-76902148D01*
X110170701Y-76737401D01*
X113997902Y-72910200D01*
X118213964Y-72910200D01*
X117154914Y-73347790D01*
X116342643Y-74158645D01*
X115902502Y-75218620D01*
X115901501Y-76366344D01*
X116339790Y-77427086D01*
X117150645Y-78239357D01*
X118210620Y-78679498D01*
X119358344Y-78680499D01*
X120419086Y-78242210D01*
X121231357Y-77431355D01*
X121671498Y-76371380D01*
X121672499Y-75223656D01*
X121234210Y-74162914D01*
X120423355Y-73350643D01*
X119363380Y-72910502D01*
X119017114Y-72910200D01*
X123442524Y-72910200D01*
X123415243Y-72975900D01*
X123414758Y-73531661D01*
X123626990Y-74045303D01*
X124019630Y-74438629D01*
X124532900Y-74651757D01*
X125088661Y-74652242D01*
X125149591Y-74627066D01*
X124773371Y-75002630D01*
X124560243Y-75515900D01*
X124559758Y-76071661D01*
X124771990Y-76585303D01*
X125147829Y-76961799D01*
X125091100Y-76938243D01*
X124535339Y-76937758D01*
X124021697Y-77149990D01*
X123628371Y-77542630D01*
X123415243Y-78055900D01*
X123414758Y-78611661D01*
X123626990Y-79125303D01*
X124019630Y-79518629D01*
X124532900Y-79731757D01*
X125088661Y-79732242D01*
X125602303Y-79520010D01*
X125957274Y-79165658D01*
X126309630Y-79518629D01*
X126342000Y-79532070D01*
X126342000Y-81536700D01*
X126399852Y-81827539D01*
X126564599Y-82074101D01*
X126738721Y-82248223D01*
X126725302Y-82257189D01*
X126470000Y-82639275D01*
X126214698Y-82257189D01*
X125749151Y-81946120D01*
X125200000Y-81836887D01*
X124650849Y-81946120D01*
X124185302Y-82257189D01*
X123930000Y-82639275D01*
X123674698Y-82257189D01*
X123209151Y-81946120D01*
X122660000Y-81836887D01*
X122110849Y-81946120D01*
X121645302Y-82257189D01*
X121390000Y-82639275D01*
X121134698Y-82257189D01*
X120669151Y-81946120D01*
X120120000Y-81836887D01*
X119570849Y-81946120D01*
X119105302Y-82257189D01*
X118794233Y-82722736D01*
X118685000Y-83271887D01*
X118685000Y-83328113D01*
X118794233Y-83877264D01*
X119105302Y-84342811D01*
X119570849Y-84653880D01*
X120120000Y-84763113D01*
X120669151Y-84653880D01*
X121134698Y-84342811D01*
X121390000Y-83960725D01*
X121645302Y-84342811D01*
X122110849Y-84653880D01*
X122660000Y-84763113D01*
X123209151Y-84653880D01*
X123674698Y-84342811D01*
X123930000Y-83960725D01*
X124185302Y-84342811D01*
X124650849Y-84653880D01*
X125200000Y-84763113D01*
X125749151Y-84653880D01*
X126214698Y-84342811D01*
X126470000Y-83960725D01*
X126725302Y-84342811D01*
X127190849Y-84653880D01*
X127740000Y-84763113D01*
X128289151Y-84653880D01*
X128662089Y-84404691D01*
X130154299Y-85896901D01*
X130400861Y-86061648D01*
X130691700Y-86119500D01*
X133634198Y-86119500D01*
X137188977Y-89674279D01*
X136885302Y-89877189D01*
X136630000Y-90259275D01*
X136374698Y-89877189D01*
X135909151Y-89566120D01*
X135360000Y-89456887D01*
X134810849Y-89566120D01*
X134345302Y-89877189D01*
X134090000Y-90259275D01*
X133834698Y-89877189D01*
X133369151Y-89566120D01*
X132820000Y-89456887D01*
X132270849Y-89566120D01*
X131805302Y-89877189D01*
X131550000Y-90259275D01*
X131294698Y-89877189D01*
X130829151Y-89566120D01*
X130280000Y-89456887D01*
X129730849Y-89566120D01*
X129265302Y-89877189D01*
X129010000Y-90259275D01*
X128754698Y-89877189D01*
X128289151Y-89566120D01*
X127740000Y-89456887D01*
X127190849Y-89566120D01*
X126725302Y-89877189D01*
X126470000Y-90259275D01*
X126214698Y-89877189D01*
X125749151Y-89566120D01*
X125200000Y-89456887D01*
X124650849Y-89566120D01*
X124185302Y-89877189D01*
X123930000Y-90259275D01*
X123674698Y-89877189D01*
X123209151Y-89566120D01*
X122660000Y-89456887D01*
X122110849Y-89566120D01*
X121645302Y-89877189D01*
X121375014Y-90281703D01*
X121272389Y-90064866D01*
X120857423Y-89688959D01*
X120469039Y-89528096D01*
X120247000Y-89650085D01*
X120247000Y-90793000D01*
X120267000Y-90793000D01*
X120267000Y-91047000D01*
X120247000Y-91047000D01*
X120247000Y-92189915D01*
X120469039Y-92311904D01*
X120857423Y-92151041D01*
X121272389Y-91775134D01*
X121375014Y-91558297D01*
X121645302Y-91962811D01*
X122110849Y-92273880D01*
X122660000Y-92383113D01*
X123209151Y-92273880D01*
X123674698Y-91962811D01*
X123930000Y-91580725D01*
X124185302Y-91962811D01*
X124440000Y-92132995D01*
X124440000Y-93002560D01*
X124200000Y-93002560D01*
X123952235Y-93051843D01*
X123742191Y-93192191D01*
X123601843Y-93402235D01*
X123552560Y-93650000D01*
X123552560Y-93740000D01*
X123475817Y-93740000D01*
X123396777Y-93707180D01*
X122985029Y-93706821D01*
X122835000Y-93768811D01*
X122835000Y-93523690D01*
X122738327Y-93290301D01*
X122559698Y-93111673D01*
X122326309Y-93015000D01*
X121485750Y-93015000D01*
X121327000Y-93173750D01*
X121327000Y-94373000D01*
X121347000Y-94373000D01*
X121347000Y-94627000D01*
X121327000Y-94627000D01*
X121327000Y-95826250D01*
X121485750Y-95985000D01*
X122326309Y-95985000D01*
X122559698Y-95888327D01*
X122738327Y-95709699D01*
X122750544Y-95680204D01*
X122983223Y-95776820D01*
X123394971Y-95777179D01*
X123651030Y-95671378D01*
X123742191Y-95807809D01*
X123952235Y-95948157D01*
X124200000Y-95997440D01*
X126200000Y-95997440D01*
X126447765Y-95948157D01*
X126657809Y-95807809D01*
X126798157Y-95597765D01*
X126847440Y-95350000D01*
X126847440Y-93650000D01*
X126798157Y-93402235D01*
X126657809Y-93192191D01*
X126447765Y-93051843D01*
X126200000Y-93002560D01*
X125960000Y-93002560D01*
X125960000Y-92132995D01*
X126214698Y-91962811D01*
X126470000Y-91580725D01*
X126725302Y-91962811D01*
X126980000Y-92132995D01*
X126980000Y-96002560D01*
X126700000Y-96002560D01*
X126452235Y-96051843D01*
X126242191Y-96192191D01*
X126101843Y-96402235D01*
X126052560Y-96650000D01*
X126052560Y-98350000D01*
X126101843Y-98597765D01*
X126242191Y-98807809D01*
X126452235Y-98948157D01*
X126700000Y-98997440D01*
X126880000Y-98997440D01*
X126880000Y-99165000D01*
X126235750Y-99165000D01*
X126077000Y-99323750D01*
X126077000Y-100523000D01*
X126097000Y-100523000D01*
X126097000Y-100777000D01*
X126077000Y-100777000D01*
X126077000Y-101976250D01*
X126235750Y-102135000D01*
X126880000Y-102135000D01*
X126880000Y-102187005D01*
X126625302Y-102357189D01*
X126370000Y-102739275D01*
X126114698Y-102357189D01*
X125711482Y-102087768D01*
X125823000Y-101976250D01*
X125823000Y-100777000D01*
X125803000Y-100777000D01*
X125803000Y-100523000D01*
X125823000Y-100523000D01*
X125823000Y-99323750D01*
X125664250Y-99165000D01*
X124823691Y-99165000D01*
X124590302Y-99261673D01*
X124411673Y-99440301D01*
X124315000Y-99673690D01*
X124315000Y-100364250D01*
X124473748Y-100522998D01*
X124338869Y-100522998D01*
X124285046Y-100469081D01*
X123904777Y-100311180D01*
X123493029Y-100310821D01*
X123112485Y-100468058D01*
X122821081Y-100758954D01*
X122663180Y-101139223D01*
X122662821Y-101550971D01*
X122820058Y-101931515D01*
X122891182Y-102002763D01*
X122560000Y-101936887D01*
X122010849Y-102046120D01*
X121545302Y-102357189D01*
X121290000Y-102739275D01*
X121034698Y-102357189D01*
X120569151Y-102046120D01*
X120020000Y-101936887D01*
X119470849Y-102046120D01*
X119005302Y-102357189D01*
X118694233Y-102822736D01*
X118585000Y-103371887D01*
X118585000Y-103428113D01*
X118694233Y-103977264D01*
X119005302Y-104442811D01*
X119470849Y-104753880D01*
X120020000Y-104863113D01*
X120569151Y-104753880D01*
X121034698Y-104442811D01*
X121290000Y-104060725D01*
X121545302Y-104442811D01*
X122010849Y-104753880D01*
X122560000Y-104863113D01*
X123109151Y-104753880D01*
X123574698Y-104442811D01*
X123830000Y-104060725D01*
X124085302Y-104442811D01*
X124550849Y-104753880D01*
X125100000Y-104863113D01*
X125649151Y-104753880D01*
X126114698Y-104442811D01*
X126370000Y-104060725D01*
X126625302Y-104442811D01*
X127090849Y-104753880D01*
X127640000Y-104863113D01*
X128189151Y-104753880D01*
X128654698Y-104442811D01*
X128910000Y-104060725D01*
X129165302Y-104442811D01*
X129630849Y-104753880D01*
X130180000Y-104863113D01*
X130729151Y-104753880D01*
X131194698Y-104442811D01*
X131450000Y-104060725D01*
X131705302Y-104442811D01*
X132170849Y-104753880D01*
X132720000Y-104863113D01*
X133269151Y-104753880D01*
X133734698Y-104442811D01*
X133990000Y-104060725D01*
X134245302Y-104442811D01*
X134710849Y-104753880D01*
X135260000Y-104863113D01*
X135809151Y-104753880D01*
X136274698Y-104442811D01*
X136530000Y-104060725D01*
X136785302Y-104442811D01*
X137250849Y-104753880D01*
X137800000Y-104863113D01*
X138349151Y-104753880D01*
X138814698Y-104442811D01*
X139125767Y-103977264D01*
X139200257Y-103602775D01*
X142628803Y-103602775D01*
X142801233Y-104020086D01*
X143120235Y-104339645D01*
X143537244Y-104512803D01*
X143899117Y-104513119D01*
X143898803Y-104872775D01*
X144071233Y-105290086D01*
X144390235Y-105609645D01*
X144807244Y-105782803D01*
X145258775Y-105783197D01*
X145676086Y-105610767D01*
X145995645Y-105291765D01*
X146168803Y-104874756D01*
X146169108Y-104525440D01*
X146804000Y-104525440D01*
X147051765Y-104476157D01*
X147261809Y-104335809D01*
X147402157Y-104125765D01*
X147451440Y-103878000D01*
X147451440Y-102935750D01*
X148915000Y-102935750D01*
X148915000Y-103276309D01*
X149011673Y-103509698D01*
X149190301Y-103688327D01*
X149423690Y-103785000D01*
X150064250Y-103785000D01*
X150223000Y-103626250D01*
X150223000Y-102777000D01*
X149073750Y-102777000D01*
X148915000Y-102935750D01*
X147451440Y-102935750D01*
X147451440Y-102878000D01*
X147402157Y-102630235D01*
X147261809Y-102420191D01*
X147051765Y-102279843D01*
X146804000Y-102230560D01*
X145986242Y-102230560D01*
X146193111Y-102023691D01*
X148915000Y-102023691D01*
X148915000Y-102364250D01*
X149073750Y-102523000D01*
X150223000Y-102523000D01*
X150223000Y-101673750D01*
X150477000Y-101673750D01*
X150477000Y-102523000D01*
X151626250Y-102523000D01*
X151785000Y-102364250D01*
X151785000Y-102023691D01*
X151688327Y-101790302D01*
X151509699Y-101611673D01*
X151276310Y-101515000D01*
X150635750Y-101515000D01*
X150477000Y-101673750D01*
X150223000Y-101673750D01*
X150064250Y-101515000D01*
X149423690Y-101515000D01*
X149190301Y-101611673D01*
X149011673Y-101790302D01*
X148915000Y-102023691D01*
X146193111Y-102023691D01*
X147581052Y-100635750D01*
X152815000Y-100635750D01*
X152815000Y-101476309D01*
X152911673Y-101709698D01*
X153090301Y-101888327D01*
X153323690Y-101985000D01*
X154414250Y-101985000D01*
X154573000Y-101826250D01*
X154573000Y-100477000D01*
X152973750Y-100477000D01*
X152815000Y-100635750D01*
X147581052Y-100635750D01*
X148993111Y-99223691D01*
X152815000Y-99223691D01*
X152815000Y-100064250D01*
X152973750Y-100223000D01*
X154573000Y-100223000D01*
X154573000Y-98873750D01*
X154414250Y-98715000D01*
X153323690Y-98715000D01*
X153090301Y-98811673D01*
X152911673Y-98990302D01*
X152815000Y-99223691D01*
X148993111Y-99223691D01*
X150916066Y-97300736D01*
X151040622Y-97383961D01*
X151608907Y-97497000D01*
X151667093Y-97497000D01*
X152235378Y-97383961D01*
X152717147Y-97062054D01*
X153039054Y-96580285D01*
X153152093Y-96012000D01*
X153039054Y-95443715D01*
X152717147Y-94961946D01*
X152387974Y-94742000D01*
X152717147Y-94522054D01*
X153039054Y-94040285D01*
X153152093Y-93472000D01*
X153039054Y-92903715D01*
X152717147Y-92421946D01*
X152387974Y-92202000D01*
X152717147Y-91982054D01*
X153039054Y-91500285D01*
X153152093Y-90932000D01*
X153039054Y-90363715D01*
X152717147Y-89881946D01*
X152387974Y-89662000D01*
X152717147Y-89442054D01*
X153039054Y-88960285D01*
X153152093Y-88392000D01*
X153039054Y-87823715D01*
X152717147Y-87341946D01*
X152387974Y-87122000D01*
X152717147Y-86902054D01*
X153039054Y-86420285D01*
X153152093Y-85852000D01*
X153039054Y-85283715D01*
X152717147Y-84801946D01*
X152673223Y-84772597D01*
X152847698Y-84700327D01*
X153026327Y-84521699D01*
X153123000Y-84288310D01*
X153123000Y-83597750D01*
X152964250Y-83439000D01*
X151765000Y-83439000D01*
X151765000Y-83459000D01*
X151511000Y-83459000D01*
X151511000Y-83439000D01*
X150311750Y-83439000D01*
X150153000Y-83597750D01*
X150153000Y-84288310D01*
X150249673Y-84521699D01*
X150428302Y-84700327D01*
X150602777Y-84772597D01*
X150558853Y-84801946D01*
X150236946Y-85283715D01*
X150123907Y-85852000D01*
X150236946Y-86420285D01*
X150463600Y-86759498D01*
X149925299Y-87297799D01*
X149760552Y-87544361D01*
X149702700Y-87835200D01*
X149702700Y-96364498D01*
X143824146Y-102243052D01*
X143539225Y-102242803D01*
X143121914Y-102415233D01*
X142802355Y-102734235D01*
X142629197Y-103151244D01*
X142628803Y-103602775D01*
X139200257Y-103602775D01*
X139235000Y-103428113D01*
X139235000Y-103371887D01*
X139125767Y-102822736D01*
X138814698Y-102357189D01*
X138575617Y-102197440D01*
X138750000Y-102197440D01*
X138997765Y-102148157D01*
X139207809Y-102007809D01*
X139348157Y-101797765D01*
X139397440Y-101550000D01*
X139397440Y-100985750D01*
X140115000Y-100985750D01*
X140115000Y-101676310D01*
X140211673Y-101909699D01*
X140390302Y-102088327D01*
X140623691Y-102185000D01*
X141464250Y-102185000D01*
X141623000Y-102026250D01*
X141623000Y-100827000D01*
X141877000Y-100827000D01*
X141877000Y-102026250D01*
X142035750Y-102185000D01*
X142876309Y-102185000D01*
X143109698Y-102088327D01*
X143288327Y-101909699D01*
X143385000Y-101676310D01*
X143385000Y-100985750D01*
X143226250Y-100827000D01*
X141877000Y-100827000D01*
X141623000Y-100827000D01*
X140273750Y-100827000D01*
X140115000Y-100985750D01*
X139397440Y-100985750D01*
X139397440Y-99850000D01*
X139348157Y-99602235D01*
X139207809Y-99392191D01*
X139117441Y-99331809D01*
X139223000Y-99226250D01*
X139223000Y-98027000D01*
X139477000Y-98027000D01*
X139477000Y-99226250D01*
X139635750Y-99385000D01*
X140316975Y-99385000D01*
X140211673Y-99490301D01*
X140115000Y-99723690D01*
X140115000Y-100414250D01*
X140273750Y-100573000D01*
X141623000Y-100573000D01*
X141623000Y-99373750D01*
X141877000Y-99373750D01*
X141877000Y-100573000D01*
X143226250Y-100573000D01*
X143385000Y-100414250D01*
X143385000Y-99723690D01*
X143288327Y-99490301D01*
X143109698Y-99311673D01*
X142876309Y-99215000D01*
X142035750Y-99215000D01*
X141877000Y-99373750D01*
X141623000Y-99373750D01*
X141464250Y-99215000D01*
X140783025Y-99215000D01*
X140888327Y-99109699D01*
X140985000Y-98876310D01*
X140985000Y-98185750D01*
X140826250Y-98027000D01*
X139477000Y-98027000D01*
X139223000Y-98027000D01*
X139203000Y-98027000D01*
X139203000Y-97773000D01*
X139223000Y-97773000D01*
X139223000Y-96573750D01*
X139477000Y-96573750D01*
X139477000Y-97773000D01*
X140826250Y-97773000D01*
X140985000Y-97614250D01*
X140985000Y-96923690D01*
X140888327Y-96690301D01*
X140709698Y-96511673D01*
X140476309Y-96415000D01*
X139635750Y-96415000D01*
X139477000Y-96573750D01*
X139223000Y-96573750D01*
X139064250Y-96415000D01*
X138223691Y-96415000D01*
X137990302Y-96511673D01*
X137811673Y-96690301D01*
X137715000Y-96923690D01*
X137715000Y-97614250D01*
X137873748Y-97772998D01*
X137844792Y-97772998D01*
X137747046Y-97675081D01*
X137366777Y-97517180D01*
X136997440Y-97516858D01*
X136997440Y-97050000D01*
X136948157Y-96802235D01*
X136807809Y-96592191D01*
X136597765Y-96451843D01*
X136350000Y-96402560D01*
X136120000Y-96402560D01*
X136120000Y-95985000D01*
X136564250Y-95985000D01*
X136723000Y-95826250D01*
X136723000Y-94627000D01*
X136703000Y-94627000D01*
X136703000Y-94373000D01*
X136723000Y-94373000D01*
X136723000Y-94353000D01*
X136977000Y-94353000D01*
X136977000Y-94373000D01*
X136997000Y-94373000D01*
X136997000Y-94627000D01*
X136977000Y-94627000D01*
X136977000Y-95826250D01*
X137135750Y-95985000D01*
X137976309Y-95985000D01*
X138209698Y-95888327D01*
X138388327Y-95709699D01*
X138485000Y-95476310D01*
X138485000Y-95063802D01*
X139208599Y-95787401D01*
X139455161Y-95952148D01*
X139746000Y-96010000D01*
X140124405Y-96010000D01*
X140326019Y-96211967D01*
X140743168Y-96385182D01*
X141194850Y-96385576D01*
X141612301Y-96213089D01*
X141931967Y-95893981D01*
X142105182Y-95476832D01*
X142105497Y-95115263D01*
X142464850Y-95115576D01*
X142882301Y-94943089D01*
X143201967Y-94623981D01*
X143375182Y-94206832D01*
X143375576Y-93755150D01*
X143203089Y-93337699D01*
X142883981Y-93018033D01*
X142466832Y-92844818D01*
X142015150Y-92844424D01*
X141597699Y-93016911D01*
X141278033Y-93336019D01*
X141104818Y-93753168D01*
X141104503Y-94114737D01*
X140835263Y-94114503D01*
X140835576Y-93755150D01*
X140663089Y-93337699D01*
X140460000Y-93134255D01*
X140460000Y-88854971D01*
X141014821Y-88854971D01*
X141172058Y-89235515D01*
X141462954Y-89526919D01*
X141843223Y-89684820D01*
X142254971Y-89685179D01*
X142369995Y-89637652D01*
X142401843Y-89797765D01*
X142542191Y-90007809D01*
X142752235Y-90148157D01*
X143000000Y-90197440D01*
X144700000Y-90197440D01*
X144947765Y-90148157D01*
X145157809Y-90007809D01*
X145298157Y-89797765D01*
X145347440Y-89550000D01*
X145347440Y-87550000D01*
X145298157Y-87302235D01*
X145157809Y-87092191D01*
X144947765Y-86951843D01*
X144700000Y-86902560D01*
X143000000Y-86902560D01*
X142752235Y-86951843D01*
X142542191Y-87092191D01*
X142401843Y-87302235D01*
X142352560Y-87550000D01*
X142352560Y-87654952D01*
X142256777Y-87615180D01*
X141845029Y-87614821D01*
X141464485Y-87772058D01*
X141173081Y-88062954D01*
X141015180Y-88443223D01*
X141014821Y-88854971D01*
X140460000Y-88854971D01*
X140460000Y-84803602D01*
X145252560Y-80011042D01*
X145252560Y-80950000D01*
X145301843Y-81197765D01*
X145442191Y-81407809D01*
X145652235Y-81548157D01*
X145900000Y-81597440D01*
X146215176Y-81597440D01*
X146214821Y-82004971D01*
X146342922Y-82315000D01*
X145773690Y-82315000D01*
X145540301Y-82411673D01*
X145361673Y-82590302D01*
X145265000Y-82823691D01*
X145265000Y-83252612D01*
X145157809Y-83092191D01*
X144947765Y-82951843D01*
X144700000Y-82902560D01*
X143000000Y-82902560D01*
X142752235Y-82951843D01*
X142542191Y-83092191D01*
X142401843Y-83302235D01*
X142352560Y-83550000D01*
X142352560Y-85550000D01*
X142401843Y-85797765D01*
X142542191Y-86007809D01*
X142752235Y-86148157D01*
X143000000Y-86197440D01*
X144700000Y-86197440D01*
X144713878Y-86194680D01*
X146306000Y-87786802D01*
X146306000Y-92454399D01*
X146022832Y-92336818D01*
X145571150Y-92336424D01*
X145153699Y-92508911D01*
X144834033Y-92828019D01*
X144660818Y-93245168D01*
X144660424Y-93696850D01*
X144832911Y-94114301D01*
X145152019Y-94433967D01*
X145569168Y-94607182D01*
X145930737Y-94607497D01*
X145930424Y-94966850D01*
X146102911Y-95384301D01*
X146422019Y-95703967D01*
X146839168Y-95877182D01*
X147290850Y-95877576D01*
X147708301Y-95705089D01*
X148027967Y-95385981D01*
X148201182Y-94968832D01*
X148201497Y-94607263D01*
X148560850Y-94607576D01*
X148978301Y-94435089D01*
X149297967Y-94115981D01*
X149471182Y-93698832D01*
X149471576Y-93247150D01*
X149299089Y-92829699D01*
X148979981Y-92510033D01*
X148562832Y-92336818D01*
X148111150Y-92336424D01*
X147826000Y-92454245D01*
X147826000Y-87472000D01*
X147768148Y-87181161D01*
X147603401Y-86934599D01*
X146253802Y-85585000D01*
X146864250Y-85585000D01*
X147023000Y-85426250D01*
X147023000Y-84077000D01*
X147277000Y-84077000D01*
X147277000Y-85426250D01*
X147435750Y-85585000D01*
X148526310Y-85585000D01*
X148759699Y-85488327D01*
X148938327Y-85309698D01*
X149035000Y-85076309D01*
X149035000Y-84235750D01*
X148876250Y-84077000D01*
X147277000Y-84077000D01*
X147023000Y-84077000D01*
X147003000Y-84077000D01*
X147003000Y-83823000D01*
X147023000Y-83823000D01*
X147023000Y-83803000D01*
X147277000Y-83803000D01*
X147277000Y-83823000D01*
X148876250Y-83823000D01*
X149035000Y-83664250D01*
X149035000Y-82823691D01*
X148938327Y-82590302D01*
X148759699Y-82411673D01*
X148576261Y-82335690D01*
X150153000Y-82335690D01*
X150153000Y-83026250D01*
X150311750Y-83185000D01*
X151511000Y-83185000D01*
X151511000Y-81985750D01*
X151765000Y-81985750D01*
X151765000Y-83185000D01*
X152964250Y-83185000D01*
X153123000Y-83026250D01*
X153123000Y-82335690D01*
X153026327Y-82102301D01*
X152847698Y-81923673D01*
X152614309Y-81827000D01*
X151923750Y-81827000D01*
X151765000Y-81985750D01*
X151511000Y-81985750D01*
X151352250Y-81827000D01*
X150661691Y-81827000D01*
X150428302Y-81923673D01*
X150249673Y-82102301D01*
X150153000Y-82335690D01*
X148576261Y-82335690D01*
X148526310Y-82315000D01*
X148156835Y-82315000D01*
X148284820Y-82006777D01*
X148285177Y-81597440D01*
X148400000Y-81597440D01*
X148647765Y-81548157D01*
X148857809Y-81407809D01*
X148998157Y-81197765D01*
X149047440Y-80950000D01*
X149047440Y-79664509D01*
X149355766Y-79870526D01*
X149929255Y-79984600D01*
X150298745Y-79984600D01*
X150872234Y-79870526D01*
X151358415Y-79545670D01*
X151683271Y-79059489D01*
X151797345Y-78486000D01*
X151683271Y-77912511D01*
X151358415Y-77426330D01*
X151043634Y-77216000D01*
X151358415Y-77005670D01*
X151683271Y-76519489D01*
X151797345Y-75946000D01*
X152494655Y-75946000D01*
X152608729Y-76519489D01*
X152933585Y-77005670D01*
X153248366Y-77216000D01*
X152933585Y-77426330D01*
X152608729Y-77912511D01*
X152494655Y-78486000D01*
X152608729Y-79059489D01*
X152933585Y-79545670D01*
X153419766Y-79870526D01*
X153993255Y-79984600D01*
X154362745Y-79984600D01*
X154936234Y-79870526D01*
X155422415Y-79545670D01*
X155747271Y-79059489D01*
X155861345Y-78486000D01*
X155747271Y-77912511D01*
X155422415Y-77426330D01*
X155107634Y-77216000D01*
X155422415Y-77005670D01*
X155747271Y-76519489D01*
X155861345Y-75946000D01*
X155747271Y-75372511D01*
X155422415Y-74886330D01*
X155405434Y-74874984D01*
X155441765Y-74867757D01*
X155651809Y-74727409D01*
X155792157Y-74517365D01*
X155841440Y-74269600D01*
X155841440Y-72542400D01*
X155792157Y-72294635D01*
X155651809Y-72084591D01*
X155441765Y-71944243D01*
X155194000Y-71894960D01*
X153162000Y-71894960D01*
X152914235Y-71944243D01*
X152704191Y-72084591D01*
X152563843Y-72294635D01*
X152514560Y-72542400D01*
X152514560Y-74269600D01*
X152563843Y-74517365D01*
X152704191Y-74727409D01*
X152914235Y-74867757D01*
X152950566Y-74874984D01*
X152933585Y-74886330D01*
X152608729Y-75372511D01*
X152494655Y-75946000D01*
X151797345Y-75946000D01*
X151683271Y-75372511D01*
X151358415Y-74886330D01*
X151341434Y-74874984D01*
X151377765Y-74867757D01*
X151587809Y-74727409D01*
X151728157Y-74517365D01*
X151777440Y-74269600D01*
X151777440Y-72542400D01*
X151728157Y-72294635D01*
X151587809Y-72084591D01*
X151377765Y-71944243D01*
X151130000Y-71894960D01*
X149098000Y-71894960D01*
X148850235Y-71944243D01*
X148640191Y-72084591D01*
X148499843Y-72294635D01*
X148450560Y-72542400D01*
X148450560Y-74269600D01*
X148499843Y-74517365D01*
X148538612Y-74575386D01*
X139203683Y-83910315D01*
X139225767Y-83877264D01*
X139335000Y-83328113D01*
X139335000Y-83271887D01*
X139225767Y-82722736D01*
X138914698Y-82257189D01*
X138449151Y-81946120D01*
X137900000Y-81836887D01*
X137350849Y-81946120D01*
X136885302Y-82257189D01*
X136630000Y-82639275D01*
X136374698Y-82257189D01*
X136120000Y-82087005D01*
X136120000Y-76767684D01*
X136300629Y-76587370D01*
X136392406Y-76366344D01*
X138536501Y-76366344D01*
X138974790Y-77427086D01*
X139785645Y-78239357D01*
X140845620Y-78679498D01*
X141993344Y-78680499D01*
X143054086Y-78242210D01*
X143866357Y-77431355D01*
X144306498Y-76371380D01*
X144307499Y-75223656D01*
X143869210Y-74162914D01*
X143058355Y-73350643D01*
X141998380Y-72910502D01*
X140850656Y-72909501D01*
X139789914Y-73347790D01*
X138977643Y-74158645D01*
X138537502Y-75218620D01*
X138536501Y-76366344D01*
X136392406Y-76366344D01*
X136513757Y-76074100D01*
X136514242Y-75518339D01*
X136302010Y-75004697D01*
X135909370Y-74611371D01*
X135468497Y-74428305D01*
X135476802Y-74420000D01*
X137922000Y-74420000D01*
X138212839Y-74362148D01*
X138459401Y-74197401D01*
X140776802Y-71880000D01*
X150114000Y-71880000D01*
X150404839Y-71822148D01*
X150651401Y-71657401D01*
X151525592Y-70783210D01*
X151892000Y-70856093D01*
X152460285Y-70743054D01*
X152942054Y-70421147D01*
X152971403Y-70377223D01*
X152983843Y-70439765D01*
X153124191Y-70649809D01*
X153334235Y-70790157D01*
X153582000Y-70839440D01*
X155282000Y-70839440D01*
X155529765Y-70790157D01*
X155739809Y-70649809D01*
X155880157Y-70439765D01*
X155929440Y-70192000D01*
X155929440Y-68492000D01*
X155880157Y-68244235D01*
X155739809Y-68034191D01*
X155529765Y-67893843D01*
X155282000Y-67844560D01*
X153582000Y-67844560D01*
X153334235Y-67893843D01*
X153124191Y-68034191D01*
X152983843Y-68244235D01*
X152971403Y-68306777D01*
X152942054Y-68262853D01*
X152460285Y-67940946D01*
X151892000Y-67827907D01*
X151323715Y-67940946D01*
X150841946Y-68262853D01*
X150622000Y-68592026D01*
X150402054Y-68262853D01*
X149920285Y-67940946D01*
X149352000Y-67827907D01*
X148783715Y-67940946D01*
X148301946Y-68262853D01*
X147980039Y-68744622D01*
X147867000Y-69312907D01*
X147867000Y-69371093D01*
X147980039Y-69939378D01*
X148261089Y-70360000D01*
X140462000Y-70360000D01*
X140219414Y-70408254D01*
X140171160Y-70417852D01*
X139924599Y-70582599D01*
X137607198Y-72900000D01*
X135336873Y-72900000D01*
X135157010Y-72464697D01*
X134764370Y-72071371D01*
X134251100Y-71858243D01*
X133695339Y-71857758D01*
X133181697Y-72069990D01*
X132871804Y-72379342D01*
X132564370Y-72071371D01*
X132051100Y-71858243D01*
X131495339Y-71857758D01*
X130981697Y-72069990D01*
X130588371Y-72462630D01*
X130582248Y-72477375D01*
X130577010Y-72464697D01*
X130184370Y-72071371D01*
X129671100Y-71858243D01*
X129382793Y-71857991D01*
X129137601Y-71612799D01*
X128891039Y-71448052D01*
X128600200Y-71390200D01*
X126161431Y-71390200D01*
X126352919Y-71199046D01*
X126510820Y-70818777D01*
X126511179Y-70407029D01*
X126353942Y-70026485D01*
X126063046Y-69735081D01*
X125682777Y-69577180D01*
X125271029Y-69576821D01*
X124890485Y-69734058D01*
X124772337Y-69852000D01*
X113733761Y-69852000D01*
X113617046Y-69735081D01*
X113236777Y-69577180D01*
X112825029Y-69576821D01*
X112444485Y-69734058D01*
X112153081Y-70024954D01*
X111995180Y-70405223D01*
X111994821Y-70816971D01*
X112152058Y-71197515D01*
X112442954Y-71488919D01*
X112823223Y-71646820D01*
X113111427Y-71647071D01*
X109565748Y-75192750D01*
X109537147Y-75149946D01*
X109207974Y-74930000D01*
X109537147Y-74710054D01*
X109859054Y-74228285D01*
X109972093Y-73660000D01*
X109859054Y-73091715D01*
X109537147Y-72609946D01*
X109493223Y-72580597D01*
X109667698Y-72508327D01*
X109846327Y-72329699D01*
X109943000Y-72096310D01*
X109943000Y-71405750D01*
X109784250Y-71247000D01*
X108585000Y-71247000D01*
X108585000Y-71267000D01*
X108331000Y-71267000D01*
X108331000Y-71247000D01*
X107131750Y-71247000D01*
X106973000Y-71405750D01*
X106973000Y-72096310D01*
X107069673Y-72329699D01*
X107248302Y-72508327D01*
X107422777Y-72580597D01*
X107378853Y-72609946D01*
X107056946Y-73091715D01*
X106943907Y-73660000D01*
X106710000Y-73660000D01*
X106710000Y-70143690D01*
X106973000Y-70143690D01*
X106973000Y-70834250D01*
X107131750Y-70993000D01*
X108331000Y-70993000D01*
X108331000Y-69793750D01*
X108585000Y-69793750D01*
X108585000Y-70993000D01*
X109784250Y-70993000D01*
X109943000Y-70834250D01*
X109943000Y-70143690D01*
X109846327Y-69910301D01*
X109667698Y-69731673D01*
X109434309Y-69635000D01*
X108743750Y-69635000D01*
X108585000Y-69793750D01*
X108331000Y-69793750D01*
X108172250Y-69635000D01*
X107481691Y-69635000D01*
X107248302Y-69731673D01*
X107069673Y-69910301D01*
X106973000Y-70143690D01*
X106710000Y-70143690D01*
X106710000Y-65710000D01*
X156074079Y-65710000D01*
X156290000Y-97639263D01*
X156290000Y-97639263D01*
G37*
X156290000Y-97639263D02*
X156290000Y-98803513D01*
X156076310Y-98715000D01*
X154985750Y-98715000D01*
X154827000Y-98873750D01*
X154827000Y-100223000D01*
X154847000Y-100223000D01*
X154847000Y-100477000D01*
X154827000Y-100477000D01*
X154827000Y-101826250D01*
X154985750Y-101985000D01*
X156076310Y-101985000D01*
X156290000Y-101896487D01*
X156290000Y-102813473D01*
X156197765Y-102751843D01*
X155950000Y-102702560D01*
X153450000Y-102702560D01*
X153202235Y-102751843D01*
X152992191Y-102892191D01*
X152851843Y-103102235D01*
X152829297Y-103215581D01*
X152687046Y-103073081D01*
X152306777Y-102915180D01*
X151895029Y-102914821D01*
X151785000Y-102960284D01*
X151785000Y-102935750D01*
X151626250Y-102777000D01*
X150477000Y-102777000D01*
X150477000Y-103626250D01*
X150635750Y-103785000D01*
X151065144Y-103785000D01*
X151064821Y-104154971D01*
X151213675Y-104515226D01*
X151150000Y-104502560D01*
X149550000Y-104502560D01*
X149302235Y-104551843D01*
X149092191Y-104692191D01*
X148953890Y-104899172D01*
X148709161Y-104947852D01*
X148462599Y-105112599D01*
X148460233Y-105114965D01*
X148295029Y-105114821D01*
X147914485Y-105272058D01*
X147623081Y-105562954D01*
X147465180Y-105943223D01*
X147464821Y-106354971D01*
X147622058Y-106735515D01*
X147912954Y-107026919D01*
X148293223Y-107184820D01*
X148704971Y-107185179D01*
X149085515Y-107027942D01*
X149355229Y-106758698D01*
X149550000Y-106797440D01*
X151150000Y-106797440D01*
X151397765Y-106748157D01*
X151607809Y-106607809D01*
X151748157Y-106397765D01*
X151797440Y-106150000D01*
X151797440Y-105150000D01*
X151753003Y-104926596D01*
X151893223Y-104984820D01*
X152108678Y-104985008D01*
X152209160Y-105052148D01*
X152257414Y-105061746D01*
X152500000Y-105110000D01*
X152802560Y-105110000D01*
X152802560Y-105350000D01*
X152851843Y-105597765D01*
X152992191Y-105807809D01*
X153202235Y-105948157D01*
X153450000Y-105997440D01*
X155950000Y-105997440D01*
X156197765Y-105948157D01*
X156290000Y-105886527D01*
X156290000Y-106500298D01*
X156050000Y-106452560D01*
X153550000Y-106452560D01*
X153302235Y-106501843D01*
X153092191Y-106642191D01*
X152951843Y-106852235D01*
X152902560Y-107100000D01*
X152902560Y-109100000D01*
X152951843Y-109347765D01*
X153092191Y-109557809D01*
X153302235Y-109698157D01*
X153550000Y-109747440D01*
X153967238Y-109747440D01*
X153865180Y-109993223D01*
X153864821Y-110404971D01*
X153889624Y-110465000D01*
X153423690Y-110465000D01*
X153190301Y-110561673D01*
X153011673Y-110740302D01*
X152915000Y-110973691D01*
X152915000Y-111814250D01*
X153073750Y-111973000D01*
X154673000Y-111973000D01*
X154673000Y-111953000D01*
X154927000Y-111953000D01*
X154927000Y-111973000D01*
X154947000Y-111973000D01*
X154947000Y-112227000D01*
X154927000Y-112227000D01*
X154927000Y-113576250D01*
X155085750Y-113735000D01*
X156176310Y-113735000D01*
X156290000Y-113687908D01*
X156290000Y-114907380D01*
X155808234Y-114585474D01*
X155234745Y-114471400D01*
X154865255Y-114471400D01*
X154291766Y-114585474D01*
X153805585Y-114910330D01*
X153480729Y-115396511D01*
X153366655Y-115970000D01*
X153480729Y-116543489D01*
X153805585Y-117029670D01*
X154120366Y-117240000D01*
X153805585Y-117450330D01*
X153480729Y-117936511D01*
X153366655Y-118510000D01*
X153480729Y-119083489D01*
X153805585Y-119569670D01*
X153827780Y-119584500D01*
X153674302Y-119648073D01*
X153495673Y-119826701D01*
X153399000Y-120060090D01*
X153399000Y-120764250D01*
X153557750Y-120923000D01*
X154923000Y-120923000D01*
X154923000Y-120903000D01*
X155177000Y-120903000D01*
X155177000Y-120923000D01*
X155197000Y-120923000D01*
X155197000Y-121177000D01*
X155177000Y-121177000D01*
X155177000Y-122389850D01*
X155335750Y-122548600D01*
X156192309Y-122548600D01*
X156290000Y-122508135D01*
X156290000Y-124290000D01*
X106710000Y-124290000D01*
X106710000Y-118049280D01*
X108752500Y-118049280D01*
X108752500Y-121549400D01*
X108801783Y-121797165D01*
X108942131Y-122007209D01*
X109152175Y-122147557D01*
X109399940Y-122196840D01*
X112900060Y-122196840D01*
X113147825Y-122147557D01*
X113357869Y-122007209D01*
X113498217Y-121797165D01*
X113500487Y-121785750D01*
X119599000Y-121785750D01*
X119599000Y-122489910D01*
X119695673Y-122723299D01*
X119874302Y-122901927D01*
X120107691Y-122998600D01*
X120964250Y-122998600D01*
X121123000Y-122839850D01*
X121123000Y-121627000D01*
X121377000Y-121627000D01*
X121377000Y-122839850D01*
X121535750Y-122998600D01*
X122392309Y-122998600D01*
X122625698Y-122901927D01*
X122804327Y-122723299D01*
X122901000Y-122489910D01*
X122901000Y-122285750D01*
X123065000Y-122285750D01*
X123065000Y-122976310D01*
X123161673Y-123209699D01*
X123340302Y-123388327D01*
X123573691Y-123485000D01*
X124414250Y-123485000D01*
X124573000Y-123326250D01*
X124573000Y-122127000D01*
X124827000Y-122127000D01*
X124827000Y-123326250D01*
X124985750Y-123485000D01*
X125826309Y-123485000D01*
X126059698Y-123388327D01*
X126238327Y-123209699D01*
X126335000Y-122976310D01*
X126335000Y-122285750D01*
X126176250Y-122127000D01*
X124827000Y-122127000D01*
X124573000Y-122127000D01*
X123223750Y-122127000D01*
X123065000Y-122285750D01*
X122901000Y-122285750D01*
X122901000Y-121785750D01*
X122742250Y-121627000D01*
X121377000Y-121627000D01*
X121123000Y-121627000D01*
X119757750Y-121627000D01*
X119599000Y-121785750D01*
X113500487Y-121785750D01*
X113547500Y-121549400D01*
X113547500Y-118867341D01*
X113641131Y-119007469D01*
X113851175Y-119147817D01*
X114098940Y-119197100D01*
X117599060Y-119197100D01*
X117846825Y-119147817D01*
X118056869Y-119007469D01*
X118197217Y-118797425D01*
X118246500Y-118549660D01*
X118246500Y-116420000D01*
X119566655Y-116420000D01*
X119680729Y-116993489D01*
X120005585Y-117479670D01*
X120320366Y-117690000D01*
X120005585Y-117900330D01*
X119680729Y-118386511D01*
X119566655Y-118960000D01*
X119680729Y-119533489D01*
X120005585Y-120019670D01*
X120027780Y-120034500D01*
X119874302Y-120098073D01*
X119695673Y-120276701D01*
X119599000Y-120510090D01*
X119599000Y-121214250D01*
X119757750Y-121373000D01*
X121123000Y-121373000D01*
X121123000Y-121353000D01*
X121377000Y-121353000D01*
X121377000Y-121373000D01*
X122742250Y-121373000D01*
X122901000Y-121214250D01*
X122901000Y-121023690D01*
X123065000Y-121023690D01*
X123065000Y-121714250D01*
X123223750Y-121873000D01*
X124573000Y-121873000D01*
X124573000Y-120673750D01*
X124827000Y-120673750D01*
X124827000Y-121873000D01*
X126176250Y-121873000D01*
X126335000Y-121714250D01*
X126335000Y-121023690D01*
X126238327Y-120790301D01*
X126059698Y-120611673D01*
X125826309Y-120515000D01*
X124985750Y-120515000D01*
X124827000Y-120673750D01*
X124573000Y-120673750D01*
X124414250Y-120515000D01*
X123573691Y-120515000D01*
X123340302Y-120611673D01*
X123161673Y-120790301D01*
X123065000Y-121023690D01*
X122901000Y-121023690D01*
X122901000Y-120510090D01*
X122804327Y-120276701D01*
X122625698Y-120098073D01*
X122472220Y-120034500D01*
X122494415Y-120019670D01*
X122819271Y-119533489D01*
X122933345Y-118960000D01*
X122819271Y-118386511D01*
X122494415Y-117900330D01*
X122179634Y-117690000D01*
X122494415Y-117479670D01*
X122819271Y-116993489D01*
X122933345Y-116420000D01*
X122819271Y-115846511D01*
X122494415Y-115360330D01*
X122008234Y-115035474D01*
X121434745Y-114921400D01*
X121065255Y-114921400D01*
X120491766Y-115035474D01*
X120005585Y-115360330D01*
X119680729Y-115846511D01*
X119566655Y-116420000D01*
X118246500Y-116420000D01*
X118246500Y-115049540D01*
X118197217Y-114801775D01*
X118056869Y-114591731D01*
X117846825Y-114451383D01*
X117599060Y-114402100D01*
X114098940Y-114402100D01*
X113851175Y-114451383D01*
X113641131Y-114591731D01*
X113535060Y-114750476D01*
X113535060Y-114085610D01*
X113376310Y-113926860D01*
X111277000Y-113926860D01*
X111277000Y-116026170D01*
X111435750Y-116184920D01*
X113026370Y-116184920D01*
X113259759Y-116088247D01*
X113438387Y-115909618D01*
X113451500Y-115877960D01*
X113451500Y-117731599D01*
X113357869Y-117591471D01*
X113147825Y-117451123D01*
X112900060Y-117401840D01*
X109399940Y-117401840D01*
X109152175Y-117451123D01*
X108942131Y-117591471D01*
X108801783Y-117801515D01*
X108752500Y-118049280D01*
X106710000Y-118049280D01*
X106710000Y-114085610D01*
X108764940Y-114085610D01*
X108764940Y-115676229D01*
X108861613Y-115909618D01*
X109040241Y-116088247D01*
X109273630Y-116184920D01*
X110864250Y-116184920D01*
X111023000Y-116026170D01*
X111023000Y-113926860D01*
X108923690Y-113926860D01*
X108764940Y-114085610D01*
X106710000Y-114085610D01*
X106710000Y-111923491D01*
X108764940Y-111923491D01*
X108764940Y-113514110D01*
X108923690Y-113672860D01*
X111023000Y-113672860D01*
X111023000Y-111573550D01*
X111277000Y-111573550D01*
X111277000Y-113672860D01*
X113376310Y-113672860D01*
X113535060Y-113514110D01*
X113535060Y-111923491D01*
X113438387Y-111690102D01*
X113259759Y-111511473D01*
X113026370Y-111414800D01*
X111435750Y-111414800D01*
X111277000Y-111573550D01*
X111023000Y-111573550D01*
X110864250Y-111414800D01*
X109273630Y-111414800D01*
X109040241Y-111511473D01*
X108861613Y-111690102D01*
X108764940Y-111923491D01*
X106710000Y-111923491D01*
X106710000Y-111235750D01*
X114115000Y-111235750D01*
X114115000Y-112076309D01*
X114211673Y-112309698D01*
X114390301Y-112488327D01*
X114623690Y-112585000D01*
X115264250Y-112585000D01*
X115423000Y-112426250D01*
X115423000Y-111077000D01*
X115677000Y-111077000D01*
X115677000Y-112426250D01*
X115835750Y-112585000D01*
X116476310Y-112585000D01*
X116709699Y-112488327D01*
X116888327Y-112309698D01*
X116985000Y-112076309D01*
X116985000Y-111369041D01*
X118628086Y-111369041D01*
X118867611Y-111875134D01*
X119282577Y-112251041D01*
X119670961Y-112411904D01*
X119893000Y-112289915D01*
X119893000Y-111147000D01*
X118749371Y-111147000D01*
X118628086Y-111369041D01*
X116985000Y-111369041D01*
X116985000Y-111235750D01*
X116826250Y-111077000D01*
X115677000Y-111077000D01*
X115423000Y-111077000D01*
X114273750Y-111077000D01*
X114115000Y-111235750D01*
X106710000Y-111235750D01*
X106710000Y-110608025D01*
X106740302Y-110638327D01*
X106973691Y-110735000D01*
X107814250Y-110735000D01*
X107973000Y-110576250D01*
X107973000Y-108977000D01*
X108227000Y-108977000D01*
X108227000Y-110576250D01*
X108385750Y-110735000D01*
X109226309Y-110735000D01*
X109459698Y-110638327D01*
X109638327Y-110459699D01*
X109735000Y-110226310D01*
X109735000Y-109135750D01*
X109576250Y-108977000D01*
X108227000Y-108977000D01*
X107973000Y-108977000D01*
X107953000Y-108977000D01*
X107953000Y-108723000D01*
X107973000Y-108723000D01*
X107973000Y-107123750D01*
X108227000Y-107123750D01*
X108227000Y-108723000D01*
X109576250Y-108723000D01*
X109735000Y-108564250D01*
X109735000Y-107600000D01*
X110452560Y-107600000D01*
X110452560Y-110100000D01*
X110501843Y-110347765D01*
X110642191Y-110557809D01*
X110852235Y-110698157D01*
X111100000Y-110747440D01*
X113100000Y-110747440D01*
X113347765Y-110698157D01*
X113557809Y-110557809D01*
X113698157Y-110347765D01*
X113747440Y-110100000D01*
X113747440Y-109823691D01*
X114115000Y-109823691D01*
X114115000Y-110664250D01*
X114273750Y-110823000D01*
X115423000Y-110823000D01*
X115423000Y-109473750D01*
X115677000Y-109473750D01*
X115677000Y-110823000D01*
X116826250Y-110823000D01*
X116978291Y-110670959D01*
X118628086Y-110670959D01*
X118749371Y-110893000D01*
X119893000Y-110893000D01*
X119893000Y-109750085D01*
X120147000Y-109750085D01*
X120147000Y-110893000D01*
X120167000Y-110893000D01*
X120167000Y-111147000D01*
X120147000Y-111147000D01*
X120147000Y-112289915D01*
X120369039Y-112411904D01*
X120757423Y-112251041D01*
X121172389Y-111875134D01*
X121275014Y-111658297D01*
X121545302Y-112062811D01*
X122010849Y-112373880D01*
X122560000Y-112483113D01*
X123109151Y-112373880D01*
X123574698Y-112062811D01*
X123830000Y-111680725D01*
X124085302Y-112062811D01*
X124550849Y-112373880D01*
X125100000Y-112483113D01*
X125649151Y-112373880D01*
X126114698Y-112062811D01*
X126370000Y-111680725D01*
X126625302Y-112062811D01*
X127090849Y-112373880D01*
X127640000Y-112483113D01*
X127868670Y-112437628D01*
X127224599Y-113081699D01*
X127059852Y-113328261D01*
X127025024Y-113503354D01*
X126702330Y-113718971D01*
X126377474Y-114205152D01*
X126263400Y-114778641D01*
X126263400Y-114837359D01*
X126377474Y-115410848D01*
X126702330Y-115897029D01*
X126973172Y-116078000D01*
X126702330Y-116258971D01*
X126377474Y-116745152D01*
X126263400Y-117318641D01*
X126263400Y-117377359D01*
X126377474Y-117950848D01*
X126702330Y-118437029D01*
X127025024Y-118652646D01*
X127059852Y-118827739D01*
X127224599Y-119074301D01*
X127940000Y-119789702D01*
X127940000Y-120502560D01*
X127700000Y-120502560D01*
X127452235Y-120551843D01*
X127242191Y-120692191D01*
X127101843Y-120902235D01*
X127052560Y-121150000D01*
X127052560Y-122850000D01*
X127101843Y-123097765D01*
X127242191Y-123307809D01*
X127452235Y-123448157D01*
X127700000Y-123497440D01*
X129700000Y-123497440D01*
X129947765Y-123448157D01*
X130089190Y-123353659D01*
X130192191Y-123507809D01*
X130402235Y-123648157D01*
X130650000Y-123697440D01*
X132650000Y-123697440D01*
X132897765Y-123648157D01*
X133107809Y-123507809D01*
X133248157Y-123297765D01*
X133297440Y-123050000D01*
X133297440Y-122485750D01*
X134015000Y-122485750D01*
X134015000Y-123176310D01*
X134111673Y-123409699D01*
X134290302Y-123588327D01*
X134523691Y-123685000D01*
X135364250Y-123685000D01*
X135523000Y-123526250D01*
X135523000Y-122327000D01*
X135777000Y-122327000D01*
X135777000Y-123526250D01*
X135935750Y-123685000D01*
X136776309Y-123685000D01*
X137009698Y-123588327D01*
X137188327Y-123409699D01*
X137285000Y-123176310D01*
X137285000Y-122485750D01*
X137126250Y-122327000D01*
X135777000Y-122327000D01*
X135523000Y-122327000D01*
X134173750Y-122327000D01*
X134015000Y-122485750D01*
X133297440Y-122485750D01*
X133297440Y-121350000D01*
X133272316Y-121223690D01*
X134015000Y-121223690D01*
X134015000Y-121914250D01*
X134173750Y-122073000D01*
X135523000Y-122073000D01*
X135523000Y-120873750D01*
X135777000Y-120873750D01*
X135777000Y-122073000D01*
X137126250Y-122073000D01*
X137285000Y-121914250D01*
X137285000Y-121223690D01*
X137188327Y-120990301D01*
X137009698Y-120811673D01*
X136776309Y-120715000D01*
X135935750Y-120715000D01*
X135777000Y-120873750D01*
X135523000Y-120873750D01*
X135364250Y-120715000D01*
X134523691Y-120715000D01*
X134290302Y-120811673D01*
X134111673Y-120990301D01*
X134015000Y-121223690D01*
X133272316Y-121223690D01*
X133248157Y-121102235D01*
X133107809Y-120892191D01*
X132897765Y-120751843D01*
X132650000Y-120702560D01*
X132410000Y-120702560D01*
X132410000Y-118790029D01*
X132842000Y-118875959D01*
X133415489Y-118761885D01*
X133901670Y-118437029D01*
X134112000Y-118122248D01*
X134322330Y-118437029D01*
X134808511Y-118761885D01*
X135382000Y-118875959D01*
X135955489Y-118761885D01*
X136441670Y-118437029D01*
X136499131Y-118351033D01*
X138190000Y-120041902D01*
X138190000Y-120602560D01*
X137950000Y-120602560D01*
X137702235Y-120651843D01*
X137492191Y-120792191D01*
X137351843Y-121002235D01*
X137302560Y-121250000D01*
X137302560Y-122950000D01*
X137351843Y-123197765D01*
X137492191Y-123407809D01*
X137702235Y-123548157D01*
X137950000Y-123597440D01*
X139950000Y-123597440D01*
X140197765Y-123548157D01*
X140407809Y-123407809D01*
X140548157Y-123197765D01*
X140597440Y-122950000D01*
X140597440Y-122385750D01*
X141315000Y-122385750D01*
X141315000Y-123076310D01*
X141411673Y-123309699D01*
X141590302Y-123488327D01*
X141823691Y-123585000D01*
X142664250Y-123585000D01*
X142823000Y-123426250D01*
X142823000Y-122227000D01*
X143077000Y-122227000D01*
X143077000Y-123426250D01*
X143235750Y-123585000D01*
X144076309Y-123585000D01*
X144309698Y-123488327D01*
X144450000Y-123348026D01*
X144590302Y-123488327D01*
X144823691Y-123585000D01*
X145664250Y-123585000D01*
X145823000Y-123426250D01*
X145823000Y-122227000D01*
X146077000Y-122227000D01*
X146077000Y-123426250D01*
X146235750Y-123585000D01*
X147076309Y-123585000D01*
X147309698Y-123488327D01*
X147488327Y-123309699D01*
X147585000Y-123076310D01*
X147585000Y-122385750D01*
X147426250Y-122227000D01*
X146077000Y-122227000D01*
X145823000Y-122227000D01*
X144473750Y-122227000D01*
X144450000Y-122250750D01*
X144426250Y-122227000D01*
X143077000Y-122227000D01*
X142823000Y-122227000D01*
X141473750Y-122227000D01*
X141315000Y-122385750D01*
X140597440Y-122385750D01*
X140597440Y-121250000D01*
X140548157Y-121002235D01*
X140407809Y-120792191D01*
X140197765Y-120651843D01*
X139950000Y-120602560D01*
X139710000Y-120602560D01*
X139710000Y-119931302D01*
X141042402Y-118598900D01*
X141143137Y-118598900D01*
X141031400Y-119160641D01*
X141031400Y-119219359D01*
X141145474Y-119792848D01*
X141470330Y-120279029D01*
X141956511Y-120603885D01*
X142012390Y-120615000D01*
X141823691Y-120615000D01*
X141590302Y-120711673D01*
X141411673Y-120890301D01*
X141315000Y-121123690D01*
X141315000Y-121814250D01*
X141473750Y-121973000D01*
X142823000Y-121973000D01*
X142823000Y-121953000D01*
X143077000Y-121953000D01*
X143077000Y-121973000D01*
X144426250Y-121973000D01*
X144450000Y-121949250D01*
X144473750Y-121973000D01*
X145823000Y-121973000D01*
X145823000Y-120773750D01*
X146077000Y-120773750D01*
X146077000Y-121973000D01*
X147426250Y-121973000D01*
X147585000Y-121814250D01*
X147585000Y-121123690D01*
X147488327Y-120890301D01*
X147309698Y-120711673D01*
X147076309Y-120615000D01*
X146235750Y-120615000D01*
X146077000Y-120773750D01*
X145823000Y-120773750D01*
X145664250Y-120615000D01*
X145587610Y-120615000D01*
X145643489Y-120603885D01*
X146129670Y-120279029D01*
X146340000Y-119964248D01*
X146550330Y-120279029D01*
X147036511Y-120603885D01*
X147441051Y-120684353D01*
X147864700Y-121108003D01*
X147864700Y-122100000D01*
X147922552Y-122390839D01*
X148087299Y-122637401D01*
X148302560Y-122781233D01*
X148302560Y-122950000D01*
X148351843Y-123197765D01*
X148492191Y-123407809D01*
X148702235Y-123548157D01*
X148950000Y-123597440D01*
X150950000Y-123597440D01*
X151197765Y-123548157D01*
X151407809Y-123407809D01*
X151548157Y-123197765D01*
X151597440Y-122950000D01*
X151597440Y-121335750D01*
X153399000Y-121335750D01*
X153399000Y-122039910D01*
X153495673Y-122273299D01*
X153674302Y-122451927D01*
X153907691Y-122548600D01*
X154764250Y-122548600D01*
X154923000Y-122389850D01*
X154923000Y-121177000D01*
X153557750Y-121177000D01*
X153399000Y-121335750D01*
X151597440Y-121335750D01*
X151597440Y-121250000D01*
X151548157Y-121002235D01*
X151407809Y-120792191D01*
X151197765Y-120651843D01*
X150950000Y-120602560D01*
X150725472Y-120602560D01*
X151209670Y-120279029D01*
X151534526Y-119792848D01*
X151648600Y-119219359D01*
X151648600Y-119160641D01*
X151534526Y-118587152D01*
X151222096Y-118119568D01*
X151261365Y-118111757D01*
X151471409Y-117971409D01*
X151611757Y-117761365D01*
X151661040Y-117513600D01*
X151661040Y-115786400D01*
X151611757Y-115538635D01*
X151471409Y-115328591D01*
X151403012Y-115282890D01*
X151586301Y-115099601D01*
X151751048Y-114853039D01*
X151808900Y-114562200D01*
X151808900Y-112385750D01*
X152915000Y-112385750D01*
X152915000Y-113226309D01*
X153011673Y-113459698D01*
X153190301Y-113638327D01*
X153423690Y-113735000D01*
X154514250Y-113735000D01*
X154673000Y-113576250D01*
X154673000Y-112227000D01*
X153073750Y-112227000D01*
X152915000Y-112385750D01*
X151808900Y-112385750D01*
X151808900Y-111734200D01*
X151751048Y-111443361D01*
X151586301Y-111196799D01*
X151284550Y-110895048D01*
X151321757Y-110839365D01*
X151371040Y-110591600D01*
X151371040Y-108864400D01*
X151321757Y-108616635D01*
X151181409Y-108406591D01*
X150971365Y-108266243D01*
X150723600Y-108216960D01*
X148996400Y-108216960D01*
X148748635Y-108266243D01*
X148538591Y-108406591D01*
X148398243Y-108616635D01*
X148394914Y-108633369D01*
X148247401Y-108412599D01*
X148000839Y-108247852D01*
X147710000Y-108190000D01*
X147489761Y-108233809D01*
X147320000Y-108200041D01*
X146746511Y-108314115D01*
X146260330Y-108638971D01*
X146050000Y-108953752D01*
X145888693Y-108712340D01*
X145872148Y-108629161D01*
X145707401Y-108382599D01*
X145460839Y-108217852D01*
X145170000Y-108160000D01*
X144879161Y-108217852D01*
X144876954Y-108219326D01*
X144780000Y-108200041D01*
X144206511Y-108314115D01*
X143720330Y-108638971D01*
X143510000Y-108953752D01*
X143299670Y-108638971D01*
X142813489Y-108314115D01*
X142240000Y-108200041D01*
X141666511Y-108314115D01*
X141180330Y-108638971D01*
X140855474Y-109125152D01*
X140741400Y-109698641D01*
X140741400Y-109757359D01*
X140855474Y-110330848D01*
X141180330Y-110817029D01*
X141451172Y-110998000D01*
X141180330Y-111178971D01*
X140855474Y-111665152D01*
X140741400Y-112238641D01*
X140741400Y-112297359D01*
X140855474Y-112870848D01*
X141180330Y-113357029D01*
X141666511Y-113681885D01*
X142240000Y-113795959D01*
X142688600Y-113706727D01*
X142688600Y-114227698D01*
X141992599Y-114923699D01*
X141827852Y-115170261D01*
X141793024Y-115345354D01*
X141470330Y-115560971D01*
X141145474Y-116047152D01*
X141031400Y-116620641D01*
X141031400Y-116679359D01*
X141110874Y-117078900D01*
X140727600Y-117078900D01*
X140436761Y-117136752D01*
X140190199Y-117301499D01*
X138894700Y-118596998D01*
X137108301Y-116810599D01*
X136861739Y-116645852D01*
X136675411Y-116608789D01*
X136454096Y-116277568D01*
X136493365Y-116269757D01*
X136703409Y-116129409D01*
X136843757Y-115919365D01*
X136893040Y-115671600D01*
X136893040Y-114127062D01*
X138337401Y-112682701D01*
X138502148Y-112436139D01*
X138539882Y-112246437D01*
X138814698Y-112062811D01*
X139125767Y-111597264D01*
X139235000Y-111048113D01*
X139235000Y-110991887D01*
X139125767Y-110442736D01*
X138814698Y-109977189D01*
X138349151Y-109666120D01*
X137800000Y-109556887D01*
X137250849Y-109666120D01*
X136785302Y-109977189D01*
X136530000Y-110359275D01*
X136274698Y-109977189D01*
X135809151Y-109666120D01*
X135260000Y-109556887D01*
X134710849Y-109666120D01*
X134245302Y-109977189D01*
X133990000Y-110359275D01*
X133734698Y-109977189D01*
X133269151Y-109666120D01*
X132720000Y-109556887D01*
X132170849Y-109666120D01*
X131705302Y-109977189D01*
X131450000Y-110359275D01*
X131194698Y-109977189D01*
X130729151Y-109666120D01*
X130180000Y-109556887D01*
X129630849Y-109666120D01*
X129165302Y-109977189D01*
X128910000Y-110359275D01*
X128654698Y-109977189D01*
X128189151Y-109666120D01*
X127640000Y-109556887D01*
X127090849Y-109666120D01*
X126625302Y-109977189D01*
X126370000Y-110359275D01*
X126114698Y-109977189D01*
X125649151Y-109666120D01*
X125100000Y-109556887D01*
X124550849Y-109666120D01*
X124085302Y-109977189D01*
X123830000Y-110359275D01*
X123574698Y-109977189D01*
X123109151Y-109666120D01*
X122560000Y-109556887D01*
X122010849Y-109666120D01*
X121545302Y-109977189D01*
X121275014Y-110381703D01*
X121172389Y-110164866D01*
X120757423Y-109788959D01*
X120369039Y-109628096D01*
X120147000Y-109750085D01*
X119893000Y-109750085D01*
X119670961Y-109628096D01*
X119282577Y-109788959D01*
X118867611Y-110164866D01*
X118628086Y-110670959D01*
X116978291Y-110670959D01*
X116985000Y-110664250D01*
X116985000Y-109823691D01*
X116888327Y-109590302D01*
X116709699Y-109411673D01*
X116476310Y-109315000D01*
X115835750Y-109315000D01*
X115677000Y-109473750D01*
X115423000Y-109473750D01*
X115264250Y-109315000D01*
X114623690Y-109315000D01*
X114390301Y-109411673D01*
X114211673Y-109590302D01*
X114115000Y-109823691D01*
X113747440Y-109823691D01*
X113747440Y-107600000D01*
X113698157Y-107352235D01*
X113557809Y-107142191D01*
X113347765Y-107001843D01*
X113100000Y-106952560D01*
X113053524Y-106952560D01*
X113134820Y-106756777D01*
X113135179Y-106345029D01*
X112977942Y-105964485D01*
X112687046Y-105673081D01*
X112510927Y-105599950D01*
X112659698Y-105538327D01*
X112838327Y-105359699D01*
X112935000Y-105126310D01*
X112935000Y-104035750D01*
X112776250Y-103877000D01*
X111427000Y-103877000D01*
X111427000Y-105476250D01*
X111585750Y-105635000D01*
X111604173Y-105635000D01*
X111514485Y-105672058D01*
X111223081Y-105962954D01*
X111065180Y-106343223D01*
X111064821Y-106754971D01*
X111146463Y-106952560D01*
X111100000Y-106952560D01*
X110852235Y-107001843D01*
X110642191Y-107142191D01*
X110501843Y-107352235D01*
X110452560Y-107600000D01*
X109735000Y-107600000D01*
X109735000Y-107473690D01*
X109638327Y-107240301D01*
X109459698Y-107061673D01*
X109226309Y-106965000D01*
X108385750Y-106965000D01*
X108227000Y-107123750D01*
X107973000Y-107123750D01*
X107814250Y-106965000D01*
X106973691Y-106965000D01*
X106740302Y-107061673D01*
X106710000Y-107091975D01*
X106710000Y-98670000D01*
X106916655Y-98670000D01*
X107030729Y-99243489D01*
X107355585Y-99729670D01*
X107670366Y-99940000D01*
X107355585Y-100150330D01*
X107030729Y-100636511D01*
X106916655Y-101210000D01*
X107030729Y-101783489D01*
X107355585Y-102269670D01*
X107372566Y-102281016D01*
X107336235Y-102288243D01*
X107126191Y-102428591D01*
X106985843Y-102638635D01*
X106936560Y-102886400D01*
X106936560Y-104613600D01*
X106985843Y-104861365D01*
X107126191Y-105071409D01*
X107336235Y-105211757D01*
X107584000Y-105261040D01*
X109616000Y-105261040D01*
X109712829Y-105241780D01*
X109761673Y-105359699D01*
X109940302Y-105538327D01*
X110173691Y-105635000D01*
X111014250Y-105635000D01*
X111173000Y-105476250D01*
X111173000Y-103877000D01*
X111153000Y-103877000D01*
X111153000Y-103623000D01*
X111173000Y-103623000D01*
X111173000Y-102023750D01*
X111427000Y-102023750D01*
X111427000Y-103623000D01*
X112776250Y-103623000D01*
X112935000Y-103464250D01*
X112935000Y-102500000D01*
X113652560Y-102500000D01*
X113652560Y-105000000D01*
X113701843Y-105247765D01*
X113842191Y-105457809D01*
X114052235Y-105598157D01*
X114201542Y-105627856D01*
X114151843Y-105702235D01*
X114102560Y-105950000D01*
X114102560Y-107950000D01*
X114151843Y-108197765D01*
X114292191Y-108407809D01*
X114502235Y-108548157D01*
X114750000Y-108597440D01*
X116350000Y-108597440D01*
X116472316Y-108573110D01*
X116622058Y-108935515D01*
X116912954Y-109226919D01*
X117293223Y-109384820D01*
X117704971Y-109385179D01*
X118085515Y-109227942D01*
X118376919Y-108937046D01*
X118534820Y-108556777D01*
X118535179Y-108145029D01*
X118377942Y-107764485D01*
X118087046Y-107473081D01*
X117706777Y-107315180D01*
X117539836Y-107315034D01*
X116997440Y-106772638D01*
X116997440Y-105950000D01*
X116948157Y-105702235D01*
X116807809Y-105492191D01*
X116757081Y-105458295D01*
X116757809Y-105457809D01*
X116898157Y-105247765D01*
X116947440Y-105000000D01*
X116947440Y-103077362D01*
X117689767Y-102335035D01*
X117854971Y-102335179D01*
X118235515Y-102177942D01*
X118526919Y-101887046D01*
X118684820Y-101506777D01*
X118685179Y-101095029D01*
X118527942Y-100714485D01*
X118237046Y-100423081D01*
X117856777Y-100265180D01*
X117445029Y-100264821D01*
X117064485Y-100422058D01*
X116773081Y-100712954D01*
X116615180Y-101093223D01*
X116615034Y-101260164D01*
X116022638Y-101852560D01*
X114300000Y-101852560D01*
X114052235Y-101901843D01*
X113842191Y-102042191D01*
X113701843Y-102252235D01*
X113652560Y-102500000D01*
X112935000Y-102500000D01*
X112935000Y-102373690D01*
X112838327Y-102140301D01*
X112659698Y-101961673D01*
X112426309Y-101865000D01*
X111585750Y-101865000D01*
X111427000Y-102023750D01*
X111173000Y-102023750D01*
X111014250Y-101865000D01*
X110173691Y-101865000D01*
X110092273Y-101898724D01*
X110169271Y-101783489D01*
X110283345Y-101210000D01*
X110169271Y-100636511D01*
X109844415Y-100150330D01*
X109529634Y-99940000D01*
X109844415Y-99729670D01*
X110169271Y-99243489D01*
X110283345Y-98670000D01*
X110169271Y-98096511D01*
X109844415Y-97610330D01*
X109358234Y-97285474D01*
X108784745Y-97171400D01*
X108415255Y-97171400D01*
X107841766Y-97285474D01*
X107355585Y-97610330D01*
X107030729Y-98096511D01*
X106916655Y-98670000D01*
X106710000Y-98670000D01*
X106710000Y-91690000D01*
X106766655Y-91690000D01*
X106880729Y-92263489D01*
X107205585Y-92749670D01*
X107520366Y-92960000D01*
X107205585Y-93170330D01*
X106880729Y-93656511D01*
X106766655Y-94230000D01*
X106880729Y-94803489D01*
X107205585Y-95289670D01*
X107691766Y-95614526D01*
X108265255Y-95728600D01*
X108634745Y-95728600D01*
X109208234Y-95614526D01*
X109694415Y-95289670D01*
X109974829Y-94870000D01*
X112866655Y-94870000D01*
X112980729Y-95443489D01*
X113305585Y-95929670D01*
X113620366Y-96140000D01*
X113305585Y-96350330D01*
X112980729Y-96836511D01*
X112866655Y-97410000D01*
X112980729Y-97983489D01*
X113305585Y-98469670D01*
X113322566Y-98481016D01*
X113286235Y-98488243D01*
X113076191Y-98628591D01*
X112935843Y-98838635D01*
X112886560Y-99086400D01*
X112886560Y-100813600D01*
X112935843Y-101061365D01*
X113076191Y-101271409D01*
X113286235Y-101411757D01*
X113534000Y-101461040D01*
X115566000Y-101461040D01*
X115813765Y-101411757D01*
X116023809Y-101271409D01*
X116164157Y-101061365D01*
X116213440Y-100813600D01*
X116213440Y-99086400D01*
X116164157Y-98838635D01*
X116023809Y-98628591D01*
X115813765Y-98488243D01*
X115777434Y-98481016D01*
X115794415Y-98469670D01*
X116119271Y-97983489D01*
X116158603Y-97785750D01*
X122065000Y-97785750D01*
X122065000Y-98476310D01*
X122161673Y-98709699D01*
X122340302Y-98888327D01*
X122573691Y-98985000D01*
X123414250Y-98985000D01*
X123573000Y-98826250D01*
X123573000Y-97627000D01*
X123827000Y-97627000D01*
X123827000Y-98826250D01*
X123985750Y-98985000D01*
X124826309Y-98985000D01*
X125059698Y-98888327D01*
X125238327Y-98709699D01*
X125335000Y-98476310D01*
X125335000Y-97785750D01*
X125176250Y-97627000D01*
X123827000Y-97627000D01*
X123573000Y-97627000D01*
X122223750Y-97627000D01*
X122065000Y-97785750D01*
X116158603Y-97785750D01*
X116233345Y-97410000D01*
X116119271Y-96836511D01*
X115910251Y-96523690D01*
X122065000Y-96523690D01*
X122065000Y-97214250D01*
X122223750Y-97373000D01*
X123573000Y-97373000D01*
X123573000Y-96173750D01*
X123827000Y-96173750D01*
X123827000Y-97373000D01*
X125176250Y-97373000D01*
X125335000Y-97214250D01*
X125335000Y-96523690D01*
X125238327Y-96290301D01*
X125059698Y-96111673D01*
X124826309Y-96015000D01*
X123985750Y-96015000D01*
X123827000Y-96173750D01*
X123573000Y-96173750D01*
X123414250Y-96015000D01*
X122573691Y-96015000D01*
X122340302Y-96111673D01*
X122161673Y-96290301D01*
X122065000Y-96523690D01*
X115910251Y-96523690D01*
X115794415Y-96350330D01*
X115479634Y-96140000D01*
X115794415Y-95929670D01*
X116119271Y-95443489D01*
X116233345Y-94870000D01*
X116216587Y-94785750D01*
X119565000Y-94785750D01*
X119565000Y-95476310D01*
X119661673Y-95709699D01*
X119840302Y-95888327D01*
X120073691Y-95985000D01*
X120914250Y-95985000D01*
X121073000Y-95826250D01*
X121073000Y-94627000D01*
X119723750Y-94627000D01*
X119565000Y-94785750D01*
X116216587Y-94785750D01*
X116119271Y-94296511D01*
X115794415Y-93810330D01*
X115365429Y-93523690D01*
X119565000Y-93523690D01*
X119565000Y-94214250D01*
X119723750Y-94373000D01*
X121073000Y-94373000D01*
X121073000Y-93173750D01*
X120914250Y-93015000D01*
X120073691Y-93015000D01*
X119840302Y-93111673D01*
X119661673Y-93290301D01*
X119565000Y-93523690D01*
X115365429Y-93523690D01*
X115308234Y-93485474D01*
X114734745Y-93371400D01*
X114365255Y-93371400D01*
X113791766Y-93485474D01*
X113305585Y-93810330D01*
X112980729Y-94296511D01*
X112866655Y-94870000D01*
X109974829Y-94870000D01*
X110019271Y-94803489D01*
X110133345Y-94230000D01*
X110019271Y-93656511D01*
X109694415Y-93170330D01*
X109379634Y-92960000D01*
X109694415Y-92749670D01*
X110019271Y-92263489D01*
X110133345Y-91690000D01*
X110049612Y-91269041D01*
X118728086Y-91269041D01*
X118967611Y-91775134D01*
X119382577Y-92151041D01*
X119770961Y-92311904D01*
X119993000Y-92189915D01*
X119993000Y-91047000D01*
X118849371Y-91047000D01*
X118728086Y-91269041D01*
X110049612Y-91269041D01*
X110019271Y-91116511D01*
X109694415Y-90630330D01*
X109677434Y-90618984D01*
X109713765Y-90611757D01*
X109923809Y-90471409D01*
X110064157Y-90261365D01*
X110113440Y-90013600D01*
X110113440Y-89535750D01*
X112665000Y-89535750D01*
X112665000Y-90376309D01*
X112761673Y-90609698D01*
X112940301Y-90788327D01*
X113173690Y-90885000D01*
X114264250Y-90885000D01*
X114423000Y-90726250D01*
X114423000Y-89377000D01*
X114677000Y-89377000D01*
X114677000Y-90726250D01*
X114835750Y-90885000D01*
X115926310Y-90885000D01*
X116159699Y-90788327D01*
X116338327Y-90609698D01*
X116354373Y-90570959D01*
X118728086Y-90570959D01*
X118849371Y-90793000D01*
X119993000Y-90793000D01*
X119993000Y-89650085D01*
X119770961Y-89528096D01*
X119382577Y-89688959D01*
X118967611Y-90064866D01*
X118728086Y-90570959D01*
X116354373Y-90570959D01*
X116435000Y-90376309D01*
X116435000Y-89535750D01*
X116276250Y-89377000D01*
X114677000Y-89377000D01*
X114423000Y-89377000D01*
X112823750Y-89377000D01*
X112665000Y-89535750D01*
X110113440Y-89535750D01*
X110113440Y-88286400D01*
X110081076Y-88123691D01*
X112665000Y-88123691D01*
X112665000Y-88964250D01*
X112823750Y-89123000D01*
X114423000Y-89123000D01*
X114423000Y-87773750D01*
X114677000Y-87773750D01*
X114677000Y-89123000D01*
X116276250Y-89123000D01*
X116435000Y-88964250D01*
X116435000Y-88123691D01*
X116338327Y-87890302D01*
X116159699Y-87711673D01*
X115926310Y-87615000D01*
X114835750Y-87615000D01*
X114677000Y-87773750D01*
X114423000Y-87773750D01*
X114264250Y-87615000D01*
X113173690Y-87615000D01*
X112940301Y-87711673D01*
X112761673Y-87890302D01*
X112665000Y-88123691D01*
X110081076Y-88123691D01*
X110064157Y-88038635D01*
X109923809Y-87828591D01*
X109713765Y-87688243D01*
X109466000Y-87638960D01*
X107434000Y-87638960D01*
X107186235Y-87688243D01*
X106976191Y-87828591D01*
X106835843Y-88038635D01*
X106786560Y-88286400D01*
X106786560Y-90013600D01*
X106835843Y-90261365D01*
X106976191Y-90471409D01*
X107186235Y-90611757D01*
X107222566Y-90618984D01*
X107205585Y-90630330D01*
X106880729Y-91116511D01*
X106766655Y-91690000D01*
X106710000Y-91690000D01*
X106710000Y-73660000D01*
X106943907Y-73660000D01*
X107056946Y-74228285D01*
X107378853Y-74710054D01*
X107708026Y-74930000D01*
X107378853Y-75149946D01*
X107056946Y-75631715D01*
X106943907Y-76200000D01*
X107056946Y-76768285D01*
X107378853Y-77250054D01*
X107708026Y-77470000D01*
X107378853Y-77689946D01*
X107056946Y-78171715D01*
X106943907Y-78740000D01*
X107056946Y-79308285D01*
X107378853Y-79790054D01*
X107708026Y-80010000D01*
X107378853Y-80229946D01*
X107056946Y-80711715D01*
X106943907Y-81280000D01*
X107056946Y-81848285D01*
X107378853Y-82330054D01*
X107860622Y-82651961D01*
X108428907Y-82765000D01*
X108487093Y-82765000D01*
X109055378Y-82651961D01*
X109537147Y-82330054D01*
X109557228Y-82300000D01*
X109952560Y-82300000D01*
X109952560Y-84300000D01*
X110001843Y-84547765D01*
X110142191Y-84757809D01*
X110352235Y-84898157D01*
X110590585Y-84945567D01*
X110523081Y-85012954D01*
X110365180Y-85393223D01*
X110364821Y-85804971D01*
X110522058Y-86185515D01*
X110812954Y-86476919D01*
X111193223Y-86634820D01*
X111604971Y-86635179D01*
X111985515Y-86477942D01*
X112276919Y-86187046D01*
X112434820Y-85806777D01*
X112435179Y-85395029D01*
X112277942Y-85014485D01*
X112209189Y-84945612D01*
X112447765Y-84898157D01*
X112652560Y-84761316D01*
X112652560Y-86250000D01*
X112701843Y-86497765D01*
X112842191Y-86707809D01*
X113052235Y-86848157D01*
X113300000Y-86897440D01*
X115800000Y-86897440D01*
X116047765Y-86848157D01*
X116257809Y-86707809D01*
X116398157Y-86497765D01*
X116447440Y-86250000D01*
X116447440Y-84250000D01*
X116398157Y-84002235D01*
X116257809Y-83792191D01*
X116047765Y-83651843D01*
X115800000Y-83602560D01*
X115474286Y-83602560D01*
X115534820Y-83456777D01*
X115535179Y-83045029D01*
X115377942Y-82664485D01*
X115087046Y-82373081D01*
X114706777Y-82215180D01*
X114295029Y-82214821D01*
X113914485Y-82372058D01*
X113623081Y-82662954D01*
X113465180Y-83043223D01*
X113464821Y-83454971D01*
X113525803Y-83602560D01*
X113300000Y-83602560D01*
X113052235Y-83651843D01*
X112847440Y-83788684D01*
X112847440Y-82300000D01*
X112798157Y-82052235D01*
X112657809Y-81842191D01*
X112447765Y-81701843D01*
X112200000Y-81652560D01*
X110600000Y-81652560D01*
X110352235Y-81701843D01*
X110142191Y-81842191D01*
X110001843Y-82052235D01*
X109952560Y-82300000D01*
X109557228Y-82300000D01*
X109859054Y-81848285D01*
X109972093Y-81280000D01*
X109859054Y-80711715D01*
X109537147Y-80229946D01*
X109207974Y-80010000D01*
X109537147Y-79790054D01*
X109673658Y-79585750D01*
X109965000Y-79585750D01*
X109965000Y-80426309D01*
X110061673Y-80659698D01*
X110240301Y-80838327D01*
X110473690Y-80935000D01*
X111114250Y-80935000D01*
X111273000Y-80776250D01*
X111273000Y-79427000D01*
X111527000Y-79427000D01*
X111527000Y-80776250D01*
X111685750Y-80935000D01*
X112326310Y-80935000D01*
X112559699Y-80838327D01*
X112738327Y-80659698D01*
X112835000Y-80426309D01*
X112835000Y-79585750D01*
X112676250Y-79427000D01*
X111527000Y-79427000D01*
X111273000Y-79427000D01*
X110123750Y-79427000D01*
X109965000Y-79585750D01*
X109673658Y-79585750D01*
X109859054Y-79308285D01*
X109965000Y-78775659D01*
X109965000Y-79014250D01*
X110123750Y-79173000D01*
X111273000Y-79173000D01*
X111273000Y-77823750D01*
X111527000Y-77823750D01*
X111527000Y-79173000D01*
X112676250Y-79173000D01*
X112835000Y-79014250D01*
X112835000Y-78173691D01*
X112738327Y-77940302D01*
X112559699Y-77761673D01*
X112326310Y-77665000D01*
X111685750Y-77665000D01*
X111527000Y-77823750D01*
X111273000Y-77823750D01*
X111114250Y-77665000D01*
X110473690Y-77665000D01*
X110240301Y-77761673D01*
X110061673Y-77940302D01*
X109965000Y-78173691D01*
X109965000Y-78704341D01*
X109859054Y-78171715D01*
X109537147Y-77689946D01*
X109207974Y-77470000D01*
X109537147Y-77250054D01*
X109745923Y-76937598D01*
X109924139Y-76902148D01*
X110170701Y-76737401D01*
X113997902Y-72910200D01*
X118213964Y-72910200D01*
X117154914Y-73347790D01*
X116342643Y-74158645D01*
X115902502Y-75218620D01*
X115901501Y-76366344D01*
X116339790Y-77427086D01*
X117150645Y-78239357D01*
X118210620Y-78679498D01*
X119358344Y-78680499D01*
X120419086Y-78242210D01*
X121231357Y-77431355D01*
X121671498Y-76371380D01*
X121672499Y-75223656D01*
X121234210Y-74162914D01*
X120423355Y-73350643D01*
X119363380Y-72910502D01*
X119017114Y-72910200D01*
X123442524Y-72910200D01*
X123415243Y-72975900D01*
X123414758Y-73531661D01*
X123626990Y-74045303D01*
X124019630Y-74438629D01*
X124532900Y-74651757D01*
X125088661Y-74652242D01*
X125149591Y-74627066D01*
X124773371Y-75002630D01*
X124560243Y-75515900D01*
X124559758Y-76071661D01*
X124771990Y-76585303D01*
X125147829Y-76961799D01*
X125091100Y-76938243D01*
X124535339Y-76937758D01*
X124021697Y-77149990D01*
X123628371Y-77542630D01*
X123415243Y-78055900D01*
X123414758Y-78611661D01*
X123626990Y-79125303D01*
X124019630Y-79518629D01*
X124532900Y-79731757D01*
X125088661Y-79732242D01*
X125602303Y-79520010D01*
X125957274Y-79165658D01*
X126309630Y-79518629D01*
X126342000Y-79532070D01*
X126342000Y-81536700D01*
X126399852Y-81827539D01*
X126564599Y-82074101D01*
X126738721Y-82248223D01*
X126725302Y-82257189D01*
X126470000Y-82639275D01*
X126214698Y-82257189D01*
X125749151Y-81946120D01*
X125200000Y-81836887D01*
X124650849Y-81946120D01*
X124185302Y-82257189D01*
X123930000Y-82639275D01*
X123674698Y-82257189D01*
X123209151Y-81946120D01*
X122660000Y-81836887D01*
X122110849Y-81946120D01*
X121645302Y-82257189D01*
X121390000Y-82639275D01*
X121134698Y-82257189D01*
X120669151Y-81946120D01*
X120120000Y-81836887D01*
X119570849Y-81946120D01*
X119105302Y-82257189D01*
X118794233Y-82722736D01*
X118685000Y-83271887D01*
X118685000Y-83328113D01*
X118794233Y-83877264D01*
X119105302Y-84342811D01*
X119570849Y-84653880D01*
X120120000Y-84763113D01*
X120669151Y-84653880D01*
X121134698Y-84342811D01*
X121390000Y-83960725D01*
X121645302Y-84342811D01*
X122110849Y-84653880D01*
X122660000Y-84763113D01*
X123209151Y-84653880D01*
X123674698Y-84342811D01*
X123930000Y-83960725D01*
X124185302Y-84342811D01*
X124650849Y-84653880D01*
X125200000Y-84763113D01*
X125749151Y-84653880D01*
X126214698Y-84342811D01*
X126470000Y-83960725D01*
X126725302Y-84342811D01*
X127190849Y-84653880D01*
X127740000Y-84763113D01*
X128289151Y-84653880D01*
X128662089Y-84404691D01*
X130154299Y-85896901D01*
X130400861Y-86061648D01*
X130691700Y-86119500D01*
X133634198Y-86119500D01*
X137188977Y-89674279D01*
X136885302Y-89877189D01*
X136630000Y-90259275D01*
X136374698Y-89877189D01*
X135909151Y-89566120D01*
X135360000Y-89456887D01*
X134810849Y-89566120D01*
X134345302Y-89877189D01*
X134090000Y-90259275D01*
X133834698Y-89877189D01*
X133369151Y-89566120D01*
X132820000Y-89456887D01*
X132270849Y-89566120D01*
X131805302Y-89877189D01*
X131550000Y-90259275D01*
X131294698Y-89877189D01*
X130829151Y-89566120D01*
X130280000Y-89456887D01*
X129730849Y-89566120D01*
X129265302Y-89877189D01*
X129010000Y-90259275D01*
X128754698Y-89877189D01*
X128289151Y-89566120D01*
X127740000Y-89456887D01*
X127190849Y-89566120D01*
X126725302Y-89877189D01*
X126470000Y-90259275D01*
X126214698Y-89877189D01*
X125749151Y-89566120D01*
X125200000Y-89456887D01*
X124650849Y-89566120D01*
X124185302Y-89877189D01*
X123930000Y-90259275D01*
X123674698Y-89877189D01*
X123209151Y-89566120D01*
X122660000Y-89456887D01*
X122110849Y-89566120D01*
X121645302Y-89877189D01*
X121375014Y-90281703D01*
X121272389Y-90064866D01*
X120857423Y-89688959D01*
X120469039Y-89528096D01*
X120247000Y-89650085D01*
X120247000Y-90793000D01*
X120267000Y-90793000D01*
X120267000Y-91047000D01*
X120247000Y-91047000D01*
X120247000Y-92189915D01*
X120469039Y-92311904D01*
X120857423Y-92151041D01*
X121272389Y-91775134D01*
X121375014Y-91558297D01*
X121645302Y-91962811D01*
X122110849Y-92273880D01*
X122660000Y-92383113D01*
X123209151Y-92273880D01*
X123674698Y-91962811D01*
X123930000Y-91580725D01*
X124185302Y-91962811D01*
X124440000Y-92132995D01*
X124440000Y-93002560D01*
X124200000Y-93002560D01*
X123952235Y-93051843D01*
X123742191Y-93192191D01*
X123601843Y-93402235D01*
X123552560Y-93650000D01*
X123552560Y-93740000D01*
X123475817Y-93740000D01*
X123396777Y-93707180D01*
X122985029Y-93706821D01*
X122835000Y-93768811D01*
X122835000Y-93523690D01*
X122738327Y-93290301D01*
X122559698Y-93111673D01*
X122326309Y-93015000D01*
X121485750Y-93015000D01*
X121327000Y-93173750D01*
X121327000Y-94373000D01*
X121347000Y-94373000D01*
X121347000Y-94627000D01*
X121327000Y-94627000D01*
X121327000Y-95826250D01*
X121485750Y-95985000D01*
X122326309Y-95985000D01*
X122559698Y-95888327D01*
X122738327Y-95709699D01*
X122750544Y-95680204D01*
X122983223Y-95776820D01*
X123394971Y-95777179D01*
X123651030Y-95671378D01*
X123742191Y-95807809D01*
X123952235Y-95948157D01*
X124200000Y-95997440D01*
X126200000Y-95997440D01*
X126447765Y-95948157D01*
X126657809Y-95807809D01*
X126798157Y-95597765D01*
X126847440Y-95350000D01*
X126847440Y-93650000D01*
X126798157Y-93402235D01*
X126657809Y-93192191D01*
X126447765Y-93051843D01*
X126200000Y-93002560D01*
X125960000Y-93002560D01*
X125960000Y-92132995D01*
X126214698Y-91962811D01*
X126470000Y-91580725D01*
X126725302Y-91962811D01*
X126980000Y-92132995D01*
X126980000Y-96002560D01*
X126700000Y-96002560D01*
X126452235Y-96051843D01*
X126242191Y-96192191D01*
X126101843Y-96402235D01*
X126052560Y-96650000D01*
X126052560Y-98350000D01*
X126101843Y-98597765D01*
X126242191Y-98807809D01*
X126452235Y-98948157D01*
X126700000Y-98997440D01*
X126880000Y-98997440D01*
X126880000Y-99165000D01*
X126235750Y-99165000D01*
X126077000Y-99323750D01*
X126077000Y-100523000D01*
X126097000Y-100523000D01*
X126097000Y-100777000D01*
X126077000Y-100777000D01*
X126077000Y-101976250D01*
X126235750Y-102135000D01*
X126880000Y-102135000D01*
X126880000Y-102187005D01*
X126625302Y-102357189D01*
X126370000Y-102739275D01*
X126114698Y-102357189D01*
X125711482Y-102087768D01*
X125823000Y-101976250D01*
X125823000Y-100777000D01*
X125803000Y-100777000D01*
X125803000Y-100523000D01*
X125823000Y-100523000D01*
X125823000Y-99323750D01*
X125664250Y-99165000D01*
X124823691Y-99165000D01*
X124590302Y-99261673D01*
X124411673Y-99440301D01*
X124315000Y-99673690D01*
X124315000Y-100364250D01*
X124473748Y-100522998D01*
X124338869Y-100522998D01*
X124285046Y-100469081D01*
X123904777Y-100311180D01*
X123493029Y-100310821D01*
X123112485Y-100468058D01*
X122821081Y-100758954D01*
X122663180Y-101139223D01*
X122662821Y-101550971D01*
X122820058Y-101931515D01*
X122891182Y-102002763D01*
X122560000Y-101936887D01*
X122010849Y-102046120D01*
X121545302Y-102357189D01*
X121290000Y-102739275D01*
X121034698Y-102357189D01*
X120569151Y-102046120D01*
X120020000Y-101936887D01*
X119470849Y-102046120D01*
X119005302Y-102357189D01*
X118694233Y-102822736D01*
X118585000Y-103371887D01*
X118585000Y-103428113D01*
X118694233Y-103977264D01*
X119005302Y-104442811D01*
X119470849Y-104753880D01*
X120020000Y-104863113D01*
X120569151Y-104753880D01*
X121034698Y-104442811D01*
X121290000Y-104060725D01*
X121545302Y-104442811D01*
X122010849Y-104753880D01*
X122560000Y-104863113D01*
X123109151Y-104753880D01*
X123574698Y-104442811D01*
X123830000Y-104060725D01*
X124085302Y-104442811D01*
X124550849Y-104753880D01*
X125100000Y-104863113D01*
X125649151Y-104753880D01*
X126114698Y-104442811D01*
X126370000Y-104060725D01*
X126625302Y-104442811D01*
X127090849Y-104753880D01*
X127640000Y-104863113D01*
X128189151Y-104753880D01*
X128654698Y-104442811D01*
X128910000Y-104060725D01*
X129165302Y-104442811D01*
X129630849Y-104753880D01*
X130180000Y-104863113D01*
X130729151Y-104753880D01*
X131194698Y-104442811D01*
X131450000Y-104060725D01*
X131705302Y-104442811D01*
X132170849Y-104753880D01*
X132720000Y-104863113D01*
X133269151Y-104753880D01*
X133734698Y-104442811D01*
X133990000Y-104060725D01*
X134245302Y-104442811D01*
X134710849Y-104753880D01*
X135260000Y-104863113D01*
X135809151Y-104753880D01*
X136274698Y-104442811D01*
X136530000Y-104060725D01*
X136785302Y-104442811D01*
X137250849Y-104753880D01*
X137800000Y-104863113D01*
X138349151Y-104753880D01*
X138814698Y-104442811D01*
X139125767Y-103977264D01*
X139200257Y-103602775D01*
X142628803Y-103602775D01*
X142801233Y-104020086D01*
X143120235Y-104339645D01*
X143537244Y-104512803D01*
X143899117Y-104513119D01*
X143898803Y-104872775D01*
X144071233Y-105290086D01*
X144390235Y-105609645D01*
X144807244Y-105782803D01*
X145258775Y-105783197D01*
X145676086Y-105610767D01*
X145995645Y-105291765D01*
X146168803Y-104874756D01*
X146169108Y-104525440D01*
X146804000Y-104525440D01*
X147051765Y-104476157D01*
X147261809Y-104335809D01*
X147402157Y-104125765D01*
X147451440Y-103878000D01*
X147451440Y-102935750D01*
X148915000Y-102935750D01*
X148915000Y-103276309D01*
X149011673Y-103509698D01*
X149190301Y-103688327D01*
X149423690Y-103785000D01*
X150064250Y-103785000D01*
X150223000Y-103626250D01*
X150223000Y-102777000D01*
X149073750Y-102777000D01*
X148915000Y-102935750D01*
X147451440Y-102935750D01*
X147451440Y-102878000D01*
X147402157Y-102630235D01*
X147261809Y-102420191D01*
X147051765Y-102279843D01*
X146804000Y-102230560D01*
X145986242Y-102230560D01*
X146193111Y-102023691D01*
X148915000Y-102023691D01*
X148915000Y-102364250D01*
X149073750Y-102523000D01*
X150223000Y-102523000D01*
X150223000Y-101673750D01*
X150477000Y-101673750D01*
X150477000Y-102523000D01*
X151626250Y-102523000D01*
X151785000Y-102364250D01*
X151785000Y-102023691D01*
X151688327Y-101790302D01*
X151509699Y-101611673D01*
X151276310Y-101515000D01*
X150635750Y-101515000D01*
X150477000Y-101673750D01*
X150223000Y-101673750D01*
X150064250Y-101515000D01*
X149423690Y-101515000D01*
X149190301Y-101611673D01*
X149011673Y-101790302D01*
X148915000Y-102023691D01*
X146193111Y-102023691D01*
X147581052Y-100635750D01*
X152815000Y-100635750D01*
X152815000Y-101476309D01*
X152911673Y-101709698D01*
X153090301Y-101888327D01*
X153323690Y-101985000D01*
X154414250Y-101985000D01*
X154573000Y-101826250D01*
X154573000Y-100477000D01*
X152973750Y-100477000D01*
X152815000Y-100635750D01*
X147581052Y-100635750D01*
X148993111Y-99223691D01*
X152815000Y-99223691D01*
X152815000Y-100064250D01*
X152973750Y-100223000D01*
X154573000Y-100223000D01*
X154573000Y-98873750D01*
X154414250Y-98715000D01*
X153323690Y-98715000D01*
X153090301Y-98811673D01*
X152911673Y-98990302D01*
X152815000Y-99223691D01*
X148993111Y-99223691D01*
X150916066Y-97300736D01*
X151040622Y-97383961D01*
X151608907Y-97497000D01*
X151667093Y-97497000D01*
X152235378Y-97383961D01*
X152717147Y-97062054D01*
X153039054Y-96580285D01*
X153152093Y-96012000D01*
X153039054Y-95443715D01*
X152717147Y-94961946D01*
X152387974Y-94742000D01*
X152717147Y-94522054D01*
X153039054Y-94040285D01*
X153152093Y-93472000D01*
X153039054Y-92903715D01*
X152717147Y-92421946D01*
X152387974Y-92202000D01*
X152717147Y-91982054D01*
X153039054Y-91500285D01*
X153152093Y-90932000D01*
X153039054Y-90363715D01*
X152717147Y-89881946D01*
X152387974Y-89662000D01*
X152717147Y-89442054D01*
X153039054Y-88960285D01*
X153152093Y-88392000D01*
X153039054Y-87823715D01*
X152717147Y-87341946D01*
X152387974Y-87122000D01*
X152717147Y-86902054D01*
X153039054Y-86420285D01*
X153152093Y-85852000D01*
X153039054Y-85283715D01*
X152717147Y-84801946D01*
X152673223Y-84772597D01*
X152847698Y-84700327D01*
X153026327Y-84521699D01*
X153123000Y-84288310D01*
X153123000Y-83597750D01*
X152964250Y-83439000D01*
X151765000Y-83439000D01*
X151765000Y-83459000D01*
X151511000Y-83459000D01*
X151511000Y-83439000D01*
X150311750Y-83439000D01*
X150153000Y-83597750D01*
X150153000Y-84288310D01*
X150249673Y-84521699D01*
X150428302Y-84700327D01*
X150602777Y-84772597D01*
X150558853Y-84801946D01*
X150236946Y-85283715D01*
X150123907Y-85852000D01*
X150236946Y-86420285D01*
X150463600Y-86759498D01*
X149925299Y-87297799D01*
X149760552Y-87544361D01*
X149702700Y-87835200D01*
X149702700Y-96364498D01*
X143824146Y-102243052D01*
X143539225Y-102242803D01*
X143121914Y-102415233D01*
X142802355Y-102734235D01*
X142629197Y-103151244D01*
X142628803Y-103602775D01*
X139200257Y-103602775D01*
X139235000Y-103428113D01*
X139235000Y-103371887D01*
X139125767Y-102822736D01*
X138814698Y-102357189D01*
X138575617Y-102197440D01*
X138750000Y-102197440D01*
X138997765Y-102148157D01*
X139207809Y-102007809D01*
X139348157Y-101797765D01*
X139397440Y-101550000D01*
X139397440Y-100985750D01*
X140115000Y-100985750D01*
X140115000Y-101676310D01*
X140211673Y-101909699D01*
X140390302Y-102088327D01*
X140623691Y-102185000D01*
X141464250Y-102185000D01*
X141623000Y-102026250D01*
X141623000Y-100827000D01*
X141877000Y-100827000D01*
X141877000Y-102026250D01*
X142035750Y-102185000D01*
X142876309Y-102185000D01*
X143109698Y-102088327D01*
X143288327Y-101909699D01*
X143385000Y-101676310D01*
X143385000Y-100985750D01*
X143226250Y-100827000D01*
X141877000Y-100827000D01*
X141623000Y-100827000D01*
X140273750Y-100827000D01*
X140115000Y-100985750D01*
X139397440Y-100985750D01*
X139397440Y-99850000D01*
X139348157Y-99602235D01*
X139207809Y-99392191D01*
X139117441Y-99331809D01*
X139223000Y-99226250D01*
X139223000Y-98027000D01*
X139477000Y-98027000D01*
X139477000Y-99226250D01*
X139635750Y-99385000D01*
X140316975Y-99385000D01*
X140211673Y-99490301D01*
X140115000Y-99723690D01*
X140115000Y-100414250D01*
X140273750Y-100573000D01*
X141623000Y-100573000D01*
X141623000Y-99373750D01*
X141877000Y-99373750D01*
X141877000Y-100573000D01*
X143226250Y-100573000D01*
X143385000Y-100414250D01*
X143385000Y-99723690D01*
X143288327Y-99490301D01*
X143109698Y-99311673D01*
X142876309Y-99215000D01*
X142035750Y-99215000D01*
X141877000Y-99373750D01*
X141623000Y-99373750D01*
X141464250Y-99215000D01*
X140783025Y-99215000D01*
X140888327Y-99109699D01*
X140985000Y-98876310D01*
X140985000Y-98185750D01*
X140826250Y-98027000D01*
X139477000Y-98027000D01*
X139223000Y-98027000D01*
X139203000Y-98027000D01*
X139203000Y-97773000D01*
X139223000Y-97773000D01*
X139223000Y-96573750D01*
X139477000Y-96573750D01*
X139477000Y-97773000D01*
X140826250Y-97773000D01*
X140985000Y-97614250D01*
X140985000Y-96923690D01*
X140888327Y-96690301D01*
X140709698Y-96511673D01*
X140476309Y-96415000D01*
X139635750Y-96415000D01*
X139477000Y-96573750D01*
X139223000Y-96573750D01*
X139064250Y-96415000D01*
X138223691Y-96415000D01*
X137990302Y-96511673D01*
X137811673Y-96690301D01*
X137715000Y-96923690D01*
X137715000Y-97614250D01*
X137873748Y-97772998D01*
X137844792Y-97772998D01*
X137747046Y-97675081D01*
X137366777Y-97517180D01*
X136997440Y-97516858D01*
X136997440Y-97050000D01*
X136948157Y-96802235D01*
X136807809Y-96592191D01*
X136597765Y-96451843D01*
X136350000Y-96402560D01*
X136120000Y-96402560D01*
X136120000Y-95985000D01*
X136564250Y-95985000D01*
X136723000Y-95826250D01*
X136723000Y-94627000D01*
X136703000Y-94627000D01*
X136703000Y-94373000D01*
X136723000Y-94373000D01*
X136723000Y-94353000D01*
X136977000Y-94353000D01*
X136977000Y-94373000D01*
X136997000Y-94373000D01*
X136997000Y-94627000D01*
X136977000Y-94627000D01*
X136977000Y-95826250D01*
X137135750Y-95985000D01*
X137976309Y-95985000D01*
X138209698Y-95888327D01*
X138388327Y-95709699D01*
X138485000Y-95476310D01*
X138485000Y-95063802D01*
X139208599Y-95787401D01*
X139455161Y-95952148D01*
X139746000Y-96010000D01*
X140124405Y-96010000D01*
X140326019Y-96211967D01*
X140743168Y-96385182D01*
X141194850Y-96385576D01*
X141612301Y-96213089D01*
X141931967Y-95893981D01*
X142105182Y-95476832D01*
X142105497Y-95115263D01*
X142464850Y-95115576D01*
X142882301Y-94943089D01*
X143201967Y-94623981D01*
X143375182Y-94206832D01*
X143375576Y-93755150D01*
X143203089Y-93337699D01*
X142883981Y-93018033D01*
X142466832Y-92844818D01*
X142015150Y-92844424D01*
X141597699Y-93016911D01*
X141278033Y-93336019D01*
X141104818Y-93753168D01*
X141104503Y-94114737D01*
X140835263Y-94114503D01*
X140835576Y-93755150D01*
X140663089Y-93337699D01*
X140460000Y-93134255D01*
X140460000Y-88854971D01*
X141014821Y-88854971D01*
X141172058Y-89235515D01*
X141462954Y-89526919D01*
X141843223Y-89684820D01*
X142254971Y-89685179D01*
X142369995Y-89637652D01*
X142401843Y-89797765D01*
X142542191Y-90007809D01*
X142752235Y-90148157D01*
X143000000Y-90197440D01*
X144700000Y-90197440D01*
X144947765Y-90148157D01*
X145157809Y-90007809D01*
X145298157Y-89797765D01*
X145347440Y-89550000D01*
X145347440Y-87550000D01*
X145298157Y-87302235D01*
X145157809Y-87092191D01*
X144947765Y-86951843D01*
X144700000Y-86902560D01*
X143000000Y-86902560D01*
X142752235Y-86951843D01*
X142542191Y-87092191D01*
X142401843Y-87302235D01*
X142352560Y-87550000D01*
X142352560Y-87654952D01*
X142256777Y-87615180D01*
X141845029Y-87614821D01*
X141464485Y-87772058D01*
X141173081Y-88062954D01*
X141015180Y-88443223D01*
X141014821Y-88854971D01*
X140460000Y-88854971D01*
X140460000Y-84803602D01*
X145252560Y-80011042D01*
X145252560Y-80950000D01*
X145301843Y-81197765D01*
X145442191Y-81407809D01*
X145652235Y-81548157D01*
X145900000Y-81597440D01*
X146215176Y-81597440D01*
X146214821Y-82004971D01*
X146342922Y-82315000D01*
X145773690Y-82315000D01*
X145540301Y-82411673D01*
X145361673Y-82590302D01*
X145265000Y-82823691D01*
X145265000Y-83252612D01*
X145157809Y-83092191D01*
X144947765Y-82951843D01*
X144700000Y-82902560D01*
X143000000Y-82902560D01*
X142752235Y-82951843D01*
X142542191Y-83092191D01*
X142401843Y-83302235D01*
X142352560Y-83550000D01*
X142352560Y-85550000D01*
X142401843Y-85797765D01*
X142542191Y-86007809D01*
X142752235Y-86148157D01*
X143000000Y-86197440D01*
X144700000Y-86197440D01*
X144713878Y-86194680D01*
X146306000Y-87786802D01*
X146306000Y-92454399D01*
X146022832Y-92336818D01*
X145571150Y-92336424D01*
X145153699Y-92508911D01*
X144834033Y-92828019D01*
X144660818Y-93245168D01*
X144660424Y-93696850D01*
X144832911Y-94114301D01*
X145152019Y-94433967D01*
X145569168Y-94607182D01*
X145930737Y-94607497D01*
X145930424Y-94966850D01*
X146102911Y-95384301D01*
X146422019Y-95703967D01*
X146839168Y-95877182D01*
X147290850Y-95877576D01*
X147708301Y-95705089D01*
X148027967Y-95385981D01*
X148201182Y-94968832D01*
X148201497Y-94607263D01*
X148560850Y-94607576D01*
X148978301Y-94435089D01*
X149297967Y-94115981D01*
X149471182Y-93698832D01*
X149471576Y-93247150D01*
X149299089Y-92829699D01*
X148979981Y-92510033D01*
X148562832Y-92336818D01*
X148111150Y-92336424D01*
X147826000Y-92454245D01*
X147826000Y-87472000D01*
X147768148Y-87181161D01*
X147603401Y-86934599D01*
X146253802Y-85585000D01*
X146864250Y-85585000D01*
X147023000Y-85426250D01*
X147023000Y-84077000D01*
X147277000Y-84077000D01*
X147277000Y-85426250D01*
X147435750Y-85585000D01*
X148526310Y-85585000D01*
X148759699Y-85488327D01*
X148938327Y-85309698D01*
X149035000Y-85076309D01*
X149035000Y-84235750D01*
X148876250Y-84077000D01*
X147277000Y-84077000D01*
X147023000Y-84077000D01*
X147003000Y-84077000D01*
X147003000Y-83823000D01*
X147023000Y-83823000D01*
X147023000Y-83803000D01*
X147277000Y-83803000D01*
X147277000Y-83823000D01*
X148876250Y-83823000D01*
X149035000Y-83664250D01*
X149035000Y-82823691D01*
X148938327Y-82590302D01*
X148759699Y-82411673D01*
X148576261Y-82335690D01*
X150153000Y-82335690D01*
X150153000Y-83026250D01*
X150311750Y-83185000D01*
X151511000Y-83185000D01*
X151511000Y-81985750D01*
X151765000Y-81985750D01*
X151765000Y-83185000D01*
X152964250Y-83185000D01*
X153123000Y-83026250D01*
X153123000Y-82335690D01*
X153026327Y-82102301D01*
X152847698Y-81923673D01*
X152614309Y-81827000D01*
X151923750Y-81827000D01*
X151765000Y-81985750D01*
X151511000Y-81985750D01*
X151352250Y-81827000D01*
X150661691Y-81827000D01*
X150428302Y-81923673D01*
X150249673Y-82102301D01*
X150153000Y-82335690D01*
X148576261Y-82335690D01*
X148526310Y-82315000D01*
X148156835Y-82315000D01*
X148284820Y-82006777D01*
X148285177Y-81597440D01*
X148400000Y-81597440D01*
X148647765Y-81548157D01*
X148857809Y-81407809D01*
X148998157Y-81197765D01*
X149047440Y-80950000D01*
X149047440Y-79664509D01*
X149355766Y-79870526D01*
X149929255Y-79984600D01*
X150298745Y-79984600D01*
X150872234Y-79870526D01*
X151358415Y-79545670D01*
X151683271Y-79059489D01*
X151797345Y-78486000D01*
X151683271Y-77912511D01*
X151358415Y-77426330D01*
X151043634Y-77216000D01*
X151358415Y-77005670D01*
X151683271Y-76519489D01*
X151797345Y-75946000D01*
X152494655Y-75946000D01*
X152608729Y-76519489D01*
X152933585Y-77005670D01*
X153248366Y-77216000D01*
X152933585Y-77426330D01*
X152608729Y-77912511D01*
X152494655Y-78486000D01*
X152608729Y-79059489D01*
X152933585Y-79545670D01*
X153419766Y-79870526D01*
X153993255Y-79984600D01*
X154362745Y-79984600D01*
X154936234Y-79870526D01*
X155422415Y-79545670D01*
X155747271Y-79059489D01*
X155861345Y-78486000D01*
X155747271Y-77912511D01*
X155422415Y-77426330D01*
X155107634Y-77216000D01*
X155422415Y-77005670D01*
X155747271Y-76519489D01*
X155861345Y-75946000D01*
X155747271Y-75372511D01*
X155422415Y-74886330D01*
X155405434Y-74874984D01*
X155441765Y-74867757D01*
X155651809Y-74727409D01*
X155792157Y-74517365D01*
X155841440Y-74269600D01*
X155841440Y-72542400D01*
X155792157Y-72294635D01*
X155651809Y-72084591D01*
X155441765Y-71944243D01*
X155194000Y-71894960D01*
X153162000Y-71894960D01*
X152914235Y-71944243D01*
X152704191Y-72084591D01*
X152563843Y-72294635D01*
X152514560Y-72542400D01*
X152514560Y-74269600D01*
X152563843Y-74517365D01*
X152704191Y-74727409D01*
X152914235Y-74867757D01*
X152950566Y-74874984D01*
X152933585Y-74886330D01*
X152608729Y-75372511D01*
X152494655Y-75946000D01*
X151797345Y-75946000D01*
X151683271Y-75372511D01*
X151358415Y-74886330D01*
X151341434Y-74874984D01*
X151377765Y-74867757D01*
X151587809Y-74727409D01*
X151728157Y-74517365D01*
X151777440Y-74269600D01*
X151777440Y-72542400D01*
X151728157Y-72294635D01*
X151587809Y-72084591D01*
X151377765Y-71944243D01*
X151130000Y-71894960D01*
X149098000Y-71894960D01*
X148850235Y-71944243D01*
X148640191Y-72084591D01*
X148499843Y-72294635D01*
X148450560Y-72542400D01*
X148450560Y-74269600D01*
X148499843Y-74517365D01*
X148538612Y-74575386D01*
X139203683Y-83910315D01*
X139225767Y-83877264D01*
X139335000Y-83328113D01*
X139335000Y-83271887D01*
X139225767Y-82722736D01*
X138914698Y-82257189D01*
X138449151Y-81946120D01*
X137900000Y-81836887D01*
X137350849Y-81946120D01*
X136885302Y-82257189D01*
X136630000Y-82639275D01*
X136374698Y-82257189D01*
X136120000Y-82087005D01*
X136120000Y-76767684D01*
X136300629Y-76587370D01*
X136392406Y-76366344D01*
X138536501Y-76366344D01*
X138974790Y-77427086D01*
X139785645Y-78239357D01*
X140845620Y-78679498D01*
X141993344Y-78680499D01*
X143054086Y-78242210D01*
X143866357Y-77431355D01*
X144306498Y-76371380D01*
X144307499Y-75223656D01*
X143869210Y-74162914D01*
X143058355Y-73350643D01*
X141998380Y-72910502D01*
X140850656Y-72909501D01*
X139789914Y-73347790D01*
X138977643Y-74158645D01*
X138537502Y-75218620D01*
X138536501Y-76366344D01*
X136392406Y-76366344D01*
X136513757Y-76074100D01*
X136514242Y-75518339D01*
X136302010Y-75004697D01*
X135909370Y-74611371D01*
X135468497Y-74428305D01*
X135476802Y-74420000D01*
X137922000Y-74420000D01*
X138212839Y-74362148D01*
X138459401Y-74197401D01*
X140776802Y-71880000D01*
X150114000Y-71880000D01*
X150404839Y-71822148D01*
X150651401Y-71657401D01*
X151525592Y-70783210D01*
X151892000Y-70856093D01*
X152460285Y-70743054D01*
X152942054Y-70421147D01*
X152971403Y-70377223D01*
X152983843Y-70439765D01*
X153124191Y-70649809D01*
X153334235Y-70790157D01*
X153582000Y-70839440D01*
X155282000Y-70839440D01*
X155529765Y-70790157D01*
X155739809Y-70649809D01*
X155880157Y-70439765D01*
X155929440Y-70192000D01*
X155929440Y-68492000D01*
X155880157Y-68244235D01*
X155739809Y-68034191D01*
X155529765Y-67893843D01*
X155282000Y-67844560D01*
X153582000Y-67844560D01*
X153334235Y-67893843D01*
X153124191Y-68034191D01*
X152983843Y-68244235D01*
X152971403Y-68306777D01*
X152942054Y-68262853D01*
X152460285Y-67940946D01*
X151892000Y-67827907D01*
X151323715Y-67940946D01*
X150841946Y-68262853D01*
X150622000Y-68592026D01*
X150402054Y-68262853D01*
X149920285Y-67940946D01*
X149352000Y-67827907D01*
X148783715Y-67940946D01*
X148301946Y-68262853D01*
X147980039Y-68744622D01*
X147867000Y-69312907D01*
X147867000Y-69371093D01*
X147980039Y-69939378D01*
X148261089Y-70360000D01*
X140462000Y-70360000D01*
X140219414Y-70408254D01*
X140171160Y-70417852D01*
X139924599Y-70582599D01*
X137607198Y-72900000D01*
X135336873Y-72900000D01*
X135157010Y-72464697D01*
X134764370Y-72071371D01*
X134251100Y-71858243D01*
X133695339Y-71857758D01*
X133181697Y-72069990D01*
X132871804Y-72379342D01*
X132564370Y-72071371D01*
X132051100Y-71858243D01*
X131495339Y-71857758D01*
X130981697Y-72069990D01*
X130588371Y-72462630D01*
X130582248Y-72477375D01*
X130577010Y-72464697D01*
X130184370Y-72071371D01*
X129671100Y-71858243D01*
X129382793Y-71857991D01*
X129137601Y-71612799D01*
X128891039Y-71448052D01*
X128600200Y-71390200D01*
X126161431Y-71390200D01*
X126352919Y-71199046D01*
X126510820Y-70818777D01*
X126511179Y-70407029D01*
X126353942Y-70026485D01*
X126063046Y-69735081D01*
X125682777Y-69577180D01*
X125271029Y-69576821D01*
X124890485Y-69734058D01*
X124772337Y-69852000D01*
X113733761Y-69852000D01*
X113617046Y-69735081D01*
X113236777Y-69577180D01*
X112825029Y-69576821D01*
X112444485Y-69734058D01*
X112153081Y-70024954D01*
X111995180Y-70405223D01*
X111994821Y-70816971D01*
X112152058Y-71197515D01*
X112442954Y-71488919D01*
X112823223Y-71646820D01*
X113111427Y-71647071D01*
X109565748Y-75192750D01*
X109537147Y-75149946D01*
X109207974Y-74930000D01*
X109537147Y-74710054D01*
X109859054Y-74228285D01*
X109972093Y-73660000D01*
X109859054Y-73091715D01*
X109537147Y-72609946D01*
X109493223Y-72580597D01*
X109667698Y-72508327D01*
X109846327Y-72329699D01*
X109943000Y-72096310D01*
X109943000Y-71405750D01*
X109784250Y-71247000D01*
X108585000Y-71247000D01*
X108585000Y-71267000D01*
X108331000Y-71267000D01*
X108331000Y-71247000D01*
X107131750Y-71247000D01*
X106973000Y-71405750D01*
X106973000Y-72096310D01*
X107069673Y-72329699D01*
X107248302Y-72508327D01*
X107422777Y-72580597D01*
X107378853Y-72609946D01*
X107056946Y-73091715D01*
X106943907Y-73660000D01*
X106710000Y-73660000D01*
X106710000Y-70143690D01*
X106973000Y-70143690D01*
X106973000Y-70834250D01*
X107131750Y-70993000D01*
X108331000Y-70993000D01*
X108331000Y-69793750D01*
X108585000Y-69793750D01*
X108585000Y-70993000D01*
X109784250Y-70993000D01*
X109943000Y-70834250D01*
X109943000Y-70143690D01*
X109846327Y-69910301D01*
X109667698Y-69731673D01*
X109434309Y-69635000D01*
X108743750Y-69635000D01*
X108585000Y-69793750D01*
X108331000Y-69793750D01*
X108172250Y-69635000D01*
X107481691Y-69635000D01*
X107248302Y-69731673D01*
X107069673Y-69910301D01*
X106973000Y-70143690D01*
X106710000Y-70143690D01*
X106710000Y-65710000D01*
X156074079Y-65710000D01*
X156290000Y-97639263D01*
M02*
