G04 #@! TF.GenerationSoftware,KiCad,Pcbnew,(2017-09-22 revision df472e6)-master*
G04 #@! TF.CreationDate,2018-05-20T18:50:23-07:00*
G04 #@! TF.ProjectId,ody_adap,6F64795F616461702E6B696361645F70,rev?*
G04 #@! TF.SameCoordinates,Original*
G04 #@! TF.FileFunction,Soldermask,Bot*
G04 #@! TF.FilePolarity,Negative*
%FSLAX46Y46*%
G04 Gerber Fmt 4.6, Leading zero omitted, Abs format (unit mm)*
G04 Created by KiCad (PCBNEW (2017-09-22 revision df472e6)-master) date Sun May 20 18:50:23 2018*
%MOMM*%
%LPD*%
G01*
G04 APERTURE LIST*
%ADD10C,4.900000*%
%ADD11C,1.924000*%
%ADD12R,3.900120X3.900120*%
%ADD13O,2.432000X2.127200*%
%ADD14R,2.432000X2.127200*%
%ADD15O,2.127200X2.127200*%
%ADD16R,2.127200X2.127200*%
%ADD17C,1.400760*%
%ADD18O,2.000000X2.000000*%
%ADD19C,1.400000*%
%ADD20R,1.400000X1.400000*%
%ADD21R,2.100000X2.100000*%
%ADD22O,2.100000X2.100000*%
G04 APERTURE END LIST*
D10*
X118787000Y-75795000D03*
X141422000Y-75795000D03*
D11*
X124812000Y-73255000D03*
X127102000Y-73255000D03*
X129392000Y-73255000D03*
X131772000Y-73255000D03*
X133972000Y-73255000D03*
X125957000Y-75795000D03*
X128247000Y-75795000D03*
X130537000Y-75795000D03*
X132827000Y-75795000D03*
X135117000Y-75795000D03*
X124812000Y-78335000D03*
X127102000Y-78335000D03*
X129392000Y-78335000D03*
X131682000Y-78335000D03*
X134002000Y-78325000D03*
D12*
X111150000Y-113799860D03*
X111150000Y-119799340D03*
X115849000Y-116799600D03*
D13*
X150114000Y-78486000D03*
X150114000Y-75946000D03*
D14*
X150114000Y-73406000D03*
X154178000Y-73406000D03*
D13*
X154178000Y-75946000D03*
X154178000Y-78486000D03*
D14*
X121250000Y-121500000D03*
D13*
X121250000Y-118960000D03*
X121250000Y-116420000D03*
X155050000Y-115970000D03*
X155050000Y-118510000D03*
D14*
X155050000Y-121050000D03*
D15*
X142530000Y-119190000D03*
X142530000Y-116650000D03*
X145070000Y-119190000D03*
X145070000Y-116650000D03*
X147610000Y-119190000D03*
X147610000Y-116650000D03*
X150150000Y-119190000D03*
D16*
X150150000Y-116650000D03*
X135382000Y-114808000D03*
D15*
X135382000Y-117348000D03*
X132842000Y-114808000D03*
X132842000Y-117348000D03*
X130302000Y-114808000D03*
X130302000Y-117348000D03*
X127762000Y-114808000D03*
X127762000Y-117348000D03*
D16*
X149860000Y-109728000D03*
D15*
X149860000Y-112268000D03*
X147320000Y-109728000D03*
X147320000Y-112268000D03*
X144780000Y-109728000D03*
X144780000Y-112268000D03*
X142240000Y-109728000D03*
X142240000Y-112268000D03*
D14*
X108450000Y-89150000D03*
D13*
X108450000Y-91690000D03*
X108450000Y-94230000D03*
D14*
X114550000Y-99950000D03*
D13*
X114550000Y-97410000D03*
X114550000Y-94870000D03*
X108600000Y-98670000D03*
X108600000Y-101210000D03*
D14*
X108600000Y-103750000D03*
D17*
X148336000Y-93472000D03*
X145796000Y-93472000D03*
X147066000Y-94742000D03*
X140970000Y-95250000D03*
X139700000Y-93980000D03*
X142240000Y-93980000D03*
D18*
X137900000Y-83300000D03*
X135360000Y-83300000D03*
X132820000Y-83300000D03*
X130280000Y-83300000D03*
X127740000Y-83300000D03*
X125200000Y-83300000D03*
X122660000Y-83300000D03*
X120120000Y-83300000D03*
X120120000Y-90920000D03*
X122660000Y-90920000D03*
X125200000Y-90920000D03*
X127740000Y-90920000D03*
X130280000Y-90920000D03*
X132820000Y-90920000D03*
X135360000Y-90920000D03*
X137900000Y-90920000D03*
X137800000Y-111020000D03*
X135260000Y-111020000D03*
X132720000Y-111020000D03*
X130180000Y-111020000D03*
X127640000Y-111020000D03*
X125100000Y-111020000D03*
X122560000Y-111020000D03*
X120020000Y-111020000D03*
X120020000Y-103400000D03*
X122560000Y-103400000D03*
X125100000Y-103400000D03*
X127640000Y-103400000D03*
X130180000Y-103400000D03*
X132720000Y-103400000D03*
X135260000Y-103400000D03*
X137800000Y-103400000D03*
D19*
X145034000Y-104648000D03*
X143764000Y-103378000D03*
D20*
X146304000Y-103378000D03*
D21*
X151638000Y-83312000D03*
D22*
X151638000Y-85852000D03*
X151638000Y-88392000D03*
X151638000Y-90932000D03*
X151638000Y-93472000D03*
X151638000Y-96012000D03*
D21*
X154432000Y-69342000D03*
D22*
X151892000Y-69342000D03*
X149352000Y-69342000D03*
D21*
X108458000Y-71120000D03*
D22*
X108458000Y-73660000D03*
X108458000Y-76200000D03*
X108458000Y-78740000D03*
X108458000Y-81280000D03*
M02*
