G04 #@! TF.GenerationSoftware,KiCad,Pcbnew,(2017-09-22 revision df472e6)-master*
G04 #@! TF.CreationDate,2017-12-26T12:10:05-08:00*
G04 #@! TF.ProjectId,ody_adap,6F64795F616461702E6B696361645F70,rev?*
G04 #@! TF.SameCoordinates,Original*
G04 #@! TF.FileFunction,Paste,Top*
G04 #@! TF.FilePolarity,Positive*
%FSLAX46Y46*%
G04 Gerber Fmt 4.6, Leading zero omitted, Abs format (unit mm)*
G04 Created by KiCad (PCBNEW (2017-09-22 revision df472e6)-master) date Tue Dec 26 12:10:05 2017*
%MOMM*%
%LPD*%
G01*
G04 APERTURE LIST*
%ADD10R,2.000000X2.500000*%
%ADD11R,2.000000X1.600000*%
%ADD12R,2.500000X2.000000*%
%ADD13R,1.000000X1.600000*%
%ADD14R,0.800100X0.800100*%
%ADD15R,2.000000X1.700000*%
%ADD16R,1.700000X2.000000*%
G04 APERTURE END LIST*
D10*
X103100000Y-124300000D03*
X107100000Y-124300000D03*
X126300000Y-85100000D03*
X130300000Y-85100000D03*
D11*
X113600000Y-129300000D03*
X117600000Y-129300000D03*
D12*
X129350000Y-102800000D03*
X129350000Y-98800000D03*
D10*
X103700000Y-74750000D03*
X99700000Y-74750000D03*
D11*
X106800000Y-120150000D03*
X102800000Y-120150000D03*
D10*
X103950000Y-69150000D03*
X99950000Y-69150000D03*
X104450000Y-129250000D03*
X108450000Y-129250000D03*
D13*
X116550000Y-84850000D03*
X113550000Y-84850000D03*
D14*
X125250000Y-118401780D03*
X126200000Y-120400760D03*
X124300000Y-120400760D03*
X124150000Y-108300760D03*
X126050000Y-108300760D03*
X125100000Y-106301780D03*
D15*
X123700000Y-124900000D03*
X127700000Y-124900000D03*
X127800000Y-113700000D03*
X123800000Y-113700000D03*
D16*
X122450000Y-57450000D03*
X122450000Y-61450000D03*
X126450000Y-61600000D03*
X126450000Y-57600000D03*
X122400000Y-79600000D03*
X122400000Y-75600000D03*
X126100000Y-75800000D03*
X126100000Y-79800000D03*
D15*
X124700000Y-94600000D03*
X120700000Y-94600000D03*
X114200000Y-88500000D03*
X110200000Y-88500000D03*
X124800000Y-98700000D03*
X120800000Y-98700000D03*
X120200000Y-89150000D03*
X124200000Y-89150000D03*
X110500000Y-94500000D03*
X114500000Y-94500000D03*
X114500000Y-98600000D03*
X110500000Y-98600000D03*
M02*
