%TF.GenerationSoftware,KiCad,Pcbnew,(2017-09-22 revision df472e6)-master*%
%TF.CreationDate,2018-05-20T17:38:45-07:00*%
%TF.ProjectId,ody_adap,6F64795F616461702E6B696361645F70,rev?*%
%TF.SameCoordinates,Original*%
%TF.FileFunction,Paste,Top*%
%TF.FilePolarity,Positive*%
%FSLAX46Y46*%
G04 Gerber Fmt 4.6, Leading zero omitted, Abs format (unit mm)*
G04 Created by KiCad (PCBNEW (2017-09-22 revision df472e6)-master) date Sun May 20 17:38:45 2018*
%MOMM*%
%LPD*%
G01*
G04 APERTURE LIST*
%ADD10R,2.000000X1.700000*%
%ADD11R,2.000000X2.500000*%
%ADD12R,1.600000X2.000000*%
%ADD13R,2.500000X2.000000*%
%ADD14R,1.600000X1.000000*%
%ADD15R,1.700000X2.000000*%
G04 APERTURE END LIST*
D10*
X145950000Y-122100000D03*
X149950000Y-122100000D03*
D11*
X112100000Y-108850000D03*
X108100000Y-108850000D03*
X111300000Y-103750000D03*
X115300000Y-103750000D03*
D12*
X111400000Y-79300000D03*
X111400000Y-83300000D03*
D13*
X154800000Y-108100000D03*
X154800000Y-112100000D03*
X147150000Y-83950000D03*
X147150000Y-79950000D03*
D12*
X115550000Y-106950000D03*
X115550000Y-110950000D03*
D13*
X114550000Y-85250000D03*
X114550000Y-89250000D03*
X154700000Y-100350000D03*
X154700000Y-104350000D03*
D14*
X150350000Y-102650000D03*
X150350000Y-105650000D03*
D15*
X143850000Y-88550000D03*
X143850000Y-84550000D03*
D10*
X124700000Y-122000000D03*
X128700000Y-122000000D03*
X131650000Y-122200000D03*
X135650000Y-122200000D03*
X138950000Y-122100000D03*
X142950000Y-122100000D03*
X137750000Y-100700000D03*
X141750000Y-100700000D03*
X139350000Y-97900000D03*
X135350000Y-97900000D03*
X132850000Y-94500000D03*
X136850000Y-94500000D03*
X125950000Y-100650000D03*
X129950000Y-100650000D03*
X127700000Y-97500000D03*
X123700000Y-97500000D03*
X121200000Y-94500000D03*
X125200000Y-94500000D03*
M02*
